<svg xmlns="http://www.w3.org/2000/svg" width="200" height="100" viewBox="0 0 200 100"><g transform="translate(-165 -287.699)"><rect width="200" height="100" transform="translate(165 287.699)" fill="none"/><g transform="translate(-9 -19)"><g transform="translate(-10.465 289.651)"><path d="M258.806,86.237h.886v9h-.886Zm7.238,5.006v.3h-3.573v.366c0,1.355.678,2.725,2.2,2.725a4.865,4.865,0,0,0,1.225-.17v.73a4.735,4.735,0,0,1-1.421.182c-2.15,0-3.024-1.434-3.024-3.454,0-1.617.6-3.038,2.425-3.038A2.09,2.09,0,0,1,266.043,91.243Zm-1.018-.443a1.139,1.139,0,0,0-1.185-1.174,1.292,1.292,0,0,0-1.3,1.174Zm-7.931,1.394c0,1.63-.612,3.181-2.49,3.181-1.746,0-2.32-1.147-2.32-2.7v-6.44h.886v3.82h.027a1.7,1.7,0,0,1,1.681-1.174C256.664,88.883,257.094,90.748,257.094,92.194Zm-1.017-.026c0-.848-.209-2.542-1.369-2.542-1.251,0-1.538,1.812-1.538,2.751s.209,2.256,1.408,2.256C255.817,94.633,256.078,93.146,256.078,92.169Zm19.761-2.034h-3.716v-3.9h-1.017v9h1.017v-4.25h3.716v4.25h1.017v-9h-1.017Zm12.927.743v4.355h-.861v-.821h-.026a2.19,2.19,0,0,1-1.9.964,1.56,1.56,0,0,1-1.67-1.733c0-1.421,1.813-1.93,2.959-1.93a3.263,3.263,0,0,0,.613-.039v-.131c0-.925.052-1.916-1.174-1.916-.743,0-1.16.247-1.264.991h-.991c.039-1.238,1.108-1.734,2.229-1.734C288.088,88.883,288.766,89.484,288.766,90.878Zm-.886,1.538h-.522c-.782,0-2.034.326-2.034,1.317a.85.85,0,0,0,.873.9,1.648,1.648,0,0,0,1.448-.965A2.531,2.531,0,0,0,287.879,92.416Zm-50.232,1.512h-.026l-1.826-4.9h-.951l2.346,6.2h.9l2.1-6.2h-.951Zm3.77,1.3h.886v-6.2h-.886Zm-9.3-6.349a1.922,1.922,0,0,0-1.942,1.578h-.027V89.027h-.886v6.2h.886V92.677c0-.965.522-2.908,1.76-2.908,1.031,0,.913,1.33.913,2.021v3.441h.886V90.8C233.707,89.822,233.2,88.883,232.116,88.883Zm-6.1,6.349h1.017v-9h-1.017Zm23.232-7.822h1.173V86.237h-1.173Zm.143,7.822h.886v-6.2h-.886Zm-2.91-3.507-.522-.313c-.365-.222-1.121-.469-1.121-.978,0-.6.769-.808,1.252-.808a4.317,4.317,0,0,1,1.447.287v-.822a6.085,6.085,0,0,0-1.461-.209c-1.068,0-2.125.43-2.125,1.643,0,.952.678,1.3,1.408,1.681l.56.3c.456.247,1.121.5,1.121,1.122,0,.821-.847,1-1.512,1a5.18,5.18,0,0,1-1.6-.326v.808a5.8,5.8,0,0,0,1.694.26c1.239,0,2.307-.482,2.307-1.877C247.925,92.495,247.247,92.181,246.478,91.725Zm-5.2-4.315h1.174V86.237h-1.174Zm41.908,3.833v.3H279.61v.366c0,1.355.679,2.725,2.2,2.725a4.88,4.88,0,0,0,1.226-.17v.73a4.739,4.739,0,0,1-1.421.182c-2.151,0-3.025-1.434-3.025-3.454,0-1.617.6-3.038,2.425-3.038A2.09,2.09,0,0,1,283.183,91.243Zm-1.017-.443a1.14,1.14,0,0,0-1.187-1.174,1.292,1.292,0,0,0-1.3,1.174Zm50.873-3.39h1.174V86.237H333.04Zm5.256,2.216c.782,0,1.108.56,1.108,1.291h1.056a1.892,1.892,0,0,0-2.126-2.034c-1.9,0-2.529,1.408-2.529,3.1,0,2.087,1.056,3.39,3.194,3.39a4.746,4.746,0,0,0,1.291-.169v-.7a3.2,3.2,0,0,1-1,.13c-1.76,0-2.465-1.239-2.465-2.842C336.822,90.865,337.161,89.627,338.3,89.627Zm-5.113,5.606h.888v-6.2h-.888Zm-3.77-1.3h-.026l-1.826-4.9h-.951l2.346,6.2h.9l2.1-6.2H331Zm-3.483-2.685v.3h-3.572v.366c0,1.355.678,2.725,2.2,2.725a4.872,4.872,0,0,0,1.225-.17v.73a4.739,4.739,0,0,1-1.421.182c-2.151,0-3.024-1.434-3.024-3.454,0-1.617.6-3.038,2.425-3.038A2.09,2.09,0,0,1,325.929,91.243Zm-1.018-.443a1.14,1.14,0,0,0-1.187-1.174,1.293,1.293,0,0,0-1.3,1.174Zm17.494.742v.366c0,1.355.678,2.725,2.2,2.725a4.872,4.872,0,0,0,1.225-.17v.73a4.735,4.735,0,0,1-1.421.182c-2.15,0-3.024-1.434-3.024-3.454,0-1.617.6-3.038,2.425-3.038a2.09,2.09,0,0,1,2.164,2.36v.3Zm.066-.742h2.489a1.14,1.14,0,0,0-1.187-1.174A1.292,1.292,0,0,0,342.471,90.8Zm-47.585-3.39h1.174V86.237h-1.174Zm6.064,1.473a1.924,1.924,0,0,0-1.943,1.578h-.026V89.027h-.886v6.2h.886V92.677c0-.965.522-2.908,1.76-2.908,1.031,0,.912,1.33.912,2.021v3.441h.886V90.8C302.539,89.822,302.032,88.883,300.95,88.883Zm-5.921,6.349h.886v-6.2h-.886Zm25.016-4.523c0,1.707-.313,3.65-2.139,4.276a5.764,5.764,0,0,1-1.877.247h-1.694v-9h2.02C319.25,86.237,320.045,88.114,320.045,90.709Zm-1.108.013c0-1.278-.13-2.921-1.538-3.442a4.3,4.3,0,0,0-1.474-.195h-.573v7.3h.691a3.788,3.788,0,0,0,1.525-.247C318.82,93.551,318.937,91.921,318.937,90.722Zm-27.183-.5h-.026v-1.2h-.886v6.2h.886V92.664c0-1.344.5-2.829,2.1-2.829v-.952A2.084,2.084,0,0,0,291.754,90.226Zm16.174-1.2h.886v6.218c0,1.773-.847,2.7-2.633,2.7a7.92,7.92,0,0,1-1.681-.209v-.9a3.394,3.394,0,0,0,1.551.365c1.434,0,1.877-.743,1.877-2.06v-1.1H307.9a1.678,1.678,0,0,1-1.643,1.187c-1.708,0-2.1-1.668-2.1-3.064,0-1.343.416-3.285,2.125-3.285a1.629,1.629,0,0,1,1.617,1.161h.026Zm0,2.985c0-.861-.352-2.386-1.46-2.386-1.148,0-1.291,1.747-1.291,2.555s.156,2.307,1.264,2.307C307.576,94.489,307.928,92.9,307.928,92.013Z" transform="translate(0.012 4.104)" fill="#fff"/><g transform="translate(225.86 32.048)"><path d="M320.425,33.145h4.22v.761H323.01v5.8h-.95v-5.8h-1.635Zm10.056,0-1.862,5.37H328.6l-1.863-5.37H325.4V39.7h.855V34.267h.018l1.883,5.436h.9l1.881-5.436h.019V39.7h.855V33.145Z" transform="translate(-218.698 -31.965)" fill="#fff"/><path d="M271.984,41.781h.005V73.948h-.005c-.142,5.47-4.935,8.915-10.683,8.953h-.1c-5.587-.039-10.153-3.316-10.174-8.906v-.041h0a2.173,2.173,0,0,1,4.343-.105h0c0,3.289,2.7,4.692,5.986,4.706,3.285-.014,6.287-1.418,6.287-4.706V66.808a12.52,12.52,0,0,1-6.341,1.674v0h-.1v0c-5.515-.039-10.035-3.233-10.172-8.69h0V41.781h0a2.174,2.174,0,0,1,4.339,0h0V59.43c0,3.285,2.7,4.691,5.979,4.707,3.289-.013,6.294-1.417,6.294-4.707V41.781h0a2.174,2.174,0,0,1,4.34,0Zm31.479-2.029a2.173,2.173,0,0,0-2.17,2.045h0v24h0l0,.129a2.174,2.174,0,1,0,4.347,0l-.005-.129h.005v-24h-.005A2.173,2.173,0,0,0,303.463,39.752Zm-10.789.056h-2.307a10.228,10.228,0,0,0-10.225,10.056h0V66.034h.005a2.17,2.17,0,0,0,4.338,0h0V50.547a6.476,6.476,0,0,1,1.862-4.639,5.968,5.968,0,0,1,4.23-1.753h2.1a2.174,2.174,0,0,0,0-4.347Zm32.132,4.033.052-.031.023-.013v0l.256-.184a2.17,2.17,0,0,0,.767-1.571v-.174a2.174,2.174,0,0,0-3.2-1.831l0,0-.083.046a15.645,15.645,0,0,0,.128,27.81,2.176,2.176,0,0,0,3.154-1.851v-.174a2.171,2.171,0,0,0-1.088-1.8l0-.006a11.562,11.562,0,0,1-6.338-10.132C318.482,49.3,321.263,45.893,324.807,43.841ZM244.775,63.752v-.005h-8.268a6.472,6.472,0,0,1-4.553-1.863,5.962,5.962,0,0,1-1.752-4.272V34.349h0l0-.128a2.174,2.174,0,0,0-4.342-.165V58.224a10.227,10.227,0,0,0,9.967,9.867v0h8.948v0a2.173,2.173,0,0,0,0-4.338Z" transform="translate(-225.86 -32.048)" fill="#fff"/></g></g></g></g></svg>