<svg xmlns="http://www.w3.org/2000/svg" xmlns:xlink="http://www.w3.org/1999/xlink" width="200" height="100" viewBox="0 0 200 100"><defs><clipPath id="a"><path d="M51.55,324.513h170v-63.9h-170v63.9" transform="translate(-51.55 -260.609)" fill="#fff"/></clipPath></defs><g transform="translate(-164.5 -291.5)"><rect width="200" height="100" transform="translate(164.5 291.5)" fill="none"/><g transform="translate(8 -6.316)"><g transform="translate(119.949 55.208)"><g transform="translate(51.55 260.609)" clip-path="url(#a)"><path d="M109.045,281.557c.109-.114,11.049-11.305,26.522-4.764S150.6,299.1,150.59,299.256l-.661,0c0-.127-.8-12.559-15.858-18.924s-24.474,1.614-24.569,1.7l-.456-.479m10.361-7.184.37.385c.062-.06,6.634-5.624,17.151-1.175S147.994,286.7,148,286.786l.534,0c0-.111.321-11.165-10.528-15.751a17.174,17.174,0,0,0-18.6,3.339m5.855-5.185.267.285c.053-.045,5.185-4.315,13.476-.81s8.78,10.23,8.785,10.3l.392-.007a13.687,13.687,0,0,0-22.92-9.765m4.684-4.076.171.185c.04-.033,4.014-3.25,10.546-.494s6.97,7.908,6.977,7.961l.249-.007a10.835,10.835,0,0,0-17.944-7.645m8.631-3.408.085.1c.013-.009,1.126-.721,3.159.134s2.289,2.173,2.293,2.186l.131-.009a3.46,3.46,0,0,0-5.668-2.413m-14.092,26.9a6.075,6.075,0,0,0,10.25,4.366l-.329-.4c-.024.011-1.944,1.231-5.446-.249s-3.949-3.733-3.956-3.756Z" transform="translate(18.956 -260.281)" fill="#fff"/><path d="M57.832,298.55c-.908,2.155.111,2.914,2.912,2.914l0,.9h-9.2v-.9c3.3,0,3.531-.931,4.715-3.346l8.645-20h.514l8.683,20c1.222,2.416,1.416,3.346,4.673,3.346l0,.9H67.9v-.9c3.012-.009,3.727-.813,2.932-2.85l-1.859-4.292H59.659Zm6.432-14.881-3.869,8.945,7.8,0Zm27.072,17.5c-2.994,0-5.04-1.71-5.04-5.423v-6.067c0-4.27.557-4.953,3.375-4.953v-.855H79.887v.855c2.863,0,3.373.683,3.373,4.953v5.768c0,5,3.417,7.6,7.6,7.6s7.645-2.6,7.645-7.6v-5.768c0-4.27.552-4.953,3.375-4.953v-.855H93.17v.855c2.865,0,3.375.683,3.375,4.953v6.067c0,3.714-2.22,5.423-5.21,5.423m15.887.343c2.863,0,3.375-.728,3.375-5v-6.835c0-4.27-.512-4.953-3.375-4.953v-.855h9.057c7.26,0,10.421,4.185,10.421,9.226,0,5.085-3.161,9.27-10.421,9.27h-9.057Zm9.183-16.1h-2.776v12.131c0,2.776.3,3.244,2.436,3.244h.341c5.639,0,6.75-4.27,6.75-7.687,0-3.373-1.111-7.687-6.75-7.687m25.883,16.958v-.855c-2.861,0-3.371-.728-3.371-5v-6.835c0-4.27.51-4.953,3.371-4.953v-.855h-9.782v.855c2.863,0,3.375.683,3.375,4.953v6.835c0,4.27-.512,5-3.375,5v.855Zm6.621-.857c2.859,0,3.373-.726,3.373-5v-6.835c0-4.27-.514-4.953-3.373-4.953v-.853h9.01c4.016,0,6.151,2.05,6.151,4.7a4.692,4.692,0,0,1-1.839,3.673,5.213,5.213,0,0,1,3.333,4.869c0,2.988-2.4,5.252-6.792,5.252h-9.862Zm9.01-16.1h-2.6v6.363h2.6a2.878,2.878,0,0,0,2.994-3.115,2.962,2.962,0,0,0-2.994-3.248m.939,8.073h-3.544v4.059c0,2.776.3,3.244,2.6,3.244h.939a3.348,3.348,0,0,0,3.589-3.629,3.382,3.382,0,0,0-3.589-3.673m28.4,4.568c-.51,2.01-1.066,2.734-4.951,2.734h-.514c-2.861,0-3.373-.684-3.373-4.956v-2.476h.254c4.27,0,4.613.557,4.613,3.373h.855v-8.329h-.855c0,2.863-.343,3.375-4.613,3.375h-.254v-6.363h2.859c3.889,0,4.441.768,4.913,2.734l.214.853h.895l-.341-5.123H172.009v.853c2.863,0,3.38.683,3.38,4.953v6.835c0,4.27-.516,5-3.38,5v.855h15.978l.343-5.167h-.857l-.214.853m7.943-13.324c2.861,0,3.373.683,3.373,4.956v6.833c0,4.27-.512,5-3.373,5v.857h17.044l.3-5.169h-.895l-.214.853c-.514,2.01-1.026,2.734-4.953,2.734h-1.5c-2.861,0-3.377-.684-3.377-4.956v-6.147c0-4.272.516-4.956,3.377-4.956v-.853H195.2v.853" transform="translate(-51.551 -239.14)" fill="#fff"/></g></g></g></g></svg>