<svg xmlns="http://www.w3.org/2000/svg" width="200" height="100" viewBox="0 0 200 100"><g transform="translate(-165 -291.32)"><rect width="200" height="100" transform="translate(165 291.32)" fill="none"/><g transform="translate(150.666 -13.318)"><g transform="translate(-24.199 68.238)"><path d="M247,364.8v.68h2.788v6.766h.612V365.48h2.89v-.68Z" transform="translate(-152.055 -65.604)" fill="#f58220"/><path d="M276.482,371.6v2.21h-3.57V371.6H272.3v5.134h.612v-2.312h3.57v2.312h.68V371.6Z" transform="translate(-168.753 -70.092)" fill="#f58220"/><path d="M295.3,371.6v5.134h4.658v-.68H295.98V374.49h2.176v-.68H295.98v-1.53h3.842v-.68Z" transform="translate(-183.933 -70.092)" fill="#f58220"/><rect width="0.68" height="7.378" transform="translate(122.655 299.264)" fill="#f58220"/><path d="M344.318,371.6v4.114L340.68,371.6H340v5.134h.68V372.62l3.638,4.114H345V371.6Z" transform="translate(-213.435 -70.092)" fill="#f58220"/><rect width="3.298" height="0.68" transform="translate(134.623 303.752)" fill="#f58220"/><path d="M382,365v7.378h6.46v-.68h-5.746v-2.822h2.992v-.68h-2.992V365.68h5.474V365Z" transform="translate(-241.155 -65.736)" fill="#f58220"/><path d="M407.83,372.28l1.36,2.55h-2.822Zm-.272-.68-2.958,5.134h.68l.748-1.292h3.57l.68,1.292h.748l-2.958-5.134Z" transform="translate(-256.071 -70.092)" fill="#f58220"/><g transform="translate(53.533 265.4)"><path d="M433.086,373.1q0-.816-1.224-.816h-2.55v1.7h2.55c.816,0,1.224-.272,1.224-.884m.85,3.638h-.816l-1.5-2.04H429.38v2.04h-.68V371.6h3.23a4.593,4.593,0,0,1,.952.136,1.735,1.735,0,0,1,.68.476,1.367,1.367,0,0,1,.272.884,1.335,1.335,0,0,1-.34,1.02,2.366,2.366,0,0,1-1.02.476Z" transform="translate(-325.51 -335.492)" fill="#f58220" fill-rule="evenodd"/><path d="M468.958,372.378H462.6V365h6.154v.68H463.28V368.2h2.958v.68H463.28V371.7h5.678Z" transform="translate(-347.884 -331.136)" fill="#f58220" fill-rule="evenodd"/><path d="M491.088,376.734H490.1l-2.108-2.244-2.176,2.244H484.9l2.618-2.754-2.278-2.38h.918l1.836,1.9,1.768-1.9h.952l-2.312,2.38Z" transform="translate(-362.602 -335.492)" fill="#f58220" fill-rule="evenodd"/><path d="M512.218,373.166a.847.847,0,0,0-.272-.748,1.7,1.7,0,0,0-.884-.2H508.58v1.836h2.482a1.882,1.882,0,0,0,.612-.068,1.423,1.423,0,0,0,.408-.272,1.281,1.281,0,0,0,.136-.544m.68,0a1.36,1.36,0,0,1-.544,1.156,1.961,1.961,0,0,1-1.292.408H508.58v1.9h-.68V371.5h3.162a1.841,1.841,0,0,1,1.292.408,1.614,1.614,0,0,1,.544,1.258" transform="translate(-377.782 -335.426)" fill="#f58220" fill-rule="evenodd"/><path d="M533.59,376.734H529V371.6h4.522v.68h-3.91v1.5h2.278v.714h-2.278v1.564h3.978Z" transform="translate(-391.708 -335.492)" fill="#f58220" fill-rule="evenodd"/><path d="M554.522,373.1c0-.544-.408-.816-1.292-.816h-2.55v1.7H553.2c.884,0,1.326-.272,1.326-.884m.816,3.638h-.884l-1.428-2.04H550.68v2.04H550V371.6h3.23a4.014,4.014,0,0,1,.952.136,2.026,2.026,0,0,1,.748.476,1.367,1.367,0,0,1,.272.884,1.384,1.384,0,0,1-.408,1.02,2.041,2.041,0,0,1-1.02.476Z" transform="translate(-405.568 -335.492)" fill="#f58220" fill-rule="evenodd"/><path d="M575.094,372.28h-2.04v4.454h-.714V372.28H570.3v-.68h4.794Z" transform="translate(-418.966 -335.492)" fill="#f58220" fill-rule="evenodd"/><path d="M594.208,374.976a1.1,1.1,0,0,1-.34.952,2.192,2.192,0,0,1-.952.544,5.95,5.95,0,0,1-1.088.136,6.85,6.85,0,0,1-1.7-.2,4.684,4.684,0,0,1-.544-.2l-.408-.2a3.907,3.907,0,0,1-.476-.272l.34-.612a1.485,1.485,0,0,0,.34.2,2.654,2.654,0,0,0,1.088.476,4.186,4.186,0,0,0,1.292.136,3.85,3.85,0,0,0,1.224-.2.674.674,0,0,0,.544-.748.6.6,0,0,0-.34-.612,2.294,2.294,0,0,0-.816-.272h-1.564a1.811,1.811,0,0,1-.816-.2,1.554,1.554,0,0,1-.68-.476,1.426,1.426,0,0,1-.272-.748,1.371,1.371,0,0,1,.2-.748,1.832,1.832,0,0,1,.544-.476,2.411,2.411,0,0,1,.748-.2,2.891,2.891,0,0,1,.748-.136,5.178,5.178,0,0,1,1.428.2,3.361,3.361,0,0,1,1.224.544l-.34.612a3.787,3.787,0,0,0-1.02-.544,6.1,6.1,0,0,0-1.224-.136c-.272,0-.476.068-.748.068a2.417,2.417,0,0,0-.612.272.707.707,0,0,0-.272.544.693.693,0,0,0,.34.544,1.371,1.371,0,0,0,.748.2h1.428a2.4,2.4,0,0,1,.952.2,2.809,2.809,0,0,1,.748.476,1.367,1.367,0,0,1,.272.884" transform="translate(-431.11 -335.162)" fill="#f58220" fill-rule="evenodd"/><path d="M355.56,279.784v7.378c0,5.406,2.448,8.5,7.582,8.5,1.36,0,3.91-.272,5.2-1.156l-1.156-5.134c-1.156.748-3.91.952-3.91-1.5v-8.092h4.93V273.9h-4.93V267l-7.752,2.686c0,1.428.068,2.89,0,4.318H352.5v5.814h3.06Z" transform="translate(-275.218 -266.456)" fill="#f58220" fill-rule="evenodd"/><path d="M411.175,307.94c6.222,0,12.1-4.522,12.172-11.084,0-7.242-5.678-11.356-12.58-11.356-6.63,0-12.036,4.454-11.968,11.356,0,6.562,6.222,11.084,12.376,11.084m-5.406-11.118c-.2-3.5,2.448-5.2,5.134-5.2,2.72,0,5.542,1.768,5.474,5.2-.34,6.8-10.4,6.12-10.608,0" transform="translate(-305.775 -278.666)" fill="#f58220" fill-rule="evenodd"/><path d="M609.264,274.634h-.748v1.36h.748a1.307,1.307,0,0,0,.816-.2c.136-.068.2-.2.2-.476a.67.67,0,0,0-.2-.544,2.538,2.538,0,0,0-.816-.136m.068-.408a1.7,1.7,0,0,1,1.156.272.931.931,0,0,1,.136,1.428.915.915,0,0,1-.612.34l.816,1.7h-.612l-.816-1.632h-.884v1.632h-.544v-3.774h1.36Zm2.822,1.972a2.82,2.82,0,0,1-.2,1.088,2.072,2.072,0,0,1-.612.884,2.255,2.255,0,0,1-.952.68,3.081,3.081,0,0,1-1.088.2,2.819,2.819,0,0,1-1.088-.2,2.3,2.3,0,0,1-.952-.612,4.824,4.824,0,0,1-.68-.952,3.08,3.08,0,0,1-.2-1.088,3.454,3.454,0,0,1,.2-1.156,8.246,8.246,0,0,1,.68-.952,2.853,2.853,0,0,1,.952-.612,3,3,0,0,1,2.176,0,3.066,3.066,0,0,1,.952.68,2.588,2.588,0,0,1,.612.884,3.178,3.178,0,0,1,.2,1.156m-2.89-3.3a3.556,3.556,0,0,1,1.224.2,3.885,3.885,0,0,1,1.088.748,2.691,2.691,0,0,1,.68,1.02,3.044,3.044,0,0,1,0,2.516,2.692,2.692,0,0,1-.68,1.02,2.953,2.953,0,0,1-2.312.952,3.959,3.959,0,0,1-1.292-.2,4.874,4.874,0,0,1-1.02-.748,2.089,2.089,0,0,1-.68-1.02,2.666,2.666,0,0,1-.272-1.224,2.758,2.758,0,0,1,.272-1.292,3.653,3.653,0,0,1,.68-1.088,8.86,8.86,0,0,1,1.02-.68,3.959,3.959,0,0,1,1.292-.2" transform="translate(-442.528 -270.35)" fill="#f58220" fill-rule="evenodd"/><path d="M508.556,284.631c-5.2.2-9.384,2.754-10.744,7.684a8.421,8.421,0,0,0-7.956-7.956c-2.516-.136-6.018.34-7.582,2.618l-.068-1.836H475.1V306.7h7.82v-10.54c0-2.822.272-5.338,3.57-5.406,3.638-.068,3.5,2.754,3.5,5.474V306.7h7.888v-7.106c1.5,4.522,5.814,7.548,11.968,7.582a25.326,25.326,0,0,0,9.588-1.836v-5.27c-2.822.884-5.61,2.04-8.568,1.9-3.842-.2-6.358-2.312-6.29-4.386h14.79c.476-7-3.128-13.158-10.812-12.954m-4.182,8.432c0-4.522,8.092-4.726,8.092,0Z" transform="translate(-356.134 -277.899)" fill="#f58220" fill-rule="evenodd"/><path d="M192.962,294.606c6.086.2,9.452-2.21,10.268-5.814.476-2.448,0-4.046-1.9-5.61-2.04-1.7-5.406-1.836-7.31-2.754-.612-.34-1.768-1.02-1.292-1.9.476-.748,2.04-.952,2.822-.952a14.149,14.149,0,0,1,4.386.748c.136,0,.2,0,.272.068l1.224-5.474c-5.066-1.836-15.606-1.9-15.606,6.494,0,2.958,2.04,4.658,5,5.882a43.016,43.016,0,0,1,4.454,1.632.96.96,0,0,1,.2,1.632,4.334,4.334,0,0,1-2.754.748,12.644,12.644,0,0,1-6.7-2.176l-.34.136-.748.272c-2.788.884-5.61,2.04-8.568,1.9-3.842-.2-6.29-2.312-6.222-4.386H184.87c.544-6.97-3.094-13.158-10.744-12.954-3.706.136-6.9,1.5-8.908,4.114l2.89-10.812H160.39l-4.862,21.9c-.068-.476-5.746-21.9-5.746-21.9h-6.63s-5.134,20.672-5.134,21.692L133.7,265.468h-8.5l7.548,28.764h10.4s3.57-17.238,3.5-15.266l3.774,15.266h10l2.618-9.656c.544,5.814,5.2,10,12.444,10.064a25.235,25.235,0,0,0,9.52-1.836l.816-.408.136-.068a13.82,13.82,0,0,0,7,2.278m-23.018-14.042c0-4.522,7.956-4.726,7.956,0Z" transform="translate(-125.2 -265.4)" fill="#f58220" fill-rule="evenodd"/><path d="M606.944,368.22h.068c.136,0,.2,0,.2.068,0,.136.068.2.068.272h.2a.514.514,0,0,0-.068-.272c0-.068-.068-.136-.136-.2a.217.217,0,0,0,.2-.2c0-.068-.068-.136-.136-.2-.068,0-.136-.068-.272-.068a2.941,2.941,0,0,0-.34.068v.884h.2v-.34Zm0-.408h.136c.136,0,.136,0,.136.136,0,.068-.068.068-.2.068h-.068Zm.136-.612a.884.884,0,1,1-.884.884.878.878,0,0,1,.884-.884m0,.2a.68.68,0,1,1-.68.68.643.643,0,0,1,.68-.68" transform="translate(-442.656 -332.588)" fill="#f58220" fill-rule="evenodd"/></g></g></g></g></svg>