<svg xmlns="http://www.w3.org/2000/svg" width="200" height="100" viewBox="0 0 200 100"><g transform="translate(-164 -291.32)"><rect width="200" height="100" transform="translate(164 291.32)" fill="none"/><g transform="translate(9 -0.819)"><g transform="translate(170 323.139)"><path d="M18.59,0a1.282,1.282,0,0,1,1.284,1.283h0A1.285,1.285,0,0,1,18.59,2.57h0A15.947,15.947,0,0,0,7.265,7.263h0A15.967,15.967,0,0,0,2.572,18.588h0A15.967,15.967,0,0,0,7.265,29.915h0A15.955,15.955,0,0,0,18.59,34.6h0a15.951,15.951,0,0,0,11.324-4.691h0a15.958,15.958,0,0,0,4.692-11.326h0a1.428,1.428,0,0,0-1.429-1.427h0a1.43,1.43,0,0,0-1.426,1.428h0A13.164,13.164,0,0,1,18.59,31.748h0A13.163,13.163,0,0,1,5.427,18.587h0A13.164,13.164,0,0,1,18.588,5.426h0a4,4,0,0,1,4,4h0a4,4,0,0,1-4,3.99h0a5.174,5.174,0,0,0-5.169,5.169h0a5.177,5.177,0,0,0,5.167,5.169h0a5.179,5.179,0,0,0,5.17-5.17h0A1.284,1.284,0,0,1,25.043,17.3h0a1.284,1.284,0,0,1,1.286,1.285h0a7.74,7.74,0,0,1-7.739,7.74h0a7.743,7.743,0,0,1-7.74-7.74h0a7.739,7.739,0,0,1,7.74-7.739h0a1.42,1.42,0,0,0,1.425-1.42h0A1.429,1.429,0,0,0,18.59,8h0A10.544,10.544,0,0,0,11.1,11.1h0A10.55,10.55,0,0,0,8,18.588H8a10.555,10.555,0,0,0,3.1,7.488h0a10.542,10.542,0,0,0,7.486,3.1h0a10.546,10.546,0,0,0,7.485-3.1h0a10.561,10.561,0,0,0,3.1-7.488h0a4,4,0,0,1,4-4h0a4,4,0,0,1,4,4h0A18.591,18.591,0,0,1,18.59,37.179h0A18.592,18.592,0,0,1,0,18.591v0A18.589,18.589,0,0,1,18.59,0Z" transform="translate(0 0)" fill="#95c93d"/><path d="M28.347,25.415a2.929,2.929,0,1,0-2.93,2.928,2.929,2.929,0,0,0,2.93-2.928Z" transform="translate(-6.828 -6.827)" fill="#95c93d"/><path d="M62.388,11.6c0-4.826,3.291-8.238,8.019-8.238,3.948,0,5.947,2.242,5.947,3.339a1.469,1.469,0,0,1-1.462,1.365,5.1,5.1,0,0,0-4.46-2.437C67.238,5.626,65,8.039,65,11.549c0,3.485,2.316,5.948,5.485,5.948a4.671,4.671,0,0,0,4.558-2.755c.049-.122,1.559.171,1.559,1.34s-2.071,3.681-6.263,3.681C65.654,19.763,62.388,16.4,62.388,11.6Z" transform="translate(-18.942 -1.02)" fill="#231f20"/><path d="M93.193,13.933c0-1.78-1.024-2.755-2.9-2.755a3.543,3.543,0,0,0-3.364,2c0,.024-1.487,0-1.487-1.17,0-1.122,1.706-2.8,5.021-2.8s5.118,1.706,5.118,4.68v7.191c0,.122-.437.268-.876.268-.854,0-1.463-.463-1.487-1.9A5.022,5.022,0,0,1,89,21.488c-2.51,0-4-1.34-4-3.339,0-2.706,2.583-3.876,7.872-3.973h.317Zm0,2.656v-.9l-.658.024c-3.413.121-5.167.755-5.167,2.339,0,1.048.829,1.707,2.217,1.707C91.683,19.758,93.193,18.442,93.193,16.589Z" transform="translate(-25.809 -2.794)" fill="#231f20"/><path d="M106.706,24.852c0,.877-.463,1.145-1.072,1.145h-.268c-.634,0-1.072-.268-1.072-1.145V9.641a1.2,1.2,0,0,1,.877-.268c.73,0,1.487.39,1.51,2.023A4.735,4.735,0,0,1,110.8,9.2c3.145,0,5.484,2.413,5.484,6.143,0,3.681-2.314,6.191-5.556,6.191a4.608,4.608,0,0,1-4.022-2.194Zm-.025-8.751a3.5,3.5,0,0,0,3.608,3.437c2.195,0,3.656-1.682,3.656-4.168,0-2.437-1.512-4.168-3.608-4.168a3.765,3.765,0,0,0-3.656,2.437Z" transform="translate(-31.665 -2.794)" fill="#231f20"/><path d="M124.351,10.313c-.757,0-1.049-.318-1.049-.9V9.24c0-.585.292-.9,1.049-.9h.853v-1.8c0-.828.414-1.145,1.074-1.145h.243c.633,0,1.047.244,1.047,1.145v1.8h2.658c.755,0,1.024.292,1.024.877v.171c0,.609-.293.926-1.049.926h-2.656v5.923c0,1.462.414,2.169,1.559,2.169a1.985,1.985,0,0,0,1.658-.828c.074-.073.683.268.683,1.024,0,.9-1,1.779-2.73,1.779-2.413,0-3.51-1.34-3.51-3.875V10.313Z" transform="translate(-37.436 -1.636)" fill="#231f20"/><path d="M137.584,3.493a1.285,1.285,0,0,1,1.462-1.364,1.259,1.259,0,0,1,1.413,1.364c0,.877-.512,1.341-1.437,1.341a1.271,1.271,0,0,1-1.438-1.341Zm.218,14.528V8.393c0-.878.463-1.17,1.1-1.17h.244c.634,0,1.072.268,1.072,1.17v9.628c0,.877-.438,1.145-1.072,1.145H138.9c-.634,0-1.1-.268-1.1-1.145Z" transform="translate(-41.772 -0.642)" fill="#231f20"/><path d="M144.8,15.357a6.142,6.142,0,1,1,6.118,6.166,6.142,6.142,0,0,1-6.118-6.166Zm10.042.049a3.921,3.921,0,1,0-7.825-.049,3.981,3.981,0,0,0,3.925,4.217,3.932,3.932,0,0,0,3.9-4.168Z" transform="translate(-43.963 -2.805)" fill="#231f20"/><path d="M171.985,9.2c3.095,0,4.534,2.121,4.534,5.021v5.948c0,.877-.464,1.145-1.072,1.145h-.268c-.634,0-1.074-.268-1.074-1.145V14.517c0-1.974-1-3.193-2.705-3.193a3.543,3.543,0,0,0-3.291,2.047v6.8c0,.877-.463,1.145-1.072,1.145h-.268c-.633,0-1.072-.268-1.072-1.145V9.642a1.2,1.2,0,0,1,.877-.268c.707,0,1.438.366,1.512,1.9A4.515,4.515,0,0,1,171.985,9.2Z" transform="translate(-50.308 -2.794)" fill="#231f20"/><path d="M184.739,11.6c0-4.826,3.291-8.238,8.021-8.238,3.948,0,5.947,2.242,5.947,3.339a1.469,1.469,0,0,1-1.463,1.365,5.1,5.1,0,0,0-4.46-2.437c-3.193,0-5.435,2.413-5.435,5.923,0,3.485,2.314,5.948,5.484,5.948a4.67,4.67,0,0,0,4.558-2.755c.049-.122,1.56.171,1.56,1.34s-2.072,3.681-6.264,3.681C188.006,19.763,184.739,16.4,184.739,11.6Z" transform="translate(-56.09 -1.02)" fill="#6f7173"/><path d="M215.545,13.933c0-1.78-1.024-2.755-2.9-2.755a3.545,3.545,0,0,0-3.364,2c0,.024-1.487,0-1.487-1.17,0-1.122,1.706-2.8,5.022-2.8s5.118,1.706,5.118,4.68v7.191c0,.122-.438.268-.876.268-.854,0-1.463-.463-1.488-1.9a5.022,5.022,0,0,1-4.217,2.047c-2.51,0-4-1.34-4-3.339,0-2.706,2.584-3.876,7.873-3.973h.317Zm0,2.656v-.9l-.659.024c-3.412.121-5.167.755-5.167,2.339,0,1.048.829,1.707,2.218,1.707C214.034,19.758,215.545,18.442,215.545,16.589Z" transform="translate(-62.956 -2.794)" fill="#6f7173"/><path d="M226.784,18.109V2.68a1.255,1.255,0,0,1,.879-.268c.755,0,1.535.39,1.535,2.072V18.109c0,.877-.439,1.145-1.074,1.145h-.244C227.247,19.255,226.784,18.986,226.784,18.109Z" transform="translate(-68.855 -0.731)" fill="#6f7173"/><path d="M234.836,18.109V2.68a1.254,1.254,0,0,1,.877-.268c.755,0,1.535.39,1.535,2.072V18.109c0,.877-.439,1.145-1.072,1.145h-.244C235.3,19.255,234.836,18.986,234.836,18.109Z" transform="translate(-71.3 -0.731)" fill="#6f7173"/><path d="M66.183,44.716V37.268c0-.269.129-.4.371-.4h.116c.256,0,.383.128.383.4V44.4h3.993c.255,0,.4.128.4.371v.064a.352.352,0,0,1-.4.371H66.67a.487.487,0,0,1-.487-.486Z" transform="translate(-20.094 -11.195)" fill="#231f20"/><path d="M76.382,36.868a.492.492,0,0,1,.563-.551.479.479,0,0,1,.537.551.55.55,0,1,1-1.1,0Zm.128,7.819v-5.4c0-.307.154-.4.372-.4h.088c.218,0,.372.089.372.4v5.4c0,.307-.154.4-.372.4h-.088C76.664,45.083,76.51,44.994,76.51,44.687Z" transform="translate(-23.19 -11.025)" fill="#231f20"/><path d="M80.587,39.641c-.308,0-.4-.114-.4-.332v-.077c0-.217.089-.333.4-.333h.895v-.563c0-1.4.614-2.163,1.792-2.163.818,0,1.216.346,1.216.717,0,.294-.217.422-.243.4a1.479,1.479,0,0,0-.972-.371c-.691,0-.985.448-.985,1.458V38.9h1.229c.306,0,.4.116.4.333v.077c0,.218-.089.332-.4.332H82.3v5c0,.307-.141.4-.359.4h-.089c-.217,0-.371-.089-.371-.4v-5Z" transform="translate(-24.347 -10.983)" fill="#231f20"/><path d="M90.778,45.523a2.189,2.189,0,0,0,2.085-1.087.493.493,0,0,1,.487.474c0,.422-.921,1.356-2.572,1.356a3.023,3.023,0,0,1-3.147-3.174A3.061,3.061,0,0,1,90.7,39.867a2.786,2.786,0,0,1,2.841,3.071v.077c0,.23-.089.282-.346.282H88.463a2.263,2.263,0,0,0,2.316,2.226Zm1.882-2.943A1.917,1.917,0,0,0,90.7,40.6a2.213,2.213,0,0,0-2.2,1.983Z" transform="translate(-26.605 -12.104)" fill="#231f20"/><path d="M102.848,36.868a.492.492,0,0,1,.563-.551.479.479,0,0,1,.537.551.55.55,0,1,1-1.1,0Zm.128,7.819v-5.4c0-.307.154-.4.371-.4h.089c.217,0,.371.089.371.4v5.4c0,.307-.154.4-.371.4h-.089c-.217,0-.371-.09-.371-.4Z" transform="translate(-31.225 -11.025)" fill="#231f20"/><path d="M107.041,45.023a.5.5,0,0,1,.447-.447,2.439,2.439,0,0,0,2.085.985c1.012,0,1.575-.409,1.575-1.024,0-.73-.641-.884-1.792-1.126-.947-.2-2.137-.474-2.137-1.7,0-1.088.921-1.843,2.329-1.843,1.484,0,2.253.7,2.253,1.164,0,.32-.436.474-.461.436a2.068,2.068,0,0,0-1.792-.9c-1,0-1.535.422-1.535,1.024,0,.653.576.832,1.7,1.075.986.218,2.241.487,2.241,1.741,0,1.126-.922,1.856-2.406,1.856C107.924,46.265,107.041,45.484,107.041,45.023Z" transform="translate(-32.499 -12.104)" fill="#231f20"/><path d="M120.692,41.037a4.05,4.05,0,0,1,4.147-4.312c1.983,0,3.083,1.151,3.083,1.638a.524.524,0,0,1-.512.524,3.029,3.029,0,0,0-2.6-1.408,3.249,3.249,0,0,0-3.225,3.532,3.293,3.293,0,0,0,3.251,3.545,2.763,2.763,0,0,0,2.674-1.626.543.543,0,0,1,.563.512c0,.537-1.138,1.868-3.276,1.868A4.01,4.01,0,0,1,120.692,41.037Z" transform="translate(-36.641 -11.15)" fill="#231f20"/><path d="M137.87,42.254a1.51,1.51,0,0,0-1.716-1.625,2.089,2.089,0,0,0-1.945,1.126.488.488,0,0,1-.472-.486c0-.435.87-1.407,2.481-1.407a2.228,2.228,0,0,1,2.47,2.368v3.839a.378.378,0,0,1-.282.089c-.282,0-.524-.141-.524-.806V45.12a2.684,2.684,0,0,1-2.279,1.126c-1.33,0-2.1-.678-2.1-1.7,0-1.421,1.421-2.009,4.235-2.073h.129Zm0,1.433v-.563l-.359.013c-2.085.077-3.16.448-3.16,1.408,0,.614.5,1.011,1.331,1.011a1.984,1.984,0,0,0,2.188-1.869Z" transform="translate(-40.534 -12.098)" fill="#231f20"/><path d="M144.351,44.689V36.41c0-.026.128-.09.282-.09.282,0,.55.141.55.806v7.563c0,.307-.154.4-.371.4h-.089C144.5,45.086,144.351,45,144.351,44.689Z" transform="translate(-43.827 -11.027)" fill="#231f20"/><path d="M149.11,44.689V36.41c0-.026.128-.09.282-.09.282,0,.55.141.55.806v7.563c0,.307-.154.4-.371.4h-.089C149.264,45.086,149.11,45,149.11,44.689Z" transform="translate(-45.272 -11.027)" fill="#231f20"/><path d="M153.684,36.868a.492.492,0,0,1,.563-.551.48.48,0,0,1,.538.551.551.551,0,1,1-1.1,0Zm.129,7.819v-5.4c0-.307.153-.4.37-.4h.091c.217,0,.37.089.37.4v5.4c0,.307-.153.4-.37.4h-.091C153.966,45.083,153.813,44.994,153.813,44.687Z" transform="translate(-46.66 -11.025)" fill="#231f20"/><path d="M161.43,39.867c1.612,0,2.418,1.075,2.418,2.687v3.212c0,.307-.153.4-.37.4h-.091c-.217,0-.371-.089-.371-.4V42.6c0-1.216-.6-1.957-1.638-1.957a2.153,2.153,0,0,0-2.009,1.292v3.826c0,.307-.153.4-.371.4h-.089c-.217,0-.371-.089-.371-.4V40.058a.381.381,0,0,1,.282-.089c.282,0,.537.141.537.806v.192a2.413,2.413,0,0,1,2.073-1.1Z" transform="translate(-48.135 -12.104)" fill="#231f20"/><path d="M173.137,39.405c.179-.256.32-.384.588-.384a.484.484,0,0,1,.474.37l-1.011,1.126a2.1,2.1,0,0,1,.5,1.344,2.345,2.345,0,0,1-2.509,2.239,2.931,2.931,0,0,1-.332-.013.469.469,0,0,0-.089.307c0,.422.575.461,1.689.742.87.218,1.791.627,1.791,1.6,0,1.138-1.151,1.816-3.109,1.816s-2.867-.537-2.867-1.663c0-.921.858-1.549,1.971-1.753a.722.722,0,0,1-.268-.589.865.865,0,0,1,.282-.6,2.164,2.164,0,0,1-1.535-2.034,2.358,2.358,0,0,1,2.468-2.3,2.7,2.7,0,0,1,1.537.474Zm-4.07,7.487c0,.639.717.985,2.085.985,1.395,0,2.253-.4,2.253-1.113,0-.742-1.153-.883-2.125-1.139C170.116,45.676,169.067,46.136,169.067,46.892Zm3.762-5a1.553,1.553,0,0,0-1.663-1.587,1.576,1.576,0,1,0,1.663,1.587Z" transform="translate(-51.087 -11.848)" fill="#231f20"/><path d="M242.049,4.008l.3.518h.171l-.338-.559a.331.331,0,0,0,.25-.334.318.318,0,0,0-.109-.264.538.538,0,0,0-.338-.088h-.341V4.526h.145V4.008Zm-.26-.6h.188a.394.394,0,0,1,.234.054.208.208,0,0,1,.073.178.227.227,0,0,1-.071.183.343.343,0,0,1-.225.061h-.2Zm1.345.513a1.128,1.128,0,1,0-1.128,1.128,1.128,1.128,0,0,0,1.128-1.128Zm-.123,0a1.005,1.005,0,1,1-1.005-1.005,1.005,1.005,0,0,1,1.005,1.005Z" transform="translate(-73.134 -0.848)" fill="#6f7173"/></g></g></g></svg>