<svg xmlns="http://www.w3.org/2000/svg" width="200" height="100" viewBox="0 0 200 100"><g transform="translate(-165.5 -291)"><rect width="200" height="100" transform="translate(165.5 291)" fill="none"/><g transform="translate(0 -7.559)"><path d="M.464,32.875c.629,3.855,1.416,8.654,5.114,10.778,5.428,3.147,11.722,3.54,17.858,3.54,5.271,0,14,0,18.566-4.091,3.3-2.911,4.248-6.923,4.563-11.329a124.2,124.2,0,0,0,0-14.318H41.688c-1.18.079-1.573.629-1.967,2.045L36.338,34.763c-.472,2.124-1.1,3.776-3.068,3.776H29.651c-1.495,0-2.675-.551-2.911-1.652l-1.573-7.946c-.236-1.1-.393-2.911-1.1-2.911h-.944c-.629,0-1.1,2.36-1.259,3.3l-1.573,7.552a2.815,2.815,0,0,1-2.911,1.652H14c-2.2,0-3.147-1.809-3.619-3.776l-3.3-15.42c-.157-.865-.708-1.967-1.809-1.967H.228c-.236,5.192-.551,10.385.236,15.5ZM100.14,12.263v24.86a1.8,1.8,0,0,0,1.809,1.495h28.243c.708,0,1.652-.708,1.652-1.416V33.347a1.625,1.625,0,0,0-1.809-1.416H111.469c-2.832,0-3.54.079-3.54-.708v-2.36c0-1.023,1.495-.708,2.439-.708h16.364c1.023,0,2.281,0,3.3-.079.865-.079,1.809-.551,1.809-1.416V22.726a1.256,1.256,0,0,0-1.259-1.337h-20.14c-1.18,0-2.439.157-2.439-.787V18.4c0-1.023,1.337-.787,2.36-.787h19.746c1.023,0,1.809-.551,1.809-1.495V12.892c0-1.023-.472-1.967-1.416-1.967H101.635a1.307,1.307,0,0,0-1.495,1.337ZM70.4,18.478a.834.834,0,0,1,.944-.944H83.855a4.512,4.512,0,0,1,3.776,1.809,8.445,8.445,0,0,1,1.337,4.17V26.03A8.443,8.443,0,0,1,87.4,30.436c-1.023,1.18-2.281,1.495-4.406,1.495H71.425c-.551,0-1.023-.315-1.023-.787V18.478Zm-7.867-5.507V37.2A1.637,1.637,0,0,0,64.345,38.7H87.632c3.226,0,9.362-2.832,9.362-13.925,0-10.227-5.114-13.846-8.575-13.846l-24.467-.079c-.865,0-1.416.787-1.416,2.124Zm72.22-.393,5.743,5.979,2.99,2.99c.629.629,2.6,2.281,2.6,3.3s-2.124,2.753-2.753,3.383L140.263,31.3c-1.023,1.023-2.045,1.967-3.068,2.99L135.7,35.786a2.306,2.306,0,0,0-.865,2.124c.157.551.551.708,1.416.708h6.923c1.337,0,3.7-2.832,4.563-3.7l2.124-2.124c.472-.472,1.573-1.888,2.281-1.888h.393c.865,0,3.776,3.226,4.406,3.934.944.944,3.226,3.776,4.72,3.776h6.844c.551,0,1.337-.472,1.416-.944a1.193,1.193,0,0,0-.393-1.259l-5.35-5.428L161.189,28c-.551-.551-2.675-2.36-2.675-3.226v-.315c0-.787,2.2-2.675,2.754-3.226l2.99-2.99,2.99-2.99c.708-.708,2.6-2.124,2.6-3.383,0-.551-.157-1.18-.944-1.18h-7.631c-1.1,0-3.7,3.068-4.484,3.855-.708.708-1.495,1.416-2.124,2.045-.472.551-1.495,1.809-2.36,1.731-1.18,0-3.7-2.99-4.484-3.855l-2.124-2.124c-.551-.551-1.416-1.731-2.439-1.731h-7.474c-.944.236-1.573,1.416-1.023,1.967ZM7.938,2.193c-3.3,1.259-6.451,5.114-6.687,8.654H6.915c2.045,0,4.72.393,5.9,2.36,1.573,2.753,1.573,5.743,2.439,8.654.236.708.315,1.573,1.18,1.573,1.259,0,1.337-1.967,1.573-2.99l1.731-7.4a2.605,2.605,0,0,1,2.439-2.2h2.439a2.668,2.668,0,0,1,2.36,2.2l1.809,7.316c.236,1.023.551,3.068,1.495,3.068,1.023-.079,1.416-2.6,1.809-3.855.393-1.495.629-3.226,1.1-4.563.551-1.416,1.18-2.99,2.439-3.619a12.046,12.046,0,0,1,4.72-.629h5.271A17.3,17.3,0,0,0,43.733,5.5c-2.124-3.226-5.822-4.17-9.047-4.72A70.7,70.7,0,0,0,19.424.069,38.473,38.473,0,0,0,7.938,2.193Zm43.033,9.913V37.28c0,1.023.551,1.337,1.259,1.337H57.5a1.219,1.219,0,0,0,1.259-1.337V12.106a1.172,1.172,0,0,0-1.337-1.337H52.23a1.216,1.216,0,0,0-1.259,1.337Z" transform="translate(180.539 324.604)" fill="#fff"/></g></g></svg>