<svg xmlns="http://www.w3.org/2000/svg" width="200" height="100" viewBox="0 0 200 100"><g transform="translate(-164.5 -290.5)"><rect width="200" height="100" transform="translate(164.5 290.5)" fill="none"/><g transform="translate(8 -6.318)"><g transform="translate(171 330.818)"><path d="M23.333,1.973a2.659,2.659,0,0,1-.071.78,1.336,1.336,0,0,1-.142.567.979.979,0,0,1-.213.284.531.531,0,0,1-.355.071H13.759V30.767a.639.639,0,0,1-.071.355.758.758,0,0,1-.355.213,4.521,4.521,0,0,1-.638.142,4.058,4.058,0,0,1-.993.071,4.361,4.361,0,0,1-.993-.071,4.521,4.521,0,0,1-.638-.142,1.55,1.55,0,0,1-.355-.213.531.531,0,0,1-.071-.355V3.746H.851A.542.542,0,0,1,.5,3.6a.554.554,0,0,1-.284-.284,1.1,1.1,0,0,1-.142-.567C.071,2.47,0,2.328,0,1.973a2.426,2.426,0,0,1,.071-.78A1.336,1.336,0,0,1,.213.626C.284.484.355.342.5.342.567.2.709.2.851.2h21.7a.639.639,0,0,1,.355.071c.071.071.213.142.284.284a1.336,1.336,0,0,1,.142.567Q23.333,1.548,23.333,1.973Z" transform="translate(0 -0.058)" fill="#fff"/><path d="M60.109,30.767a.639.639,0,0,1-.071.355.979.979,0,0,1-.284.213,1.526,1.526,0,0,1-.709.142c-.284,0-.709.071-1.135.071a3.768,3.768,0,0,1-.993-.071,1.416,1.416,0,0,1-.638-.142.708.708,0,0,1-.355-.284,3.458,3.458,0,0,1-.213-.5l-2.837-7.376a23.129,23.129,0,0,0-1.064-2.27,6.684,6.684,0,0,0-1.277-1.773,5.238,5.238,0,0,0-1.773-1.206A6.362,6.362,0,0,0,46.35,17.5H43.584V30.767c0,.142-.071.213-.142.355a1.55,1.55,0,0,1-.355.213,4.521,4.521,0,0,1-.638.142,4.058,4.058,0,0,1-.993.071,4.058,4.058,0,0,1-.993-.071,4.52,4.52,0,0,1-.638-.142,1.55,1.55,0,0,1-.355-.213.531.531,0,0,1-.071-.355V1.9A1.579,1.579,0,0,1,39.9.555,1.6,1.6,0,0,1,40.96.2h6.667a16.682,16.682,0,0,1,1.986.071c.5.071.993.071,1.418.142a12.981,12.981,0,0,1,3.191.993,7.117,7.117,0,0,1,2.34,1.7,7.956,7.956,0,0,1,1.418,2.34,9.7,9.7,0,0,1,.5,2.979,8.83,8.83,0,0,1-.426,2.837,7.305,7.305,0,0,1-1.206,2.2,6.159,6.159,0,0,1-1.915,1.631A11.537,11.537,0,0,1,52.45,16.3a5.8,5.8,0,0,1,1.418.851A6.628,6.628,0,0,1,55,18.427,12.49,12.49,0,0,1,56,20.058c.355.638.638,1.348.993,2.128l2.766,6.879c.213.567.355.993.426,1.206A1.385,1.385,0,0,0,60.109,30.767ZM53.868,8.852a5.553,5.553,0,0,0-.851-3.121,5.039,5.039,0,0,0-2.766-1.844A4.129,4.129,0,0,0,48.9,3.675c-.426,0-1.135-.071-1.915-.071H43.513V14.1h4.043a8.53,8.53,0,0,0,2.837-.426,5.407,5.407,0,0,0,1.986-1.135,5.722,5.722,0,0,0,1.206-1.7A7.393,7.393,0,0,0,53.868,8.852Z" transform="translate(-11.457 -0.058)" fill="#fff"/><path d="M97.746,19.858a14.275,14.275,0,0,1-.851,5.106,9.814,9.814,0,0,1-2.411,3.759,9.381,9.381,0,0,1-3.759,2.34,15.96,15.96,0,0,1-5.035.78,14.083,14.083,0,0,1-4.681-.78,9.373,9.373,0,0,1-3.617-2.2,10.277,10.277,0,0,1-2.34-3.688,13.879,13.879,0,0,1-.851-5.035V.78a.639.639,0,0,1,.071-.355c.071-.142.142-.142.355-.213a4.521,4.521,0,0,1,.638-.142A4.7,4.7,0,0,1,76.328,0a4.361,4.361,0,0,1,.993.071,4.521,4.521,0,0,1,.638.142,1.55,1.55,0,0,1,.355.213.531.531,0,0,1,.071.355V19.645a12.071,12.071,0,0,0,.5,3.759,6.756,6.756,0,0,0,1.56,2.7,6.325,6.325,0,0,0,2.411,1.631,9.842,9.842,0,0,0,6.383.071,6.73,6.73,0,0,0,2.411-1.56,7.262,7.262,0,0,0,1.489-2.624,11.607,11.607,0,0,0,.5-3.688V.78A.639.639,0,0,1,93.7.426a.758.758,0,0,1,.355-.213c.213-.071.355-.071.638-.142A4.058,4.058,0,0,1,95.689,0a4.361,4.361,0,0,1,.993.071,4.521,4.521,0,0,1,.638.142,1.55,1.55,0,0,1,.355.213.542.542,0,0,1,.142.355l-.071,19.078Z" transform="translate(-21.576)" fill="#fff"/><path d="M118,31.348V0h2.2V29.291h14.965v2.057Z" transform="translate(-34.312)" fill="#fff"/><path d="M149.8,31.348V0H152V31.348Z" transform="translate(-43.559)" fill="#fff"/><path d="M188.166,31.348h-2.2l-18.582-27.8h-.142c.142,3.333.284,5.816.284,7.518V31.418H165.4V0h2.2l18.511,27.8h.142c-.142-2.553-.213-5.035-.213-7.3V0h2.128Z" transform="translate(-48.095)" fill="#fff"/><path d="M231.064,31.348H228.44L216.383,14.823,212.2,18.511V31.348H210V0h2.2V16.312l3.475-3.475L227.943,0h2.766L217.872,13.262Z" transform="translate(-61.064)" fill="#fff"/></g></g></g></svg>