<svg xmlns="http://www.w3.org/2000/svg" width="200" height="100" viewBox="0 0 200 100"><g transform="translate(-165 -290.5)"><rect width="200" height="100" transform="translate(165 290.5)" fill="none"/><g transform="translate(0 -9.557)"><g transform="translate(180.104 338.502)"><g transform="translate(-197.094 -25.445)"><g transform="translate(256.779 15)"><path d="M343.36,22.929h8.112V15l-8.112,1.426v6.5Z" transform="translate(-343.36 -15)" fill="#fff"/></g><g transform="translate(196.99 18.97)"><g transform="translate(0 0)"><path d="M392.263,43.68A16.123,16.123,0,1,0,403.749,71.1l-5.273-5.278a8.664,8.664,0,1,1,0-12.038l5.273-5.273A15.988,15.988,0,0,0,392.263,43.68Z" transform="translate(-302.949 -35.935)" fill="#fff"/><path d="M213.113,68.466a8.664,8.664,0,1,1,8.664-8.664A8.664,8.664,0,0,1,213.113,68.466Zm0-24.786A16.123,16.123,0,1,0,229.235,59.8,16.123,16.123,0,0,0,213.113,43.68Z" transform="translate(-196.99 -35.935)" fill="#fff"/><path d="M288.55,26.146V52.893c0,10.678,9.117,11.846,13.035,11.846a14.64,14.64,0,0,0,2.4-.184l.18-.033V57.513h-1.605c-5.31,0-5.89-3.909-5.89-5.592V40.532h7.5V33.564h-7.5V24.72Z" transform="translate(-251.15 -24.72)" fill="#fff"/><path d="M464.967,68.466a8.664,8.664,0,1,1,8.664-8.664A8.664,8.664,0,0,1,464.967,68.466Zm0-24.786A16.123,16.123,0,1,0,481.085,59.8,16.123,16.123,0,0,0,464.967,43.68Z" transform="translate(-345.965 -35.935)" fill="#fff"/><path d="M343.36,77.177h8.112V46.37H343.36V77.177Z" transform="translate(-283.571 -37.526)" fill="#fff"/><path d="M562.143,77.177h8.112V56.929A10.567,10.567,0,0,0,559.7,46.37H540.62V77.177h8.112V53.339h8.929a4.493,4.493,0,0,1,4.493,4.493V77.186Z" transform="translate(-400.255 -37.526)" fill="#fff"/></g></g></g></g></g></g></svg>