<svg xmlns="http://www.w3.org/2000/svg" width="200" height="100" viewBox="0 0 200 100"><g transform="translate(-164.398 -290.5)"><rect width="200" height="100" transform="translate(164.398 290.5)" fill="none"/><g transform="translate(4 -6.817)"><g transform="translate(175.398 321.316)"><path d="M56.169,46.878A4.98,4.98,0,0,1,52.9,45.53L32.758,28.4V46.878L27,46.855V23.75c0-2.224.921-3.33,2.756-3.33a5.426,5.426,0,0,1,3.591,1.491l19.884,16.9V20.42H59V43.427c0,2.307-.936,3.451-2.836,3.451" transform="translate(-26.785 -20.42)" fill="#fff"/><path d="M144.182,30.15v15.8a1.588,1.588,0,0,1-1.072,1.51,8.761,8.761,0,0,1-3.776.581h-6.5a9.668,9.668,0,0,1-3.855-.581,1.56,1.56,0,0,1-1.1-1.488V30.15H122.21V46.194a5.846,5.846,0,0,0,3.9,5.894,21.357,21.357,0,0,0,7.257.925h5.286a19.672,19.672,0,0,0,7.174-1.027,5.855,5.855,0,0,0,3.984-5.792V30.15Z" transform="translate(-86.044 -26.476)" fill="#fff"/><path d="M219.578,47.482a16.263,16.263,0,0,1-6.982-1.39c-2.511-1.223-3.776-3.021-3.776-5.426V28.334c0-2.469,1.3-4.327,3.916-5.532a16.931,16.931,0,0,1,7.227-1.412H237.71V26.3H220.253q-5.724,0-5.721,2.02v3.734h23.192V37.03H214.578V40.5q0,2.02,5.2,2.016h17.943v4.965Z" transform="translate(-139.951 -21.024)" fill="#fff"/><path d="M312.4,42.237h-7.571l3.749-5.4Zm-.619-10.52a3.538,3.538,0,0,0-3.021-1.658,3.6,3.6,0,0,0-3.051,1.669L290.77,52.957h6.717l3.912-5.7H315.94l4.01,5.7H326.4Z" transform="translate(-190.957 -26.42)" fill="#fff"/><path d="M411.436,39.526a6.385,6.385,0,0,1-2.367.328H395.69V35.029h12.521a9.27,9.27,0,0,1,3.021.378c.631.253.774.487.782.789v2.643c0,.3-.117.476-.593.7m2.9,4.18a5.164,5.164,0,0,0,3.368-4.909V36.275a5.351,5.351,0,0,0-3.648-5.12,16.343,16.343,0,0,0-6.419-1.1H390v22.9h5.664V45.832L408.5,52.957h8.911l.2-.789-13.3-7.344h4.01a14.227,14.227,0,0,0,6-1.133" transform="translate(-252.719 -26.42)" fill="#fff"/><path d="M468.985,33h.185c.215,0,.378-.068.378-.245s-.113-.253-.359-.253a.853.853,0,0,0-.215.023Zm0,.952h-.378V32.279a3.4,3.4,0,0,1,.642-.053,1.069,1.069,0,0,1,.582.121.457.457,0,0,1,.162.378.43.43,0,0,1-.344.378h0a.5.5,0,0,1,.306.408,1.247,1.247,0,0,0,.121.419h-.419a1.634,1.634,0,0,1-.132-.408c-.03-.185-.132-.268-.347-.268H469Zm-1.031-.88a1.3,1.3,0,1,0,.364-.943,1.291,1.291,0,0,0-.364.943m3.021,0A1.722,1.722,0,1,1,469.26,31.4a1.68,1.68,0,0,1,1.714,1.673" transform="translate(-300.975 -27.253)" fill="#fff"/><path d="M26.43,112.83h.755v7.238h7.174V112.83h.755v12.3h-.755v-4.391H27.185v4.391H26.43Z" transform="translate(-26.43 -77.937)" fill="#fff"/><path d="M60.128,132.483a3.145,3.145,0,0,0,2.586-1.155l.468.415a3.776,3.776,0,0,1-3.055,1.374,3.719,3.719,0,0,1-3.851-3.836,3.776,3.776,0,0,1,3.708-3.851,3.633,3.633,0,0,1,3.617,4H57A2.964,2.964,0,0,0,60.128,132.483Zm2.749-3.636a2.787,2.787,0,0,0-2.892-2.8,2.935,2.935,0,0,0-2.968,2.8Z" transform="translate(-45.006 -85.779)" fill="#fff"/><path d="M85.768,128.326c0-1.661-.755-2.3-1.971-2.3a2.685,2.685,0,0,0-2.405,1.265l-.506-.378a3.376,3.376,0,0,1,2.93-1.51,2.525,2.525,0,0,1,2.643,2.84v4.709h-.691l.038-1.133a2.919,2.919,0,0,1-2.553,1.284c-1.68,0-2.783-.778-2.783-2.266s1.284-2.152,2.692-2.152h2.605Zm-2.515.94c-1.133,0-2.077.434-2.077,1.556s.755,1.646,2.152,1.646c1.227,0,2.439-.721,2.439-1.862v-1.34Z" transform="translate(-60.065 -85.763)" fill="#fff"/><path d="M104.23,125.616h.706V127.1a2.289,2.289,0,0,1,2.152-1.627,2.08,2.08,0,0,1,1.337.378l-.344.581a1.722,1.722,0,0,0-1.084-.31c-1.05,0-2.043.887-2.043,2.677v4.2h-.706Z" transform="translate(-74.853 -85.803)" fill="#fff"/><path d="M119.89,116.447a.6.6,0,1,1,.6.6A.6.6,0,0,1,119.89,116.447Zm.253,3.183h.706v7.378h-.706Z" transform="translate(-84.6 -79.816)" fill="#fff"/><path d="M130.48,125.59h.706v1.646a2.964,2.964,0,0,1,2.821-1.809,2.653,2.653,0,0,1,2.749,2.93v4.61h-.706v-4.482c0-1.51-.706-2.405-2.133-2.405a2.573,2.573,0,0,0-2.711,2.764v4.123H130.5Z" transform="translate(-91.192 -85.777)" fill="#fff"/><path d="M159.225,125.611v.6H157.56a2.356,2.356,0,0,1,.8,1.809,2.57,2.57,0,0,1-2.768,2.586,2.937,2.937,0,0,1-1.465-.344.9.9,0,0,0-.868.887c0,.559.4.831,1.069.887l1.918.177c2.133.2,3.092.853,3.092,2.243,0,1.627-1.646,2.568-3.855,2.568s-3.689-.884-3.689-2.42c0-1.133.8-1.737,1.918-2.062a1.333,1.333,0,0,1-1.084-1.322,1.367,1.367,0,0,1,1.012-1.3,2.428,2.428,0,0,1-.868-1.888,2.6,2.6,0,0,1,2.821-2.568,3.191,3.191,0,0,1,1.012.162Zm-6.71,8.972c0,1.174,1.031,1.828,2.964,1.828,1.794,0,3.149-.672,3.149-1.956,0-1.012-.563-1.465-2.477-1.609l-1.556-.109C153.4,132.974,152.515,133.533,152.515,134.583Zm5.154-6.566a1.892,1.892,0,0,0-2.081-1.971,1.985,1.985,0,1,0,0,3.961A1.889,1.889,0,0,0,157.669,128.016Z" transform="translate(-104.455 -85.798)" fill="#fff"/><path d="M189.78,112.83h.755v12.3h-.755Z" transform="translate(-128.1 -77.937)" fill="#fff"/><path d="M200.41,125.59h.706l-.019,1.646a2.972,2.972,0,0,1,2.824-1.809,2.655,2.655,0,0,1,2.749,2.93v4.61h-.706v-4.482c0-1.51-.706-2.405-2.133-2.405a2.576,2.576,0,0,0-2.715,2.764v4.123h-.706Z" transform="translate(-134.717 -85.777)" fill="#fff"/><path d="M223.26,120.169a3.654,3.654,0,0,1,3.655-3.833,3.376,3.376,0,0,1,3.126,1.918V110.82h.706v13.057h-.706l.038-1.843a3.489,3.489,0,0,1-3.164,1.99A3.671,3.671,0,0,1,223.26,120.169Zm6.838,0a3.02,3.02,0,0,0-3.092-3.2,3.215,3.215,0,0,0,0,6.419A3.045,3.045,0,0,0,230.1,120.169Z" transform="translate(-148.939 -76.686)" fill="#fff"/><path d="M253.508,132.483a3.145,3.145,0,0,0,2.586-1.155l.468.415a3.776,3.776,0,0,1-3.055,1.374,3.719,3.719,0,0,1-3.851-3.836,3.776,3.776,0,0,1,3.708-3.851,3.63,3.63,0,0,1,3.614,4h-6.6A2.964,2.964,0,0,0,253.508,132.483Zm2.749-3.636a2.787,2.787,0,0,0-2.892-2.8,2.935,2.935,0,0,0-2.968,2.8Z" transform="translate(-165.367 -85.779)" fill="#fff"/><path d="M275.48,125.591h.7l-.034,1.809a3.4,3.4,0,0,1,3.164-1.971,3.849,3.849,0,0,1,0,7.688,3.485,3.485,0,0,1-3.13-1.937v5.626h-.7Zm6.744,3.67a2.969,2.969,0,0,0-3-3.2,3.212,3.212,0,0,0,0,6.419A2.967,2.967,0,0,0,282.224,129.261Z" transform="translate(-181.441 -85.778)" fill="#fff"/><path d="M304.138,132.483a3.145,3.145,0,0,0,2.587-1.155l.472.415a3.776,3.776,0,0,1-3.059,1.374,3.719,3.719,0,0,1-3.851-3.836,3.776,3.776,0,0,1,3.708-3.851,3.633,3.633,0,0,1,3.617,4h-6.6A2.959,2.959,0,0,0,304.138,132.483Zm2.749-3.636a2.787,2.787,0,0,0-2.892-2.8,2.935,2.935,0,0,0-2.968,2.8Z" transform="translate(-196.88 -85.779)" fill="#fff"/><path d="M326.06,125.59h.706l-.019,1.646a2.964,2.964,0,0,1,2.821-1.809,2.653,2.653,0,0,1,2.749,2.93v4.61h-.706v-4.482c0-1.51-.7-2.405-2.133-2.405a2.575,2.575,0,0,0-2.711,2.764v4.123h-.706Z" transform="translate(-212.922 -85.777)" fill="#fff"/><path d="M348.91,120.169a3.654,3.654,0,0,1,3.651-3.833,3.4,3.4,0,0,1,3.13,1.918V110.82h.706v13.057h-.706l.038-1.843a3.493,3.493,0,0,1-3.168,1.99A3.675,3.675,0,0,1,348.91,120.169Zm6.834,0a3.018,3.018,0,0,0-3.092-3.2,2.948,2.948,0,0,0-3,3.2,2.99,2.99,0,0,0,3,3.221,3.055,3.055,0,0,0,3.089-3.221Z" transform="translate(-227.144 -76.686)" fill="#fff"/><path d="M379.148,132.483a3.142,3.142,0,0,0,2.587-1.155l.472.415a3.776,3.776,0,0,1-3.059,1.374,3.719,3.719,0,0,1-3.851-3.836A3.776,3.776,0,0,1,379,125.43a3.631,3.631,0,0,1,3.617,4h-6.6A2.961,2.961,0,0,0,379.148,132.483Zm2.753-3.636a2.788,2.788,0,0,0-2.9-2.8,2.934,2.934,0,0,0-2.964,2.8Z" transform="translate(-243.566 -85.779)" fill="#fff"/><path d="M401.08,125.59h.7v1.646a2.964,2.964,0,0,1,2.821-1.809,2.653,2.653,0,0,1,2.749,2.93v4.61h-.706v-4.482c0-1.51-.706-2.405-2.133-2.405a2.576,2.576,0,0,0-2.715,2.764v4.123h-.7Z" transform="translate(-259.615 -85.777)" fill="#fff"/><path d="M423.919,129.276a3.776,3.776,0,0,1,3.746-3.851,3.432,3.432,0,0,1,2.8,1.25l-.506.415a2.7,2.7,0,0,0-2.3-1.031,3.217,3.217,0,0,0,0,6.419,2.889,2.889,0,0,0,2.439-1.1l.51.415a3.531,3.531,0,0,1-2.949,1.322,3.776,3.776,0,0,1-3.746-3.836Z" transform="translate(-273.83 -85.774)" fill="#fff"/><path d="M450,132.483a3.141,3.141,0,0,0,2.586-1.155l.472.415A3.776,3.776,0,0,1,450,133.118a3.719,3.719,0,0,1-3.851-3.836,3.776,3.776,0,0,1,3.708-3.851,3.631,3.631,0,0,1,3.617,4h-6.6A2.959,2.959,0,0,0,450,132.483Zm2.749-3.636a2.782,2.782,0,0,0-2.892-2.8,2.938,2.938,0,0,0-2.968,2.8Z" transform="translate(-287.664 -85.779)" fill="#fff"/></g></g></g></svg>