<svg xmlns="http://www.w3.org/2000/svg" width="200" height="100" viewBox="0 0 200 100"><g transform="translate(-166 -291)"><rect width="200" height="100" transform="translate(166 291)" fill="none"/><g transform="translate(0 -12.559)"><g transform="translate(180.9 334.558)"><g transform="translate(0.1)"><path d="M153.807,35.586a6.237,6.237,0,0,0,4.45,2.124V22.136c0-3.843-.809-6.877-2.326-8.9a9.743,9.743,0,0,0-13.45-1.011l-.4.4-.4-.4h-.1l-.2-.2a3.621,3.621,0,0,0-1.112-.607,15.36,15.36,0,0,0-4.955-.91V37.1h6.27V22.641c0-2.427.4-4.146,1.315-5.259a4.757,4.757,0,0,1,3.843-1.517,4.63,4.63,0,0,1,3.843,1.517c.91,1.112,1.315,2.832,1.315,5.36v7.18a9.24,9.24,0,0,0,1.921,5.663" transform="translate(1.428 0.113)" fill="#fff"/><path d="M46.306,35.586a6.237,6.237,0,0,0,4.45,2.124V22.136c0-3.843-.809-6.877-2.326-8.9A8.821,8.821,0,0,0,41.047,10a8.853,8.853,0,0,0-6.068,2.225l-.4.4-.4-.4h0l-.2-.2a3.621,3.621,0,0,0-1.112-.607,15.36,15.36,0,0,0-4.955-.91V37.1h6.169V22.641c0-2.427.4-4.146,1.315-5.259a4.757,4.757,0,0,1,3.843-1.517,4.629,4.629,0,0,1,3.843,1.517c.91,1.112,1.315,2.832,1.315,5.36v7.18a9.24,9.24,0,0,0,1.921,5.663" transform="translate(0.214 0.113)" fill="#fff"/><path d="M16.584,35.484h0l.3.2A9.156,9.156,0,0,0,18,36.293a15.36,15.36,0,0,0,4.955.91v-26.6h-6.27V25.168c0,2.427-.4,4.146-1.315,5.259a4.757,4.757,0,0,1-3.843,1.517,4.757,4.757,0,0,1-3.843-1.517c-.91-1.112-1.315-2.832-1.315-5.36v-7.18a9.033,9.033,0,0,0-1.82-5.663A6.237,6.237,0,0,0,.1,10.1V25.674c0,3.843.809,6.877,2.326,8.9A8.821,8.821,0,0,0,9.809,37.81a8.853,8.853,0,0,0,6.068-2.225l.4-.4.3.3Z" transform="translate(-0.1 0.114)" fill="#fff"/><path d="M98.328,16.27a6.683,6.683,0,0,1,3.944,1.416l1.618-6.068A6.758,6.758,0,0,0,99.339,10a7.329,7.329,0,0,0-5.36,2.225l-.4.4-.4-.4h0l-.2-.2a3.621,3.621,0,0,0-1.112-.607,15.36,15.36,0,0,0-4.955-.91V37.1h6.169V22.742a7.857,7.857,0,0,1,1.416-5.158,5.114,5.114,0,0,1,3.843-1.315" transform="translate(0.881 0.113)" fill="#fff"/><path d="M61.868,12.117a3.621,3.621,0,0,0-1.112-.607A15.36,15.36,0,0,0,55.8,10.6V37.2h6.27V12.218Z" transform="translate(0.53 0.12)" fill="#fff"/><path d="M71.972,35.7a6.237,6.237,0,0,0,4.45,2.124V16.585H83.1V10.72H76.422v-9.2l-.1-.1A3.621,3.621,0,0,0,75.209.809,16.755,16.755,0,0,0,70.152,0V10.72H65.5v5.866h4.652V30.137a8.531,8.531,0,0,0,1.82,5.562" transform="translate(0.639)" fill="#fff"/><path d="M118.255,31.541a7.585,7.585,0,1,1,7.585-7.585,7.574,7.574,0,0,1-7.585,7.585m0-21.541A13.855,13.855,0,1,0,132.11,23.855,13.811,13.811,0,0,0,118.255,10" transform="translate(1.079 0.113)" fill="#fff"/></g><path d="M161.1,32.9h2.731v.4h-1.214v3.742h-.4V33.3H161.1Z" transform="translate(1.82 0.372)" fill="#fff"/><path d="M164.5,32.9h.708l.809,2.731c.1.4.2.708.2.708s.1-.3.2-.708l.809-2.731h.708l.3,4.146h-.506l-.2-3.034V33.3a3.978,3.978,0,0,1-.2.607l-.91,3.135h-.4l-.809-2.933a7.43,7.43,0,0,0-.2-.809v.809l-.2,2.933H164.3Z" transform="translate(1.856 0.372)" fill="#fff"/></g></g></g></svg>