<svg xmlns="http://www.w3.org/2000/svg" width="200" height="100" viewBox="0 0 200 100"><g transform="translate(-164.393 -290.5)"><rect width="200" height="100" transform="translate(164.393 290.5)" fill="none"/><g transform="translate(17.893 1.685)"><g transform="translate(639.9 88.416)"><path d="M-83.868,295.9l-2.332,7.07h4.839l-2.332-7.07Z" transform="translate(-286.376 -61.067)" fill="#fff"/><path d="M-197.719,384.1l-1.981,6.042h4.137l-1.981-6.042Z" transform="translate(-201.332 -127.153)" fill="#fff"/><path d="M-141.342,384.1H-144.3v4.011h2.958a2.38,2.38,0,0,0,1.73-.526,1.844,1.844,0,0,0,.577-1.5,1.939,1.939,0,0,0-.577-1.454A2.341,2.341,0,0,0-141.342,384.1Z" transform="translate(-242.843 -127.153)" fill="#fff"/><path d="M-468.4,214.4v70h150.43v-70Zm31.941,27.153c0,.7,0,1.329-.05,1.855s-.125,1-.176,1.4c-.125.4-.226.8-.351,1.1a4.36,4.36,0,0,1-.527.928c-1.229,1.68-3.184,2.557-6.042,2.557s-4.814-.827-6.042-2.557a8.71,8.71,0,0,1-.527-.928,3.343,3.343,0,0,1-.351-1.1c-.05-.426-.125-.878-.176-1.4s-.05-1.153-.05-1.855V231.6h3.811v10.029a7.737,7.737,0,0,0,.226,2.206,2.845,2.845,0,0,0,1.053,1.454,3.585,3.585,0,0,0,2.081.627,3.368,3.368,0,0,0,2.081-.627,2.845,2.845,0,0,0,1.053-1.454,7.738,7.738,0,0,0,.226-2.206V231.574h3.761Zm14.817,7.547H-433.3v-17.55h3.761v13.94h7.9Zm-1.554-14.266v-3.184h13.99v3.184h-5.115V249.1h-3.761V234.833Zm15.319,34.3h-10.1V254.214h9.878v2.733h-6.669v3.184h6.143v2.783h-6.143v3.134h6.895Zm1.178-37.557h3.761V249.1H-406.7Zm11.408,37.557-.978-3.259h-5.39l-.978,3.259h-3.485l5.215-14.867h3.886l5.215,14.867Zm-.426-34.3h-.176V249.1H-399.2V231.574h5.967l3.309,12.41h.176l3.309-12.41h5.967l.05,17.525h-3.309V234.833h-.176L-388.1,249.1h-3.435Zm17.55,34.3v-.041l-.006-.009h-3.881l-2.658-5.34h-2.507v5.34H-390.4V254.214h5.792a9.39,9.39,0,0,1,2.332.3,5.769,5.769,0,0,1,1.805.878,4.227,4.227,0,0,1,1.1,1.454,4.817,4.817,0,0,1,.4,2.081,5.057,5.057,0,0,1-.627,2.833,4.172,4.172,0,0,1-2.031,1.68l3.454,5.641h.006v.009l.025.041Zm5.24-10.029a7.293,7.293,0,0,0,1.855.8l1.981.7a9.4,9.4,0,0,1,3.034,1.63,4.071,4.071,0,0,1,.7,2.507,4.792,4.792,0,0,1-.476,1.981,4.735,4.735,0,0,1-1.153,1.4,4.852,4.852,0,0,1-1.805.878,9.812,9.812,0,0,1-2.382.3,8.9,8.9,0,0,1-2.507-.4,5.206,5.206,0,0,1-1.905-1.053,5.1,5.1,0,0,1-1.153-1.73,6.506,6.506,0,0,1-.4-2.382h3.184a2.666,2.666,0,0,0,.7,2.031,3.271,3.271,0,0,0,2.156.8,3.8,3.8,0,0,0,1.905-.3,1.452,1.452,0,0,0,.8-.928,1.6,1.6,0,0,0-.175-1.053,2.663,2.663,0,0,0-1.279-.8c-.627-.226-1.855-.7-3.535-1.329-2.307-.928-3.41-2.256-3.36-4.062a4.653,4.653,0,0,1,.476-1.68,3.922,3.922,0,0,1,1.153-1.329,6.439,6.439,0,0,1,1.73-.8,9.39,9.39,0,0,1,2.332-.3,7.8,7.8,0,0,1,2.382.351,5.85,5.85,0,0,1,1.805.928,4.07,4.07,0,0,1,1.153,1.454,4.327,4.327,0,0,1,.4,1.905h-3.184a1.664,1.664,0,0,0-.627-1.454,3.073,3.073,0,0,0-1.905-.527,3.3,3.3,0,0,0-1.73.351,1.358,1.358,0,0,0-.7,1.053A1.088,1.088,0,0,0-372.927,259.1Zm7.07-10-1.153-3.761h-6.343l-1.153,3.761h-4.112l6.143-17.525h4.588l6.143,17.525Zm17.826-14.266h-5.115V249.1h-3.761V234.833h-5.115v-3.184h13.99Zm13.99,14.266h-11.834v.025h-.075V231.6h11.633v3.184h-7.847v3.761h7.246v3.284h-7.246v3.66h8.123Z" transform="translate(0)" fill="#fff"/></g></g></g></svg>