<svg xmlns="http://www.w3.org/2000/svg" width="200" height="100" viewBox="0 0 200 100"><g transform="translate(-165.393 -292.821)"><rect width="200" height="100" transform="translate(165.393 292.821)" fill="none"/><g transform="translate(158.563 -16.317)"><g transform="translate(9.23 142.438)"><rect width="150.43" height="70" transform="translate(21.6 181.7)"/><path d="M173.658,279.158l-1.981-.7a7.291,7.291,0,0,1-1.855-.8,1.088,1.088,0,0,1-.527-1.053,1.358,1.358,0,0,1,.7-1.053,3.3,3.3,0,0,1,1.73-.351,3.073,3.073,0,0,1,1.905.527,1.664,1.664,0,0,1,.627,1.454h3.184a4.327,4.327,0,0,0-.4-1.905,4.07,4.07,0,0,0-1.153-1.454,5.85,5.85,0,0,0-1.805-.928,7.8,7.8,0,0,0-2.382-.351,9.39,9.39,0,0,0-2.332.3,6.439,6.439,0,0,0-1.73.8,3.922,3.922,0,0,0-1.153,1.329,4.652,4.652,0,0,0-.476,1.68c-.05,1.805,1.053,3.134,3.36,4.062,1.68.627,2.908,1.1,3.535,1.329a2.662,2.662,0,0,1,1.279.8,1.6,1.6,0,0,1,.176,1.053,1.452,1.452,0,0,1-.8.928,3.8,3.8,0,0,1-1.905.3,3.271,3.271,0,0,1-2.156-.8,2.666,2.666,0,0,1-.7-2.031H165.61a6.5,6.5,0,0,0,.4,2.382,5.1,5.1,0,0,0,1.153,1.73,5.206,5.206,0,0,0,1.905,1.053,8.9,8.9,0,0,0,2.507.4,9.811,9.811,0,0,0,2.382-.3,4.852,4.852,0,0,0,1.805-.878,4.735,4.735,0,0,0,1.153-1.4,4.793,4.793,0,0,0,.476-1.981,4.071,4.071,0,0,0-.7-2.507,9.4,9.4,0,0,0-3.034-1.63m-13.363-.176a2.38,2.38,0,0,1-1.73.527h-2.958V275.5h2.958a2.34,2.34,0,0,1,1.73.526,1.939,1.939,0,0,1,.577,1.454,1.844,1.844,0,0,1-.577,1.5m4.312,8.7-3.485-5.691a4.173,4.173,0,0,0,2.031-1.68,5.057,5.057,0,0,0,.627-2.833,4.817,4.817,0,0,0-.4-2.081,4.227,4.227,0,0,0-1.1-1.454,5.769,5.769,0,0,0-1.805-.878,9.39,9.39,0,0,0-2.332-.3h-5.792v14.867h3.184v-5.34h2.507l2.658,5.34h3.886v.05Zm-24.495,0,.978-3.259h5.39l.978,3.259h3.485l-5.215-14.867h-3.886l-5.215,14.867Zm1.6-6.143L143.7,275.5h.176l1.981,6.042Zm-16.923,6.143h10.079V284.6h-6.895v-3.134h6.143v-2.783h-6.143V275.5h6.669v-2.733h-9.878v14.918Zm72.081-20.032h11.834v-3.61h-8.123v-3.66h7.246v-3.284h-7.246v-3.761h7.847V250.15H196.8v17.525h.075Zm-11.032,0H189.6V253.384h5.115V250.2h-13.99v3.184h5.115Zm-17.6,0,1.153-3.761h6.343l1.153,3.761H181l-6.143-17.525h-4.588l-6.143,17.525Zm1.931-7.2,2.332-7.07h.176l2.332,7.07Zm-7.9-10.33h-5.967L153,262.536h-.176l-3.309-12.41h-5.967V267.65h3.309V253.384h.175l4.187,14.266h3.435l4.187-14.266h.175V267.65h3.309l-.05-17.525ZM136.051,267.65h3.761V250.125h-3.761Zm-11.383,0h3.761V253.384h5.115V250.2h-13.99v3.184h5.115Zm-15.218,0h11.658v-3.61h-7.9V250.1H109.45ZM92,250.125V260.1c0,.7,0,1.329.05,1.855s.125.978.175,1.4a3.343,3.343,0,0,0,.351,1.1,8.705,8.705,0,0,0,.526.928c1.229,1.73,3.184,2.557,6.042,2.557s4.814-.878,6.042-2.557a4.36,4.36,0,0,0,.527-.928c.125-.3.226-.7.351-1.1.05-.4.125-.878.175-1.4s.05-1.153.05-1.855v-9.979H102.53v10.054a7.739,7.739,0,0,1-.226,2.206,2.846,2.846,0,0,1-1.053,1.454,3.368,3.368,0,0,1-2.081.627,3.585,3.585,0,0,1-2.081-.627,2.845,2.845,0,0,1-1.053-1.454,7.739,7.739,0,0,1-.226-2.206V250.15H92Z" transform="translate(-52.75 -51.251)" fill="#fff"/></g></g></g></svg>