<svg xmlns="http://www.w3.org/2000/svg" width="200" height="100" viewBox="0 0 200 100"><g transform="translate(-164.393 -293)"><rect width="200" height="100" transform="translate(164.393 293)" fill="none"/><g transform="translate(152.566 -6.638)"><g transform="translate(26.826 332.639)"><path d="M107.227,7.974h-3.9v7.193h-4.3V7.974h-3.9V25.809h3.9v-7.3h4.3v7.3h3.9V7.974Z" transform="translate(-47.437 -3.977)" fill="#fff"/><path d="M131.508,7.974,126.16,25.809h3.609l.883-3.663h5l.909,3.663h3.984l-5.08-17.835Zm-.107,11.1L133.14,11.8l1.792,7.273Z" transform="translate(-62.921 -3.977)" fill="#fff" fill-rule="evenodd"/><path d="M162.116,7.974V25.809h3.046V12.894l5.428,12.915h3.5V7.974h-3.047v11.07l-4.572-11.07Z" transform="translate(-80.854 -3.977)" fill="#fff"/><path d="M205.681,11.586c-.374-1.176-1.31-4.145-5.749-4.145-3.9,0-5.7,2.674-5.7,5.455,0,3.637,2.941,4.68,5.375,5.564,1.337.482,2.46.989,2.46,2.247,0,1.176-.936,1.925-2.272,1.925a2.99,2.99,0,0,1-2.861-2.674l-3.423.962a7.214,7.214,0,0,0,1.524,3.022,5.972,5.972,0,0,0,4.653,1.871c4.2,0,6.337-2.647,6.337-5.7,0-3.609-2.914-4.706-4.92-5.481-1.9-.722-3.076-1.15-3.076-2.379a1.7,1.7,0,0,1,1.768-1.638c.035,0,.07,0,.1.007a2.687,2.687,0,0,1,2.513,2.219l3.262-1.257Z" transform="translate(-96.514 -3.711)" fill="#fff"/><path d="M227.82,7.974l-5.348,17.835h3.609l.882-3.663h5l.909,3.663h3.984l-5.08-17.835Zm-.107,11.1,1.738-7.273,1.792,7.273Z" transform="translate(-110.956 -3.977)" fill="#fff" fill-rule="evenodd"/><path d="M254.1,7.974v3.342h3.556V25.809h3.9V11.316H265.2V7.974Z" transform="translate(-126.73 -3.977)" fill="#fff"/><path d="M287.168,7.441c-5.8,0-6.471,5.776-6.471,9.2,0,3.583.749,9.173,6.471,9.173,5.883,0,6.471-5.909,6.471-9.173C293.639,12.923,292.837,7.441,287.168,7.441Zm0,3.182c2.032,0,2.353,2.273,2.353,6.015,0,3.77-.348,5.99-2.353,5.99-1.979,0-2.353-2.166-2.353-5.99C284.815,12.761,285.189,10.623,287.168,10.623Z" transform="translate(-139.995 -3.711)" fill="#fff" fill-rule="evenodd"/><path d="M315.246,7.974V25.809h3.048V12.894l5.428,12.915h3.5V7.974h-3.048v11.07l-4.572-11.07Z" transform="translate(-157.226 -3.977)" fill="#fff"/><path d="M25.278.44C33.973-.7,41.945.305,43.548,4.281c2.082,5.163-6.266,24.566-16.069,29.063L38.68,3.551l-7.324.179-3.446,9.055-7.459.235ZM.005,14.878C.3,9.113,8.329,4.5,17.437,2.018L8.7,24.983l7.324-.179L19.109,16.4l7.489-.235L20.2,33.38C12,30.526-.3,20.852.005,14.878Z" transform="translate(0)" fill="#fff" fill-rule="evenodd"/><path d="M85.5,54.52c.936-1,1.52-1.6,1.8-1.6.176,0,.2.165.06.507l-.885,2.094a4.339,4.339,0,0,0-.24.639.466.466,0,0,0,.451.606,3.478,3.478,0,0,0,1.98-1.344l-.194-.143a3.262,3.262,0,0,1-.886.738c-.066,0-.1-.077-.017-.264l1-2.356a4.775,4.775,0,0,0,.237-.684c.076-.408-.115-.683-.457-.683-.728,0-1.6.8-2.607,1.928l-.018-.022,1.7-4.4c.066-.176.11-.3-.033-.3a1.569,1.569,0,0,0-.432.132l-1.574.584.065.243.177-.066c.129-.044.12-.055.209-.055.132,0,.15.143.086.309L83.621,56.33c-.128.331-.05.375.184.375H84.4c.21,0,.277-.067.36-.276l.74-1.9Z" transform="translate(-41.675 -24.56)" fill="#fff"/><path d="M100.482,58.341a2.552,2.552,0,0,1-1.321.529c-.529,0-.805-.351-.7-.926a3.3,3.3,0,0,1,.183-.628c1.537-.331,2.543-.882,2.7-1.708.09-.485-.2-.8-.743-.8-1.609,0-3.139,1.95-3.387,3.284-.162.871.226,1.454.964,1.454a5.028,5.028,0,0,0,2.412-1l-.106-.2Zm-.146-2.71a1.928,1.928,0,0,1-1.589,1.433c.418-1,.883-1.9,1.335-1.9.21,0,.3.2.254.474Z" transform="translate(-48.465 -27.334)" fill="#fff" fill-rule="evenodd"/><path d="M112.349,54.8a4.391,4.391,0,0,0-3.3,1.1,4.461,4.461,0,0,0-1.678,2.567c-.141.76.309,1.069.562,1.069.331,0,1.077-.639,1.9-1.353h.023a3.16,3.16,0,0,0-.206.694c-.078.419.031.661.318.661a3.672,3.672,0,0,0,1.772-1.058l.068-.363a3.066,3.066,0,0,1-.881.652c-.121,0-.067-.176.034-.419Zm-2.316,2.92c-.538.463-.943.8-1.2.8-.276,0-.4-.309-.311-.761a3.5,3.5,0,0,1,1.015-1.785,1.945,1.945,0,0,1,1.361-.507l-.869,2.248Z" transform="translate(-53.537 -27.332)" fill="#fff" fill-rule="evenodd"/><path d="M120.41,56.422a3.842,3.842,0,0,1,.731-.672c.143,0,.03.254-.036.43l-1.068,2.964c-.113.309-.05.4.235.4h.5a.364.364,0,0,0,.395-.287l.143-.351a7.918,7.918,0,0,1,1.366-2.49.678.678,0,0,1,.606-.176c.32,0,.664-.43.76-.948.057-.308-.053-.485-.307-.485-.639,0-1.111.761-1.741,2.017l-.333.661c-.15.341-.2.441-.247.441s-.03-.077.008-.221l.455-1.2a8.3,8.3,0,0,0,.4-1.267c.055-.3,0-.43-.163-.43-.374,0-1.056.584-1.879,1.454l.178.165Z" transform="translate(-59.841 -27.332)" fill="#fff"/><path d="M132.3,55.9a1.963,1.963,0,0,1-.878.573c-.165,0-.143-.121-.006-.441l.957-2.248a3.83,3.83,0,0,0,.247-.739c.07-.374-.071-.628-.357-.628-.419,0-1.044.4-1.912,1.333l.176.176c.254-.3.586-.606.719-.606s.067.176-.017.385l-.612,1.445A9.268,9.268,0,0,0,130.1,56.5c-.072.385.131.661.473.661a3.362,3.362,0,0,0,1.886-1.08L132.3,55.9Zm-.12-4.87a.464.464,0,0,0,.46.606,1.162,1.162,0,0,0,.977-.992c.07-.374-.117-.617-.458-.617a1.146,1.146,0,0,0-.98,1Z" transform="translate(-64.88 -24.952)" fill="#fff" fill-rule="evenodd"/><path d="M140.474,57.29c.834-.871,1.481-1.565,1.754-1.565.143,0,.178.11.078.351l-.952,2.281a2.72,2.72,0,0,0-.193.562c-.063.341.106.617.381.617a3.42,3.42,0,0,0,1.984-1.311l-.178-.165a3.022,3.022,0,0,1-.885.727c-.088,0-.031-.187.086-.463l1-2.369a2.261,2.261,0,0,0,.184-.518c.074-.4-.091-.64-.433-.64-.606,0-1.422.595-2.6,1.928l-.018-.022a7.6,7.6,0,0,0,.464-1.312c.07-.374-.044-.595-.308-.595a4,4,0,0,0-2.029,1.488l.192.154c.432-.485.671-.7.792-.7s.057.11-.026.32L138.582,59.1c-.121.3-.092.375.162.375h.584c.265,0,.317-.045.451-.419l.691-1.763Z" transform="translate(-69.082 -27.33)" fill="#fff"/><path d="M154.518,56.432a1.441,1.441,0,0,0-.1-.948l.623.089.118-.64a11.04,11.04,0,0,0-1.454-.132,3.444,3.444,0,0,0-3.12,2.38,1.263,1.263,0,0,0,.833,1.51l0,.022a1.037,1.037,0,0,0-.858.705.429.429,0,0,0,.033.3c-1.344.529-2.091.937-2.19,1.466-.088.474.765.8,2.1.8,1.575,0,2.707-.441,2.825-1.091.162-.871-1.869-1.565-1.793-1.972.061-.331,1.083-.254,2.063-1.08a2.621,2.621,0,0,0,.923-1.411Zm-2.779.959c.1-.562.757-2.237,1.341-2.237.32,0,.446.33.339.9-.119.639-.652,2.259-1.279,2.259-.319,0-.5-.408-.4-.926Zm.451,3.912c-.041.22-.669.4-1.418.4-.849,0-1.281-.287-1.186-.793.07-.374.464-.716,1.1-.958.444.694,1.564,1.014,1.5,1.353Z" transform="translate(-74.009 -27.332)" fill="#fff" fill-rule="evenodd"/><path d="M179.587,56.759a1.207,1.207,0,0,1-.671.287c-.485,0-.639-.595-.968-1.433.8-.871,1.37-1.862,1.7-2.138a.941.941,0,0,1,.7-.2h.176l.078-.419h-2.182l-.078.419h.132c.374,0,.5.055.472.187a7.045,7.045,0,0,1-1.181,1.73,4.938,4.938,0,0,0-1.224-1.6,1.879,1.879,0,0,0,1.241-1.278c.129-.695-.427-1.146-1.4-1.146a1.937,1.937,0,0,0-2.077,1.333,1.615,1.615,0,0,0,.545,1.454c-1.315.5-1.977,1.091-2.132,1.928a1.5,1.5,0,0,0,1.58,1.874,3.965,3.965,0,0,0,2.424-1c.348.738.64,1,1.323,1a2.924,2.924,0,0,0,1.678-.607l-.136-.4Zm-5.434-1.3a1.777,1.777,0,0,1,1.01-1.223,6.318,6.318,0,0,1,1.4,2.094,2.248,2.248,0,0,1-1.386.639,1.174,1.174,0,0,1-1.02-1.51Zm1.413-3.273a.693.693,0,0,1,.706-.595c.43,0,.659.309.573.771a1.585,1.585,0,0,1-.652.97c-.489-.451-.707-.705-.625-1.146Z" transform="translate(-86.117 -25.52)" fill="#fff" fill-rule="evenodd"/><path d="M200.223,58.341a2.556,2.556,0,0,1-1.321.529c-.529,0-.805-.351-.7-.926a3.258,3.258,0,0,1,.182-.628c1.538-.331,2.544-.882,2.7-1.708.09-.485-.2-.8-.743-.8-1.608,0-3.139,1.95-3.387,3.284-.162.871.226,1.454.964,1.454a5.028,5.028,0,0,0,2.412-1l-.106-.2Zm-.147-2.71a1.928,1.928,0,0,1-1.588,1.433c.418-1,.883-1.9,1.335-1.9.21,0,.3.2.254.474Z" transform="translate(-98.211 -27.334)" fill="#fff" fill-rule="evenodd"/><path d="M215.507,58.029a2.622,2.622,0,0,1-.849.716c-.1,0-.071-.154.015-.374l.948-2.436c.254-.652.222-1.135-.285-1.135-.727,0-1.577.716-2.63,1.939l-.018-.022c.569-1.168.774-1.918.014-1.918-.628,0-1.584.761-2.553,1.884l-.018-.022.355-.9c.251-.629.222-.959-.2-.959-.474,0-1.1.451-2,1.454l.17.154c.287-.3.609-.606.719-.606s.072.088.027.209l-1.222,3.141c-.083.209-.016.32.205.32h.561c.265,0,.306-.045.408-.3l.736-1.884c.809-.915,1.432-1.6,1.773-1.6.154,0,.184.2.074.5l-1.12,2.887c-.125.32-.019.4.191.4h.573c.276,0,.288-.067.375-.3l.736-1.884c1.011-1.113,1.454-1.6,1.729-1.6.154,0,.215.088.182.264a2.255,2.255,0,0,1-.107.342l-.8,2.05a3.115,3.115,0,0,0-.2.595c-.07.374.077.595.374.595.529,0,1.228-.441,2.017-1.366l-.183-.143Z" transform="translate(-103.712 -27.331)" fill="#fff"/><path d="M226.471,57.963c-.172.925.2,1.575.908,1.575a4.11,4.11,0,0,0,3.544-3.119c.182-.98-.162-1.62-.878-1.62a4.157,4.157,0,0,0-3.574,3.163ZM227.8,57.7c.248-1.333,1.027-2.446,1.479-2.446.32,0,.487.639.351,1.366-.254,1.366-1.063,2.456-1.481,2.456-.351,0-.5-.584-.351-1.377Z" transform="translate(-112.929 -27.331)" fill="#fff" fill-rule="evenodd"/><path d="M241.153,54.069h.871l.193-.507h-.871a9.547,9.547,0,0,1,.779-1.466h-.287a5.573,5.573,0,0,1-2.316,1.73l-.089.242h.54l-1.242,3.185c-.236.618-.009.937.4.937a3.673,3.673,0,0,0,2.067-1.1l-.159-.21a2.583,2.583,0,0,1-.969.652c-.143,0-.214-.154-.133-.351l1.217-3.108Z" transform="translate(-119.017 -25.983)" fill="#fff" fill-rule="evenodd"/><path d="M250.252,55.9a1.966,1.966,0,0,1-.878.573c-.165,0-.143-.121-.007-.441l.957-2.248a3.832,3.832,0,0,0,.247-.739c.07-.374-.071-.628-.357-.628-.419,0-1.043.4-1.912,1.333l.176.176c.254-.3.586-.606.719-.606s.066.176-.017.385l-.609,1.445a9.268,9.268,0,0,0-.514,1.344c-.072.385.131.661.473.661a3.362,3.362,0,0,0,1.886-1.08l-.165-.176Zm-.12-4.87a.464.464,0,0,0,.46.606,1.162,1.162,0,0,0,.977-.992c.07-.374-.116-.617-.458-.617a1.146,1.146,0,0,0-.98,1Z" transform="translate(-123.71 -24.952)" fill="#fff" fill-rule="evenodd"/><path d="M255.969,57.963c-.172.925.2,1.575.909,1.575a4.11,4.11,0,0,0,3.543-3.119c.182-.98-.162-1.62-.878-1.62a4.156,4.156,0,0,0-3.574,3.163ZM257.3,57.7c.248-1.333,1.028-2.446,1.479-2.446.32,0,.488.639.351,1.366-.254,1.366-1.063,2.456-1.482,2.456-.351,0-.5-.584-.351-1.377Z" transform="translate(-127.641 -27.331)" fill="#fff" fill-rule="evenodd"/><path d="M269.83,57.29c.834-.871,1.481-1.565,1.754-1.565.143,0,.178.11.078.351l-.952,2.281a2.721,2.721,0,0,0-.193.562c-.063.341.106.617.381.617a3.422,3.422,0,0,0,1.985-1.311l-.179-.165a3.02,3.02,0,0,1-.884.727c-.088,0-.032-.187.086-.463l1-2.369a2.262,2.262,0,0,0,.184-.518c.074-.4-.09-.64-.433-.64-.606,0-1.422.595-2.6,1.928l-.018-.022a7.682,7.682,0,0,0,.464-1.312c.069-.374-.044-.595-.309-.595a4,4,0,0,0-2.028,1.488l.191.154c.432-.485.671-.7.792-.7s.057.11-.026.32L267.939,59.1c-.121.3-.092.375.162.375h.584c.265,0,.317-.045.451-.419l.691-1.763Z" transform="translate(-133.598 -27.33)" fill="#fff"/><path d="M283.821,55.958a.731.731,0,0,0,.688-.616c.083-.437-.218-.739-.744-.739a2.162,2.162,0,0,0-2.086,1.49c-.211,1.109,1.25,1.792,1.122,2.464a.435.435,0,0,1-.4.324c-.672,0-.718-.818-1.334-.818a.784.784,0,0,0-.719.605c-.089.47.272.752.966.752a2.2,2.2,0,0,0,2.322-1.613c.191-1.008-1.134-1.579-.982-2.374a.386.386,0,0,1,.351-.325c.481,0,.129.852.812.852Z" transform="translate(-139.815 -27.233)" fill="#fff"/></g></g></g></svg>