<svg xmlns="http://www.w3.org/2000/svg" width="200" height="100" viewBox="0 0 200 100"><g transform="translate(-164.502 -291)"><rect width="200" height="100" transform="translate(164.502 291)" fill="none"/><g transform="translate(10.003 -3.317)"><g transform="translate(176.9 233.317)"><path d="M185.135,82.2a8.01,8.01,0,0,0-.883.052A10.36,10.36,0,0,0,174.061,75.5a16.162,16.162,0,0,0-2.042.121C169.648,69.669,164.664,66,157.57,66,143.5,66,126.56,80.553,119.742,98.5c-6.853,17.945-.952,32.515,13.1,32.515,7.077,0,14.9-3.7,21.786-9.639a13.994,13.994,0,0,0,1.938.138c5,0,10.5-2.561,15.349-6.749.277.017.554.017.848.017,7.043,0,15.539-7.285,18.966-16.283,3.409-9,.467-16.3-6.593-16.3m-44.178,42.084c-10.867,0-15.418-12.286-10.14-27.41,5.3-15.159,18.377-27.427,29.262-27.427A11.168,11.168,0,0,1,170.513,75.9c-9.119,2.025-18.966,11.386-23.24,22.582-4.015,10.556-1.8,19.45,4.759,22.167a21.309,21.309,0,0,1-11.075,3.634m20.661-8.22c-7.7,0-10.919-8.7-7.2-19.4,3.738-10.729,13-19.4,20.713-19.4a7.98,7.98,0,0,1,7.683,5.191c-6.489,1.35-13.584,8.012-16.647,16.041-2.682,7.095-1.436,13.117,2.665,15.366a14.63,14.63,0,0,1-7.216,2.2m29.175-18.793c-2.648,7.579-9.206,13.722-14.674,13.722-5.451,0-7.718-6.143-5.07-13.722s9.206-13.74,14.639-13.74c5.468.017,7.752,6.16,5.1,13.74" transform="translate(-75.488)" fill="#fff"/><path d="M42.3,484.522a12.836,12.836,0,0,0-6.455-1.852c-4.291,0-7.475,2.89-7.475,6.818,0,4,3.08,6.766,7.6,6.766a12.568,12.568,0,0,0,6.524-2.007v2.786a14.225,14.225,0,0,1-6.783,1.575c-7.026,0-10.106-5.157-10.106-8.894,0-5.434,4.309-9.414,10.279-9.414a17.04,17.04,0,0,1,6.42,1.471Z" transform="translate(0 -342.608)" fill="#fff"/><path d="M146.169,521.487c0,3.72-2.734,6.23-6.662,6.23a6.148,6.148,0,0,1-6.506-6.23c0-3.374,2.821-5.987,6.506-5.987,3.859,0,6.662,2.509,6.662,5.987m-10.694,0a4.1,4.1,0,1,0,8.2.035,3.93,3.93,0,0,0-4.2-3.911,3.805,3.805,0,0,0-4,3.876" transform="translate(-88.815 -371.717)" fill="#fff"/><path d="M228.039,518.805a5.846,5.846,0,0,0-3.409-1.159,3.669,3.669,0,0,0-3.755,3.98c0,2.405,1.661,3.876,4.188,3.876a8.083,8.083,0,0,0,3.253-.779v2.3a10.185,10.185,0,0,1-3.669.692c-3.686,0-6.247-2.423-6.247-5.883,0-3.859,2.353-6.333,6.091-6.333a8.36,8.36,0,0,1,3.565.813v2.492Z" transform="translate(-159.437 -371.717)" fill="#fff"/><path d="M290.257,489.331h.052a4.842,4.842,0,0,1,3.669-1.782c2.405,0,4.188,1.575,4.188,4.776v7.2h-2.423v-7.268c0-1.713-.952-2.855-2.405-2.855-1.073,0-1.921.467-3.08,1.7v8.427H287.8V481.7h2.457Z" transform="translate(-216.828 -343.766)" fill="#fff"/><rect width="2.423" height="17.823" transform="translate(84.296 137.934)" fill="#fff"/><path d="M403.419,526.415A8.351,8.351,0,0,1,398.5,527.8a5.915,5.915,0,0,1-6-6.23,5.589,5.589,0,0,1,5.762-5.97c3.288,0,5.347,2.111,5.347,6.455H394.94a3.816,3.816,0,0,0,4.153,3.547,8.177,8.177,0,0,0,4.309-1.419v2.232Zm-2.18-5.918a2.771,2.771,0,0,0-2.89-2.89,3.146,3.146,0,0,0-3.322,2.89Z" transform="translate(-303.41 -371.8)" fill="#fff"/><path d="M473.856,526.7a4,4,0,0,1-2.353.917c-1.073,0-1.661-.381-1.869-1.194a5.442,5.442,0,0,1-3.322,1.194,2.9,2.9,0,0,1-3.011-2.89c0-2.319,2.215-3.028,4.188-3.7l2.163-.727v-.623c0-1.488-.727-2.077-2.215-2.077a5.146,5.146,0,0,0-3.893,1.938v-2.526a5.156,5.156,0,0,1,4.084-1.609c2.492,0,4.465,1.211,4.465,3.876v6.039c0,.45.173.588.467.588a2.853,2.853,0,0,0,1.3-.64V526.7Zm-4.2-5.1c-2.077.675-3.876,1.367-3.876,2.751a1.633,1.633,0,0,0,1.73,1.644,3.178,3.178,0,0,0,2.146-.969Z" transform="translate(-361.959 -371.634)" fill="#fff"/><path d="M537.305,515.925v2.7h.069c1.246-2.077,2.405-2.924,3.582-2.924a4.443,4.443,0,0,1,2.942,1.367l-1.3,2.007a4.111,4.111,0,0,0-2.267-1.159c-1.678,0-3.011,1.609-3.011,3.617v6.143H534.9v-11.75Z" transform="translate(-421.169 -371.882)" fill="#fff"/><path d="M598.926,520.236a2.518,2.518,0,1,1,2.526-2.526,2.518,2.518,0,0,1-2.526,2.526m0-4.62a2.1,2.1,0,1,0,2.111,2.094,2.09,2.09,0,0,0-2.111-2.094m-1.107.779h1.194c.675,0,.9.415.9.709a.764.764,0,0,1-.779.779v.017c.225.086.4.311.623.675l.329.519h-.536l-.242-.415c-.346-.606-.467-.727-.8-.727h-.26v1.142h-.433v-2.7Zm1.073,1.194c.329,0,.554-.121.554-.415,0-.242-.19-.4-.484-.4h-.709v.813Z" transform="translate(-472.027 -371.469)" fill="#fff"/></g></g></g></svg>