<svg xmlns="http://www.w3.org/2000/svg" width="200" height="100" viewBox="0 0 200 100"><g transform="translate(-165.395 -290.199)"><rect width="200" height="100" transform="translate(165.395 290.199)" fill="none"/><g transform="translate(-9 -18.999)"><g transform="translate(188.895 344.6)"><path d="M48.9,21.6v7.22H27.4V.6h21V7.711H36V11.1H46.9v6.782H36V21.6Z" transform="translate(2.875)" fill="#f8e600"/><path d="M68.3,28.824l-4.4-7.548-4.4,7.548H49.6L58.9,14.6,50,.6h9.7l4.4,7.111L68.4.6h9.3L68.8,14.165l9.5,14.659Z" transform="translate(5.498)" fill="#f8e600"/><path d="M105.3,27.47a14.713,14.713,0,0,1-5.2-5.234,14.657,14.657,0,0,1-1.9-7.524,14.384,14.384,0,0,1,1.9-7.524,13.89,13.89,0,0,1,5.2-5.234A14.324,14.324,0,0,1,112.8.1a15.439,15.439,0,0,1,7.5,1.854,14.713,14.713,0,0,1,5.2,5.234,14.657,14.657,0,0,1,1.9,7.524,14.384,14.384,0,0,1-1.9,7.524,13.89,13.89,0,0,1-5.2,5.234,16.1,16.1,0,0,1-15,0m10.4-6.652a5.869,5.869,0,0,0,2.1-2.4,8.991,8.991,0,0,0,0-7.415,5.251,5.251,0,0,0-2.1-2.4,5.382,5.382,0,0,0-2.9-.872,5.133,5.133,0,0,0-2.9.872,5.869,5.869,0,0,0-2.1,2.4,8.991,8.991,0,0,0,0,7.415,5.251,5.251,0,0,0,2.1,2.4,5.382,5.382,0,0,0,2.9.872,4.6,4.6,0,0,0,2.9-.872" transform="translate(10.928 0)" fill="#f8e600"/><path d="M155.9.6V28.824h-7.1l-9.8-12.8v12.8h-8.5V.6h7.1l9.8,12.8V.6Z" transform="translate(14.1)" fill="#f8e600"/><path d="M80.9.6,76,7.929h5.9V28.824h8.7V7.929h7.5V.6Z" transform="translate(8.009)" fill="#f8e600"/><path d="M19.3,20.082a8.6,8.6,0,0,0,3.6-3.61,11.217,11.217,0,0,0,1.3-5.251,11.557,11.557,0,0,0-1.4-5.689,9.453,9.453,0,0,0-4.1-3.719A13.808,13.808,0,0,0,12.5.5H0V28.724H8.7V21.613H11l4.4,7.111h9.3l-5.4-8.642Zm-4.8-6.454a3.9,3.9,0,0,1-2.7.875H8.7V7.939h3.2a3.9,3.9,0,0,1,2.7.875,3.2,3.2,0,0,1,.9,2.407,3.472,3.472,0,0,1-1,2.407" transform="translate(0 0)" fill="#f8e600"/></g></g></g></svg>