<svg xmlns="http://www.w3.org/2000/svg" width="200" height="100" viewBox="0 0 200 100"><g transform="translate(-165.29 -294.251)"><rect width="200" height="100" transform="translate(165.29 294.25)" fill="none"/><g transform="translate(-7.001 -10.027)"><g transform="translate(272.542 354.581)"><g transform="translate(-61.252 -38.305)"><path d="M.171,76.546c-.043-.277.171-.47.3-.683L19.019,42.67l.235-.427L0,23.651H28.817C33.961,15.775,39.063,7.941,44.271,0c1.942,7.9,3.842,15.646,5.742,23.459l3.458.171,22.5,1.025,15.988.7,21.538.982,7.919.363c.192,0,.491-.107.512.363H46.961C45.637,20.684,44.292,14.3,42.905,7.749L31.25,27.109H8.3L24.377,41.368,8.453,68.52c.3.128.47-.043.662-.107A72.277,72.277,0,0,1,27.92,63.738a74.818,74.818,0,0,1,16.927.085,77.5,77.5,0,0,1,24.377,6.852c.3.149.79.149.79.683-.235.128-.384-.021-.555-.085A88.29,88.29,0,0,0,50.568,66.9a87.708,87.708,0,0,0-12.06-.7A75.289,75.289,0,0,0,.726,76.311c-.213.107-.342.256-.555.235Z" fill="#fff"/><path d="M136.2,174.752l2.476-2.711a4.707,4.707,0,0,0,4.1,2.071,3.821,3.821,0,0,0,2.327-.79,2.327,2.327,0,0,0-.086-3.821,11.061,11.061,0,0,0-2.924-1.238,23.887,23.887,0,0,1-2.433-.939c-3.885-1.772-3.522-6.916-1.046-8.965,2.8-2.305,8.047-2.305,10.78.064l.3.171-2.6,2.754a4.184,4.184,0,0,0-2.839-1.516,4.291,4.291,0,0,0-2.668.47,2.18,2.18,0,0,0-.149,3.8,9.98,9.98,0,0,0,2.519,1.046c.854.277,1.772.6,2.626.961,4.4,1.878,3.607,7.471,1.217,9.456C144.653,178.188,138.761,177.762,136.2,174.752Z" transform="translate(-107.127 -123.202)" fill="#fff"/><path d="M380.387,167.01v6.809H377.1V152.9h3.287v13.128l5.1-5.465h4.291l-5.678,6.02,6.041,7.236h-4.419Z" transform="translate(-296.605 -120.262)" fill="#fff"/><path d="M516.016,188.721l-3.415,8.5c-.961,2.369-1.9,4.739-2.86,7.087-.128.32-.256.619-.405.939a4.561,4.561,0,0,1-4.461,2.9,10.5,10.5,0,0,1-2.775-.342c.128-.982.256-1.942.406-2.988a6.361,6.361,0,0,0,2.583.3,1.665,1.665,0,0,0,1.58-1.089c.256-.619.512-1.259.811-1.921-1.878-4.44-3.757-8.9-5.678-13.405h3.672c1.217,3.01,2.433,6.062,3.736,9.243,1.153-3.159,2.241-6.19,3.33-9.243Z" transform="translate(-394.687 -148.42)" fill="#fff"/><path d="M213.291,177.539h-3.65V183.2c0,1.964.9,2.668,2.818,2.22l.832-.235v2.775c-1.857.47-3.735.747-5.529-.277a3.09,3.09,0,0,1-1.366-2.562c-.213-2.006-.064-4.013-.107-6.02V177.56H203.6v-2.839h2.668V170.9h3.351v3.8h3.65C213.291,175.639,213.291,176.557,213.291,177.539Z" transform="translate(-160.14 -134.42)" fill="#fff"/><path d="M336.574,187.33v3.2a15.46,15.46,0,0,0-1.665-.213,3.311,3.311,0,0,0-3.5,3.479v6.98H328.1V187.523h3.309v1.793A4.621,4.621,0,0,1,336.574,187.33Z" transform="translate(-258.064 -147.222)" fill="#fff"/><path d="M559.2,244.956a1.537,1.537,0,0,1,1.58-1.558,1.58,1.58,0,0,1,1.558,1.6,1.622,1.622,0,0,1-1.622,1.558,1.537,1.537,0,0,1-1.516-1.6Zm2.327,1c.277-.043.341-.3.427-.491a1.345,1.345,0,0,0-.619-1.686,1.238,1.238,0,0,0-1.622.427,1.366,1.366,0,0,0,.214,1.793,1.11,1.11,0,0,0,1.6-.043Z" transform="translate(-439.829 -191.442)" fill="#fff"/><path d="M.543,358.5l-.043.085C.436,358.521.5,358.521.543,358.5Z" transform="translate(-0.372 -281.975)" fill="#fff"/><g transform="translate(93.066 39.923)"><path d="M455.558,198.8a3.214,3.214,0,0,0-3.458,3.1A3.228,3.228,0,0,1,455.558,198.8Z" transform="translate(-448.662 -196.283)" fill="#fff"/><path d="M449.506,193.49a7.278,7.278,0,0,0-1.708-4.568,6.1,6.1,0,0,0-5.849-1.772,6.5,6.5,0,0,0-5.507,4.461,6.79,6.79,0,0,0,1.43,7.194c1.942,2.071,4.184,2.455,6.745,2.092a6.613,6.613,0,0,0,4.291-2.561l-2.369-1.772c-1.814,1.75-3.543,2.22-5.208,1.452a3.193,3.193,0,0,1-1.9-2.8h10.054C449.506,194.6,449.527,194.045,449.506,193.49Zm-10.075-.832a3.214,3.214,0,0,1,3.458-3.1,3.069,3.069,0,0,1,3.287,3.1Z" transform="translate(-435.992 -187.028)" fill="#fff"/></g><g transform="translate(54.825 39.911)"><path d="M278.009,223.2a7,7,0,0,0-2.8.6,2.218,2.218,0,0,0-.512.363,3.111,3.111,0,0,1,.512-.363A7,7,0,0,1,278.009,223.2Z" transform="translate(-270.889 -215.467)" fill="#fff"/><path d="M292.5,223.1Z" transform="translate(-284.889 -215.389)" fill="#fff"/><path d="M289.481,226.338a4.034,4.034,0,0,1-1.281.576,4.034,4.034,0,0,0,1.281-.576c1.089-.747,1.11-1.921,1.067-3.138C290.591,224.417,290.548,225.591,289.481,226.338Z" transform="translate(-281.507 -215.467)" fill="#fff"/><path d="M269.023,191.484a4.355,4.355,0,0,0-3.693-4.29,8.965,8.965,0,0,0-4.12.043,6.788,6.788,0,0,0-3.437,1.857c.576.6,1.11,1.174,1.708,1.772a5.272,5.272,0,0,1,4.162-1.323,2.4,2.4,0,0,1,2.369,2.8c-1.2.021-2.412,0-3.629.128a8.7,8.7,0,0,0-3.693,1.11,3.936,3.936,0,0,0-.9,5.891,5.639,5.639,0,0,0,7.855-.149l.448-.555v1.878h2.924a1.942,1.942,0,0,0,.064-.192C269.066,197.46,269.194,194.472,269.023,191.484Zm-4.205,6.361a4.035,4.035,0,0,1-1.281.576,3.928,3.928,0,0,1-2.305-.213,1.537,1.537,0,0,1-1.025-1.409,1.3,1.3,0,0,1,.448-1.089,3.12,3.12,0,0,1,.512-.363,6.654,6.654,0,0,1,2.8-.6h1.921C265.928,195.923,265.885,197.1,264.818,197.845Z" transform="translate(-256.844 -186.974)" fill="#fff"/></g><path d="M565.4,248.289c-.534-.043-.534-.662-.918-.875-.384.171-.021.576-.384.854V246.41c.406,0,.918-.235,1.217.3s-.085.576-.363.747C565.1,247.734,565.231,248.011,565.4,248.289Zm-.342-1.3c-.064-.534-.427-.32-.7-.342a.448.448,0,0,0,.021.512A.576.576,0,0,0,565.06,246.987Z" transform="translate(-443.688 -193.772)" fill="#fff"/></g></g></g></g></svg>