<svg xmlns="http://www.w3.org/2000/svg" width="200" height="100" viewBox="0 0 200 100"><g transform="translate(-165.791 -292.111)"><rect width="200" height="100" transform="translate(165.791 292.111)" fill="none"/><g transform="translate(21.896 -10.973)"><g transform="translate(243.877 353.283)"><g transform="translate(-63.482 -39.7)"><path d="M.177,79.334c-.044-.288.177-.487.31-.708l19.225-34.4.243-.442L0,24.513H29.866C35.2,16.349,40.485,8.23,45.883,0c2.013,8.186,3.982,16.216,5.951,24.313l3.584.177,23.318,1.062,16.57.73L117.629,27.3l8.208.376c.2,0,.509-.111.531.376h-77.7c-1.372-6.615-2.765-13.23-4.2-20.022L32.388,28.1H8.606L25.265,42.875,8.761,71.016c.31.133.487-.044.686-.111a74.909,74.909,0,0,1,19.49-4.845,77.543,77.543,0,0,1,17.544.089,80.316,80.316,0,0,1,25.265,7.1c.31.155.819.155.819.708-.243.133-.4-.022-.575-.089A91.5,91.5,0,0,0,52.41,69.334a90.9,90.9,0,0,0-12.5-.73A78.031,78.031,0,0,0,.752,79.09c-.221.111-.354.265-.575.243Z" fill="#fbb81c"/><path d="M136.2,175.411l2.566-2.809a4.879,4.879,0,0,0,4.248,2.146,3.96,3.96,0,0,0,2.412-.819,2.412,2.412,0,0,0-.089-3.96,11.463,11.463,0,0,0-3.031-1.283,24.716,24.716,0,0,1-2.522-.973c-4.026-1.836-3.65-7.168-1.084-9.292,2.9-2.389,8.34-2.389,11.172.066l.31.177-2.7,2.854a4.336,4.336,0,0,0-2.942-1.571,4.448,4.448,0,0,0-2.765.487,2.259,2.259,0,0,0-.155,3.938,10.337,10.337,0,0,0,2.61,1.084c.885.288,1.836.619,2.721,1,4.557,1.947,3.739,7.743,1.261,9.8C144.961,178.973,138.855,178.531,136.2,175.411Z" transform="translate(-106.068 -121.984)" fill="#1d3763"/><path d="M380.507,167.524v7.057H377.1V152.9h3.407v13.606l5.287-5.664h4.447l-5.885,6.239,6.261,7.5h-4.579Z" transform="translate(-293.674 -119.074)" fill="#1d3763"/><path d="M516.533,188.722l-3.539,8.805c-1,2.456-1.969,4.911-2.964,7.345-.133.332-.266.642-.421.973a4.727,4.727,0,0,1-4.624,3.009,10.878,10.878,0,0,1-2.876-.354c.133-1.017.266-2.013.421-3.1a6.6,6.6,0,0,0,2.677.31,1.725,1.725,0,0,0,1.637-1.128c.266-.642.531-1.305.841-1.991-1.947-4.6-3.894-9.225-5.885-13.894h3.805c1.261,3.12,2.522,6.283,3.871,9.579,1.195-3.274,2.323-6.416,3.451-9.579Z" transform="translate(-390.786 -146.954)" fill="#1d3763"/><path d="M213.644,177.781h-3.783v5.863c0,2.035.929,2.765,2.92,2.3l.863-.243v2.876c-1.925.487-3.872.774-5.73-.288a3.2,3.2,0,0,1-1.416-2.655c-.221-2.08-.066-4.159-.111-6.239V177.8H203.6V174.86h2.765V170.9h3.473v3.938h3.783C213.644,175.812,213.644,176.763,213.644,177.781Z" transform="translate(-158.557 -133.091)" fill="#1d3763"/><path d="M336.883,187.336v3.319a16.023,16.023,0,0,0-1.726-.221,3.431,3.431,0,0,0-3.628,3.606v7.234H328.1V187.535h3.429v1.858A4.789,4.789,0,0,1,336.883,187.336Z" transform="translate(-255.514 -145.767)" fill="#1d3763"/><path d="M559.195,245.013a1.593,1.593,0,0,1,1.637-1.615,1.637,1.637,0,0,1,1.615,1.659,1.681,1.681,0,0,1-1.682,1.615,1.593,1.593,0,0,1-1.571-1.659Zm2.412,1.04c.288-.044.353-.31.443-.509a1.394,1.394,0,0,0-.642-1.748,1.283,1.283,0,0,0-1.681.442,1.416,1.416,0,0,0,.221,1.858,1.15,1.15,0,0,0,1.659-.044Z" transform="translate(-435.482 -189.55)" fill="#1d3763"/><path d="M.545,358.5l-.044.088C.435,358.522.5,358.522.545,358.5Z" transform="translate(-0.368 -279.189)" fill="#fbb81c"/><g transform="translate(96.455 41.377)"><path d="M455.684,198.8A3.331,3.331,0,0,0,452.1,202,3.346,3.346,0,0,1,455.684,198.8Z" transform="translate(-448.537 -196.192)" fill="none"/><path d="M450,193.725a7.543,7.543,0,0,0-1.769-4.734,6.323,6.323,0,0,0-6.062-1.836,6.734,6.734,0,0,0-5.708,4.624,7.037,7.037,0,0,0,1.482,7.456c2.013,2.146,4.336,2.544,6.991,2.168a6.853,6.853,0,0,0,4.447-2.655l-2.456-1.836c-1.88,1.814-3.672,2.3-5.4,1.5a3.31,3.31,0,0,1-1.969-2.9h10.42C450,194.876,450.02,194.3,450,193.725Zm-10.442-.863a3.331,3.331,0,0,1,3.584-3.208,3.18,3.18,0,0,1,3.407,3.208Z" transform="translate(-435.992 -187.028)" fill="#1d3763"/></g><g transform="translate(56.822 41.365)"><path d="M278.129,223.2a7.256,7.256,0,0,0-2.9.619,2.3,2.3,0,0,0-.531.376,3.247,3.247,0,0,1,.531-.376A7.256,7.256,0,0,1,278.129,223.2Z" transform="translate(-270.75 -215.186)" fill="none"/><path d="M292.5,223.1Z" transform="translate(-284.612 -215.108)" fill="none"/><path d="M289.527,226.452a4.183,4.183,0,0,1-1.327.6,4.183,4.183,0,0,0,1.327-.6c1.128-.774,1.151-1.991,1.106-3.252C290.678,224.461,290.633,225.678,289.527,226.452Z" transform="translate(-281.263 -215.186)" fill="none"/><path d="M269.467,191.648a4.514,4.514,0,0,0-3.828-4.447,9.292,9.292,0,0,0-4.27.044,7.037,7.037,0,0,0-3.562,1.925c.6.619,1.151,1.217,1.77,1.836a5.464,5.464,0,0,1,4.314-1.372,2.484,2.484,0,0,1,2.456,2.9c-1.239.022-2.5,0-3.761.133a9.02,9.02,0,0,0-3.827,1.15,4.08,4.08,0,0,0-.929,6.106,5.844,5.844,0,0,0,8.141-.155l.465-.575v1.947h3.031q.038-.1.066-.2C269.511,197.842,269.644,194.745,269.467,191.648Zm-4.358,6.593a4.183,4.183,0,0,1-1.327.6,4.071,4.071,0,0,1-2.389-.221,1.593,1.593,0,0,1-1.062-1.46,1.349,1.349,0,0,1,.465-1.128,3.238,3.238,0,0,1,.531-.376,6.9,6.9,0,0,1,2.9-.62h1.991C266.259,196.249,266.215,197.466,265.108,198.24Z" transform="translate(-256.844 -186.974)" fill="#1d3763"/></g><path d="M565.45,248.359c-.553-.044-.553-.686-.952-.907-.4.177-.022.6-.4.885v-1.925c.421,0,.951-.243,1.261.31s-.088.6-.376.774C565.14,247.784,565.273,248.071,565.45,248.359Zm-.354-1.349c-.066-.553-.442-.332-.729-.354a.465.465,0,0,0,.022.531A.6.6,0,0,0,565.1,247.01Z" transform="translate(-439.303 -191.856)" fill="#1d3763"/></g></g></g></g></svg>