<svg xmlns="http://www.w3.org/2000/svg" width="200" height="100" viewBox="0 0 200 100"><g transform="translate(-164.904 -291.321)"><rect width="200" height="100" transform="translate(164.904 291.321)" fill="none"/><g transform="translate(18.4 1.683)"><g transform="translate(143.543 309.264)"><g transform="translate(17.961 0.374)"><g transform="translate(32.788 11.531)"><path d="M63.852,13.4a17.165,17.165,0,0,1-.8,11.508A17.5,17.5,0,0,1,55,33.406a12.6,12.6,0,0,0,10.534-7.347A12.181,12.181,0,0,0,63.852,13.4" transform="translate(-55 -13.4)" fill="#00aae7"/></g><g transform="translate(30.398 1.794)"><path d="M52.3,2.4a17.534,17.534,0,0,1,6.9,9.383,16.908,16.908,0,0,1-.708,11.6,12.231,12.231,0,0,0,3.275-12.3A12.586,12.586,0,0,0,52.3,2.4" transform="translate(-52.3 -2.4)" fill="#00aae7"/></g><g transform="translate(15.349)"><path d="M35.3,1.9A17.666,17.666,0,0,1,53.8,14.03,12.192,12.192,0,0,0,48.224,2.522,12.35,12.35,0,0,0,35.3,1.9" transform="translate(-35.3 -0.374)" fill="#231f20"/></g><g transform="translate(3.576 2.918)"><path d="M22,11.487A17.79,17.79,0,0,1,44.131,9.1,12.567,12.567,0,0,0,26.515,6,12.434,12.434,0,0,0,22,11.487" transform="translate(-22 -3.67)" fill="#00aae7"/></g><g transform="translate(0 8.949)"><path d="M18.615,26.786A17.065,17.065,0,0,1,23.4,16.164,17.87,17.87,0,0,1,33.93,10.941,12.776,12.776,0,0,0,21.448,14.3a12.211,12.211,0,0,0-2.833,12.482" transform="translate(-17.961 -10.483)" fill="#00aae7"/></g><g transform="translate(1.96 16.4)"><path d="M26.128,40.677A17.015,17.015,0,0,1,27.545,18.9a12.271,12.271,0,0,0-1.416,21.777" transform="translate(-20.175 -18.9)" fill="#231f20"/></g><g transform="translate(7.532 25.961)"><path d="M40.837,47.228A17.514,17.514,0,0,1,31.1,40.765,16.6,16.6,0,0,1,27.736,29.7a12.119,12.119,0,0,0,1.151,12.659,12.538,12.538,0,0,0,11.951,4.869" transform="translate(-26.469 -29.7)" fill="#00aae7"/></g><g transform="translate(14.641 33.662)"><path d="M56.011,43.534a17.746,17.746,0,0,1-11.685,1.239A17.144,17.144,0,0,1,34.5,38.4a12.433,12.433,0,0,0,9.206,8.941,12.634,12.634,0,0,0,12.3-3.807" transform="translate(-34.5 -38.4)" fill="#00aae7"/></g><g transform="translate(24.113 26.138)"><path d="M65.029,29.9a17.683,17.683,0,0,1-8.144,8.321A17.24,17.24,0,0,1,45.2,39.549a12.783,12.783,0,0,0,12.924.974,12.13,12.13,0,0,0,6.9-10.623" transform="translate(-45.2 -29.9)" fill="#231f20"/></g><g transform="translate(54.477 9.671)"><path d="M95.611,21.3H81.979a6.754,6.754,0,0,0,6.816,5.223,7.607,7.607,0,0,0,4.692-1.682,2.547,2.547,0,0,1,3.275-.177,9.594,9.594,0,0,1-7.967,4.249A9.015,9.015,0,0,1,79.5,20.152,9.033,9.033,0,0,1,88.795,11.3h0A9,9,0,0,1,98,19.09c.177,1.239-1.062,2.213-2.39,2.213M88.795,13.69A6.762,6.762,0,0,0,81.979,19H94.992a.418.418,0,0,0,.443-.443,6.853,6.853,0,0,0-6.639-4.869" transform="translate(-79.5 -11.298)" fill="#231f20"/></g><g transform="translate(73.863 9.407)"><path d="M119.459,28.882a2.487,2.487,0,0,1-2.39-2.3V20.029a6.6,6.6,0,0,0-13.19,0V26.58a2.363,2.363,0,0,1-2.39,2.3H101.4V20.029a9.029,9.029,0,1,1,18.059,0v8.852Z" transform="translate(-101.4 -11)" fill="#231f20"/></g><g transform="translate(93.693 2.502)"><path d="M130.262,27.987A6.293,6.293,0,0,1,123.8,21.7V3.2h.089a2.42,2.42,0,0,1,2.39,2.3V10.37h5.488v.089a2.38,2.38,0,0,1-2.39,2.39h-3.1V21.7a4.043,4.043,0,0,0,4.072,3.984,3.963,3.963,0,0,0,1.77-.354,2.339,2.339,0,0,1,2.921.8,7.343,7.343,0,0,1-4.78,1.859" transform="translate(-123.8 -3.2)" fill="#231f20"/></g><g transform="translate(103.519 9.671)"><path d="M151.011,21.3H137.379a6.746,6.746,0,0,0,6.728,5.223,7.607,7.607,0,0,0,4.692-1.682,2.556,2.556,0,0,1,3.364-.177,9.594,9.594,0,0,1-7.967,4.249,9.015,9.015,0,0,1-9.295-8.764,9.033,9.033,0,0,1,9.295-8.852h0a9,9,0,0,1,9.206,7.79c.177,1.239-1.151,2.125-2.39,2.213m-6.9-7.613A6.6,6.6,0,0,0,137.379,19h13.013c.177,0,.443-.177.443-.354v-.089a6.961,6.961,0,0,0-6.728-4.869" transform="translate(-134.9 -11.298)" fill="#231f20"/></g><g transform="translate(123.525 2.502)"><path d="M159.89,27.987a2.307,2.307,0,0,1-2.39-2.3V3.2h.089a2.286,2.286,0,0,1,2.3,2.3V27.987Z" transform="translate(-157.5 -3.2)" fill="#231f20"/></g><g transform="translate(129.014 2.502)"><path d="M166.09,27.987a2.307,2.307,0,0,1-2.39-2.3h0V3.2h.089a2.286,2.286,0,0,1,2.3,2.3V27.987Z" transform="translate(-163.7 -3.2)" fill="#231f20"/></g><g transform="translate(133.794 9.672)"><path d="M178.129,28.916a8.916,8.916,0,0,1-9.029-8.852V11.3h.089a2.286,2.286,0,0,1,2.3,2.3v6.462a6.6,6.6,0,0,0,13.19,0V13.69a2.286,2.286,0,0,1,2.3-2.3h.089v8.764a8.767,8.767,0,0,1-8.941,8.764h0" transform="translate(-169.1 -11.3)" fill="#231f20"/></g><g transform="translate(153.535 9.584)"><path d="M199.633,28.9c-4.072,0-7.436-1.77-8.056-4.338a2.037,2.037,0,0,1,2.744.089c.8.974,2.833,1.859,5.311,1.859,3.452,0,5.843-1.593,5.843-3.01,0-2.125-2.656-2.567-6.728-3.01-3.452-.354-7.347-.8-7.347-3.984,0-3.01,3.629-5.311,8.233-5.311,3.984,0,7.259,1.77,8.056,4.161a2.062,2.062,0,0,1-2.833-.089,7.569,7.569,0,0,0-5.223-1.682c-3.452,0-5.843,1.593-5.843,3.01,0,1.062,2.744,1.328,5.223,1.593a29.551,29.551,0,0,1,5.577,1.062c2.744,1.062,3.275,2.921,3.275,4.249,0,3.1-3.629,5.4-8.233,5.4" transform="translate(-191.4 -11.2)" fill="#231f20"/></g><g transform="translate(71.385 35.433)"><path d="M104.8,45.623a.851.851,0,0,1-.8-.708V41.9l-1.682,3.01a.647.647,0,0,1-.885.354c-.177-.089-.354-.177-.354-.354L99.4,41.9v3.01a.723.723,0,0,1-.8.708V40.931a.571.571,0,0,1,.531-.531.487.487,0,0,1,.443.266l2.036,3.718h.177l2.036-3.718a.487.487,0,0,1,.443-.266.571.571,0,0,1,.531.531h0Z" transform="translate(-98.6 -40.4)" fill="#231f20"/></g><g transform="translate(85.283 35.521)"><path d="M118.284,41.208H115.1a.087.087,0,0,0-.089.089h0v1.239h3.452a.7.7,0,0,1-.708.708h-2.744v1.5a.087.087,0,0,0,.089.089h3.1a.851.851,0,0,1,.8.708h-3.9a.851.851,0,0,1-.8-.708V41.208a.7.7,0,0,1,.708-.708h3.984a.7.7,0,0,1-.708.708" transform="translate(-114.3 -40.5)" fill="#231f20"/></g><g transform="translate(97.411 35.521)"><path d="M132.426,44.838a3.093,3.093,0,0,1-1.948.708H128.8a.851.851,0,0,1-.8-.708V41.208a.723.723,0,0,1,.8-.708h1.682a3.093,3.093,0,0,1,1.948.708,2.411,2.411,0,0,1,.8,1.859,2.229,2.229,0,0,1-.8,1.77m-.531-3.1a2.01,2.01,0,0,0-1.416-.531h-1.593c-.089,0-.089,0-.089.089v3.452c0,.089,0,.089.089.089h1.593a1.892,1.892,0,0,0,2.036-1.77h0a1.593,1.593,0,0,0-.62-1.328" transform="translate(-128 -40.5)" fill="#231f20"/></g><g transform="translate(110.158 35.521)"><path d="M143.2,45.634a.851.851,0,0,1-.8-.708V40.5a.851.851,0,0,1,.8.708Z" transform="translate(-142.4 -40.5)" fill="#231f20"/></g><g transform="translate(118.259 35.455)"><path d="M156.286,41.908A2.419,2.419,0,0,0,154.6,41.2a1.958,1.958,0,0,0-2.125,1.682,1.894,1.894,0,0,0,1.682,2.125h.443a2.4,2.4,0,0,0,1.5-.531.7.7,0,0,1,.974,0,2.285,2.285,0,0,1-.8.8,3.607,3.607,0,0,1-1.593.443,2.656,2.656,0,0,1-.974-5.223,1.818,1.818,0,0,1,.974,0,2.831,2.831,0,0,1,2.656,1.593,1.449,1.449,0,0,1-1.062-.177" transform="translate(-151.551 -40.425)" fill="#231f20"/></g><g transform="translate(130.518 35.521)"><path d="M170.8,45.28l-.531-.974H166.9l-.531.974a.744.744,0,0,1-.974.354l2.479-4.692a.7.7,0,0,1,.708-.443.9.9,0,0,1,.708.443l2.479,4.692a.93.93,0,0,1-.974-.354m-2.125-4.072h0l-1.328,2.39h2.567Z" transform="translate(-165.4 -40.5)" fill="#231f20"/></g><g transform="translate(144.24 35.521)"><path d="M181.608,45.634a.7.7,0,0,1-.708-.708h0V40.5a.78.78,0,0,1,.8.708v3.541c0,.089,0,.089.089.089h2.656a.851.851,0,0,1,.8.708h0Z" transform="translate(-180.9 -40.5)" fill="#231f20"/></g><g transform="translate(152.384 35.344)"><path d="M190.1,40.3h1.682v.266h-.708v1.77h-.266v-1.77H190.1Z" transform="translate(-190.1 -40.3)" fill="#231f20"/></g><g transform="translate(154.508 35.256)"><path d="M194.093,42.325v-1.77h0l-.531,1.682H193.3l-.531-1.682h0v1.682H192.5V40.2h.354l.62,1.682h0l.62-1.682h.354v2.036Z" transform="translate(-192.5 -40.2)" fill="#231f20"/></g><g transform="translate(55.539 51.633)" style="isolation:isolate"><path d="M80.7,65.87V58.7h1.859l3.452,4.338V58.7H87.87v7.17H86.011l-3.452-4.338V65.87Z" transform="translate(-80.7 -58.7)" fill="#231f20"/></g><g transform="translate(63.86 53.846)" style="isolation:isolate"><path d="M90.1,63.679a3.182,3.182,0,0,1,.177-.974,1.928,1.928,0,0,1,.62-.8,1.837,1.837,0,0,1,.885-.531,2.43,2.43,0,0,1,1.151-.177,4.485,4.485,0,0,1,1.151.177,1.505,1.505,0,0,1,.885.531,4.865,4.865,0,0,1,.62.8,2.246,2.246,0,0,1,.177,1.062,2.357,2.357,0,0,1-.266,1.062,1.928,1.928,0,0,1-.62.8,1.749,1.749,0,0,1-.974.531,3.145,3.145,0,0,1-.885.177,4.485,4.485,0,0,1-1.151-.177,1.837,1.837,0,0,1-.885-.531,4.865,4.865,0,0,1-.62-.8A2.726,2.726,0,0,1,90.1,63.679Zm1.859,0a.663.663,0,0,0,.089.443c.089.089.177.266.266.354a1.222,1.222,0,0,0,.354.266,1.151,1.151,0,0,0,.885,0,1.565,1.565,0,0,0,.62-.62,1.151,1.151,0,0,0,0-.885,1.565,1.565,0,0,0-.62-.62,1.151,1.151,0,0,0-.885,0,1.565,1.565,0,0,0-.62.62A.8.8,0,0,0,91.959,63.679Z" transform="translate(-90.1 -61.2)" fill="#231f20"/></g><g transform="translate(69.968 53.757)" style="isolation:isolate"><path d="M98.859,61.3l1.151,2.567,1.239-2.567h1.062l1.239,2.656L104.79,61.3h1.948l-2.567,4.869H103.02l-1.239-2.656-1.151,2.656H99.479L97,61.3Z" transform="translate(-97 -61.123)" fill="#231f20"/><path d="M115.892,61.289h1.682v4.869h-1.682v-.531a1.891,1.891,0,0,1-1.5.708,3.182,3.182,0,0,1-.974-.177,4.157,4.157,0,0,1-.8-.531c-.266-.177-.354-.531-.531-.8s-.089-.8-.089-1.151a3.182,3.182,0,0,1,.177-.974,1.592,1.592,0,0,1,.531-.8,1.289,1.289,0,0,1,.8-.531,3.765,3.765,0,0,1,.974-.177,1.824,1.824,0,0,1,1.5.62v-.531Zm-2.125,2.39a.8.8,0,0,0,.089.443,1.565,1.565,0,0,0,.62.62,1.151,1.151,0,0,0,.885,0,1.565,1.565,0,0,0,.62-.62,1.151,1.151,0,0,0,0-.885,1.565,1.565,0,0,0-.62-.62,1.151,1.151,0,0,0-.885,0,1.565,1.565,0,0,0-.62.62A.963.963,0,0,0,113.768,63.679Z" transform="translate(-98.719 -61.111)" fill="#231f20"/><path d="M125.082,68.536H123.4V61.277h1.682v.531a1.891,1.891,0,0,1,1.5-.708,3.182,3.182,0,0,1,.974.177,4.158,4.158,0,0,1,.8.531l.531.8a3.765,3.765,0,0,1,.177.974,3.183,3.183,0,0,1-.177.974,1.592,1.592,0,0,1-.531.8,1.289,1.289,0,0,1-.8.531,1.751,1.751,0,0,1-.974.177,1.824,1.824,0,0,1-1.5-.62Zm2.125-4.78a.8.8,0,0,0-.089-.443c-.089-.177-.089-.266-.266-.354a1.222,1.222,0,0,0-.354-.266,1.151,1.151,0,0,0-.885,0c-.089.089-.266.177-.354.266a1.222,1.222,0,0,0-.266.354,1.151,1.151,0,0,0,0,.885c.089.089.177.266.266.354a1.222,1.222,0,0,0,.354.266,1.151,1.151,0,0,0,.885,0,1.565,1.565,0,0,0,.62-.62A.963.963,0,0,0,127.207,63.756Z" transform="translate(-100.03 -61.1)" fill="#231f20"/><path d="M134.584,61.3h1.682v4.869h-1.682v-.531a1.891,1.891,0,0,1-1.5.708,3.182,3.182,0,0,1-.974-.177,4.157,4.157,0,0,1-.8-.531c-.266-.177-.354-.531-.531-.8a3.8,3.8,0,0,1-.177-1.062,3.182,3.182,0,0,1,.177-.974,1.592,1.592,0,0,1,.531-.8,1.289,1.289,0,0,1,.8-.531,1.751,1.751,0,0,1,.974-.177,1.824,1.824,0,0,1,1.5.62Zm-2.213,2.39a.8.8,0,0,0,.089.443,1.565,1.565,0,0,0,.62.62,1.151,1.151,0,0,0,.885,0,1.565,1.565,0,0,0,.62-.62,1.151,1.151,0,0,0,0-.885,1.565,1.565,0,0,0-.62-.62,1.151,1.151,0,0,0-.885,0,1.565,1.565,0,0,0-.62.62A.963.963,0,0,0,132.37,63.69Z" transform="translate(-100.856 -61.123)" fill="#231f20"/></g><g transform="translate(106.529 53.757)" style="isolation:isolate"><path d="M138.3,61.277h1.682v.8a2.694,2.694,0,0,1,.708-.708,1.5,1.5,0,0,1,.885-.266h.354v1.682a2.083,2.083,0,0,0-.708-.177.932.932,0,0,0-.885.354,1.888,1.888,0,0,0-.266,1.062v2.125h-1.682V61.277Z" transform="translate(-138.3 -61.1)" fill="#231f20"/></g><g transform="translate(110.866 50.924)" style="isolation:isolate"><path d="M145.413,62.521v3.452h-1.682V62.521H143.2V61.1h.531V59.6h1.682v1.5h.974v1.416Z" transform="translate(-143.2 -58.095)" fill="#231f20"/><path d="M151,63.679a3.183,3.183,0,0,1,.177-.974,1.785,1.785,0,0,1,.62-.8,2.946,2.946,0,0,1,.885-.531,2.43,2.43,0,0,1,1.151-.177,4.485,4.485,0,0,1,1.151.177,1.505,1.505,0,0,1,.885.531,4.864,4.864,0,0,1,.62.8,2.246,2.246,0,0,1,.177,1.062,2.357,2.357,0,0,1-.266,1.062,1.928,1.928,0,0,1-.62.8,1.748,1.748,0,0,1-.974.531,5.181,5.181,0,0,1-1.151.177,4.485,4.485,0,0,1-1.151-.177,1.837,1.837,0,0,1-.885-.531,4.864,4.864,0,0,1-.62-.8Zm1.77,0a.663.663,0,0,0,.089.443,1.565,1.565,0,0,0,.62.62,1.151,1.151,0,0,0,.885,0,1.565,1.565,0,0,0,.62-.62,1.151,1.151,0,0,0,0-.885,1.565,1.565,0,0,0-.62-.62,1.151,1.151,0,0,0-.885,0,1.565,1.565,0,0,0-.62.62A.8.8,0,0,0,152.77,63.679Z" transform="translate(-144.095 -58.279)" fill="#231f20"/><path d="M160.5,62.326v3.452H158.82V62.326h-.62V60.91h.62V60.2a3.028,3.028,0,0,1,.089-.974l.266-.531c.177-.177.266-.354.531-.443a1.322,1.322,0,0,1,.62-.266,1.507,1.507,0,0,1,.62-.089.8.8,0,0,1,.443.089c.089,0,.266.089.354.089v1.5c-.089-.089-.177-.089-.354-.089h-.443s-.177.089-.177.177-.089.177-.089.266v1.151h1.239V62.5H160.5Z" transform="translate(-144.921 -57.9)" fill="#231f20"/></g><g transform="translate(131.227 51.81)" style="isolation:isolate"><path d="M170.538,60.582a2.219,2.219,0,0,0-.62-.354,1.506,1.506,0,0,0-.62-.089,1.279,1.279,0,0,0-.62.177.487.487,0,0,0-.266.443.532.532,0,0,0,.089.354c.089.089.177.177.266.177.089.089.266.089.443.177s.266.089.443.177a2.432,2.432,0,0,1,1.328.8,2.174,2.174,0,0,1,.443,1.328,3.182,3.182,0,0,1-.177.974,2.09,2.09,0,0,1-.531.8,7.787,7.787,0,0,1-.885.531,4.485,4.485,0,0,1-1.151.177,4.141,4.141,0,0,1-2.479-.8l.8-1.5a2.09,2.09,0,0,0,.8.531,2.585,2.585,0,0,0,.8.177,1.668,1.668,0,0,0,.708-.177c.177-.177.266-.266.266-.443a.325.325,0,0,0-.089-.266.19.19,0,0,0-.177-.177c-.089,0-.177-.089-.354-.177s-.354-.089-.531-.177c-.266-.089-.443-.177-.708-.266a1.427,1.427,0,0,1-.62-.354,2.347,2.347,0,0,1-.443-.531,2.619,2.619,0,0,1-.177-.885,3.183,3.183,0,0,1,.177-.974,1.377,1.377,0,0,1,.531-.708,1.712,1.712,0,0,1,.8-.443,3.3,3.3,0,0,1,1.062-.177,6.092,6.092,0,0,1,1.151.177,4.447,4.447,0,0,1,1.151.443Z" transform="translate(-166.2 -58.9)" fill="#231f20"/></g><g transform="translate(137.423 52.429)" style="isolation:isolate"><path d="M175.413,62.521v3.452h-1.682V62.521H173.2V61.1h.531V59.6h1.682v1.5h.974v1.416Z" transform="translate(-173.2 -59.6)" fill="#231f20"/></g><g transform="translate(141.23 53.757)" style="isolation:isolate"><path d="M177.5,61.277h1.682v.8a2.694,2.694,0,0,1,.708-.708,1.5,1.5,0,0,1,.885-.266h.354v1.682a2.083,2.083,0,0,0-.708-.177.932.932,0,0,0-.885.354,1.888,1.888,0,0,0-.266,1.062v2.125h-1.682V61.277Z" transform="translate(-177.5 -61.1)" fill="#231f20"/></g><g transform="translate(145.302 53.934)" style="isolation:isolate"><path d="M184.49,65.461,182.1,61.3h1.948l1.328,2.479,1.239-2.479h1.948l-3.9,7.259H182.9Z" transform="translate(-182.1 -61.3)" fill="#231f20"/></g><g transform="translate(152.472 50.924)" style="isolation:isolate"><path d="M191.882,57.9v4.78l1.77-1.77h2.39l-2.479,2.213,2.567,2.656h-2.39l-1.859-1.948v1.948H190.2V57.9Z" transform="translate(-190.2 -57.9)" fill="#231f20"/></g><g transform="translate(158.758 53.757)" style="isolation:isolate"><path d="M198.893,64.044c0,.708.354,1.151,1.062,1.151a1.229,1.229,0,0,0,.885-.443h1.682a2.274,2.274,0,0,1-2.479,1.682,4.485,4.485,0,0,1-1.151-.177,1.837,1.837,0,0,1-.885-.531,2.09,2.09,0,0,1-.531-.8,4.443,4.443,0,0,1-.177-1.062,3.3,3.3,0,0,1,.177-1.062,1.289,1.289,0,0,1,.531-.8,1.837,1.837,0,0,1,.885-.531,3.829,3.829,0,0,1,2.3,0,1.289,1.289,0,0,1,.8.531,1.837,1.837,0,0,1,.531.885,4.485,4.485,0,0,1,.177,1.151v.177h-3.807Zm2.036-1.062a1.427,1.427,0,0,0-.354-.62.747.747,0,0,0-.62-.177,1.279,1.279,0,0,0-.62.177,1.427,1.427,0,0,0-.354.62Z" transform="translate(-197.3 -61.123)" fill="#231f20"/><path d="M204.3,61.277h1.682v.8a2.694,2.694,0,0,1,.708-.708,1.708,1.708,0,0,1,.885-.266h.354v1.682a2.083,2.083,0,0,0-.708-.177.932.932,0,0,0-.885.354,1.888,1.888,0,0,0-.266,1.062v2.125h-1.682V61.277Z" transform="translate(-198.103 -61.1)" fill="#231f20"/></g></g></g></g></g></svg>