<svg xmlns="http://www.w3.org/2000/svg" width="200" height="100" viewBox="0 0 200 100"><g transform="translate(-164 -291)"><rect width="200" height="100" transform="translate(164 291)" fill="none"/><g transform="translate(8 -6.316)"><g transform="translate(171.5 331.321)"><path d="M19.647,27.24a.892.892,0,0,1,.2-.661c.2-.287,0-.488.144-.718l2.442-10.226a22,22,0,0,1,4.855-.144,8.618,8.618,0,0,1,2.413.833,4.682,4.682,0,0,1,1.953,2.241,5.745,5.745,0,0,1-.833,5,7.928,7.928,0,0,1-2.873,2.327,20.108,20.108,0,0,1-8.3,1.379ZM30.448.008h.23a9.192,9.192,0,0,1,6.894,2.614,5.487,5.487,0,0,1,.23,5.573,7.3,7.3,0,0,1-2.327,2.873,11.49,11.49,0,0,1-3.246,1.724v.172A8.848,8.848,0,0,1,36.395,15a6.751,6.751,0,0,1,.833,8.3,11.49,11.49,0,0,1-2.04,2.873l-.689.6a11.319,11.319,0,0,1-1.379,1.092,15.4,15.4,0,0,1-2.327,1.321,23.182,23.182,0,0,1-10.6,1.724H10.57v-.259a4.453,4.453,0,0,0,2.557-2.5,101.457,101.457,0,0,0,2.557-10.112L18.556,5.9a19.217,19.217,0,0,0,.46-2.068c.172-1.149,0-3.332-1.293-3.447V.122H30.535ZM23.152,12.3a14.909,14.909,0,0,0,.575-2.212c.172-.776.373-1.551.546-2.269.373-1.522.718-3.016,1.063-4.51a7.957,7.957,0,0,1,5.372.287,3.016,3.016,0,0,1,1.35,1.867,5.171,5.171,0,0,1-3.533,5.745,14.851,14.851,0,0,1-5.4,1.063ZM104.3,10.32c0,.6.718.517.977,1.465V12.5c0,.862-2.557,11.49-2.873,13.587a5.515,5.515,0,0,1-1.551,3.447,3.39,3.39,0,0,1-1.063.661v.259h8.618a4.51,4.51,0,0,1-1.12-2.04c0-.8,1.408-6.779,1.637-7.842s.345-1.724.575-2.585a5.084,5.084,0,0,1,3.734-4.108,4.97,4.97,0,0,1,3.878.46c2.1,1.81.948,4.912.46,7.3l-1.12,5.084c-.891,3.648-2.384,2.873-2.442,3.763H122.4v-.345a1.321,1.321,0,0,1-.632-.517,3.677,3.677,0,0,1-.172-2.873l.891-3.821A56.878,56.878,0,0,0,123.98,15a4.568,4.568,0,0,0-.546-2.528,4.108,4.108,0,0,0-1.264-1.35,10.542,10.542,0,0,0-10.743.345,2.872,2.872,0,0,1-.546.4,11.089,11.089,0,0,0,.431-2.011,9.911,9.911,0,0,0-1.436.373h-5.458Z" transform="translate(19.793 0)" fill="#fff" fill-rule="evenodd"/><path d="M78.078,14.982a8.617,8.617,0,0,1-1.494,3.16,6.291,6.291,0,0,1-5,2.873,3.878,3.878,0,0,1-3.792-2.356,9.71,9.71,0,0,1,0-5.372A9.422,9.422,0,0,1,70.437,8.95,6.607,6.607,0,0,1,71.844,8a4.883,4.883,0,0,1,5.745.776,7.526,7.526,0,0,1,.431,6.348ZM62.02,16.189A8.187,8.187,0,0,0,63.4,21.359a8.3,8.3,0,0,0,6.55,3.3,12.151,12.151,0,0,0,7.239-1.81l.517-.287.46-.345a13.329,13.329,0,0,0,5.745-9.853,8.3,8.3,0,0,0-.747-4.481,3.331,3.331,0,0,0-.287-.6C79.543,1.854,72.3,2.774,67.679,5.9a13.358,13.358,0,0,0-5.745,10.284Zm59.147-5.831h-8.618c.144-.23.259-.287.431-.546A5.745,5.745,0,0,1,117,7.111a4.309,4.309,0,0,1,3.016.661,2.873,2.873,0,0,1,1.264,2.585ZM105.281,16.1a8.819,8.819,0,0,0,9.594,8.618,18.7,18.7,0,0,0,5.113-.373A9.91,9.91,0,0,0,121.311,24a1.465,1.465,0,0,0,1.408-1.034c0-.23.2-.316.345-.517a26.517,26.517,0,0,0,1.781-3.189,4.625,4.625,0,0,0-1.005.46,24.417,24.417,0,0,1-4.51,1.436A8.158,8.158,0,0,1,111.486,19a4.625,4.625,0,0,1-.718-2.269,14.651,14.651,0,0,1,.2-2.729h15.282a10,10,0,0,0-.172-4.453,9.307,9.307,0,0,0-1.321-2.614A10.542,10.542,0,0,0,110.6,5.819l-1.408,1.206a14.708,14.708,0,0,0-3.907,9.192Zm-77.5-5.745a6.808,6.808,0,0,1,3.533-3.016,5,5,0,0,1,3.849.46,2.873,2.873,0,0,1,1.264,2.47H27.779ZM20.54,16.1c0,5.745,4.941,8.618,10.054,8.618a18.614,18.614,0,0,0,4.309-.345,12.812,12.812,0,0,0,2.7-.8l1.925-3.217a2.873,2.873,0,0,0,.575-1.178l-1.063.431a19.39,19.39,0,0,1-4.51,1.408,17.523,17.523,0,0,1-4.137,0,6.751,6.751,0,0,1-2.212-.747A4.4,4.4,0,0,1,26,16.5a7.3,7.3,0,0,1,.287-2.614h15.2a8.618,8.618,0,0,0-1.81-7.44A7.555,7.555,0,0,0,36.8,4.3,11.893,11.893,0,0,0,24.159,7.37a14.851,14.851,0,0,0-3.533,8.876Z" transform="translate(38.463 6.34)" fill="#fff" fill-rule="evenodd"/><path d="M90.86,12.837a11.49,11.49,0,0,0,2.1,0c-.517,2.212-1.695,7.957-2.269,9.882-1.149,3.878-1.321,8.273,4.108,8.273a3.1,3.1,0,0,0,2.47-.661l1.321-1.9a4.941,4.941,0,0,0,.833-1.35,3.332,3.332,0,0,1-2.154.23A1.982,1.982,0,0,1,95.8,26.08a8.618,8.618,0,0,1,.4-4.481c.2-.833,1.724-8.1,1.982-8.618h3.591l.862-3.763H99.076a7.727,7.727,0,0,0,.316-1.408l.891-4.51H97.41c-.2.431-.287,1.034-.488,1.522a13.041,13.041,0,0,1-.6,1.408,7.986,7.986,0,0,1-2.873,3.217,4.424,4.424,0,0,1-1.408.6c-.833.2-.689.259-.891,1.12a7.124,7.124,0,0,0-.345,1.724ZM84.483,1.146c0,.46.23.373.488.632,1.12,1.092.345,3.189,0,4.682L83.65,12.205c-.259,1.264-.575,2.614-.862,3.935l-1.752,7.785A12.381,12.381,0,0,1,79.255,29.3a4.912,4.912,0,0,1-.661.546c-.345.259-.546.172-.6.632h8.474V30.13a1.781,1.781,0,0,1-1.005-1.264,4.079,4.079,0,0,1,0-1.982c.575-2.413,1.092-5.2,1.695-7.526L91.406.37a13.989,13.989,0,0,1-3.246.6h-1.9a16.489,16.489,0,0,1-1.925,0ZM.172,17.2c0,.776.287,1.465.345,2.183H17.753c1.092,0,.833.172,2.212-1.379a4.366,4.366,0,0,0,.948-1.235H.23V17.2ZM0,14.934H22.435a1.436,1.436,0,0,1,.287-.488A7.3,7.3,0,0,0,23.5,12.78H.2c0,.718-.172,1.379-.172,2.183Zm3.217,9.508h11.95c.316,0,.259-.287.517-.8a10.542,10.542,0,0,1,.977-1.838,3.016,3.016,0,0,0,.517-.862H1.206a7.5,7.5,0,0,0,1.321,2.873,1.436,1.436,0,0,0,.661.718ZM11.864,8.9H1.293a11.163,11.163,0,0,1-.517,1.58H11.864a2.126,2.126,0,0,0,2.442,1.379,1.925,1.925,0,0,0,1.724-1.321h8.3A13.386,13.386,0,0,0,24.5,8.873L16,8.758a.977.977,0,0,0-.259-.517,2.873,2.873,0,0,0-.4-.4,2.585,2.585,0,0,0-2.873,0,3.878,3.878,0,0,0-.689.948Zm4.625,15.455H27.232a12.18,12.18,0,0,0,1.925-3.418H19.131c-.689,0-.747,0-1.264.747a8.618,8.618,0,0,0-1.35,2.672ZM14.564,30.3a14.133,14.133,0,0,0,6.952-1.35A11.692,11.692,0,0,0,23.44,27.89a10.14,10.14,0,0,0,2.873-2.327H16l-.718,2.269a16.489,16.489,0,0,0-.6,2.47Zm-1.034,0a10.284,10.284,0,0,1,.259-1.206c.172-.632,1.034-3.217,1.034-3.591H4.079c0,.488.172.316.8.948a17.839,17.839,0,0,0,4.28,2.873A12.841,12.841,0,0,0,13.5,30.418ZM2.7,6.719H24.36c0-.517-.316-.776-.345-1.206H4.366c-.661,0-.8,0-1.092.287a1.81,1.81,0,0,0-.546.919Zm19.275,10.14a2.7,2.7,0,0,1-.517.632,15.943,15.943,0,0,0-1.58,1.9h9.853a11.289,11.289,0,0,0,.431-2.614H21.947Zm1.58-2.011h6.808a20.453,20.453,0,0,0-.172-2.1H24.618ZM6.09,3.329H22.32a1.436,1.436,0,0,0-.776-.776H6.952a1.092,1.092,0,0,0-.488.287.833.833,0,0,0-.373.488Zm19.476,7.153H29.5a5.2,5.2,0,0,0-.517-1.494H25.767a12.467,12.467,0,0,0-.172,1.494ZM11.4.629h7.469A14.765,14.765,0,0,0,12.754.255h-.776a1.178,1.178,0,0,0-.689.259Zm13.99,6.09h2.1a2.873,2.873,0,0,0-.718-1.12,4.481,4.481,0,0,0-1.838,0A11.721,11.721,0,0,0,25.279,6.8Zm-1.81-3.5h.661a1.408,1.408,0,0,0-1.293-.689l.632.661Z" transform="translate(0 0.183)" fill="#fff" fill-rule="evenodd"/><path d="M58.207,6.687V4.045H57.23V3.7h2.384v.345h-1.12V6.687Zm1.781,0V3.815h.6l.718,2.126.144.431a4.878,4.878,0,0,1,.144-.488l.718-2.1h.517V6.659h-.373V4.16l-.862,2.5h-.517L60.217,4.1V6.659h-.4Z" transform="translate(107.168 6.936)" fill="#fff"/></g></g></g></svg>