<svg xmlns="http://www.w3.org/2000/svg" width="200" height="100" viewBox="0 0 200 100"><g transform="translate(-165 -289.707)"><rect width="200" height="100" transform="translate(165 289.707)" fill="none"/><g transform="translate(-87 -18.067)"><g transform="translate(352.018 357.725)"><g transform="translate(-85.018 -26.951)"><path d="M119.973,39.861a2.012,2.012,0,1,1-1.383.629,1.886,1.886,0,0,1,1.383-.629m2.263,2.012a2.263,2.263,0,0,0-.629-1.635,2.312,2.312,0,0,0-3.269,3.269,2.264,2.264,0,0,0,3.9-1.635m-1.635-.5a.377.377,0,0,1-.251.377h-.88v-.88h.88a.377.377,0,0,1,.126.377m-1.509-.754V43h.5V42h.88a.629.629,0,0,1,.251.629v.251h.377a.754.754,0,0,0-.126-.377l-.377-.251h.377a.5.5,0,0,0,.251-.5.629.629,0,0,0-.377-.629h-1.635Z" transform="translate(30.286 10.19)" fill="#fff"/><path d="M11.627,11.416c-.251,0-.5,0-.5-.126a1.509,1.509,0,0,1,.126-.629l1.257-2.892V7.518h.126l1.383,3.018a1.509,1.509,0,0,1,.126.629c0,.126-.251.126-.5.126Zm2.766.88c.377,0,.5.126,1.006,1.509a2.892,2.892,0,0,1,.251,1.132c0,1.006-1.132.88-1.132,1.257s.251.251.5.251h3.9c.5,0,.629,0,.629-.251s-.88.126-1.383-1.132L13.764,5c-.251-.5-.251-.5-.377-.5s-.251.251-.377.629L8.357,14.936c-.377.88-1.257.88-1.257,1.257s.251.126.5.126h3.018c.377,0,.88.126.88-.251s-1.76-.126-1.76-1.383a4.652,4.652,0,0,1,.377-1.257c.377-1.132.754-1.132,1.006-1.132Z" transform="translate(1.828 1.166)" fill="#fff"/><path d="M19.489,13.5c-.126,2.766,1.76,1.886,1.76,2.515s.126.251-.377.251H17.477c-.251,0-.251-.126-.251-.251a1.8,1.8,0,0,0,1.383-1.886l.126-6.538C18.86,4.826,17.1,5.706,17.1,4.951a.251.251,0,0,1,.251-.251h2.515c.126,0,.377,0,.629.5l3.646,7.922.251.251c.126,0,.251-.251.251-.377l3.772-7.922a.4.4,0,0,1,.377-.377h2.012c.5,0,.5.126.5.251s-1.635,0-1.509,1.886l.251,7.293c.126,2.138,1.635,1.383,1.635,2.012s-.251.251-.754.251H27.536c-.377,0-.754,0-.754-.251s1.257,0,1.132-1.886l-.251-5.03c0-.5,0-.754-.126-.754l-.5.88L23.89,15.891c-.126.251-.126.5-.377.5s-.377-.251-.377-.5L19.866,8.724V8.472c-.126,0-.126.251-.126.377Z" transform="translate(4.401 1.217)" fill="#fff"/><path d="M32.4,8.872c0,.754,0,.88.754.88h1.006c1.383,0,1.509-1.509,1.76-1.509s.251,0,.251.377v2.892c0,.251.126.754-.251.754s-.126-1.76-1.76-1.76H32.9c-.754,0-.629.251-.629,1.132V13.9c0,1.006-.126,1.635,1.132,1.635,4.024,0,3.9-2.138,4.527-2.138s.126,0,.126.377a2.515,2.515,0,0,1-2.263,2.641H29.129c0-.754,1.257.126,1.257-1.886V6.609C30.386,5.1,28.5,5.6,28.5,4.974s.126-.251.377-.251H37.05a.377.377,0,0,1,.377.251V6.609c0,.251.126.754-.251.754s.5-1.886-2.641-1.886-2.012,0-2.012,1.132Z" transform="translate(7.336 1.194)" fill="#fff"/><path d="M40.272,6.309c0-1.006.5-1.006,1.132-1.006a2.515,2.515,0,0,1,2.641,2.892c0,1.006-.126,1.886-2.641,1.886-.5,0-1.132,0-1.132-.377Zm-2.012,7.67c0,2.012-1.383,1.509-1.383,2.012s.377.251.5.251h3.9c.377,0,.5-.126.5-.251s-1.635.126-1.635-1.635V11.464c0-.629-.126-.754.754-.754a1.383,1.383,0,0,1,1.509.88l1.383,2.641c.5,1.006,1.006,2.012,2.389,2.012s1.76-.377,1.76-.88a.251.251,0,0,0-.251-.251h-.5a.629.629,0,0,1-.629-.251l-2.389-4.4c0-.126.5-.251,1.006-.629a2.515,2.515,0,0,0,1.006-2.012c0-.754-.377-3.018-3.9-3.018H36.877c-.251,0-.377.126-.377.251s1.76,0,1.76,1.886Z" transform="translate(9.395 1.243)" fill="#fff"/><path d="M49.9,14.3c0,2.012,1.886,1.257,1.886,1.76s-.126.251-.5.251h-4.4a.141.141,0,1,1-.126-.251c0-.629,1.132-.126,1.132-1.76v-7.8C47.886,5,46,5.5,46,4.874s.377-.251.5-.251h4.024c.5,0,.629,0,.629.251s-1.257,0-1.257,1.509Z" transform="translate(11.84 1.168)" fill="#fff"/><path d="M61.688,8.272c0,.126.126.5-.251.5s-.377-.377-.5-.5a5.03,5.03,0,0,0-4.149-3.018c-2.389,0-3.772,2.263-3.772,4.527s1.257,5.533,4.4,5.533,3.646-2.138,4.149-2.138h.251c0,.629-1.76,3.143-5.281,3.143A5.407,5.407,0,0,1,51,10.913C51,8.146,52.635,4.5,56.784,4.5a12.071,12.071,0,0,1,3.772,1.006c.251,0,.377-.5.5-.5h.251Z" transform="translate(13.127 1.166)" fill="#fff"/><path d="M64.575,11.416c-.251,0-.5,0-.5-.126a1.509,1.509,0,0,1,.126-.629l1.257-2.892V7.518h.126l1.383,3.018a1.509,1.509,0,0,1,.126.629c0,.126-.251.126-.5.126Zm2.766.88c.377,0,.5.126,1.006,1.509a2.892,2.892,0,0,1,.251,1.132c0,1.006-1.132.88-1.132,1.257s.251.251.5.251h3.9c.5,0,.629,0,.629-.251s-.88.126-1.383-1.132L66.713,5c-.251-.5-.251-.5-.377-.5s-.251.251-.377.629l-4.4,9.933c-.377.88-1.257.88-1.257,1.257s.251.126.5.126h2.892c.377,0,.88.126.88-.251s-1.76-.126-1.76-1.383a4.778,4.778,0,0,1,.377-1.257c.377-1.132.754-1.132,1.006-1.132Z" transform="translate(15.521 1.166)" fill="#fff"/><path d="M71.986,7.843c0-3.143-1.886-2.138-1.886-2.892a.251.251,0,0,1,.251-.251h2.641c.5,0,.377.126.629.377l6.664,7.293.5.377c.126,0,.126-.251.126-.629V6.712c0-1.509-2.012-1.257-2.012-1.76a.251.251,0,0,1,.251-.251H82.8c.251,0,.251.126.251.251a1.8,1.8,0,0,0-1.383,1.886v9.179c0,.377,0,.5-.251.5l-.377-.251-7.8-8.676-.251-.251c-.126,0-.126.126-.126.251V13.25c0,3.143,2.138,2.012,2.138,2.766s-.377.251-.629.251H70.98c-.126,0-.5.126-.5-.251s1.635-.377,1.635-2.012Z" transform="translate(18.043 1.217)" fill="#fff"/><path d="M4.4,24.616c-.251,0-.5,0-.5-.126a1.509,1.509,0,0,1,.126-.629l1.257-2.892v-.251h.126L6.79,23.736a1.509,1.509,0,0,1,.126.629c0,.126-.251.126-.5.126Zm2.766.88c.377,0,.5.126,1.006,1.509a2.892,2.892,0,0,1,.251,1.132c0,1.006-1.132.88-1.132,1.257s.251.251.5.251H11.82c.5,0,.629,0,.629-.251s-.88.126-1.383-1.132L6.664,18.2c-.251-.5-.251-.5-.377-.5s-.251.251-.377.629L1.257,28.262C.88,29.142,0,29.142,0,29.52s.251.126.5.126H3.521c.377,0,.88.126.88-.251s-1.886-.251-1.886-1.383a4.652,4.652,0,0,1,.377-1.257c.377-1.132.754-1.132,1.006-1.132Z" transform="translate(0 4.563)" fill="#fff"/><path d="M20.888,21.5c0,.126.126.5-.251.5s-.377-.377-.5-.5a5.03,5.03,0,0,0-4.149-3.018c-2.389,0-3.772,2.263-3.772,4.527s1.257,5.533,4.4,5.533S20.259,26.4,20.762,26.4h.251c0,.629-1.76,3.143-5.281,3.143A5.407,5.407,0,0,1,10.2,24.013c0-2.766,1.635-6.413,5.784-6.413a12.071,12.071,0,0,1,3.772,1.006c.251,0,.377-.5.5-.5h.251Z" transform="translate(2.625 4.538)" fill="#fff"/><path d="M23.775,24.616c-.251,0-.5,0-.5-.126a1.509,1.509,0,0,1,.126-.629l1.257-2.892v-.251h.126l1.383,3.018a1.509,1.509,0,0,1,.126.629c0,.126-.251.126-.5.126Zm2.766.88c.377,0,.5.126,1.006,1.509a2.892,2.892,0,0,1,.251,1.132c0,1.006-1.132.88-1.132,1.257s.251.251.5.251h3.9c.5,0,.629,0,.629-.251s-.88.126-1.383-1.132L25.913,18.2c-.251-.5-.251-.5-.377-.5s-.251.251-.377.629l-4.4,9.933c-.377.88-1.257.88-1.257,1.257s.251.126.5.126h3.018c.377,0,.88.126.88-.251s-1.76-.126-1.76-1.383a4.652,4.652,0,0,1,.377-1.257c.377-1.132.754-1.132,1.006-1.132Z" transform="translate(5.019 4.563)" fill="#fff"/><path d="M33.046,20.038c0-1.132.126-1.509,1.383-1.509,4.149,0,4.9,3.772,4.9,5.281s-1.886,5.03-4.4,5.03c-.629,0-1.886-.126-1.886-1.257Zm-2.012,7.8c0,1.509-1.257.88-1.257,1.509s.377.251.629.251h4.9a6.161,6.161,0,0,0,6.036-6.287c0-5.155-4.778-5.407-7.041-5.407H29.651a.251.251,0,0,0-.251.251c0,.629,1.76.126,1.76,1.76Z" transform="translate(7.567 4.615)" fill="#fff"/><path d="M43.2,22.072c0,.754,0,.88.754.88h1.006c1.383,0,1.509-1.509,1.76-1.509s.251,0,.251.377v2.892c0,.251.126.754-.251.754s-.126-1.76-1.76-1.76H43.7c-.754,0-.629.251-.629,1.132v2.138c0,1.006-.126,1.635,1.132,1.635,4.024,0,3.9-2.138,4.527-2.138s.126,0,.126.377a2.515,2.515,0,0,1-2.263,2.641H39.929c0-.754,1.257.126,1.257-1.886v-7.8c0-1.509-1.886-1.006-1.886-1.635s.126-.251.377-.251H47.85a.377.377,0,0,1,.377.251v1.635c0,.251.126.754-.251.754s.5-1.886-2.641-1.886-2.012,0-2.012,1.132Z" transform="translate(10.116 4.592)" fill="#fff"/><path d="M49.563,26.728c-.126,2.766,1.76,1.886,1.76,2.515s.126.251-.377.251H47.551c-.251,0-.251-.126-.251-.251a1.8,1.8,0,0,0,1.383-1.886l.251-6.664c.126-2.766-1.635-1.886-1.635-2.641a.251.251,0,0,1,.251-.251h2.515c.126,0,.377,0,.629.5l3.646,7.922.251.251c.126,0,.251-.251.251-.377l3.772-7.922a.4.4,0,0,1,.377-.377h2.012c.5,0,.5.126.5.251s-1.635,0-1.509,1.886l.251,7.293c.126,2.138,1.635,1.383,1.635,2.012s-.251.251-.754.251H57.611c-.377,0-.754,0-.754-.251s1.257,0,1.132-1.886l-.251-5.03c0-.5,0-.754-.126-.754l-.5.88-3.143,6.538c-.126.251-.126.5-.377.5s-.377-.251-.377-.5l-3.143-7.041V21.7c-.126,0-.126.251-.126.377Z" transform="translate(12.175 4.589)" fill="#fff"/><path d="M60.435,19.447c-.629-1.132-1.635-.754-1.635-1.257s.251-.251.629-.251h3.9c.251,0,.251.126.251.251s-.88.251-.88.754a1.76,1.76,0,0,0,.251.754l1.509,3.018c.251.5.377.754.5.754l.377-.5L66.847,20.2a1.635,1.635,0,0,0,.251-.88c0-1.132-1.635-.754-1.635-1.257s.126-.251.251-.251h3.395c.251,0,.251.126.251.126s-.754.126-1.76,1.886l-2.138,4.024a1.76,1.76,0,0,0-.251,1.006v2.515c0,2.138,2.012.88,2.012,1.76s-.251.251-.5.251H61.943c-.251,0-.5,0-.5-.126s1.76.126,1.76-1.886V25.357a1.635,1.635,0,0,0-.251-1.006Z" transform="translate(15.135 4.576)" fill="#fff"/><path d="M73.113,23.21c0-2.389.88-4.652,3.646-4.652s4.149,1.886,4.149,5.533-.88,4.9-3.772,5.03-4.024-3.395-4.024-5.784m-2.012.88a5.281,5.281,0,0,0,5.533,5.533c5.281,0,6.287-4.024,6.287-6.287A5.281,5.281,0,0,0,77.263,17.8c-3.9,0-6.161,2.766-6.161,6.413" transform="translate(18.3 4.586)" fill="#fff"/><path d="M84.7,22.072c0,.754,0,.88.754.88h1.006c1.383,0,1.509-1.509,1.76-1.509s.251,0,.251.377v2.892c0,.251.126.754-.251.754s-.126-1.76-1.76-1.76H85.2c-.754,0-.629.251-.629,1.132v2.389c0,1.886,1.886,1.383,1.886,1.886s-.377.251-.754.251H81.429c0-.754,1.257.126,1.257-1.886v-7.67c0-1.509-1.886-1.006-1.886-1.635s.126-.251.377-.251H89.35a.377.377,0,0,1,.377.251v1.635c0,.251.126.754-.251.754s.5-1.886-2.641-1.886-2.012,0-2.012,1.132Z" transform="translate(20.798 4.592)" fill="#fff"/><path d="M9.727,37.816c-.251,0-.5,0-.5-.126a1.509,1.509,0,0,1,.126-.629l1.257-2.892v-.251h.126l1.383,3.018a1.509,1.509,0,0,1,.126.629c0,.126-.251.126-.5.126Zm2.766.88c.377,0,.5.126,1.006,1.509a2.892,2.892,0,0,1,.251,1.132c0,1.006-1.132.88-1.132,1.257s.251.251.5.251h3.9c.5,0,.629,0,.629-.251s-.88.126-1.383-1.132L11.864,31.4c-.251-.5-.251-.5-.377-.5s-.251.251-.377.629L6.457,41.462c-.377.88-1.257.88-1.257,1.257s.251.126.5.126H8.721c.377,0,.88.126.88-.251s-1.76-.251-1.76-1.383a4.652,4.652,0,0,1,.377-1.257c.377-1.132.754-1.132,1.006-1.132Z" transform="translate(1.338 7.961)" fill="#fff"/><path d="M25.871,36.8c0,3.395-.88,6.161-5.533,6.161s-4.778-1.383-4.778-4.652V32.9c0-1.383-1.76-.88-1.76-1.509s.251-.251.377-.251H18.83c.126,0,.126.126.126.251s-1.383-.251-1.383,2.389V37.3c0,2.515.629,4.652,3.646,4.652s3.646-2.641,3.646-5.407V33.277c0-1.886-2.012-1.383-2.012-2.012s.251-.126.5-.126h3.269c.251,0,.251,0,.251.251s-1.132-.126-1.132,1.76Z" transform="translate(3.552 7.973)" fill="#fff"/><path d="M28.472,33.238c0-1.132.126-1.509,1.383-1.509,4.149,0,4.9,3.772,4.9,5.281s-1.886,5.03-4.4,5.03c-.629,0-1.886-.126-1.886-1.257Zm-2.012,7.8c0,1.509-1.257.88-1.257,1.509s.377.251.629.251h4.9a6.161,6.161,0,0,0,6.036-6.287c0-5.155-4.778-5.407-7.041-5.407H24.951a.251.251,0,0,0-.251.251c0,.629,1.76.126,1.76,1.76Z" transform="translate(6.358 8.012)" fill="#fff"/><path d="M38.8,40.679c0,2.012,1.886,1.257,1.886,1.76s-.126.251-.5.251h-4.4a.141.141,0,0,1-.126-.251c0-.629,1.132-.126,1.132-1.76v-7.67C36.786,31.5,34.9,32,34.9,31.374s.377-.251.5-.251h4.024c.5,0,.629,0,.629.251s-1.257,0-1.257,1.509Z" transform="translate(8.983 7.989)" fill="#fff"/><path d="M42.038,36.412c0-2.389.88-4.652,3.646-4.652s4.149,1.886,4.149,5.533-.88,4.9-3.772,5.03-4.024-3.395-4.024-5.784m-2.012.88a5.281,5.281,0,0,0,5.533,5.533c5.281,0,6.287-4.024,6.287-6.287a5.281,5.281,0,0,0-5.784-5.658c-3.9,0-6.161,2.766-6.161,6.413" transform="translate(10.27 7.981)" fill="#fff"/><path d="M53.6,40.292c0,1.006-.126,1.635,1.132,1.635,4.024,0,3.9-2.138,4.527-2.138s.126,0,.126.377a2.515,2.515,0,0,1-2.263,2.641h-6.79c0-.754,1.257.126,1.257-1.886V32.873c0-1.383-1.886-1.006-1.886-1.509s.126-.251.5-.251h4.149c.377,0,.377,0,.377.251s-1.132,0-1.132,1.257Z" transform="translate(12.793 8)" fill="#fff"/><path d="M59.938,36.412c0-2.389.88-4.652,3.646-4.652s4.149,1.886,4.149,5.533-.88,4.9-3.772,5.03-4.024-3.395-4.024-5.784m-2.012.88a5.281,5.281,0,0,0,5.533,5.533c5.281,0,6.287-4.024,6.287-6.287a5.281,5.281,0,0,0-5.784-5.658c-3.9,0-6.161,2.766-6.161,6.413" transform="translate(14.878 7.981)" fill="#fff"/><path d="M78.865,35.024c0,.251-.126.251-.377.251s-.377-3.646-4.652-3.646c-1.509,0-3.646,1.006-3.646,5.155,0,2.263,1.132,5.281,3.772,5.281s2.892-1.383,2.892-2.263-2.012-1.509-2.012-2.012.5-.377.754-.377H79.62c.126,0,.126.126.126.251s-1.132-.126-1.132,1.886v1.383c0,.251,0,.377-.126.377a11.317,11.317,0,0,1-5.155,1.635A5.407,5.407,0,0,1,67.8,37.413C67.8,34.646,69.435,31,73.584,31a11.82,11.82,0,0,1,4.149,1.132c.377,0,.377-.5.629-.5s.251.377.251.629Z" transform="translate(17.451 7.987)" fill="#fff"/><path d="M79.435,32.622c-.629-1.132-1.635-.754-1.635-1.257s.251-.251.629-.251h3.9c.251,0,.251.126.251.251s-.88.251-.88.754a1.761,1.761,0,0,0,.251.754l1.383,3.143c.251.5.377.754.5.754l.377-.5L85.722,33.5a1.635,1.635,0,0,0,.251-.88c0-1.132-1.635-.754-1.635-1.257s.126-.251.251-.251h3.521c.251,0,.251.126.251.126s-.754.126-1.76,1.886L84.59,37.274a1.761,1.761,0,0,0-.251,1.006v2.515c0,2.012,2.012.88,2.012,1.76s-.251.251-.5.251h-4.9c-.251,0-.5,0-.5-.126s1.76.126,1.76-1.886V38.532a1.635,1.635,0,0,0-.251-1.006Z" transform="translate(20.025 8)" fill="#fff"/><path d="M143.591,3.9A8.047,8.047,0,0,0,140.2,1.385c-12.574-5.03-26.154,4.4-34.7,15.214A35.081,35.081,0,0,0,102.6,21c.5,5.91,1.006,11.945,1.76,14.963l.251,1.006.5-1.509c.377-1.635.88-3.772,1.257-6.161a128.256,128.256,0,0,1,2.892-13.328,6.538,6.538,0,0,1,1.006-2.012,1.383,1.383,0,0,1,1.006-.5h.126a1.76,1.76,0,0,1,1.257.754,6.287,6.287,0,0,1,.754,1.383,29.419,29.419,0,0,1,1.132,4.149l.5,2.892a47.779,47.779,0,0,1,3.143-5.155c5.784-8.3,15.969-14.963,25.4-13.58" transform="translate(26.409 0.006)" fill="#fff"/><path d="M112.117,11.926h-.126a10.434,10.434,0,0,0-.629,1.76,41.78,41.78,0,0,0-1.383,6.161c-1.006,4.778-1.886,10.311-2.641,13.328a8.928,8.928,0,0,1-.754,2.012,1.257,1.257,0,0,1-.88.754h-.126a1.257,1.257,0,0,1-1.006-.629,3.646,3.646,0,0,1-.5-1.006,18.359,18.359,0,0,1-.629-2.892c-.377-2.263-.754-5.407-1.006-8.8l-.251-2.263c-4.024,8.8-4.024,18.484,1.509,22.885s11.065,4.275,18.107,1.509a9.808,9.808,0,0,1-5.155-2.138c-4.9-3.9-6.161-11.568-1.886-20.873a51.681,51.681,0,0,0-2.138-9.179l-.377-.754" transform="translate(25.568 3.045)" fill="#fff"/><path d="M114.595,30.369h0a25.406,25.406,0,0,0,.754-2.515c.5-2.012,1.006-4.527,1.509-6.413a22.253,22.253,0,0,1,.754-2.892l.377-.5a.88.88,0,0,1,.629-.251h.126a1.383,1.383,0,0,1,.88.629l.377.754a13.956,13.956,0,0,1,.629,2.138c.377,1.635.754,3.521,1.006,4.9l.5,1.257.251-.629a16.846,16.846,0,0,0,.629-2.389l1.132,1.886a6.287,6.287,0,0,1-1.257,2.766,1.509,1.509,0,0,1-1.006.377h-.126a1.132,1.132,0,0,1-.88-.629l-.377-.754a19.738,19.738,0,0,1-.5-2.138c-.377-1.635-.629-3.521-1.006-5.03l-.251-.754-.5,2.138c-.5,2.012-1.006,4.652-1.509,6.664A10.688,10.688,0,0,1,115.6,32a1.383,1.383,0,0,1-.629.5h-.377a1.132,1.132,0,0,1-.88-.5l-.377-.629a11.314,11.314,0,0,1-.629-1.886l-.251-1.132c-1.383,5.281-.88,9.556,1.383,10.688S122.516,35.4,126.163,27.6s3.9-15.34.754-16.849S118.241,14.4,114.595,22.2l-1.132,2.892.377,1.886a27.539,27.539,0,0,0,.754,3.269" transform="translate(28.749 2.708)" fill="#fff"/><path d="M111.751,22.175c.251,1.635.5,3.143.754,4.4a32.824,32.824,0,0,1,1.006-3.269l-.88-5.407L111.5,20.289l.251,1.886" transform="translate(28.7 4.615)" fill="#fff"/><path d="M88.8,28.016h4.778a3.646,3.646,0,0,0,1.509-1.635c1.383-2.641,2.766-7.922,4.149-12.574.629-2.263,1.383-4.527,1.886-6.036a10.311,10.311,0,0,1,.88-1.76V5.76a5.783,5.783,0,0,1,.5,1.383c.88,3.018,1.509,9.43,2.012,15.466l1.383-2.641-.251-2.012c-.377-3.269-.629-6.287-1.132-8.676a23.513,23.513,0,0,0-.754-3.018,3.9,3.9,0,0,0-1.132-1.886L102.254,4a1.509,1.509,0,0,0-1.006.5,5.784,5.784,0,0,0-1.132,1.76,119.2,119.2,0,0,0-3.772,11.945c-.629,2.138-1.257,4.275-1.886,5.784a12.7,12.7,0,0,1-.88,1.886l-.5.629H88.8" transform="translate(22.857 1.037)" fill="#fff"/></g></g></g></g></svg>