<svg xmlns="http://www.w3.org/2000/svg" width="200" height="100" viewBox="0 0 200 100"><g transform="translate(-164.605 -289.999)"><rect width="200" height="100" transform="translate(164.605 289.999)" fill="#ffaaef"/><g transform="translate(0 15.999)"><g transform="translate(255.736 318.682)"><g transform="translate(-52.131 -29.681)"><path d="M40.893,9.63v.26l-.909-.39-3.9,8.312A14.156,14.156,0,1,0,24.269,43.136a14.026,14.026,0,0,0,4.545.779h1.039l.779-1.818,2.6-5.714H47.516L50.5,42.617h5.974ZM25.308,41.188A12.338,12.338,0,1,1,35.7,18.851Zm10.649-10.26,4.416-9.61,4.545,9.61Z" transform="translate(4.123 2.838)" fill="#fff"/><path d="M34.3,8.9Z" transform="translate(10.196 2.658)" fill="#fff"/><path d="M67.719,14.088a14.8,14.8,0,0,0-5.584-3.247A25.065,25.065,0,0,0,54.343,9.8H47.2V42.789h7.013a25.325,25.325,0,0,0,7.662-.909A16.1,16.1,0,0,0,72.784,26.3a15.844,15.844,0,0,0-5.065-12.208ZM67.33,26.3a10.779,10.779,0,0,1-7.4,10.519,18.182,18.182,0,0,1-5.325.649H52.655V15H54.6c4.026,0,7.143.909,9.221,2.857A11.039,11.039,0,0,1,67.33,26.3Z" transform="translate(14.049 2.925)" fill="#fff"/><path d="M86.587,36.562H72.431L69.444,42.8H63.6L79.444,8.9l16.1,34.026H89.574ZM75.029,31.108H83.99L79.574,21.5Z" transform="translate(18.948 2.658)" fill="#fff"/><path d="M2.976,32.727A31.039,31.039,0,0,1,34.015,1.558h.13A30.779,30.779,0,0,1,52.456,7.792l.519-.649A32.338,32.338,0,0,0,32.716,0h-.13A32.727,32.727,0,0,0,16.352,61.039l.909-2.078A30.909,30.909,0,0,1,2.976,32.727Z" transform="translate(-0.038)" fill="#fff"/><path d="M10.068,30.655A22.468,22.468,0,0,1,32.535,8.187a22.208,22.208,0,0,1,9.481,2.078l.649.26V10.4l-.39-.909h0A24.286,24.286,0,0,0,17.6,51.174l1.169-2.727a22.6,22.6,0,0,1-8.7-17.792Z" transform="translate(2.09 2.072)" fill="#fff"/><path d="M18.857,39.1H19.9l2.727,6.494H21.195l-.519-1.429H17.818L17.3,45.594H16Zm1.429,4.026-1.039-2.6-1.039,2.6Z" transform="translate(4.729 11.679)" fill="#fff"/><path d="M26.206,40.688l-.649-.519H23.868l-.649.519-.519.779a2.6,2.6,0,0,0-.13.909,2.857,2.857,0,0,0,.13.909l.39.779.649.519h1.039l.909-.26.649-.519.909.649a2.987,2.987,0,0,1-1.039.779l-1.429.26H23.348l-1.039-.649a3.247,3.247,0,0,1-.649-1.039,3.636,3.636,0,0,1-.26-1.429,3.506,3.506,0,0,1,.26-1.429,3.117,3.117,0,0,1,.779-1.039l1.169-.649L24.777,39h1.3l.519.26.519.39Z" transform="translate(6.342 11.649)" fill="#fff"/><path d="M28.627,39.1h1.039l2.727,6.494h-1.3l-.649-1.429H27.718L27.2,45.594H25.9Zm1.429,4.026-1.039-2.6-1.039,2.6Z" transform="translate(7.687 11.679)" fill="#fff"/><path d="M31.4,39.1h3.506l1.169.519a2.857,2.857,0,0,1,.779,1.039,3.247,3.247,0,0,1,.26,1.558,3.117,3.117,0,0,1-.26,1.429,2.987,2.987,0,0,1-.779,1.039l-1.169.519H31.4Zm2.078,5.455h.909l.779-.39.649-.649a2.338,2.338,0,0,0,.26-1.039,2.467,2.467,0,0,0-.26-1.169l-.649-.649-.779-.39H32.569v4.416Z" transform="translate(9.329 11.679)" fill="#fff"/><path d="M36.8,39.1h4.286v1.039H37.969v1.688h2.987v.909H37.969v1.818h3.247v1.039H36.8Z" transform="translate(10.942 11.679)" fill="#fff"/><path d="M41.1,39.1h1.818l1.688,4.545h0L46.165,39.1h1.818v6.494H46.814V40.4h0l-1.948,5.195h-.779L42.139,40.4h0v5.195H41.1Z" transform="translate(12.227 11.679)" fill="#fff"/><path d="M49.268,42.736,46.8,39.1h1.429l1.688,2.727L51.605,39.1h1.3l-2.468,3.636v2.857H49.268Z" transform="translate(13.93 11.679)" fill="#fff"/><path d="M53.041,41.552A2.208,2.208,0,0,1,54.6,40.9a1.169,1.169,0,0,1,1.3,1.429,3.377,3.377,0,0,1-1.039,2.208,2.208,2.208,0,0,1-1.558.649,1.169,1.169,0,0,1-1.3-1.3A3.636,3.636,0,0,1,53.041,41.552Zm1.039,2.727a5.714,5.714,0,0,0,.909-2.468c0-.26,0-.519-.39-.519s-.39.13-.649.39a5.325,5.325,0,0,0-1.039,2.6c0,.26.13.519.39.519S53.69,44.669,54.08,44.279Z" transform="translate(15.481 12.214)" fill="#fff"/><path d="M57.986,42.169c-.39,1.039-.779,2.857-1.169,3.9a4.805,4.805,0,0,1-.779,1.688,2.208,2.208,0,0,1-1.429.649.886.886,0,0,1-.909-.649.519.519,0,0,1,.519-.519l.26.26c.26.39.39.519.649.519s.26-.13.519-.909l1.3-5.065h-.909a.39.39,0,0,1,.13-.39h.909a7.532,7.532,0,0,1,.909-2.078A2.338,2.338,0,0,1,59.934,38.4a.909.909,0,0,1,1.039.779.649.649,0,0,1-.519.649c-.13,0-.26,0-.26-.26s-.39-.779-.519-.779-.39.13-.649.649a12.986,12.986,0,0,0-.779,2.208h1.039a.39.39,0,0,1-.13.39Z" transform="translate(15.991 11.468)" fill="#fff"/><path d="M60.9,39.1h3.506l1.169.519a2.857,2.857,0,0,1,.779,1.039,3.247,3.247,0,0,1,.26,1.558,3.117,3.117,0,0,1-.26,1.429,2.987,2.987,0,0,1-.779,1.039l-1.169.519H60.9Zm2.078,5.455h.909l.779-.39.649-.649a2.337,2.337,0,0,0,.26-1.039,2.467,2.467,0,0,0-.26-1.169l-.649-.649-.779-.39H62.069v4.416Z" transform="translate(18.141 11.679)" fill="#fff"/><path d="M66,42.377a3.636,3.636,0,0,1,.26-1.429,3.117,3.117,0,0,1,.779-1.039l1.039-.649L69.507,39l1.429.26,1.169.649a2.987,2.987,0,0,1,.779,1.039,3.636,3.636,0,0,1,.26,1.429,3.506,3.506,0,0,1-.26,1.429,3.117,3.117,0,0,1-.779,1.039l-1.169.649-1.429.26-1.429-.26-1.039-.649a3.246,3.246,0,0,1-.779-1.039A3.506,3.506,0,0,1,66,42.377Zm1.3,0a2.728,2.728,0,0,0,.13.909l.519.779.649.519h1.818l.649-.519.519-.779a2.727,2.727,0,0,0,.13-.909,2.6,2.6,0,0,0-.13-.909l-.39-.779-.649-.519H68.6l-.649.519-.39.779A2.6,2.6,0,0,0,67.3,42.377Z" transform="translate(19.664 11.649)" fill="#fff"/><path d="M76.935,40.688l-.649-.519H74.6l-.649.519-.519.779a2.6,2.6,0,0,0-.13.909,2.857,2.857,0,0,0,.13.909l.39.779.649.519h.909l.909-.26.649-.519.909.649a2.987,2.987,0,0,1-1.039.779l-1.429.26H73.948l-1.039-.649a3.117,3.117,0,0,1-.649-1.039A3.636,3.636,0,0,1,72,42.377a3.506,3.506,0,0,1,.26-1.429,3.117,3.117,0,0,1,.779-1.039l1.169-.649L75.637,39h1.3l.519.26.519.39Z" transform="translate(21.456 11.649)" fill="#fff"/><path d="M78.548,40.139H76.6V39.1h5.065v1.039H79.717v5.455H78.548Z" transform="translate(22.831 11.679)" fill="#fff"/><path d="M80.8,42.377a3.636,3.636,0,0,1,.26-1.429,3.117,3.117,0,0,1,.779-1.039l1.039-.649L84.307,39l1.429.26,1.169.649a2.987,2.987,0,0,1,.779,1.039,3.637,3.637,0,0,1,.26,1.429,3.507,3.507,0,0,1-.26,1.429,3.246,3.246,0,0,1-.779,1.039l-1.169.649-1.429.26-1.429-.26-1.039-.649a3.247,3.247,0,0,1-.779-1.039A3.506,3.506,0,0,1,80.8,42.377Zm1.3,0a2.728,2.728,0,0,0,.13.909l.519.779.649.519h1.818l.649-.519.519-.779a2.727,2.727,0,0,0,.13-.909,2.6,2.6,0,0,0-.13-.909L86,40.688l-.649-.519H83.4l-.649.519-.39.779A2.6,2.6,0,0,0,82.1,42.377Z" transform="translate(24.085 11.649)" fill="#fff"/><path d="M87,39.1h3.117l.779.26.519.519a1.843,1.843,0,0,1-.13,2.078,1.948,1.948,0,0,1-1.039.649l1.688,2.857H90.506l-1.429-2.6H88.3v2.727H87Zm2.078,2.727h.909l.26-.26a.847.847,0,0,0,0-.909l-.26-.26H88.169v1.818Z" transform="translate(25.937 11.679)" fill="#fff"/><path d="M94.836,40.558l-.519-.39H92.888l-.26.26a.649.649,0,0,0,0,.779l.26.26H93.8l.649.26.649.39.519.519a1.558,1.558,0,0,1,.13.779,2.078,2.078,0,0,1-.13.909l-.519.649-.779.39h-.909l-1.169-.26L91.2,44.455l.779-.779.649.519h1.558l.26-.26a.909.909,0,0,0,.13-.39.779.779,0,0,0-.13-.39l-.26-.26H93.018l-.519-.26-.519-.39-.39-.519a1.818,1.818,0,0,1-.13-.779,1.688,1.688,0,0,1,.26-.909l.519-.649.779-.39h1.818l.909.519Z" transform="translate(27.192 11.649)" fill="#fff"/><g transform="translate(37.734 59.99)"><path d="M30.141,49.252A2.208,2.208,0,0,1,31.7,48.6,1.169,1.169,0,0,1,33,50.031a3.377,3.377,0,0,1-1.039,2.208,2.208,2.208,0,0,1-1.558.649,1.169,1.169,0,0,1-1.3-1.3,3.636,3.636,0,0,1,1.039-2.338Zm1.039,2.727a5.714,5.714,0,0,0,.909-2.468c0-.26,0-.519-.39-.519s-.39.13-.649.39a5.325,5.325,0,0,0-1.039,2.6c0,.26.13.519.39.519a.939.939,0,0,0,.779-.519Z" transform="translate(-29.094 -45.475)" fill="#fff"/><path d="M35.086,49.969c-.39,1.039-.779,2.857-1.169,3.9a4.805,4.805,0,0,1-.779,1.688,2.208,2.208,0,0,1-1.429.649.886.886,0,0,1-.909-.649.519.519,0,0,1,.519-.519l.26.26c.26.39.39.519.649.519s.26-.13.519-.909l1.3-5.065h-.909a.39.39,0,0,1,.13-.39h.909a7.532,7.532,0,0,1,.909-2.078A2.338,2.338,0,0,1,37.034,46.2a.909.909,0,0,1,1.039.779.649.649,0,0,1-.519.649c-.13,0-.26,0-.26-.26s-.39-.779-.519-.779-.39.13-.649.649a12.988,12.988,0,0,0-.779,2.208h1.169a.39.39,0,0,1-.13.39Z" transform="translate(-28.584 -46.192)" fill="#fff"/><path d="M39.557,46.8H40.6l2.727,6.494h-1.3l-.649-1.429H38.518L38,53.293H36.7Zm1.429,4.026-1.039-2.6-1.039,2.6Z" transform="translate(-26.822 -46.01)" fill="#fff"/><path d="M47.395,50.956a2.6,2.6,0,0,1-.26,1.039l-.519.779-.779.519H43.758l-.779-.519-.519-.779a2.727,2.727,0,0,1-.26-1.039V46.8h1.169v4.156a2.208,2.208,0,0,0,.13.519l.26.519.39.39h1.429l.39-.39.26-.519a2.208,2.208,0,0,0,.13-.519V46.8h1.169Z" transform="translate(-25.179 -46.01)" fill="#fff"/><path d="M47.3,46.8h3.506l1.169.519a2.857,2.857,0,0,1,.779,1.039,3.247,3.247,0,0,1,.26,1.558,3.117,3.117,0,0,1-.26,1.429,2.987,2.987,0,0,1-.779,1.039l-1.169.519H47.3Zm2.078,5.455h.909l.779-.39.649-.649a2.338,2.338,0,0,0,.26-1.039,2.467,2.467,0,0,0-.26-1.169l-.649-.649-.779-.39H48.469v4.286Z" transform="translate(-23.655 -46.01)" fill="#fff"/><path d="M52.6,46.8h1.169v6.494H52.6Z" transform="translate(-22.072 -46.01)" fill="#fff"/><path d="M54.4,50.077a3.636,3.636,0,0,1,.26-1.429,3.117,3.117,0,0,1,.779-1.039l1.039-.649,1.429-.26,1.429.26,1.169.649a2.987,2.987,0,0,1,.779,1.039,3.636,3.636,0,0,1,.26,1.429,3.507,3.507,0,0,1-.26,1.429,3.117,3.117,0,0,1-.779,1.039l-1.169.649-1.429.26-1.429-.13-1.039-.649a3.247,3.247,0,0,1-.779-1.039,3.506,3.506,0,0,1-.26-1.558Zm1.3,0a2.728,2.728,0,0,0,.13.909l.519.779.649.519h1.818l.649-.519.519-.779a2.727,2.727,0,0,0,.13-.909,2.6,2.6,0,0,0-.13-.909l-.39-.779-.649-.519H57l-.649.519-.39.779a2.6,2.6,0,0,0-.39.909Z" transform="translate(-21.536 -46.04)" fill="#fff"/><path d="M60.6,46.8h1.169v5.455H64.5v1.039H60.6Z" transform="translate(-19.683 -46.01)" fill="#fff"/><path d="M63.9,50.077a3.637,3.637,0,0,1,.26-1.429,3.117,3.117,0,0,1,.779-1.039l1.039-.649,1.429-.26,1.429.26L70,47.609a3.117,3.117,0,0,1,.779,1.039,3.636,3.636,0,0,1,.26,1.429,3.506,3.506,0,0,1-.26,1.429A3.247,3.247,0,0,1,70,52.544l-1.169.649-1.429.26-1.429-.26-1.039-.649a3.247,3.247,0,0,1-.779-1.039,3.507,3.507,0,0,1-.26-1.429Zm1.3,0a2.728,2.728,0,0,0,.13.909l.519.779.649.519h1.818l.649-.519.519-.779a2.727,2.727,0,0,0,.13-.909,2.6,2.6,0,0,0-.13-.909l-.39-.779-.649-.519H66.5l-.649.519-.39.779A2.6,2.6,0,0,0,65.2,50.077Z" transform="translate(-18.697 -46.04)" fill="#fff"/><path d="M75.874,53.064l-1.039.39h-1.3l-1.429-.26-1.169-.649a3.117,3.117,0,0,1-.779-1.039,4.058,4.058,0,0,1,0-2.857,3.117,3.117,0,0,1,.779-1.039l1.169-.649,1.429-.26,1.429.26L76,47.609l-.779.909L74.576,48H72.5l-.649.519-.39.779a2.6,2.6,0,0,0-.13.909,2.728,2.728,0,0,0,.13.909l.519.779.779.519h.909l1.3-.26V50.6h-1.3v-.909h2.468Z" transform="translate(-16.905 -46.04)" fill="#fff"/><path d="M77.368,50.536,74.9,46.9h1.429l1.688,2.727L79.705,46.9H81l-2.468,3.636v2.857H77.368Z" transform="translate(-15.411 -45.98)" fill="#fff"/><path d="M82.168,47.769a1.169,1.169,0,0,1-.13.519l-.26.39-.39.26h-.909l-.39-.26-.26-.39a1.1,1.1,0,0,1,0-1.039l.26-.39.39-.26h.909l.39.26.26.39A1.169,1.169,0,0,1,82.168,47.769Zm-.13,0a1.039,1.039,0,0,0-.13-.39l-.26-.39-.26-.26h-.779l-.39.26-.26.39a1.039,1.039,0,0,0,0,.779l.26.26.39.26h.779l.26-.26.26-.26a1.039,1.039,0,0,0,0-.39Zm-.779.649L81,47.9h-.13v.519h-.39V46.99h1.169v.39h-.26l.39.519Zm0-.909h-.39v.26h.39Z" transform="translate(-13.977 -46.07)" fill="#fff"/></g></g></g></g></g></svg>