<svg xmlns="http://www.w3.org/2000/svg" width="200" height="100" viewBox="0 0 200 100"><g transform="translate(-165.5 -290.5)"><rect width="200" height="100" transform="translate(165.5 290.5)" fill="none"/><g transform="translate(14 -23.002)"><g transform="translate(251.5 362.551)"><g transform="translate(-85 -31.048)"><path d="M109.884,122.5a1.938,1.938,0,1,0,1.891,1.938,1.891,1.891,0,0,0-1.891-1.938Zm.646,3.275-.692-1.153h-.461v1.107h-.415v-2.676h1.015c.646,0,.969.277.969.784a.692.692,0,0,1-.692.738l.738,1.2Z" transform="translate(-58.122 -65.939)" fill="none"/><path d="M112.253,124.915c0-.369-.323-.415-.6-.415H111.1v.83h.507C111.93,125.33,112.253,125.33,112.253,124.915Z" transform="translate(-59.846 -67.017)" fill="none"/><path d="M23.115,66.954V66.4a.461.461,0,0,0-.046.231v.461a17.623,17.623,0,0,1-.369,4.014h0A16.239,16.239,0,0,0,23.115,66.954Z" transform="translate(-12.228 -35.721)" fill="#fff"/><path d="M5.6,65.977l.092-.277Z" transform="translate(-3.017 -35.344)" fill="#fff"/><path d="M14.9,55.8a16.639,16.639,0,0,0-.6,3.322,26.666,26.666,0,0,1-.6,3.645,32.662,32.662,0,0,0,.646-3.783A21.452,21.452,0,0,1,14.9,55.8Z" transform="translate(-7.38 -30.011)" fill="#fff"/><path d="M10.961,67.89c-.83,0-1.2-1.384-1.661-3.137A13.379,13.379,0,0,0,8.792,63l-.092.231v-.092c.138.415.369,1.2.507,1.753.415,1.753.784,3.137,1.661,3.137s1.015-.83,1.338-2.953C11.929,67.06,11.606,67.89,10.961,67.89Z" transform="translate(-4.686 -33.889)" fill="#fff"/><path d="M20.022,67.726c-.877,0-1.107-1.384-1.569-5.674-.138-1.338-.323-3.137-.554-4.152v.185c.231,1.015.415,2.768.554,4.106.461,4.29.692,5.674,1.569,5.674a.83.83,0,0,0,.6-.277,2.03,2.03,0,0,0,.415-.83,1.938,1.938,0,0,1-.369.692A.83.83,0,0,1,20.022,67.726Z" transform="translate(-9.642 -31.142)" fill="#fff"/><path d="M109.069,121.573a2.33,2.33,0,1,0,2.353,2.307,2.307,2.307,0,0,0-2.353-2.307Zm0,4.29a1.938,1.938,0,1,1,1.891-1.938,1.891,1.891,0,0,1-1.891,1.938Z" transform="translate(-57.308 -65.428)" fill="#fff"/><path d="M112.184,124.484c0-.507-.323-.784-.969-.784H110.2v2.676h.415v-1.107h.461l.692,1.153h.461l-.738-1.2a.692.692,0,0,0,.692-.738Zm-1.569.415v-.83h.554c.277,0,.6.046.6.415s-.323.415-.646.415Z" transform="translate(-59.361 -66.587)" fill="#fff"/><path d="M53.949.13a30.863,30.863,0,1,1-8.258,60.619c.923.6,3.275,1.246,8.488,1.246A31.047,31.047,0,1,0,42.6,2.113l.138.138A30.771,30.771,0,0,1,53.949.13Z" transform="translate(-22.947 0.102)" fill="#fff"/><path d="M84.973,31.279A30.863,30.863,0,0,0,42.9,2.538l.461.323h.046c2.076,1.661,4.429,3.414,5.351,5.72a24.233,24.233,0,0,1,1.43,5.582,4.85,4.85,0,0,0,2.722,3.783c2.4,1.292,4.521,1.43,4.752,3.091.138.923-1.522,3.091-1.522,3.921s2.86,2.86,2.722,3.46-2.63,1.661-2.491,2.4,2.906.738,3.229,1.292c.83,1.43-.554,2.122-.461,2.86.231,1.661,1.522,3.691.461,5.49-1.8,3.091-7.843,2.03-10.242,4.659s-3.137,3.967-3.691,5.813c-.83,2.86-1.476,7.474-.231,9.642a1.245,1.245,0,0,0,.415.415A30.863,30.863,0,0,0,84.973,31.233ZM62.276,29.2c.6,0,.738.6,1.246,2.353a14.856,14.856,0,0,0,.969,2.86A22.422,22.422,0,0,0,65,31.141c.323-2.814.461-3.967,1.292-3.967s.969.969,1.615,5.167c.138,1.107.369,2.583.6,3.552.185-1.153.277-3.137.369-4.706.323-5.582.461-6.412,1.246-6.412s.923.83,1.384,6.966c.138,1.845.323,4.2.507,5.582.231-1.707.415-4.844.554-7.335s.231-3.783.369-5.167.323-2.722.692-2.676.738.415,1.061,3.137c.231,1.615.415,3.737.6,5.813s.323,3.46.461,4.8c.185-1.015.323-2.214.461-3.229.784-5.905.969-6.366,1.615-6.366s.877.877,1.43,3.921c.185,1.015.461,2.4.692,3.137a9.686,9.686,0,0,0,.277-1.107c.277-1.338.554-2.583,1.43-2.583a1.476,1.476,0,0,1,1.43,1.615.461.461,0,0,1-.923,0c0-.092-.046-.6-.415-.646s-.415,1.292-.554,1.845-.461,2.261-1.2,2.261-.923-.877-1.569-4.29l-.461-2.307c-.231,1.153-.507,3.137-.692,4.706s-.323,2.676-.507,3.691-.369,2.03-.923,2.03-.692-.507-.923-2.537c-.138-1.292-.277-3-.461-4.8s-.461-4.8-.692-6.5c-.138,1.476-.277,3.552-.369,5.4-.461,8.488-.692,9.273-1.476,9.273s-1.015-.969-1.476-7.52c-.092-1.569-.277-3.506-.415-4.8-.092,1.2-.185,2.86-.277,4.2-.323,5.582-.461,6.412-1.246,6.412s-.969-.969-1.615-5.167c-.185-1.2-.415-2.86-.646-3.783-.138.692-.231,1.8-.323,2.583-.323,2.906-.507,4.29-1.384,4.29s-1.338-1.43-1.984-3.737c-.138-.415-.231-.877-.369-1.246-.092.369-.231.83-.323,1.338a.47.47,0,1,1-.923-.185C61.4,29.2,62.045,29.2,62.276,29.2Z" transform="translate(-23.109 -0.185)" fill="#fff"/><path d="M.392,30.488H.438A30.863,30.863,0,0,1,19.953,4.838L19.814,4.7A31.047,31.047,0,0,0,.3,30.627H.346v-.138Z" transform="translate(-0.162 -2.485)" fill="#fff"/><path d="M.138,65.2c0-.461,0-.923.046-1.384L0,63.4v1.753A30.955,30.955,0,0,0,15.27,91.864v-.138A30.817,30.817,0,0,1,.138,65.2Z" transform="translate(0 -34.105)" fill="#fff"/><path d="M15.893,51.871c1.384-1.522,3.46-1.43,5.213-2.4a5.628,5.628,0,0,0,3.045-3.829c.554-2.122-1.984-2.953-1.938-4.8.046-1.061,1.43-.969,1.569-1.891s-1.522-1.753-2.4-1.984-.784-.507-.6-.877,2.63.323,3.829-1.107-.231-4.244.323-4.844,3.322-.923,3.368-3.368c0-1.338-.738-2.168-2.491-4.659a39.7,39.7,0,0,1-3.506-5.259c-.646-1.2-.461-5.213-.461-6.643a9.38,9.38,0,0,0-1.292-4.659l-.092-.185L19.953,5A30.863,30.863,0,0,0,.438,30.65c.646.138.923,1.061,1.292,2.353a9.78,9.78,0,0,0,.507,1.522,12.872,12.872,0,0,0,.507-1.246L2.837,33v-.185c.461-1.384.738-2.307,1.43-2.307s1.015,1.015,1.43,2.722a16.654,16.654,0,0,0,.692,2.261V35.4a26.665,26.665,0,0,0,.692-3.645,16.638,16.638,0,0,1,.6-3.322c.231-.554.369-.646.692-.646s1.107,1.384,1.569,5.674a36.1,36.1,0,0,0,.692,4.567A17.623,17.623,0,0,0,11,34.018v-.461a.491.491,0,1,1,.969-.138,17.229,17.229,0,0,1-.461,4.844,2.03,2.03,0,0,1-.415.83.83.83,0,0,1-.6.277c-.877,0-1.107-1.384-1.569-5.674-.138-1.338-.323-3.091-.554-4.106-.138.646-.231,1.43-.323,2.168s-.231,1.476-.323,2.076c-.323,2.122-.646,2.953-1.338,2.953S5.144,35.4,4.729,33.649c-.138-.554-.369-1.338-.507-1.753v.092a12.326,12.326,0,0,0-.415,1.2v.092h0c-.461,1.476-.83,2.537-1.569,2.537S1.084,34.848.715,33.51c-.092-.323-.231-.784-.369-1.153,0,.461-.046.923-.046,1.384A30.817,30.817,0,0,0,15.432,60.267c-.092-.554-.461-2.86-.692-4.29a5.075,5.075,0,0,1,1.153-4.106Z" transform="translate(-0.162 -2.646)" fill="#fff"/><path d="M42.738,4.838,42.6,4.7Z" transform="translate(-22.947 -2.485)" fill="#fff"/><path d="M42.9,5h0l.507.415h-.046Z" transform="translate(-23.109 -2.646)" fill="#fff"/><path d="M.492,60.838V60.7H.4v.138Z" transform="translate(-0.215 -32.65)" fill="#fff"/><path d="M7.746,64.7a12.326,12.326,0,0,1,.415-1.2A11.164,11.164,0,0,0,7.7,64.792Z" transform="translate(-4.148 -34.159)" fill="#fff"/><path d="M17.046,58.3h0c-.138.646-.277,1.615-.369,2.353s-.185,1.384-.277,1.938c.092-.6.185-1.292.323-2.076" transform="translate(-8.834 -31.357)" fill="#fff"/><path d="M1.846,63.091a11.763,11.763,0,0,0,.507,1.522,8.165,8.165,0,0,0,.554-1.384A12.872,12.872,0,0,1,2.4,64.475a9.78,9.78,0,0,1-.507-1.522C1.523,61.707,1.246,60.738.6,60.6v.185C1.246,60.923,1.477,61.8,1.846,63.091Z" transform="translate(-0.323 -32.596)" fill="#fff"/><path d="M24.015,65.738a.415.415,0,0,1,.461.461,20.079,20.079,0,0,1-.415,4.706,17.229,17.229,0,0,0,.461-4.844.466.466,0,0,0-.923-.092A.415.415,0,0,1,24.015,65.738Z" transform="translate(-12.713 -35.29)" fill="#fff"/><path d="M16.892,54.538c.877,0,1.107,1.384,1.569,5.674a36.1,36.1,0,0,0,.692,4.567v-.138a36.1,36.1,0,0,1-.692-4.567C18,55.784,17.769,54.4,16.892,54.4s-.507.185-.692.646C16.431,54.677,16.615,54.538,16.892,54.538Z" transform="translate(-8.726 -29.257)" fill="#fff"/><path d="M148.183,17.6h.554l.323.83c.046.185.185.461.323.83a13.186,13.186,0,0,0,.554,1.246l.646,1.476c.231.507.461.969.646,1.43a9.086,9.086,0,0,0,.554,1.153l.323.646a.554.554,0,0,0,.507.323h.231c.046.046.046.046.046.092v.185a.138.138,0,0,1-.138.138h-3.275c-.046-.046-.046-.046-.046-.092v-.231c0-.092.046-.092.092-.092h.323c.415,0,.6-.138.6-.415a1.2,1.2,0,0,0-.138-.507l-.415-1.292h-3.6l-.554,1.384a1.155,1.155,0,0,0-.092.323q0,.415.554.415h.323a.138.138,0,0,1,.138.138v.185c0,.092-.046.092-.092.092h-2.676c-.046,0-.092-.046-.092-.138v-.231c0-.092.046-.092.138-.092h.277a.231.231,0,0,0,.231-.138l.277-.323a2.768,2.768,0,0,0,.323-.646Zm-.046,1.522-1.615,3.645h3.137Z" transform="translate(-77.461 -9.434)" fill="#fff"/><path d="M166.353,22.446h0l-.323,4.613c0,.323,0,.507.092.6a.738.738,0,0,0,.507.138h.231c.092,0,.138.046.138.092v.185c0,.092-.046.092-.092.092h-2.214c-.092,0-.092-.046-.092-.092V27.89l.092-.092h.507l.138-.092a.369.369,0,0,0,.092-.231,3.462,3.462,0,0,0,.092-.507c.046-.231.046-.507.092-.877L165.846,23c0-.323,0-.507-.092-.6a.6.6,0,0,0-.461-.138h-.231c-.046,0-.046-.046-.046-.092v-.277c0-.092.046-.092.138-.092h2.03l.138.092.138.323.138.323,1.661,3.967,1.153-2.63a2.577,2.577,0,0,0,.185-.369l.277-.6.277-.6.185-.415h2.076c.092,0,.138.046.138.092v.185a.092.092,0,0,1-.092.092h-.185a.784.784,0,0,0-.554.138c-.092.092-.092.277-.092.507l.323,4.2c.046.323.092.507.185.554a.877.877,0,0,0,.6.138c.092,0,.138.046.138.092v.185c0,.092-.046.092-.138.092h-2.768c-.092,0-.092-.046-.092-.092V27.89c0-.046,0-.092.046-.092h.185c.369,0,.6-.046.692-.185a.83.83,0,0,0,.138-.507V26.6l-.323-3.875h-.046l-1.384,3.183a1.568,1.568,0,0,0-.138.369,4.808,4.808,0,0,1-.185.461l-.185.461a1.153,1.153,0,0,0-.092.323c-.046.138-.138.323-.185.507s-.092.277-.138.277h-.277a.092.092,0,0,1-.092-.092l-.185-.461a1.383,1.383,0,0,0-.185-.461Z" transform="translate(-88.665 -11.696)" fill="#fff"/><path d="M187.83,26.19v.923c0,.277.046.461.046.646h2.03l.369-.092a.461.461,0,0,0,.185-.231.877.877,0,0,0,.046-.369V26.79h.323a.092.092,0,0,1,.092.092V28.22a.138.138,0,0,1-.138.138h-4.8c-.138,0-.185-.046-.185-.138V27.99h.692l.138-.138a2.949,2.949,0,0,0,.092-.323V22.823a.554.554,0,0,0-.092-.323q-.092-.138-.138-.138h-.507c-.138,0-.185-.046-.185-.138v-.277c0-.046.046-.046.185-.046h4.8v1.246c0,.092-.046.138-.092.138h-.185c-.092,0-.138-.046-.138-.185a1.661,1.661,0,0,0-.092-.507c-.046-.138-.185-.231-.415-.231h-1.938c0,.138-.046.323-.046.554v1.8h1.707l.277-.138.138-.231c0-.092.046-.185.046-.277s.046-.185.092-.185h.277c.046,0,.092.046.092.138v1.984a.138.138,0,0,1-.138.138h-.323c-.046,0-.092,0-.092-.046a.508.508,0,0,0-.046-.231c0-.277-.092-.415-.231-.461l-.554-.092h-1.338v.923Z" transform="translate(-100.085 -11.75)" fill="#fff"/><path d="M203.152,28.22h-.092l-.138-.185-.738-1.246a8.949,8.949,0,0,0-.461-.784L201.4,25.5l-.277-.369h-.646V27.3a.554.554,0,0,0,.092.323q.092.138.138.138h.507c.092,0,.185.046.185.138v.185h-2.814c-.138,0-.185-.046-.185-.138v-.231h.692l.138-.138a2.943,2.943,0,0,0,.092-.323V22.73a.554.554,0,0,0-.092-.323q-.092-.138-.138-.138h-.507c-.138,0-.185-.046-.185-.138v-.185c0-.046.046-.046.185-.046h3.322l.692.092.6.277a1.292,1.292,0,0,1,.415.461,1.476,1.476,0,0,1,.138.6,1.384,1.384,0,0,1-.415,1.061,2.122,2.122,0,0,1-1.061.554c.185.231.323.507.507.784l.507.738.461.646.369.461.231.185h.277v.369h-1.476Zm-2.63-5.951v2.445h.646l.692-.138a1.246,1.246,0,0,0,.554-.415,1.153,1.153,0,0,0,.231-.738.969.969,0,0,0-.138-.554.738.738,0,0,0-.323-.323l-.415-.185h-1.246Z" transform="translate(-106.872 -11.75)" fill="#fff"/><path d="M213.668,23.269v-.6a.553.553,0,0,0-.092-.323q-.092-.138-.138-.138h-.554c-.092,0-.184-.046-.184-.138v-.231c0-.092.046-.138.184-.138h2.676c.092,0,.138,0,.138.046a.138.138,0,0,1,.046.092v.185c0,.092-.046.092-.185.092h-.507l-.138.138a2.956,2.956,0,0,0-.092.323v4.475a.554.554,0,0,0,.092.323l.138.185h.507c.092,0,.185.046.185.138v.138c0,.046,0,.092-.046.092h-2.86a.138.138,0,0,1-.138-.138v-.138a.184.184,0,0,1,.046-.138h.692l.138-.138a2.953,2.953,0,0,0,.092-.323Z" transform="translate(-114.574 -11.642)" fill="#fff"/><path d="M226.42,26.94c.046,0,.046.046.046.092l-.138.231a1.384,1.384,0,0,1-.461.415l-.784.415a2.86,2.86,0,0,1-1.153.185A3.46,3.46,0,0,1,222.5,28a2.86,2.86,0,0,1-1.015-.784,3.229,3.229,0,0,1-.6-1.107,3.875,3.875,0,0,1-.185-1.246,3.367,3.367,0,0,1,.277-1.384,2.537,2.537,0,0,1,.784-1.061,2.814,2.814,0,0,1,1.2-.692,4.29,4.29,0,0,1,1.569-.231h.646l.554.092.415.092h.185l.092.138.092,1.707c0,.092-.046.092-.092.092h-.185c-.046,0-.092,0-.092-.046a.138.138,0,0,0-.046-.092,3.461,3.461,0,0,0-.369-.83,2.538,2.538,0,0,0-.461-.507,1.43,1.43,0,0,0-.554-.231h-.507a1.8,1.8,0,0,0-.923.231,2.168,2.168,0,0,0-.692.6,3.045,3.045,0,0,0-.415.877,3.921,3.921,0,0,0-.138,1.061,3.784,3.784,0,0,0,.185,1.292,2.584,2.584,0,0,0,.554.923,2.076,2.076,0,0,0,.738.554,1.891,1.891,0,0,0,.877.185l.554-.092.507-.185.415-.231.277-.231h.277Z" transform="translate(-118.884 -11.53)" fill="#fff"/><path d="M236.391,21.3h.461l1.8,4.014a3.37,3.37,0,0,1,.231.554l.277.6.277.554a1.292,1.292,0,0,0,.277.369l.092.092h.277c.092,0,.138.046.138.092v.185c0,.046-.046.092-.138.092h-2.768c-.092,0-.092-.046-.092-.138V27.62c0-.092.046-.138.092-.138h.507l.138-.092a.184.184,0,0,0,.046-.138.508.508,0,0,0-.046-.231.37.37,0,0,1-.046-.185l-.369-.923h-2.86l-.415,1.015a.415.415,0,0,0-.046.231.277.277,0,0,0,.138.277l.277.092h.231c.092,0,.138.046.138.092V27.8c0,.092-.046.092-.092.092h-2.122a.092.092,0,0,1-.092-.092V27.62c0-.092.046-.092.092-.092h.185l.231-.092.277-.231a1.659,1.659,0,0,0,.277-.507Zm-.046,1.384L235.1,25.406h2.445Z" transform="translate(-125.349 -11.427)" fill="#fff"/><path d="M254.382,25.268l.185.231.185.231.231.277.323.369V22.823a.554.554,0,0,0-.092-.323l-.138-.138h-.646c-.046,0-.046-.046-.046-.138v-.185c0-.046.046-.046.138-.046h2.122c.092,0,.185.046.185.138v.231c0,.046-.046.046-.138.046h-.6l-.138.185a.692.692,0,0,0-.046.323v5.4h-.415l-.185-.092-4.383-5.259V27.39a.554.554,0,0,0,.092.323q.092.138.138.138h.507c.092,0,.185.046.185.138v.185h-2.4c-.046-.046-.046-.046-.046-.092v-.138h.692l.138-.138a2.956,2.956,0,0,0,.092-.323V22.869c0-.138-.046-.231-.046-.323l-.138-.185h-.507c-.138,0-.185-.046-.185-.138v-.277c0-.046.046-.046.092-.046h1.938l.185.092.138.185.415.507Z" transform="translate(-134.344 -11.75)" fill="#fff"/><path d="M148.767,45.3a2.168,2.168,0,0,0-.185-.646,1.614,1.614,0,0,0-.277-.415l-.461-.231h-.692l-.646.092-.554.323a1.8,1.8,0,0,0-.369.461,1.292,1.292,0,0,0-.138.6,1.246,1.246,0,0,0,.415.923,5.582,5.582,0,0,0,1.476.877l1.061.554.692.554a1.753,1.753,0,0,1,.415.6,1.707,1.707,0,0,1,.138.692,2.306,2.306,0,0,1-.231.969,1.984,1.984,0,0,1-.646.738,3.138,3.138,0,0,1-.969.461,5.075,5.075,0,0,1-1.246.185h-.6l-.554-.092-.554-.138-.646-.185V49.6h.323c.046,0,.092.046.092.138a1.426,1.426,0,0,0,.092.369,1.384,1.384,0,0,0,.369.969,3.091,3.091,0,0,0,.784.369l.784.138.738-.092a1.614,1.614,0,0,0,.554-.323,1.8,1.8,0,0,0,.369-.461,1.291,1.291,0,0,0,.138-.6,1.153,1.153,0,0,0-.461-.923,5.26,5.26,0,0,0-1.522-.877l-.738-.323-.738-.461a2.446,2.446,0,0,1-.554-.646,1.937,1.937,0,0,1-.231-.923,2.122,2.122,0,0,1,.231-.923,1.984,1.984,0,0,1,.646-.738,3.23,3.23,0,0,1,.969-.507,3.552,3.552,0,0,1,1.246-.185h.969l.507.092.415.092v1.845c0,.046-.046.092-.138.092h-.277c0-.046-.046-.092-.046-.185Z" transform="translate(-77.676 -23.437)" fill="#fff"/><path d="M159.668,51.305V53.2a.554.554,0,0,0,.092.323q.092.138.138.138h.507c.138,0,.185.046.185.138v.185h-3a.138.138,0,0,1-.046-.092v-.231h.692l.138-.185a.784.784,0,0,0,.046-.369V48.584a.554.554,0,0,0-.092-.323q-.092-.138-.138-.138h-.507c-.092,0-.185-.046-.185-.138V47.8h3.46a2.491,2.491,0,0,1,.877.138,1.937,1.937,0,0,1,.646.415,1.477,1.477,0,0,1,.369.554,1.431,1.431,0,0,1,.138.6,1.246,1.246,0,0,1-.138.554,2.03,2.03,0,0,1-.277.461,1.43,1.43,0,0,1-.507.415l-.6.231-.646.092h-1.153Zm0-.461h.969a1.107,1.107,0,0,0,.646-.231,1.015,1.015,0,0,0,.415-.461,1.522,1.522,0,0,0,.185-.692,1.2,1.2,0,0,0-.231-.784,1.015,1.015,0,0,0-.6-.369,1.891,1.891,0,0,0-.738-.138h-.692v2.676Z" transform="translate(-84.841 -25.701)" fill="#fff"/><path d="M172.23,52.2v.923a2.631,2.631,0,0,0,.046.646h2.03l.369-.092a.461.461,0,0,0,.185-.231.876.876,0,0,0,.046-.369V52.8h.323a.092.092,0,0,1,.092.092v1.338a.138.138,0,0,1-.138.138h-4.8c-.138,0-.185-.046-.185-.138V54h.692l.138-.138a2.953,2.953,0,0,0,.092-.323V48.83a.554.554,0,0,0-.092-.323q-.092-.138-.138-.138h-.507c-.138,0-.185-.046-.185-.138V48h4.982v1.246c0,.092-.046.138-.092.138h-.185c-.092,0-.138-.046-.138-.185a1.659,1.659,0,0,0-.092-.507c-.046-.138-.185-.231-.415-.231h-1.938c0,.138-.046.323-.046.554v1.8h1.707l.277-.138.138-.231c0-.092.046-.185.046-.277s.046-.185.092-.185h.277c.046,0,.092.046.092.138v1.984a.138.138,0,0,1-.138.138h-.277a.507.507,0,0,0-.046-.231c0-.277-.092-.415-.231-.461l-.554-.092h-1.338v.923Z" transform="translate(-91.682 -25.809)" fill="#fff"/><path d="M185.33,52.2v.923c0,.277.046.461.046.646h2.03l.369-.092a.461.461,0,0,0,.185-.231.877.877,0,0,0,.046-.369V52.8h.323a.092.092,0,0,1,.092.092v1.338a.138.138,0,0,1-.138.138h-4.8c-.138,0-.185-.046-.185-.138V54h.692l.138-.138a2.953,2.953,0,0,0,.092-.323V48.83a.553.553,0,0,0-.092-.323q-.092-.138-.138-.138h-.507c-.138,0-.185-.046-.185-.138V48h4.982v1.246c0,.092-.046.138-.092.138h-.185c-.092,0-.138-.046-.138-.185a1.659,1.659,0,0,0-.092-.507c-.046-.138-.185-.231-.415-.231h-1.938c0,.138-.046.323-.046.554v1.8h1.707l.277-.138.138-.231c0-.092.046-.185.046-.277s.046-.185.092-.185h.277c.046,0,.092.046.092.138v1.984a.138.138,0,0,1-.138.138h-.277a.507.507,0,0,0-.046-.231c0-.277-.092-.415-.231-.461l-.554-.092h-1.338v.923Z" transform="translate(-98.738 -25.809)" fill="#fff"/><path d="M201.474,52.74c.046,0,.046.046.046.092l-.138.231a1.753,1.753,0,0,1-.415.415l-.784.415a2.861,2.861,0,0,1-1.153.185,3.46,3.46,0,0,1-1.43-.277,2.86,2.86,0,0,1-1.015-.784,3.23,3.23,0,0,1-.6-1.107,3.875,3.875,0,0,1-.184-1.246,3.367,3.367,0,0,1,.277-1.384,2.537,2.537,0,0,1,.784-1.061,2.814,2.814,0,0,1,1.2-.692,4.29,4.29,0,0,1,1.569-.231h.646l.554.092.415.092h.185l.092.138.092,1.707c0,.092-.046.092-.092.092h-.277v-.092a3.459,3.459,0,0,0-.369-.83,2.535,2.535,0,0,0-.461-.507,1.43,1.43,0,0,0-.554-.231h-.507a1.8,1.8,0,0,0-.923.231,2.168,2.168,0,0,0-.692.6,3.046,3.046,0,0,0-.461.877,3.922,3.922,0,0,0-.138,1.061,3.782,3.782,0,0,0,.184,1.292,2.583,2.583,0,0,0,.554.923,2.075,2.075,0,0,0,.738.554,1.891,1.891,0,0,0,.877.185l.554-.092.507-.185.415-.231.277-.231Z" transform="translate(-105.471 -25.428)" fill="#fff"/><path d="M211.614,50.376h3.368V48.623a.553.553,0,0,0-.092-.323q-.092-.138-.138-.138h-.646c-.046,0-.046-.046-.046-.138v-.185h2.814c.138,0,.185.046.185.138v.231h-.692l-.138.138a2.953,2.953,0,0,0-.092.323v4.475a.554.554,0,0,0,.092.323q.092.138.138.138h.507c.138,0,.185.046.185.138v.185h-3a.138.138,0,0,1-.046-.092v-.231h.646l.138-.138a2.953,2.953,0,0,0,.092-.323V50.929h-3.368v2.122a.553.553,0,0,0,.092.323q.092.138.138.138h.554c.092,0,.185.046.185.138v.185h-2.953a.138.138,0,0,1-.046-.092v-.231h.646l.138-.185a.692.692,0,0,0,.046-.323V48.484a.554.554,0,0,0-.092-.323q-.092-.138-.138-.138h-.507c-.092,0-.185-.046-.185-.138V47.7h2.953a.139.139,0,0,1,.046.092v.231h-.692l-.138.138a2.95,2.95,0,0,0-.092.323V50.33Z" transform="translate(-112.798 -25.648)" fill="#fff"/><path d="M227.1,54.592c0-.092.046-.092.092-.092h3.737a.092.092,0,0,1,.092.092v.6l-.092.092h-3.737a.092.092,0,0,1-.092-.092Z" transform="translate(-122.332 -29.311)" fill="#fff"/><path d="M239.23,51.727h2.814l.461-.092a.369.369,0,0,0,.185-.185.692.692,0,0,0,.138-.461,3.278,3.278,0,0,0,.046-.738c0-.138.046-.185.092-.185h.277a.092.092,0,0,1,.092.092v2.122l-.092.092h-6.551c-.092,0-.092-.046-.092-.092V52c0-.046.046-.092.138-.092h.784l.323-.185a.6.6,0,0,0,.138-.461c0-.185.046-.461.046-.83V46.007a3.968,3.968,0,0,0-.046-.784,2.118,2.118,0,0,0-.138-.415.461.461,0,0,0-.323-.185H236.6V44.3h3.829c.092,0,.138.046.138.092v.277c0,.046,0,.092-.046.092h-.83c-.138.046-.277.092-.323.231a.738.738,0,0,0-.138.507c0,.231-.046.507-.046.923v5.305Z" transform="translate(-127.449 -23.816)" fill="#fff"/><path d="M256.4,47.2h.461l1.8,4.014a3.371,3.371,0,0,1,.231.554l.277.6.277.554a1.292,1.292,0,0,0,.277.369l.092.092h.277c.092,0,.138.046.138.092v.185c0,.046-.046.092-.138.092h-2.768c-.092,0-.092-.046-.092-.138v-.138c0-.092.046-.138.092-.138h.507l.138-.092a.185.185,0,0,0,.046-.138.508.508,0,0,0-.046-.231.369.369,0,0,1-.046-.185l-.369-.923h-2.86l-.415,1.015a.415.415,0,0,0-.046.231.277.277,0,0,0,.138.277l.277.092h.231c.092,0,.138.046.138.092v.185c0,.092-.046.092-.092.092h-2.03a.092.092,0,0,1-.092-.092v-.185c0-.092.046-.092.092-.092h.185l.231-.092.277-.231a1.663,1.663,0,0,0,.277-.507Zm-.046,1.338-1.246,2.722h2.445Z" transform="translate(-136.176 -25.378)" fill="#fff"/><path d="M274.128,51.175l.185.231.185.231.231.277.323.369V48.73a.554.554,0,0,0-.092-.323l-.138-.138h-.646c-.046,0-.046-.046-.046-.138v-.185h2.261c.092,0,.185.046.185.138v.231h-.738l-.138.185a.691.691,0,0,0-.046.323v5.4h-.415l-.185-.092-4.383-5.259V53.3a.554.554,0,0,0,.092.323l.138.138h.461c.092,0,.185.046.185.138v.185h-2.4c0-.046-.046-.046-.046-.092v-.231h.692l.138-.138a2.949,2.949,0,0,0,.092-.323V48.777a2.582,2.582,0,0,0-.046-.323l-.138-.185h-.507c-.138,0-.185-.046-.185-.138V47.9h2.03l.185.092.138.185.415.507Z" transform="translate(-144.956 -25.755)" fill="#fff"/><path d="M292.443,53.564a6.966,6.966,0,0,1-1.522.323l-1.015.092a3.644,3.644,0,0,1-1.707-.323,2.768,2.768,0,0,1-1.061-.784,2.353,2.353,0,0,1-.554-1.061,4.662,4.662,0,0,1-.185-1.061,3.968,3.968,0,0,1,.369-1.661,2.86,2.86,0,0,1,1.107-1.246,3.229,3.229,0,0,1,1.061-.461,4.8,4.8,0,0,1,1.476-.185l1.015.092.969.231v1.707c0,.092-.046.092-.092.092h-.277c0-.046-.046-.092-.046-.185a1.384,1.384,0,0,0-.185-.507,1.8,1.8,0,0,0-.369-.461,1.66,1.66,0,0,0-.554-.369,1.892,1.892,0,0,0-.738-.138,2.122,2.122,0,0,0-.923.231,3.229,3.229,0,0,0-.784.6,2.953,2.953,0,0,0-.508.923,3.183,3.183,0,0,0-.184,1.153,4.1,4.1,0,0,0,.138,1.015,2.352,2.352,0,0,0,.461.969,2.4,2.4,0,0,0,.784.738,2.261,2.261,0,0,0,1.153.277h.6l.415-.092V51.718a.646.646,0,0,0-.092-.323l-.185-.185h-.692c-.046,0-.046-.046-.046-.092v-.231c0-.046.046-.092.138-.092h2.722c.092,0,.092.046.092.092v.231h-.646c-.138.046-.185.138-.185.323v2.122Z" transform="translate(-154.275 -25.375)" fill="#fff"/><path d="M308.766,47.907h-.231l-.138.185a.691.691,0,0,0-.046.323v3a2.814,2.814,0,0,1-.646,1.938A2.445,2.445,0,0,1,305.86,54a3.183,3.183,0,0,1-.923-.138,2.815,2.815,0,0,1-.83-.415,2.215,2.215,0,0,1-.83-1.845V48.369a2.594,2.594,0,0,0-.046-.323l-.138-.138h-.508c-.092,0-.185-.046-.185-.138v-.138c0-.092.046-.138.185-.138H305.4a.139.139,0,0,1,.046.092v.185c0,.092-.046.092-.138.092h-.554l-.138.138a2.943,2.943,0,0,0-.092.323V51.6a2.492,2.492,0,0,0,.138.877,2.631,2.631,0,0,0,.369.6,1.107,1.107,0,0,0,.554.323,1.384,1.384,0,0,0,.6.092,1.292,1.292,0,0,0,.969-.323,1.937,1.937,0,0,0,.507-.738,2.721,2.721,0,0,0,.185-.784,3.137,3.137,0,0,0,.046-.554V48.323A.554.554,0,0,0,307.8,48l-.138-.138h-.507c-.092,0-.185-.046-.185-.138v-.185c0-.092.046-.138.185-.138h2.26a.138.138,0,0,1,.046.092v.185c0,.092-.046.092-.185.092h-.507Z" transform="translate(-162.894 -25.486)" fill="#fff"/><path d="M319.391,47.2h.461l1.8,4.014a3.371,3.371,0,0,1,.231.554l.277.6.277.554a1.29,1.29,0,0,0,.277.369l.092.092h.277c.092,0,.138.046.138.092v.185c0,.046-.046.092-.138.092h-2.768c-.092,0-.092-.046-.092-.138v-.138c0-.092.046-.138.092-.138h.507l.138-.092a.184.184,0,0,0,.046-.138.507.507,0,0,0-.046-.231.369.369,0,0,1-.046-.185l-.369-.923h-2.86l-.415,1.015a.415.415,0,0,0-.046.231.277.277,0,0,0,.138.277l.277.092h.231c.092,0,.138.046.138.092v.185c0,.092-.046.092-.092.092h-2.122a.092.092,0,0,1-.092-.092v-.185c0-.092.046-.092.092-.092h.185l.231-.092.277-.231a1.661,1.661,0,0,0,.277-.507Zm-.046,1.338L318.1,51.26h2.445Z" transform="translate(-170.058 -25.378)" fill="#fff"/><path d="M337.843,53.564a6.967,6.967,0,0,1-1.522.323l-1.015.092a3.644,3.644,0,0,1-1.707-.323,2.768,2.768,0,0,1-1.061-.784,2.353,2.353,0,0,1-.554-1.061,4.657,4.657,0,0,1-.184-1.061,3.968,3.968,0,0,1,.369-1.661,2.86,2.86,0,0,1,1.107-1.246,3.228,3.228,0,0,1,1.061-.461,4.8,4.8,0,0,1,1.476-.185l1.015.092.969.231v1.707c0,.092-.046.092-.092.092h-.277c0-.046-.046-.092-.046-.185a1.384,1.384,0,0,0-.185-.507,1.8,1.8,0,0,0-.369-.461,1.661,1.661,0,0,0-.554-.369,1.892,1.892,0,0,0-.738-.138,2.122,2.122,0,0,0-.923.231,3.229,3.229,0,0,0-.784.6,2.954,2.954,0,0,0-.508.923,3.182,3.182,0,0,0-.185,1.153,4.1,4.1,0,0,0,.138,1.015,2.353,2.353,0,0,0,.461.969,2.4,2.4,0,0,0,.784.738,2.261,2.261,0,0,0,1.153.277h.6l.415-.092V51.718a.646.646,0,0,0-.092-.323l-.185-.185h-.692c-.046,0-.046-.046-.046-.092v-.231c0-.046.046-.092.138-.092h2.722c.092,0,.092.046.092.092v.231h-.646c-.138.046-.185.138-.185.323v2.122Z" transform="translate(-178.731 -25.375)" fill="#fff"/><path d="M349.93,52.2v.923a2.628,2.628,0,0,0,.046.646h2.03l.369-.092a.461.461,0,0,0,.185-.231.876.876,0,0,0,.046-.369V52.8h.323a.092.092,0,0,1,.092.092v1.338a.138.138,0,0,1-.138.138h-4.8c-.138,0-.185-.046-.185-.138V54h.692l.138-.138a2.95,2.95,0,0,0,.092-.323V48.83a.553.553,0,0,0-.092-.323l-.138-.138h-.507c-.138,0-.185-.046-.185-.138V48h4.982v1.246c0,.092-.046.138-.092.138h-.231c-.092,0-.138-.046-.138-.185a1.659,1.659,0,0,0-.092-.507c-.046-.138-.184-.231-.415-.231h-1.938c0,.138-.046.323-.046.554v1.8h1.707l.277-.138.138-.231c0-.092.046-.185.046-.277s.046-.185.092-.185h.277c.046,0,.092.046.092.138v1.984a.138.138,0,0,1-.138.138h-.277a.508.508,0,0,0-.046-.231c0-.277-.092-.415-.231-.461l-.554-.092h-1.338v.923Z" transform="translate(-187.403 -25.809)" fill="#fff"/><path d="M360,54.592c0-.092.046-.092.092-.092h3.737a.092.092,0,0,1,.092.092v.6a.092.092,0,0,1-.092.092h-3.737a.092.092,0,0,1-.092-.092Z" transform="translate(-193.921 -29.311)" fill="#fff"/><path d="M143.646,77.389l.092-.092h.83l.231-.092c.138-.092.185-.415.185-1.015V72.037a10.52,10.52,0,0,0-.046-1.384.646.646,0,0,0-.138-.507l-.231-.092h-.83c-.046,0-.046-.046-.046-.092v-.323h3.645c.046,0,.092,0,.092.092v.231c0,.046,0,.092-.046.092h-.738l-.277.092-.092.138a.323.323,0,0,0-.046.231c0,.092-.046.231-.046.369v2.261h4.29V71.438a4.009,4.009,0,0,0-.046-.83.784.784,0,0,0-.138-.461l-.323-.185h-.784c-.046,0-.046-.046-.046-.092v-.277l.092-.092h3.644v.277c0,.046-.046.092-.185.092h-.6a.369.369,0,0,0-.323.185.692.692,0,0,0-.138.461c0,.231-.046.554-.046.923v4.752a1.891,1.891,0,0,0,.046.554c.046.138.046.231.138.323a.323.323,0,0,0,.277.138h.784c.046,0,.046.046.046.092v.231c0,.092-.046.138-.092.138h-3.644v-.277l.092-.092h.83c.138,0,.185-.092.277-.185a1.153,1.153,0,0,0,.092-.461V73.79h-4.337v2.768a.738.738,0,0,0,.138.507.461.461,0,0,0,.323.185h.646a.138.138,0,0,1,.138.138v.231l-.092.092h-3.552a.092.092,0,0,1-.092-.092v-.277Z" transform="translate(-77.353 -37.391)" fill="#fff"/><path d="M167.03,78v.923c0,.277.046.461.046.646h2.03l.369-.092a.462.462,0,0,0,.185-.231.878.878,0,0,0,.046-.369V78.6h.323a.092.092,0,0,1,.092.092v1.338a.138.138,0,0,1-.138.138h-4.8c-.138,0-.185-.046-.185-.138V79.8h.692l.138-.138a2.946,2.946,0,0,0,.092-.323V74.63a.553.553,0,0,0-.092-.323q-.092-.138-.138-.138h-.507c-.138,0-.185-.046-.185-.138V73.8h4.982v1.246c0,.092-.046.138-.092.138h-.184c-.092,0-.138-.046-.138-.185a1.66,1.66,0,0,0-.092-.507c-.046-.138-.184-.231-.415-.231h-1.938c0,.138-.046.323-.046.554v1.8h1.707l.277-.138.138-.231c0-.092.046-.185.046-.277s.046-.185.092-.185h.277c.046,0,.092.046.092.138v1.984a.138.138,0,0,1-.138.138h-.277a.508.508,0,0,0-.046-.231c0-.277-.092-.415-.231-.461l-.554-.092h-1.338v.923Z" transform="translate(-88.881 -39.707)" fill="#fff"/><path d="M179.591,73h.461l1.8,4.014a3.368,3.368,0,0,1,.231.554l.277.6.277.554a1.291,1.291,0,0,0,.277.369l.092.092h.277c.092,0,.138.046.138.092v.185c0,.046-.046.092-.138.092h-2.768c-.092,0-.092-.046-.092-.138v-.138c0-.092.046-.138.092-.138h.507l.138-.092a.185.185,0,0,0,.046-.138.508.508,0,0,0-.046-.231.369.369,0,0,1-.046-.185l-.369-.923h-2.86l-.415,1.015a.416.416,0,0,0-.046.231.277.277,0,0,0,.138.277l.277.092h.231c.092,0,.138.046.138.092v.185c0,.092-.046.092-.092.092h-2.122a.092.092,0,0,1-.092-.092v-.185c0-.092.046-.092.092-.092h.185l.231-.092.277-.231a1.661,1.661,0,0,0,.277-.507Zm-.046,1.384L178.3,77.106h2.445Z" transform="translate(-94.752 -39.276)" fill="#fff"/><path d="M196.952,80.02h-.092l-.138-.185-.692-1.246a8.945,8.945,0,0,0-.461-.784l-.323-.507-.277-.369h-.692v2.122a.553.553,0,0,0,.092.323q.092.138.138.138h.507c.092,0,.185.046.185.138v.185h-2.814c-.138,0-.185-.046-.185-.138v-.231h.692l.138-.138a2.94,2.94,0,0,0,.092-.323V74.484a.553.553,0,0,0-.092-.323q-.092-.138-.138-.138h-.507c-.138,0-.185-.046-.185-.138V73.7h3.506l.692.092.6.277a1.292,1.292,0,0,1,.415.461,1.476,1.476,0,0,1,.138.646,1.384,1.384,0,0,1-.415,1.061,2.122,2.122,0,0,1-1.061.554c.185.231.323.507.507.784l.507.738.461.646.369.461.231.185h.277v.369h-1.476Zm-2.63-6v2.445h.6a3.691,3.691,0,0,0,.692-.138,1.568,1.568,0,0,0,.554-.415,1.153,1.153,0,0,0,.231-.738.969.969,0,0,0-.138-.554.738.738,0,0,0-.323-.323l-.415-.185h-1.2Z" transform="translate(-103.532 -39.653)" fill="#fff"/><path d="M207.414,75.076v-.6a.554.554,0,0,0-.092-.323q-.092-.138-.138-.138h-.554c-.092,0-.185-.046-.185-.138v-.138c0-.092.046-.138.185-.138h2.814v.277c0,.092-.046.092-.185.092h-.507l-.138.138a2.956,2.956,0,0,0-.092.323v4.475a.553.553,0,0,0,.092.323l.138.185h.507c.092,0,.185.046.185.138v.231c0,.046,0,.092-.046.092h-2.86a.138.138,0,0,1-.138-.138V79.6a.185.185,0,0,1,.046-.138h.692l.138-.138a2.949,2.949,0,0,0,.092-.323V75.076Z" transform="translate(-111.181 -39.599)" fill="#fff"/><path d="M219.382,77.075l.185.231.185.231.231.277.323.369V74.63a.553.553,0,0,0-.092-.323q-.092-.138-.138-.138h-.646c-.046,0-.046-.046-.046-.138v-.185h2.26c.092,0,.185.046.185.138v.231h-.738l-.138.185a.692.692,0,0,0-.046.323v5.4h-.415l-.185-.092-4.429-5.213v4.429a.554.554,0,0,0,.092.323q.092.138.138.138h.507c.092,0,.185.046.185.138v.185h-2.4v-.323h.692l.138-.138a2.961,2.961,0,0,0,.092-.323V74.677c0-.138-.046-.231-.046-.323l-.138-.185h-.507c-.138,0-.184-.046-.184-.138V73.8h2.03l.185.092.138.185.415.507Z" transform="translate(-115.491 -39.707)" fill="#fff"/><path d="M237.543,79.464a6.968,6.968,0,0,1-1.522.323l-1.015.092a3.644,3.644,0,0,1-1.707-.323,2.768,2.768,0,0,1-1.061-.784,2.353,2.353,0,0,1-.554-1.061,4.661,4.661,0,0,1-.185-1.061,3.968,3.968,0,0,1,.369-1.661,2.86,2.86,0,0,1,1.107-1.246,3.229,3.229,0,0,1,1.061-.461,4.8,4.8,0,0,1,1.476-.185l1.015.092.969.231v1.707c0,.092-.046.092-.092.092h-.277c0-.046-.046-.092-.046-.185a1.384,1.384,0,0,0-.185-.507,1.8,1.8,0,0,0-.369-.461,1.661,1.661,0,0,0-.554-.369,1.891,1.891,0,0,0-.738-.138,2.122,2.122,0,0,0-.923.231,3.229,3.229,0,0,0-.784.6,2.953,2.953,0,0,0-.507.923,3.183,3.183,0,0,0-.185,1.153,4.1,4.1,0,0,0,.138,1.015,2.352,2.352,0,0,0,.461.969,2.4,2.4,0,0,0,.784.738,2.261,2.261,0,0,0,1.153.277h.6l.415-.092V77.618a.646.646,0,0,0-.092-.323l-.185-.185h-.692c-.046,0-.046-.046-.046-.092v-.277c0-.046.046-.092.138-.092h2.722c.092,0,.092.046.092.092v.231h-.646c-.138.046-.185.138-.185.323v2.076Z" transform="translate(-124.702 -39.327)" fill="#fff"/><path d="M148.075,95.2h.554l.323.83c.046.185.185.461.323.83a13.2,13.2,0,0,0,.554,1.246l.646,1.476c.231.507.461.969.646,1.43a9.09,9.09,0,0,0,.554,1.153l.323.646a.554.554,0,0,0,.507.323h.231v.277a.138.138,0,0,1-.138.138H149.32v-.323c0-.092.046-.092.092-.092h.323c.415,0,.6-.138.6-.415a1.2,1.2,0,0,0-.138-.507l-.507-1.2h-3.6l-.554,1.384a1.154,1.154,0,0,0-.092.323q0,.415.554.415h.323a.138.138,0,0,1,.138.138v.185c0,.092-.046.092-.092.092h-2.676c-.046,0-.092-.046-.092-.138v-.231c0-.092.046-.092.138-.092h.277a.231.231,0,0,0,.231-.138l.277-.323a2.768,2.768,0,0,0,.323-.646Zm-.046,1.522-1.615,3.645h3.137Z" transform="translate(-77.353 -51.234)" fill="#fff"/><path d="M165.023,103.59h.092c.046.046.046.138.046.277s0,.415.092.507l.138.185.461.323.415.185h.507l.6-.092a.923.923,0,0,0,.415-.277l.277-.369a1.337,1.337,0,0,0,.092-.415.83.83,0,0,0-.323-.692,3.645,3.645,0,0,0-1.153-.646l-.923-.461-.6-.461a1.569,1.569,0,0,1-.323-.507,2.353,2.353,0,0,1-.092-.6,1.338,1.338,0,0,1,.185-.738,2.122,2.122,0,0,1,1.384-.969,3.691,3.691,0,0,1,1.061-.138h.738l.415.092.369.138v1.384c0,.092,0,.138-.046.138h-.323c-.046,0-.046-.046-.092-.092s-.046-.185-.046-.277-.046-.185-.046-.277-.046-.138-.046-.185a.369.369,0,0,0-.231-.231l-.323-.185-.369-.092H167.1a1.338,1.338,0,0,0-.923.323,1.153,1.153,0,0,0-.369.83.783.783,0,0,0,.046.323.692.692,0,0,0,.231.323l.461.323.738.369.646.277a1.938,1.938,0,0,1,.646.415l.507.554a1.338,1.338,0,0,1,.185.738,1.43,1.43,0,0,1-.231.784,1.845,1.845,0,0,1-.6.6,2.906,2.906,0,0,1-1.8.461l-.969-.092a3.83,3.83,0,0,1-.969-.277V103.59c0-.092.046-.185.092-.185h.231Z" transform="translate(-88.719 -53.119)" fill="#fff"/><path d="M175.923,103.59h.092c.046.046.046.138.046.277s0,.415.092.507l.138.185.461.323.415.185h.507l.6-.092a.923.923,0,0,0,.415-.277l.277-.369a1.337,1.337,0,0,0,.092-.415.83.83,0,0,0-.323-.692,3.644,3.644,0,0,0-1.153-.646l-.923-.461-.6-.461a1.569,1.569,0,0,1-.323-.507,2.352,2.352,0,0,1-.092-.6,1.338,1.338,0,0,1,.185-.738,2.122,2.122,0,0,1,1.384-.969,3.69,3.69,0,0,1,1.061-.138h.738l.415.092.369.138v1.384c0,.092,0,.138-.046.138h-.323c-.046,0-.046-.046-.092-.092s-.046-.185-.046-.277-.046-.185-.046-.277-.046-.138-.046-.185a.369.369,0,0,0-.231-.231l-.323-.185-.369-.092H178a1.338,1.338,0,0,0-.923.323,1.153,1.153,0,0,0-.369.83.784.784,0,0,0,.046.323.692.692,0,0,0,.231.323l.461.323.738.369.646.277a1.938,1.938,0,0,1,.646.415l.507.554a1.338,1.338,0,0,1,.185.738,1.43,1.43,0,0,1-.231.784,1.845,1.845,0,0,1-.6.6,2.906,2.906,0,0,1-1.8.461l-.969-.092a3.83,3.83,0,0,1-.969-.277V103.59c0-.092.046-.185.092-.185h.231Z" transform="translate(-94.59 -53.119)" fill="#fff"/><path d="M189.936,105.68a3.368,3.368,0,0,1-1.384-.277,2.584,2.584,0,0,1-.969-.738,3,3,0,0,1-.6-1.061,3.875,3.875,0,0,1-.185-1.246,3.461,3.461,0,0,1,.277-1.43,3.6,3.6,0,0,1,.738-1.107,4.474,4.474,0,0,1,1.107-.692,4.29,4.29,0,0,1,1.338-.231,3,3,0,0,1,1.338.277,3.184,3.184,0,0,1,1.015.738,4.061,4.061,0,0,1,.646,1.061,4.015,4.015,0,0,1,.231,1.292,4.338,4.338,0,0,1-.231,1.384,4.475,4.475,0,0,1-.692,1.107,3.6,3.6,0,0,1-1.107.738,8.581,8.581,0,0,1-1.522.185m.185-.415a1.476,1.476,0,0,0,1.061-.323,2.4,2.4,0,0,0,.6-.784,3.83,3.83,0,0,0,.277-.969,5.583,5.583,0,0,0,.046-.83,9,9,0,0,0-.092-1.061,3.045,3.045,0,0,0-.369-.969,1.845,1.845,0,0,0-1.569-.969,1.707,1.707,0,0,0-1.43.738,3.6,3.6,0,0,0-.554,2.168,8.26,8.26,0,0,0,.092,1.061,3.046,3.046,0,0,0,.369.969,1.984,1.984,0,0,0,.646.738,1.8,1.8,0,0,0,.923.231" transform="translate(-100.623 -53.226)" fill="#fff"/><path d="M209.02,104.54c.046,0,.046.046.046.092l-.138.231a1.384,1.384,0,0,1-.461.415l-.784.415a2.86,2.86,0,0,1-1.153.185,3.46,3.46,0,0,1-1.43-.277,2.86,2.86,0,0,1-1.015-.784,3.23,3.23,0,0,1-.6-1.107,3.875,3.875,0,0,1-.185-1.246,3.368,3.368,0,0,1,.277-1.384,2.537,2.537,0,0,1,.784-1.061,2.814,2.814,0,0,1,1.2-.692,4.291,4.291,0,0,1,1.568-.231h.646l.554.092.415.092h.185c.046.046.092.092.092.138l.092,1.707c0,.092-.046.092-.092.092h-.277v-.092a3.461,3.461,0,0,0-.369-.83,2.537,2.537,0,0,0-.461-.507,1.43,1.43,0,0,0-.554-.231h-.507a1.8,1.8,0,0,0-.923.231,2.168,2.168,0,0,0-.692.6,3.044,3.044,0,0,0-.415.877,3.922,3.922,0,0,0-.138,1.061,3.783,3.783,0,0,0,.185,1.292,2.584,2.584,0,0,0,.554.923,2.076,2.076,0,0,0,.738.554,1.892,1.892,0,0,0,.877.185l.554-.092L208.1,105l.415-.231.277-.231h.277Z" transform="translate(-109.511 -53.331)" fill="#fff"/><path d="M218.114,100.976v-.6a.554.554,0,0,0-.092-.323q-.092-.138-.138-.138h-.554c-.092,0-.185-.046-.185-.138v-.138c0-.092.046-.138.185-.138h2.814v.277c0,.092-.046.092-.185.092h-.507l-.138.138a2.964,2.964,0,0,0-.092.323v4.475a.554.554,0,0,0,.092.323l.138.185h.507c.092,0,.185.046.185.138v.138c0,.046,0,.092-.046.092h-2.86a.138.138,0,0,1-.138-.138v-.138a.185.185,0,0,1,.046-.138h.692l.138-.138a2.957,2.957,0,0,0,.092-.323v-3.921Z" transform="translate(-116.945 -53.551)" fill="#fff"/><path d="M228.591,98.9h.461l1.8,4.014a3.37,3.37,0,0,1,.231.554l.277.6.277.554a1.292,1.292,0,0,0,.277.369l.092.092h.277c.092,0,.138.046.138.092v.185c0,.046-.046.092-.138.092h-2.768c-.092,0-.092-.046-.092-.138v-.138c0-.092.046-.138.092-.138h.507l.138-.092a.185.185,0,0,0,.046-.138.507.507,0,0,0-.046-.231.369.369,0,0,1-.046-.185l-.369-.923h-2.86l-.415,1.015a.415.415,0,0,0-.046.231.277.277,0,0,0,.138.277l.277.092h.231c.092,0,.138.046.138.092v.185c0,.092-.046.092-.092.092h-2.122a.092.092,0,0,1-.092-.092v-.185c0-.092.046-.092.092-.092h.185l.231-.092.277-.231a1.661,1.661,0,0,0,.277-.507Zm-.046,1.384-1.246,2.722h2.4Z" transform="translate(-121.147 -53.227)" fill="#fff"/><path d="M243.645,104.19v.6a.554.554,0,0,0,.092.323q.092.138.138.138h.507c.092,0,.185.046.185.138v.185h-2.814c-.138,0-.185-.046-.185-.138v-.231h.692l.138-.138a2.964,2.964,0,0,0,.092-.323v-4.89h-1.43a.507.507,0,0,0-.461.231,1.291,1.291,0,0,0-.138.6c0,.138,0,.231-.046.277s-.046.092-.138.092H240V99.3h5.767c.138,0,.231.046.231.138v1.569h-.369c-.046-.046-.046-.138-.092-.323a1.153,1.153,0,0,0-.092-.461l-.138-.231-.185-.092h-1.569v4.29Z" transform="translate(-129.281 -53.443)" fill="#fff"/><path d="M255.214,100.976v-.6a.554.554,0,0,0-.092-.323q-.092-.138-.138-.138h-.554c-.092,0-.185-.046-.185-.138v-.138c0-.092.046-.138.185-.138h2.814v.277c0,.092-.046.092-.185.092h-.508l-.138.138a2.95,2.95,0,0,0-.092.323v4.475a.553.553,0,0,0,.092.323l.138.185h.508c.092,0,.185.046.185.138v.138c0,.046,0,.092-.046.092h-2.86a.138.138,0,0,1-.138-.138v-.138a.184.184,0,0,1,.046-.138h.692l.138-.138a2.955,2.955,0,0,0,.092-.323v-3.921Z" transform="translate(-136.929 -53.551)" fill="#fff"/><path d="M265.436,105.68a3.368,3.368,0,0,1-1.384-.277,2.583,2.583,0,0,1-.969-.738,3,3,0,0,1-.6-1.061,3.877,3.877,0,0,1-.184-1.246,3.459,3.459,0,0,1,.277-1.43,3.6,3.6,0,0,1,.738-1.107,4.473,4.473,0,0,1,1.107-.692,4.29,4.29,0,0,1,1.338-.231,3,3,0,0,1,1.338.277,2.769,2.769,0,0,1,1.015.738,4.06,4.06,0,0,1,.646,1.061,4.013,4.013,0,0,1,.231,1.292,4.336,4.336,0,0,1-.231,1.384,4.474,4.474,0,0,1-.692,1.107,3.6,3.6,0,0,1-1.107.738,8.074,8.074,0,0,1-1.522.185m.185-.415a1.476,1.476,0,0,0,1.061-.323,2.4,2.4,0,0,0,.6-.784,3.828,3.828,0,0,0,.277-.969,5.579,5.579,0,0,0,.046-.83,9.011,9.011,0,0,0-.092-1.061,3.045,3.045,0,0,0-.369-.969,1.892,1.892,0,0,0-.646-.692,1.569,1.569,0,0,0-.923-.277,1.707,1.707,0,0,0-1.43.738,3.6,3.6,0,0,0-.554,2.168,8.26,8.26,0,0,0,.092,1.061,3.045,3.045,0,0,0,.369.969,1.983,1.983,0,0,0,.646.738,1.8,1.8,0,0,0,.923.231" transform="translate(-141.292 -53.226)" fill="#fff"/><path d="M282.882,102.822l.185.231.185.231.231.277.323.369v-3.552a.554.554,0,0,0-.092-.323l-.138-.138h-.646c-.046,0-.046-.046-.046-.138v-.185h2.26c.092,0,.185.046.185.138v.231h-.738l-.138.185a.691.691,0,0,0-.046.323v5.351h-.461l-.185-.092-4.383-5.259V104.9a.554.554,0,0,0,.092.323l.138.138h.507c.092,0,.185.046.185.138v.185h-2.4v-.323h.692l.138-.138a2.951,2.951,0,0,0,.092-.323v-4.521c0-.138-.046-.231-.046-.323l-.138-.185h-.508c-.138,0-.185-.046-.185-.138V99.5h2.03l.185.092.138.185.415.507Z" transform="translate(-149.696 -53.551)" fill="#fff"/></g></g></g></g></svg>