<svg xmlns="http://www.w3.org/2000/svg" width="200" height="100" viewBox="0 0 200 100"><g transform="translate(-165.896 -290.5)"><rect width="200" height="100" transform="translate(165.896 290.5)" fill="none"/><g transform="translate(-0.185 -13.627)"><g transform="translate(266.08 354.202)"><g transform="translate(-85 -31.076)"><path d="M.1,30.972A30.888,30.888,0,1,0,30.988.2,30.888,30.888,0,0,0,.1,30.972" transform="translate(0.016 -0.01)" fill="#fff"/><path d="M42.948,50.622a.808.808,0,1,0,.116,0m1.858,2.322A2.322,2.322,0,1,0,42.6,50.622a2.322,2.322,0,0,0,2.322,2.322m-.464-2.09h.464l.7,1.161h.464l-.7-1.161a.7.7,0,0,0,.7-.7.828.828,0,0,0-.929-.813H44.11v2.671h.464Zm0-.348v-.813h.581c.232,0,.581,0,.581.464s-.348.464-.7.464Z" transform="translate(6.867 7.744)"/><path d="M59.284,31A31,31,0,0,0,16.9,2.2c2.206,1.858,4.993,3.716,6.038,6.27a19.508,19.508,0,0,1,1.393,5.458A4.761,4.761,0,0,0,27,17.761c2.439,1.277,4.529,1.393,4.761,3.135s-1.51,3.135-1.51,3.948,2.9,2.9,2.671,3.484-2.671,1.626-2.439,2.439,2.9.7,3.251,1.277-.581,2.09-.464,2.9,1.51,3.716.464,5.458-7.9,1.974-10.219,4.645A15.56,15.56,0,0,0,19.8,50.855c-.813,2.9-1.51,7.432-.232,9.638s2.439,1.626,8.941,1.626A31,31,0,0,0,59.284,31" transform="translate(2.724 -0.036)"/><path d="M28.1,23.731c0-1.393-.7-2.206-2.439-4.645a41.454,41.454,0,0,1-3.484-5.225c-.7-1.161-.464-5.225-.464-6.619A9.406,9.406,0,0,0,20.437,2.6V2.364L19.857,1.9A31,31,0,0,0,.116,27.795h0c.7.116.929,1.045,1.393,2.322a11.728,11.728,0,0,0,.464,1.51,12.077,12.077,0,0,0,.7-1.742c.464-1.393.813-2.322,1.393-2.322s1.045,1.045,1.393,2.671a16.605,16.605,0,0,0,.7,2.206,21.947,21.947,0,0,0,.813-3.716c.464-3.019.581-3.832,1.277-3.832s1.161,1.393,1.626,5.69a36.114,36.114,0,0,0,.581,4.529,16.257,16.257,0,0,0,.348-4.064v-.464h0a.464.464,0,0,1,.929,0c0,1.161,0,4.761-.813,5.574a.813.813,0,0,1-.581.232c-.929,0-1.161-1.393-1.626-5.69a36.345,36.345,0,0,0-.581-4.18C7.9,25.472,7.9,28.143,7.78,28.84c-.464,3.6-.7,4.877-1.626,4.877s-1.277-1.393-1.626-3.135L4.064,28.84A10.335,10.335,0,0,0,3.6,30.233c-.464,1.51-.813,2.555-1.626,2.555S.929,31.743.581,30.466A10.335,10.335,0,0,0,0,28.956V30.7A31,31,0,0,0,15.212,57.405s-.464-2.787-.7-4.413a5.109,5.109,0,0,1,1.161-4.064c1.393-1.51,3.484-1.393,5.225-2.439a5.69,5.69,0,0,0,3.135-3.832c.581-2.09-1.974-2.9-1.974-4.761s1.393-.929,1.626-1.858-1.51-1.742-2.439-1.974-.813-.464-.581-.929,2.671.348,3.832-1.161-.232-4.3.348-4.877,3.367-.929,3.367-3.367" transform="translate(0 0.264)"/><path d="M1.958,29.5c.7,0,1.045-1.045,1.626-2.555l.464-1.393a13.354,13.354,0,0,1,.581,1.742c.464,1.742.813,3.135,1.626,3.135s1.161-1.393,1.626-4.877c.116-.813.232-1.742.348-2.322s.464,2.787.581,4.18c.464,4.3.7,5.69,1.626,5.69a.813.813,0,0,0,.581-.232c.813-.929.929-4.529.813-5.574a.464.464,0,1,0-.929,0h0v.464a16.257,16.257,0,0,1-.464,4.064,36.113,36.113,0,0,1-.7-4.529c-.464-4.3-.7-5.69-1.626-5.69s-.813.929-1.277,3.832a28.45,28.45,0,0,1-.7,3.832,16.6,16.6,0,0,1-.7-2.206c-.348-1.742-.581-2.671-1.277-2.671s-.929.929-1.393,2.322a16.954,16.954,0,0,1-.7,1.742,9.754,9.754,0,0,1-.464-1.51C1.145,25.548.913,24.619.216,24.5h0A3.215,3.215,0,0,1,.1,25.548a8.709,8.709,0,0,1,.581,1.626c.348,1.393.7,2.439,1.393,2.439" transform="translate(0.016 3.44)" fill="#fff"/><path d="M44.562,21.555c-.116,1.393-.232,3.251-.348,5.109s-.348,5.574-.581,7.316c-.232-1.393-.348-3.716-.464-5.574-.464-6.154-.581-6.967-1.393-6.967s-.929.813-1.277,6.387c-.116,1.626-.232,3.6-.348,4.761a29.2,29.2,0,0,1-.581-3.6c-.7-4.18-.813-5.109-1.626-5.109s-.929,1.161-1.277,3.948a22.412,22.412,0,0,1-.464,3.251,14.864,14.864,0,0,1-.929-2.9c-.464-1.742-.7-2.322-1.277-2.322s-.929,0-1.393,2.555a.479.479,0,1,0,.929.232l.348-1.393.348,1.277c.7,2.322,1.161,3.716,1.974,3.716s1.045-1.393,1.393-4.3c.116-.813.232-1.858.348-2.555s.464,2.555.7,3.832c.7,4.18.813,5.109,1.626,5.109s.929-.813,1.277-6.387c.116-1.393.232-3.019.232-4.18.116,1.277.348,3.251.464,4.761.464,6.5.7,7.548,1.51,7.548s1.045-.813,1.51-9.29c.116-1.858.232-3.948.348-5.342.232,1.742.464,4.413.7,6.5s.348,3.484.464,4.761.348,2.555.929,2.555.7-.581.929-1.974.348-2.322.464-3.716.464-3.6.7-4.761l.464,2.322c.7,3.367.929,4.3,1.626,4.3s.929-1.045,1.161-2.206a6.735,6.735,0,0,1,.581-1.858c.348,0,.464.581.464.7a.464.464,0,1,0,.929,0,1.51,1.51,0,0,0-1.393-1.626c-.929,0-1.161,1.277-1.393,2.555a9.755,9.755,0,0,1-.232,1.161c-.232-.7-.464-2.09-.7-3.135-.581-3.019-.7-3.948-1.393-3.948s-.813.464-1.626,6.387a31.305,31.305,0,0,1-.464,3.251c-.116-1.393-.348-3.135-.464-4.761s-.348-4.18-.581-5.806S46.188,19,45.724,19s-.464.581-.7,2.671" transform="translate(5.253 3.021)" fill="#fff"/><path d="M61.513,7h.581l.348.813.348.813L63.37,9.9l.7,1.51.7,1.393.581,1.161.348.7a.581.581,0,0,0,.464.348h.232v.232h-3.6v-.232h.464c.464,0,.581-.116.581-.464a1.161,1.161,0,0,0-.116-.464l-.464-1.277h-3.6L59.074,14.2v.348q0,.464.581.464h.464v.116H57.1V14.9h.7l.232-.348.348-.7Zm0,1.51-1.626,3.6h3.135Z" transform="translate(9.205 1.086)"/><path d="M67.142,9.281h0l-.348,4.645c0,.348,0,.464.116.581h.929v.232H65.4v-.232h.7v-.232a3.483,3.483,0,0,0,.116-.464,3.268,3.268,0,0,1,.116-.929l.232-3.135c0-.348,0-.464-.116-.581h-.7V8.7h2.322v.7L69.7,13.345l1.161-2.671.232-.348.232-.581.232-.581.232-.464h2.206v.232H73.18c-.116.116-.116.232-.116.464l.348,4.18a.682.682,0,0,0,.232.581h.7v.7H71.9l.7-.232a.813.813,0,0,0,.116-.464v-.464l-.348-3.832h0L70.974,13v.348l-.232.464-.232.464v.348l-.232.464v.232h-.348l-.232-.464-.232-.464Z" transform="translate(10.543 1.36)"/><path d="M75.906,13v1.626h2.439l.232-.232a.928.928,0,0,0,0-.348v-.232h.465V15.2H73.816V14.97h.813V9.629a.581.581,0,0,0-.116-.348H73.7V8.7h4.993V9.861h-.232c-.116,0-.116,0-.116-.232a1.626,1.626,0,0,0-.116-.464c0-.116-.232-.232-.464-.232H75.906v2.322H77.88V10.79c0-.116,0-.232.116-.232h.348v1.974h-.581a.464.464,0,0,0,0-.232c0-.232-.116-.464-.232-.464H75.79v.929Z" transform="translate(11.881 1.36)"/><path d="M83.577,14.97h-.116v-.116l-.7-1.277-.464-.813-.348-.464-.232-.348h-.7v2.206a.581.581,0,0,0,.116.348h.813v.232H78.816v-.232h.813V9.513a.581.581,0,0,0-.116-.348H78.7V8.7h4.18l.581.232.464.464a1.51,1.51,0,0,1,.116.7,1.393,1.393,0,0,1-.464,1.045,2.09,2.09,0,0,1-1.045.581l.464.813.464.7.464.7.348.464.232.232h.232v.232H83.577ZM80.906,9.048v1.045h0v1.277H82.3l.581-.464a1.161,1.161,0,0,0,.232-.7A.929.929,0,0,0,83,9.629l-.348-.348-.464-.232Z" transform="translate(12.687 1.36)"/><path d="M85.445,10.21V9.629a.581.581,0,0,0-.116-.348H84.4V8.7h3.019v.232h-.813v4.761a.581.581,0,0,0,.116.348v.232H85.329V10.21Z" transform="translate(13.605 1.36)"/><path d="M93.39,13.958h0v.232l-.464.464-.813.464-1.161.232-1.393-.232a2.9,2.9,0,0,1-1.045-.813,3.251,3.251,0,0,1-.581-1.161,3.832,3.832,0,0,1-.232-1.277,3.367,3.367,0,0,1,.232-1.393,2.555,2.555,0,0,1,.813-1.045,2.787,2.787,0,0,1,1.161-.7A4.3,4.3,0,0,1,91.532,8.5H93.39v1.742h-.464l-.232-.464-.464-.464-.581-.232h-.464l-.929.232-.7.581a3.019,3.019,0,0,0-.464.929,3.948,3.948,0,0,0-.116,1.045,3.833,3.833,0,0,0,.232,1.277,2.555,2.555,0,0,0,.581.929l.7.581.929.232H92l.464-.232.464-.232.232-.232h.232Z" transform="translate(14.137 1.327)"/><path d="M96.035,8.5H96.5l1.742,4.064.232.581.232.581.232.581.232.348h.464v.232H96.964c-.116,0-.116,0-.116-.116h.813a.464.464,0,0,0,0-.232v-.232l-.348-.929H94.293l-.464,1.045a.464.464,0,0,0,0,.232.232.232,0,0,0,.116.232H92.9l.232-.232.232-.464Zm0,1.393-1.277,2.671H97.2Z" transform="translate(14.976 1.328)"/><path d="M104.109,12.067l.232.232.232.232.232.232.348.348V9.629a.581.581,0,0,0-.116-.348h-.813V8.816h2.439v.232h-.7v.232a.7.7,0,0,0,0,.348V14.97h-.7l-4.413-5.225v4.413a.581.581,0,0,0,.116.348h.813v.232H99v-.232h.813V9.164h-.7V8.7h2.206v.232l.464.464Z" transform="translate(15.959 1.36)"/><path d="M61.845,19.074a2.206,2.206,0,0,0-.232-.7l-.232-.464-.464-.232H59.639l-.581.348-.348.464A1.262,1.262,0,0,0,59.058,20l1.51.929,1.045.581.7.581.464.581a1.742,1.742,0,0,1,.116.7,2.322,2.322,0,0,1-.232.929,1.974,1.974,0,0,1-.7.7l-.929.464-1.277.232H57.9l-.7-.232V23.487h.464v.348a1.393,1.393,0,0,0,.348.929l.813.348h1.626l.581-.348.348-.464a1.277,1.277,0,0,0,.116-.581,1.161,1.161,0,0,0-.464-.929,5.225,5.225,0,0,0-1.51-.929l-.7-.348-.7-.464-.581-.7a1.974,1.974,0,0,1-.232-.929,2.09,2.09,0,0,1,.232-.929,1.974,1.974,0,0,1,.7-.7l.929-.464,1.277-.232h1.858v1.858h-.464v.116Z" transform="translate(9.221 2.714)"/><path d="M64.722,22.451v1.858a.581.581,0,0,0,.116.348h.813v.232H62.632v-.232h.7v-.232a.813.813,0,0,0,0-.348v-4.3a.581.581,0,0,0-.116-.348H62.4V19.2h4.3l.7.464.348.581a1.394,1.394,0,0,1,.116.581,1.277,1.277,0,0,1-.116.581l-.232.464-.464.464-.581.232H64.722Zm0-.464h.929l.7-.232.464-.464a1.509,1.509,0,0,0,.232-.7,1.277,1.277,0,0,0-.232-.813l-.581-.348h-1.51v2.555Z" transform="translate(10.059 3.053)"/><path d="M69.706,23.3v.929a2.672,2.672,0,0,0,0,.7h2.439l.232-.232a.928.928,0,0,0,0-.348v-.232h.348V25.5H67.616V25.27h.813V19.929a.581.581,0,0,0-.116-.348H67.5V19h4.993v1.161h-.232c-.116,0-.116,0-.116-.232a1.626,1.626,0,0,0-.116-.464c0-.116-.232-.232-.465-.232H69.706v2.322H71.68V21.09c0-.116,0-.232.116-.232h.348v1.974H71.68a.465.465,0,0,0,0-.232c0-.232-.116-.464-.232-.464H69.706V23.3Z" transform="translate(10.881 3.021)"/><path d="M74.906,23.3v1.626h2.439l.232-.232a.929.929,0,0,0,0-.348v-.232h.464V25.5H72.816V25.27h.813V19.929a.581.581,0,0,0-.116-.348H72.7V19h4.993v1.161h-.232c-.116,0-.116,0-.116-.232a1.625,1.625,0,0,0-.116-.464c0-.116-.232-.232-.464-.232H74.906v2.322H76.88V21.09c0-.116,0-.232.116-.232h.348v1.974H76.88a.465.465,0,0,0,0-.232c0-.232-.116-.464-.232-.464H74.906V23.3Z" transform="translate(11.719 3.021)"/><path d="M83.49,24.258h0v.232l-.464.464-.813.464-1.161.232-1.393-.232a2.9,2.9,0,0,1-1.045-.813,3.252,3.252,0,0,1-.581-1.161,3.832,3.832,0,0,1-.232-1.277,3.367,3.367,0,0,1,.232-1.393,2.554,2.554,0,0,1,.813-1.045,2.787,2.787,0,0,1,1.161-.7,4.3,4.3,0,0,1,1.626-.232H83.49v1.742h-.464l-.348-.813-.464-.464-.581-.232h-.464l-.929.232-.7.581a3.019,3.019,0,0,0-.465.929,3.948,3.948,0,0,0-.116,1.045,3.833,3.833,0,0,0,.232,1.277,2.555,2.555,0,0,0,.581.929l.7.581.929.232h.581l.464-.232.464-.232.232-.232h.232Z" transform="translate(12.541 2.988)"/><path d="M85.422,21.671H88.79V19.813a.581.581,0,0,0-.116-.348h-.813V19H90.88v.232h-.813v4.761a.581.581,0,0,0,.116.348H91v.232H87.861v-.232h.813V22.135H85.306v2.09a.581.581,0,0,0,.116.348h.929v.232H84.029v-.232a.7.7,0,0,0,0-.348V19.7a.581.581,0,0,0-.116-.348H83.1v-.232h3.019v.232h-.813v2.206Z" transform="translate(13.396 3.021)"/><path d="M90.2,21.7h3.948v.581H90.2Z" transform="translate(14.54 3.456)"/><path d="M96.555,25.048h3.251l.232-.232a.7.7,0,0,0,.116-.464,3.251,3.251,0,0,0,0-.7c0-.116,0-.232.116-.232h.348v2.09H94V25.28h.929l.348-.232a.581.581,0,0,0,.116-.464V19.358a3.948,3.948,0,0,0,0-.813v-.464l-.348-.232H94V17.5h3.948v.232h-.929l-.348.232a.7.7,0,0,0-.116.464v6.619Z" transform="translate(15.153 2.779)"/><path d="M104,18.7h.465l1.742,4.064.232.581.232.581.232.581.232.348h.464v.232h-2.9c-.116,0-.116,0-.116-.116h.813a.464.464,0,0,0,0-.232v-.232l-.348-.929h-2.787l-.464,1.045a.464.464,0,0,0,0,.232.232.232,0,0,0,.116.232h.7v.232H100.4v-.232h.465l.232-.232.232-.464Zm0,1.393-1.277,2.671h2.439Z" transform="translate(16.185 2.972)"/><path d="M111.893,22.251l.232.232.232.232.232.232.348.348V19.813a.581.581,0,0,0-.116-.348h-.813V19h2.439v.232h-.7v.232a.7.7,0,0,0,0,.348v5.342h-.929l-4.413-5.225v4.413a.581.581,0,0,0,.116.348h.813v.232H106.9V24.69h.813V19.929a2.557,2.557,0,0,0,0-.348v-.232h-.7V19h2.206v.232l.464.464Z" transform="translate(17.233 3.021)"/><path d="M119.854,25.1l-1.51.348H117.3a3.6,3.6,0,0,1-1.742-.348,2.787,2.787,0,0,1-1.045-.813,2.322,2.322,0,0,1-.581-1.045A4.646,4.646,0,0,1,113.7,22.2a3.948,3.948,0,0,1,.348-1.626A2.9,2.9,0,0,1,115.21,19.3l1.045-.464,1.51-.232h1.045l.929.232v1.742h-.348v-.232a1.393,1.393,0,0,0-.232-.464l-.348-.464-.581-.348h-.7l-.929.232-.813.581a3.019,3.019,0,0,0-.464.929,3.136,3.136,0,0,0-.232,1.161,4.064,4.064,0,0,0,.116,1.045,2.322,2.322,0,0,0,.464.929,2.439,2.439,0,0,0,.813.7l1.161.232h1.045V23.245a.7.7,0,0,0-.116-.348l-.232-.232h-.7v-.232h2.9v.232h-.7c-.116,0-.232.116-.232.348V25.1Z" transform="translate(18.329 2.956)"/><path d="M126.342,19.316h-.232v.232a.7.7,0,0,0,0,.348v3.019a2.787,2.787,0,0,1-.7,1.974,2.439,2.439,0,0,1-1.858.7h-.929l-.813-.464-.581-.7A2.439,2.439,0,0,1,121,23.264V19.781a2.557,2.557,0,0,0,0-.348h2.206v.232h-1.045v3.6a2.555,2.555,0,0,0,.116.929l.348.581.581.348h.581a1.277,1.277,0,0,0,.929-.348,1.974,1.974,0,0,0,.464-.7,2.787,2.787,0,0,0,.232-.813,3.135,3.135,0,0,0,0-.581v-2.9a.581.581,0,0,0-.116-.348h-.813V19.2h2.439v.232h-.7Z" transform="translate(19.505 3.053)"/><path d="M129.132,18.7h.464l1.742,4.064.232.581.232.581.232.581.232.348h.464v.232h-2.9c-.116,0-.116,0-.116-.116h.813a.464.464,0,0,0,0-.232v-.232l-.348-.929h-2.9l-.464,1.045a.464.464,0,0,0,0,.232.232.232,0,0,0,.116.232h.7v.232H125.3v-.232h.464l.232-.232.232-.464Zm0,1.393-1.277,2.671h2.439Z" transform="translate(20.199 2.972)"/><path d="M137.854,25.1l-1.51.348H135.3a3.6,3.6,0,0,1-1.742-.348,2.787,2.787,0,0,1-1.045-.813,2.322,2.322,0,0,1-.581-1.045A4.643,4.643,0,0,1,131.7,22.2a3.948,3.948,0,0,1,.348-1.626A2.9,2.9,0,0,1,133.21,19.3l1.045-.464,1.51-.232h1.045l.929.232v1.742h-.348v-.232a1.394,1.394,0,0,0-.232-.464l-.348-.464-.581-.348h-.7l-.929.232-.813.581a3.019,3.019,0,0,0-.464.929,3.136,3.136,0,0,0-.232,1.161,4.064,4.064,0,0,0,.116,1.045,2.322,2.322,0,0,0,.464.929,2.439,2.439,0,0,0,.813.7l1.161.232h1.045V23.245a.7.7,0,0,0-.116-.348l-.232-.232h-.7v-.232h2.9v.232h-.7c-.116,0-.232.116-.232.348V25.1Z" transform="translate(21.23 2.956)"/><path d="M140.19,23.3v.929a2.672,2.672,0,0,0,0,.7h2.439l.232-.232a.929.929,0,0,0,0-.348v-.232h.464V25.5h-5.109V25.27h.813V19.929a.58.58,0,0,0-.116-.348H138.1V19h4.993v1.161h-.348c-.116,0-.116,0-.116-.232a1.628,1.628,0,0,0-.116-.464c0-.116-.232-.232-.464-.232h-1.742v2.322h1.974V21.09c0-.116,0-.232.116-.232h.348v1.974h-.464a.465.465,0,0,0,0-.232c0-.232-.116-.464-.232-.464h-1.742v.929Z" transform="translate(22.262 3.021)"/><path d="M143,21.7h3.948v.581H143Z" transform="translate(23.052 3.456)"/><path d="M57.116,35.464h1.161a1.672,1.672,0,0,0,.232-1.045v-4.3a10.571,10.571,0,0,0,0-1.393.7.7,0,0,0-.116-.464H57.232v-.232h2.555a.348.348,0,0,0,0,.232v2.555h4.18V29.542a3.948,3.948,0,0,0,0-.813.813.813,0,0,0-.116-.464l-.348-.232H62.69V27.8h3.6v.232h-.813l-.348.232a.7.7,0,0,0-.116.464v5.69a1.858,1.858,0,0,0,0,.581.427.427,0,0,0,.116.348H66.29v.232H62.574v-.232H63.5l.232-.232a1.161,1.161,0,0,0,.116-.464V31.864h-4.3v2.787a.7.7,0,0,0,.116.464l.348.232h.813v.232H57v-.232Z" transform="translate(9.189 4.439)"/><path d="M67.606,33.448v1.626h2.439l.232-.232a.929.929,0,0,0,0-.348v-.232h.464v1.393H65.516v-.232h.813V30.081a.581.581,0,0,0-.116-.348H65.4V29.5h4.993v1.161h-.232c-.116,0-.116,0-.116-.232a1.626,1.626,0,0,0-.116-.464c0-.116-.232-.232-.464-.232H67.722v2.322H69.58V31.59c0-.116,0-.232.116-.232h.348v1.974H69.58a.464.464,0,0,0,0-.232c0-.232-.116-.464-.232-.464H67.722v.929Z" transform="translate(10.543 4.713)"/><path d="M73.616,29h.464l1.742,4.064.232.581.232.581.232.581.232.348h.464v.232H74.429c-.116,0-.116,0-.116-.116h.813a.465.465,0,0,0,0-.232v-.232l-.348-.929h-2.9l-.464,1.045a.465.465,0,0,0,0,.232.232.232,0,0,0,.116.232h.7v.232H69.9v-.232h.464l.232-.232.232-.464Zm0,1.393-1.277,2.671h2.322Z" transform="translate(11.268 4.633)"/><path d="M81.077,35.538h-.116v-.232l-.7-1.277-.464-.813-.348-.464-.232-.348h-.7v2.09a.581.581,0,0,0,.116.348h.813v.232H76.316v-.232h.813V30.081a.581.581,0,0,0-.116-.348H76.2V29.5h4.413l.581.232.464.464a1.509,1.509,0,0,1,.116.7,1.393,1.393,0,0,1-.464,1.045,2.09,2.09,0,0,1-1.045.581l.464.813.464.7.464.7.348.464.232.232h.232v.232H81.077ZM78.406,29.5v1.045h0v1.277h1.277l.581-.464a1.161,1.161,0,0,0,.232-.7.929.929,0,0,0-.116-.581l-.348-.348-.464-.232H78.406Z" transform="translate(12.284 4.713)"/><path d="M82.916,30.629v-.581A.581.581,0,0,0,82.8,29.7h2.206v.232h-.813v4.761a.58.58,0,0,0,.116.348v.232H82.8V30.629Z" transform="translate(13.348 4.746)"/><path d="M90.209,32.535l.232.232.232.232.232.232.348.348V30.1a.581.581,0,0,0-.116-.348h-.813V29.4h2.439v.232h-.7v.232a.7.7,0,0,0,0,.348v5.342h-.7l-4.413-5.225v4.413a.581.581,0,0,0,.116.348h.813v.232H85.1V35.09h.813V29.632h-.7V29.4h2.206v.232l.464.464Z" transform="translate(13.718 4.697)"/><path d="M98.054,35.4l-1.51.348H95.5a3.6,3.6,0,0,1-1.742-.348,2.787,2.787,0,0,1-1.045-.813,2.322,2.322,0,0,1-.581-1.045A4.646,4.646,0,0,1,91.9,32.5a3.948,3.948,0,0,1,.348-1.626A2.9,2.9,0,0,1,93.41,29.6l1.045-.464,1.51-.232h1.045l.929.232v1.742H97.59v-.232a1.393,1.393,0,0,0-.232-.464l-.348-.464-.581-.348h-.7L94.8,29.6l-.813.581a3.019,3.019,0,0,0-.464.929,3.135,3.135,0,0,0-.232,1.161,4.065,4.065,0,0,0,.116,1.045,2.322,2.322,0,0,0,.464.929,2.438,2.438,0,0,0,.813.7l1.161.232h1.045V33.545a.7.7,0,0,0-.116-.348l-.232-.232h-.7v-.232h2.9v.232h-.7c-.116,0-.232.116-.232.348V35.4Z" transform="translate(14.815 4.617)"/><path d="M61.529,37.8h.581l.348.813.348.813.581,1.277.7,1.51.7,1.393.581,1.161.348.7a.581.581,0,0,0,.464.348h.232v.232h-3.6v-.232h.464c.464,0,.581-.116.581-.464a1.161,1.161,0,0,0-.116-.464l-.464-1.161H59.555L58.974,45v.348q0,.464.581.464h.464v.232H57v-.232h.7l.232-.348.348-.7Zm0,1.51-1.626,3.6h3.135Z" transform="translate(9.189 6.051)"/><path d="M65.748,44.029h.116v.232c0,.116,0,.464.116.464v.232l.464.348.464.232h1.161l.464-.232.232-.348a1.394,1.394,0,0,0,.116-.464.813.813,0,0,0-.348-.7l-1.161-.7-.929-.464-.581-.464-.348-.464a2.322,2.322,0,0,1-.116-.581,1.394,1.394,0,0,1,.232-.7l.581-.581.813-.348H69.58v1.51h-.464v-.7l-.232-.232-.348-.232h-.7a1.277,1.277,0,0,0-.929.348,1.161,1.161,0,0,0-.348.813.813.813,0,0,0,0,.348l.232.348.464.348.7.348.7.232.7.464.464.581a1.337,1.337,0,0,1,0,1.51l-.581.581-.813.348H66.445l-.929-.232V44.029Z" transform="translate(10.543 6.325)"/><path d="M70.048,44.029h.116v.232c0,.116,0,.464.116.464v.232l.464.348.464.232h1.161l.464-.232.232-.348a1.394,1.394,0,0,0,.116-.464.813.813,0,0,0-.348-.7l-1.161-.7-.929-.464-.581-.464-.348-.464a2.323,2.323,0,0,1-.116-.581,1.393,1.393,0,0,1,.232-.7l.581-.581.813-.348H73.88v1.51h-.348v-.7l-.232-.232-.348-.232h-.7a1.277,1.277,0,0,0-.929.348,1.161,1.161,0,0,0-.348.813.813.813,0,0,0,0,.348l.232.348.464.348.7.348.7.232.7.464.465.581a1.337,1.337,0,0,1,0,1.51l-.581.581-.813.348h-2.09l-.929-.232V44.029Z" transform="translate(11.236 6.325)"/><path d="M77.336,46.035,75.942,45.8a2.555,2.555,0,0,1-.929-.7,3.019,3.019,0,0,1-.581-1.045,3.831,3.831,0,0,1-.232-1.277,3.484,3.484,0,0,1,.232-1.393,3.6,3.6,0,0,1,.7-1.161l1.161-.7,1.393-.232,1.393.232a3.135,3.135,0,0,1,1.045.7,4.064,4.064,0,0,1,.7,1.045,3.949,3.949,0,0,1,.232,1.277,4.3,4.3,0,0,1-.232,1.393,4.528,4.528,0,0,1-.7,1.161l-1.161.7-1.51.232m.232-.464a1.51,1.51,0,0,0,1.045-.348,2.322,2.322,0,0,0,.581-.813,3.831,3.831,0,0,0,.232-.929,5.576,5.576,0,0,0,0-.813,9.066,9.066,0,0,0-.116-1.045,3.019,3.019,0,0,0-.348-.929,1.51,1.51,0,0,0-.7-.7l-.929-.232a1.742,1.742,0,0,0-1.393.7,3.6,3.6,0,0,0-.581,2.206,8.245,8.245,0,0,0,.116,1.045,3.019,3.019,0,0,0,.348.929,1.974,1.974,0,0,0,.7.7l.929.232" transform="translate(11.961 6.293)"/><path d="M86.506,44.875h0v.232l-.464.464-.813.464-1.161.232-1.51-.348a2.9,2.9,0,0,1-1.045-.813,3.252,3.252,0,0,1-.581-1.161,3.832,3.832,0,0,1-.232-1.277,3.368,3.368,0,0,1,.232-1.393,2.555,2.555,0,0,1,.813-1.045,2.787,2.787,0,0,1,1.161-.7,4.3,4.3,0,0,1,1.626-.232H86.39v1.742h-.464l-.348-.813-.464-.464-.581-.232h-.464l-.7.581-.7.581a3.019,3.019,0,0,0-.464.929,3.947,3.947,0,0,0-.116,1.045,3.831,3.831,0,0,0,.232,1.277,2.554,2.554,0,0,0,.581.929l.7.581.929.232h.581l.464-.232.464-.232.232-.232h.232Z" transform="translate(13.009 6.292)"/><path d="M87.116,40.929v-.581A.581.581,0,0,0,87,40h2.206v.232h-.813v4.761a.581.581,0,0,0,.116.348v.232H87V40.929Z" transform="translate(14.025 6.406)"/><path d="M93.016,39.3h.464l1.742,4.064.232.581.232.581.232.581.232.348h.465v.232H93.945c-.116,0-.116,0-.116-.116h.813a.464.464,0,0,0,0-.232v-.581l-.348-.929H91.274l-.464,1.045a.465.465,0,0,0,0,.232.232.232,0,0,0,.116.232h.7v.232H89.3v-.232h.464L90,45.106l.232-.464Zm0,1.393-1.277,2.671h2.439Z" transform="translate(14.395 6.293)"/><path d="M99.016,44.377v.581a.581.581,0,0,0,.116.348h.813v.232H96.926v-.232h.813V39.964H96.345l-.464.232a1.278,1.278,0,0,0-.116.581v.232H95.3V39.5h6.038v1.51h-.348v-.348a1.161,1.161,0,0,0-.116-.464v-.116H98.9v4.3Z" transform="translate(15.363 6.325)"/><path d="M101.816,40.929v-.581A.581.581,0,0,0,101.7,40h2.206v.232h-.813v4.761a.58.58,0,0,0,.116.348v.232H101.7V40.929Z" transform="translate(16.394 6.406)"/><path d="M107.336,46.035l-1.393-.232a2.554,2.554,0,0,1-.929-.7,3.019,3.019,0,0,1-.581-1.045,3.832,3.832,0,0,1-.232-1.277,3.484,3.484,0,0,1,.232-1.393,3.6,3.6,0,0,1,.7-1.161l1.161-.7,1.393-.232,1.393.232a2.787,2.787,0,0,1,1.045.7,4.065,4.065,0,0,1,.7,1.045,3.949,3.949,0,0,1,.232,1.277,4.3,4.3,0,0,1-.232,1.394,4.528,4.528,0,0,1-.7,1.161l-1.161.7-1.51.232m.232-.464a1.51,1.51,0,0,0,1.045-.348,2.322,2.322,0,0,0,.581-.813,3.831,3.831,0,0,0,.232-.929,5.575,5.575,0,0,0,0-.813,9.058,9.058,0,0,0-.116-1.045,3.019,3.019,0,0,0-.348-.929,1.858,1.858,0,0,0-.7-.7l-.929-.232a1.742,1.742,0,0,0-1.393.7,3.6,3.6,0,0,0-.581,2.206,8.248,8.248,0,0,0,.116,1.045,3.019,3.019,0,0,0,.348.929,1.974,1.974,0,0,0,.7.7l.929.232" transform="translate(16.797 6.293)"/><path d="M115.361,42.851l.232.232.232.232.232.232.348.348V40.413a.581.581,0,0,0-.116-.348h-.813v-.348h2.439v.232h-.7v.232a.7.7,0,0,0,0,.348v5.225h-.7l-4.413-5.225v4.413a.581.581,0,0,0,.116.348h.813v.232H110.6V45.29h.813V39.832h-.7V39.6h2.206v.232l.464.464Z" transform="translate(17.829 6.341)"/></g></g></g></g></svg>