<svg xmlns="http://www.w3.org/2000/svg" width="200" height="100" viewBox="0 0 200 100"><g transform="translate(-165.999 -290.5)"><rect width="200" height="100" transform="translate(165.999 290.5)" fill="none"/><g transform="translate(0.419 -14.623)"><path d="M-300.91-45.218h-1.65V-50.9h1.65a2.666,2.666,0,0,1,2.85,2.85l-.01,0A2.721,2.721,0,0,1-300.91-45.218Zm-46.524-1.543h2.837l-1.418-3.914Zm2.085,15.082h-2.494v2.113h2.494a1.032,1.032,0,0,0,1.174-1.05A1.063,1.063,0,0,0-345.349-31.679Zm1-2.647,0-.01v0a1,1,0,0,0-.992-.992l-.072,0h-2.428v1.984h2.428A.968.968,0,0,0-344.353-34.326ZM-247-64.7v47.076a8.433,8.433,0,0,1-8.383,8.384H-408.618A8.433,8.433,0,0,1-417-17.628V-64.7a8.433,8.433,0,0,1,8.382-8.384h153.235A8.433,8.433,0,0,1-247-64.7Zm-47.618,21.192h1.937v-9.1h-1.937Zm-9.89,0h3.586c2.844,0,4.828-1.8,4.828-4.541s-1.978-4.556-4.828-4.556h-3.586Zm-8.048,0,6.438-.005v-1.7h-4.5v-2.058h4.405v-1.7h-4.405v-1.922h4.512v-1.7h-6.448ZM-359.37-71.778h-49.248A7.114,7.114,0,0,0-415.69-64.7v47.076a7.114,7.114,0,0,0,7.073,7.074h49.248Zm17.164,41.431a2.2,2.2,0,0,0-1.737-2.233,2.018,2.018,0,0,0,1.568-2.086,2.351,2.351,0,0,0-2.619-2.319h-4.787v9.1l4.927-.005A2.4,2.4,0,0,0-342.206-30.347Zm.908-13.165-3.505-9.1h-2.427l-3.52,9.1h2.211l.572-1.54h3.9l.558,1.54Zm8.884,6.527H-334.4v5.4a1.964,1.964,0,0,1-2.128,2.14,1.974,1.974,0,0,1-2.14-2.14v-5.4h-1.984v5.469c0,2.237,1.364,3.792,4.131,3.792s4.1-1.541,4.1-3.8Zm.27-8.606-1.654-.826a2.442,2.442,0,0,1-2.14,1.322,2.83,2.83,0,0,1-2.85-2.976,2.829,2.829,0,0,1,2.85-2.976,2.466,2.466,0,0,1,2.128,1.329l1.664-.819a4.168,4.168,0,0,0-3.8-2.232,4.627,4.627,0,0,0-4.841,4.712,4.623,4.623,0,0,0,4.844,4.7A4.188,4.188,0,0,0-332.145-45.59Zm8.47,14.955c0-2.059-1.922-2.51-3.41-2.865-.982-.233-1.813-.421-1.813-1.009,0-.543.464-.913,1.295-.913a3.9,3.9,0,0,1,2.646.992l1.079-1.422a5.064,5.064,0,0,0-3.547-1.267c-2.14,0-3.449,1.255-3.449,2.768,0,2.079,1.908,2.483,3.4,2.823.995.245,1.84.436,1.84,1.1,0,.514-.519,1.009-1.582,1.009a3.987,3.987,0,0,1-2.892-1.227l-1.05,1.473a5.263,5.263,0,0,0,3.847,1.454C-324.861-27.716-323.675-28.971-323.675-30.636Zm-5.659-17.435a2.829,2.829,0,0,1,2.85-2.976,2.466,2.466,0,0,1,2.14,1.329l1.664-.819a4.168,4.168,0,0,0-3.8-2.232,4.627,4.627,0,0,0-4.841,4.712,4.585,4.585,0,0,0,4.841,4.676,4.188,4.188,0,0,0,3.8-2.232l-1.664-.8a2.442,2.442,0,0,1-2.14,1.322A2.829,2.829,0,0,1-329.334-48.07Zm9,11.086h-1.937v9.1h1.938Zm.845-9.752h1.418l1.786,3.224,2.232.007-2.045-3.472a2.6,2.6,0,0,0,1.984-2.7,2.833,2.833,0,0,0-3.056-2.931h-4.255v9.1h1.936Zm9.186,9.752h-1.936v5.7l-4.217-5.7h-1.985v9.1h1.937v-5.932l4.338,5.932h1.862Zm8.35,0H-308.4v9.1l6.436-.005v-1.7h-4.5v-2.059h4.405v-1.7h-4.405V-35.28h4.511Zm8.475,6.349c0-2.059-1.923-2.51-3.41-2.865-.98-.233-1.813-.421-1.813-1.009,0-.543.463-.913,1.294-.913a3.915,3.915,0,0,1,2.647.992l1.072-1.422a5.066,5.066,0,0,0-3.546-1.267c-2.141,0-3.45,1.255-3.45,2.768,0,2.079,1.907,2.483,3.4,2.823.994.245,1.84.436,1.84,1.1,0,.514-.518,1.009-1.583,1.009a3.988,3.988,0,0,1-2.892-1.227l-1.049,1.473a5.293,5.293,0,0,0,3.854,1.454C-294.66-27.716-293.474-28.971-293.474-30.636Zm8.281,0c0-2.059-1.922-2.51-3.411-2.865-.979-.233-1.813-.421-1.813-1.009,0-.543.464-.913,1.3-.913a3.917,3.917,0,0,1,2.647.992l1.078-1.422a5.067,5.067,0,0,0-3.547-1.267c-2.14,0-3.449,1.255-3.449,2.768,0,2.079,1.907,2.483,3.395,2.823.995.245,1.841.436,1.841,1.1,0,.514-.519,1.009-1.582,1.009a3.987,3.987,0,0,1-2.892-1.227l-1.049,1.473a5.252,5.252,0,0,0,3.846,1.454C-286.38-27.716-285.194-28.971-285.194-30.636Zm1.1-21.973h-7.256v1.7h2.661v7.393h1.95v-7.393h2.646Zm7.785,0h-6.448v9.1l6.438-.005v-1.7h-4.5v-2.058h4.4v-1.7h-4.4v-1.922h4.512Zm10.015,4.556c0-2.743-1.979-4.556-4.829-4.556h-3.586v9.1h3.586C-268.274-43.512-266.29-45.309-266.29-48.053Zm-4.817-2.85h-1.649v5.684h1.649a2.719,2.719,0,0,0,2.839-2.838l.011,0A2.666,2.666,0,0,0-271.107-50.9ZM-316.1-49.677a1.235,1.235,0,0,0-1.364-1.228h-2.031v2.455h2.031A1.23,1.23,0,0,0-316.1-49.677Zm-51.774,34.034v-1.09h.74l.834,1.09h.53l-.9-1.16a.858.858,0,0,0,.749-.849v-.015a.763.763,0,0,0-.234-.561,1.2,1.2,0,0,0-.857-.3h-1.3l.005,2.891Zm-.005-2.505h.849c.413,0,.662.194.662.5v.015c0,.332-.28.52-.686.52l-.826-.005ZM-392.371-62.38l4.2-5.807.634.45a2.244,2.244,0,0,0,.69,3.244l7.384,5.364a7.048,7.048,0,0,1,1.343,9.891l-4.761,6.7-.585-.438a3.9,3.9,0,0,0-.563-4.983l-6.9-5.068A7.206,7.206,0,0,1-392.371-62.38ZM-381.908-26.3h5.754c2.061,0,3.949.94,3.949,3.244a2.876,2.876,0,0,1-1.578,2.567c1.291.575,1.927.954,2.175,2.559l0,0c.416,2.8-2.166,3.866-4.6,3.866h-5.7Zm2.6,4.947h3.106a1.308,1.308,0,1,0-.117-2.608h-2.978Zm0,4.975h3.333c2.3,0,2.451-2.79,0-2.79H-379.3Zm-14.977-25.18,5,3.609c.857.619.924,1.239.517,1.887l.727.54,2.532-3.506a4.745,4.745,0,0,0-.893-6.805l-5.045-3.676a1.259,1.259,0,0,1-.333-1.736l-.726-.519,0-.007-2.7,3.72A5.03,5.03,0,0,0-394.28-41.556Zm1.6,13.157h9.091l.992-3.372h5.565l-.729-2.481h-20.746l-.729,2.481h5.563Zm22.661,11.408v-.024a2.833,2.833,0,0,1,2.819-2.82,2.833,2.833,0,0,1,2.82,2.813V-17a2.833,2.833,0,0,1-2.82,2.82A2.833,2.833,0,0,1-370.019-16.99Zm.256,0a2.576,2.576,0,0,0,2.563,2.555A2.576,2.576,0,0,0-364.636-17v-.023a2.577,2.577,0,0,0-2.564-2.556,2.576,2.576,0,0,0-2.563,2.563Zm-13.266-.939c.417,2.8-2.165,3.866-4.6,3.866h-5.705V-26.3h5.755c2.061,0,3.948.94,3.948,3.244a2.875,2.875,0,0,1-1.573,2.565h0l0,0,0,0C-383.911-19.913-383.276-19.534-383.029-17.93Zm-7.7-3.422h3.108a1.308,1.308,0,1,0-.116-2.61h-2.988Zm3.334,2.187h-3.334v2.787h3.336l0,0C-385.092-16.375-384.943-19.165-387.393-19.165Zm-11.656,5.1h-5.7V-26.3H-399c2.061,0,3.948.94,3.948,3.244a2.874,2.874,0,0,1-1.574,2.565h0l0,0,0,0c1.292.575,1.927.955,2.174,2.559C-394.035-15.127-396.614-14.063-399.05-14.063Zm-3.108-7.284h3.112a1.308,1.308,0,1,0-.116-2.61h-3Zm0,4.972h3.341c2.3,0,2.453-2.79,0-2.79h-3.341Z" transform="translate(597.58 396.211)" fill="#fff"/></g></g></svg>