<svg xmlns="http://www.w3.org/2000/svg" width="200" height="100" viewBox="0 0 200 100"><g transform="translate(-164.999 -290.998)"><rect width="200" height="100" transform="translate(164.999 290.998)" fill="none"/><g transform="translate(0.419 -16.126)"><g transform="translate(59.58 185.211)"><path d="M128.382,203.756A8.433,8.433,0,0,1,120,195.372V148.3a8.433,8.433,0,0,1,8.382-8.384H281.617A8.433,8.433,0,0,1,290,148.3v47.076a8.433,8.433,0,0,1-8.383,8.384Z" fill="#015a75" fill-rule="evenodd"/><path d="M129.538,142.377a7.114,7.114,0,0,0-7.073,7.074v47.076a7.114,7.114,0,0,0,7.073,7.074h49.248V142.377Zm115.937,42.609,1.049-1.473a3.987,3.987,0,0,0,2.892,1.227c1.063,0,1.582-.5,1.582-1.009,0-.667-.846-.859-1.841-1.1-1.488-.339-3.395-.744-3.395-2.823,0-1.513,1.31-2.768,3.449-2.768a5.067,5.067,0,0,1,3.547,1.267l-1.078,1.422a3.917,3.917,0,0,0-2.647-.992c-.831,0-1.3.37-1.3.913,0,.588.834.776,1.813,1.009,1.489.355,3.411.806,3.411,2.865,0,1.665-1.186,2.92-3.641,2.92a5.252,5.252,0,0,1-3.846-1.453Zm-8.289,0,1.049-1.473a3.988,3.988,0,0,0,2.892,1.227c1.065,0,1.583-.5,1.583-1.009,0-.667-.845-.859-1.84-1.1-1.489-.339-3.4-.744-3.4-2.823,0-1.513,1.309-2.768,3.45-2.768a5.066,5.066,0,0,1,3.546,1.267l-1.072,1.422a3.915,3.915,0,0,0-2.647-.992c-.831,0-1.294.37-1.294.913,0,.588.833.776,1.813,1.009,1.487.355,3.41.806,3.41,2.865,0,1.665-1.186,2.92-3.641,2.92a5.293,5.293,0,0,1-3.854-1.453Zm-30.193,0,1.05-1.473a3.987,3.987,0,0,0,2.892,1.227c1.064,0,1.582-.5,1.582-1.009,0-.667-.846-.859-1.84-1.1-1.488-.339-3.4-.744-3.4-2.823,0-1.513,1.31-2.768,3.449-2.768a5.064,5.064,0,0,1,3.547,1.267l-1.079,1.422a3.9,3.9,0,0,0-2.646-.992c-.83,0-1.295.37-1.295.913,0,.588.83.776,1.813,1.009,1.489.355,3.41.806,3.41,2.865,0,1.665-1.186,2.92-3.641,2.92A5.263,5.263,0,0,1,206.993,184.986ZM197.5,182.64v-5.469h1.984v5.4a2.134,2.134,0,1,0,4.268,0v-5.4h1.984v5.456c0,2.264-1.337,3.8-4.1,3.8s-4.131-1.555-4.131-3.792Zm28.489,3.628-4.338-5.932v5.932h-1.937v-9.1H221.7l4.217,5.7v-5.7h1.936v9.1Zm-10.107,0v-9.1h1.937v9.1Zm13.872,0v-9.1h6.448v1.7H231.7V180.8H236.1v1.7H231.7v2.059h4.5v1.7Zm-41.383,0v-9.1h4.787a2.351,2.351,0,0,1,2.619,2.319,2.018,2.018,0,0,1-1.568,2.086,2.2,2.2,0,0,1,1.737,2.233,2.4,2.4,0,0,1-2.647,2.455Zm5.6-2.729a1.063,1.063,0,0,0-1.174-1.063h-2.494v2.113h2.494A1.032,1.032,0,0,0,193.98,183.539Zm-.176-3.719v0a1,1,0,0,0-.992-.992l-.072,0h-2.427v1.984h2.427a.968.968,0,0,0,1.063-.982Zm3.559-13.721a4.627,4.627,0,0,1,4.841-4.712,4.168,4.168,0,0,1,3.8,2.232l-1.664.818a2.467,2.467,0,0,0-2.128-1.329,2.979,2.979,0,0,0,0,5.952,2.442,2.442,0,0,0,2.14-1.322l1.654.826a4.188,4.188,0,0,1-3.8,2.233,4.623,4.623,0,0,1-4.844-4.7Zm9.466,0a4.627,4.627,0,0,1,4.841-4.712,4.168,4.168,0,0,1,3.8,2.232l-1.664.818a2.467,2.467,0,0,0-2.14-1.329,2.979,2.979,0,0,0,0,5.952,2.442,2.442,0,0,0,2.14-1.322l1.664.8a4.188,4.188,0,0,1-3.8,2.232A4.585,4.585,0,0,1,206.829,166.1Zm15.045,4.544-1.786-3.224h-1.418v3.224h-1.936v-9.1h4.255a2.833,2.833,0,0,1,3.056,2.931,2.6,2.6,0,0,1-1.984,2.7l2.045,3.472Zm-27.227,0-.558-1.54h-3.9l-.572,1.54h-2.211l3.52-9.1h2.427l3.505,9.1Zm68.8,0v-9.1h3.586c2.849,0,4.829,1.813,4.829,4.556s-1.985,4.541-4.829,4.541Zm-8.048,0v-9.1h6.448v1.7h-4.512v1.922h4.4v1.7h-4.4v2.058h4.5v1.7Zm-11.865,0v-9.1h1.937v9.1Zm-9.89,0v-9.1h3.586c2.85,0,4.828,1.813,4.828,4.556s-1.984,4.541-4.828,4.541Zm-8.048,0v-9.1h6.448v1.7h-4.512v1.922h4.405v1.7h-4.405v2.058h4.5v1.7Zm23.871,0V163.25h-2.661v-1.7h7.256v1.7h-2.646v7.393ZM269.9,166.1a2.666,2.666,0,0,0-2.85-2.85H265.4v5.684h1.649a2.719,2.719,0,0,0,2.839-2.838Zm-29.8,0a2.666,2.666,0,0,0-2.85-2.85H235.6v5.684h1.65a2.721,2.721,0,0,0,2.84-2.838ZM192.14,163.48l-1.418,3.914h2.837Zm29.917,1a1.235,1.235,0,0,0-1.364-1.228h-2.031v2.455h2.031A1.23,1.23,0,0,0,222.057,164.478Z" transform="translate(-1.155 -1.155)" fill="#fff" fill-rule="evenodd"/><path d="M151.179,196.835c1.292.575,1.927.955,2.174,2.559.417,2.8-2.162,3.866-4.6,3.866h-5.7V191.027H148.8c2.061,0,3.948.94,3.948,3.244A2.874,2.874,0,0,1,151.179,196.835Zm11.425,0c1.291.575,1.926.955,2.173,2.559.417,2.8-2.165,3.866-4.6,3.866h-5.705V191.027h5.755c2.061,0,3.948.94,3.948,3.244A2.875,2.875,0,0,1,162.6,196.835ZM176.2,199.4c-.248-1.6-.883-1.984-2.175-2.559a2.876,2.876,0,0,0,1.578-2.567c0-2.3-1.888-3.244-3.949-3.244H165.9v12.234h5.7c2.433,0,5.014-1.064,4.6-3.866Zm1.588.937v-.024a2.82,2.82,0,0,1,5.64-.007v.023a2.82,2.82,0,0,1-5.64.009Zm5.384-.009V200.3a2.564,2.564,0,0,0-5.128.007v.024a2.564,2.564,0,0,0,5.128-.009Zm-3.67-1.535h1.3a1.2,1.2,0,0,1,.857.3.761.761,0,0,1,.233.561v.015a.857.857,0,0,1-.748.849l.9,1.16h-.53l-.834-1.09h-.74v1.09H179.5Zm-30.511,2.158h-3.341v-2.79h3.341C151.442,198.159,151.29,200.949,148.988,200.949Zm11.426,0h-3.336v-2.787h3.334c2.451,0,2.3,2.79,0,2.79Zm8.087-2.787v2.79h3.333c2.3,0,2.451-2.79,0-2.79Zm12.252,2.05c.406,0,.686-.188.686-.52v-.015c0-.3-.249-.5-.662-.5h-.849V200.2Zm-29.575-3.373h0l0,0Zm11.425,0h0l0,0Zm-16.955-3.468h3a1.308,1.308,0,1,1,.116,2.61h-3.112Zm22.864,0h2.978a1.308,1.308,0,1,1,.117,2.608H168.5Zm-11.43,0h2.988a1.308,1.308,0,1,1,.116,2.609h-3.108Zm-8.512-7.809h5.563l.992,3.372h9.091l.992-3.372h5.565l-.729-2.481H149.3Zm6.739-20-2.7,3.72a5.03,5.03,0,0,0,.913,6.492l5,3.609c.857.619.924,1.239.517,1.887l.727.54L162.3,178.3a4.745,4.745,0,0,0-.893-6.805l-5.045-3.676a1.259,1.259,0,0,1-.333-1.736l-.726-.519Zm4.325-16.419-4.2,5.807a7.206,7.206,0,0,0,1.438,9.349l6.9,5.068a3.9,3.9,0,0,1,.563,4.983l.585.438,4.761-6.7a7.048,7.048,0,0,0-1.343-9.891l-7.384-5.364a2.244,2.244,0,0,1-.69-3.244Z" transform="translate(-10.805 -4.324)" fill="#015a75" fill-rule="evenodd"/></g></g></g></svg>