<svg xmlns="http://www.w3.org/2000/svg" width="200" height="100" viewBox="0 0 200 100"><g transform="translate(-165.607 -291.5)"><rect width="200" height="100" transform="translate(165.607 291.5)" fill="none"/><g transform="translate(-0.897 -15.279)"><g transform="translate(200.004 321.279)"><path d="M653.586,494.835h0Z" transform="translate(-575.337 -435.592)" fill="#004482"/><path d="M732.3,557.03h0Z" transform="translate(-644.624 -490.341)" fill="#004482"/><path d="M841.295,557.03h0Z" transform="translate(-740.573 -490.341)" fill="#004482"/><g transform="translate(49.89 3.416)"><path d="M419.332,29.192a1.24,1.24,0,0,0-.728-.214,1.3,1.3,0,0,0-.615.135,1.212,1.212,0,0,0-.421.362,1.563,1.563,0,0,0-.244.52,2.32,2.32,0,0,0-.079.607,2.594,2.594,0,0,0,.079.649,1.549,1.549,0,0,0,.244.534,1.2,1.2,0,0,0,.424.362,1.32,1.32,0,0,0,.618.135,1.189,1.189,0,0,0,.469-.087,1.059,1.059,0,0,0,.354-.242,1.113,1.113,0,0,0,.233-.368,1.535,1.535,0,0,0,.1-.461h.534a1.823,1.823,0,0,1-.523,1.18,1.691,1.691,0,0,1-1.214.421,1.933,1.933,0,0,1-.815-.16,1.6,1.6,0,0,1-.579-.441,1.891,1.891,0,0,1-.346-.663,2.829,2.829,0,0,1-.115-.82,2.675,2.675,0,0,1,.124-.823,1.981,1.981,0,0,1,.362-.672,1.691,1.691,0,0,1,.6-.452,1.921,1.921,0,0,1,.818-.166,2.06,2.06,0,0,1,.6.084,1.6,1.6,0,0,1,.5.247,1.387,1.387,0,0,1,.365.407,1.5,1.5,0,0,1,.191.565h-.534A.993.993,0,0,0,419.332,29.192Z" transform="translate(-416.711 -28.529)" fill="#161515"/><path d="M453.187,40.97a.677.677,0,0,1-.343.073.412.412,0,0,1-.3-.1.452.452,0,0,1-.109-.34,1.143,1.143,0,0,1-.458.34,1.581,1.581,0,0,1-.938.059.865.865,0,0,1-.306-.14.673.673,0,0,1-.205-.25.841.841,0,0,1-.076-.374.854.854,0,0,1,.084-.4.737.737,0,0,1,.222-.256,1.023,1.023,0,0,1,.315-.149q.177-.051.362-.084t.374-.059a2.082,2.082,0,0,0,.312-.056.517.517,0,0,0,.213-.107.261.261,0,0,0,.079-.205.478.478,0,0,0-.059-.253.406.406,0,0,0-.152-.146.618.618,0,0,0-.208-.067,1.588,1.588,0,0,0-.228-.017,1.01,1.01,0,0,0-.506.115.489.489,0,0,0-.219.435h-.478a1.033,1.033,0,0,1,.112-.455.854.854,0,0,1,.27-.3,1.132,1.132,0,0,1,.385-.166,2.029,2.029,0,0,1,.464-.051,2.728,2.728,0,0,1,.391.028,1.022,1.022,0,0,1,.351.115.673.673,0,0,1,.253.244.78.78,0,0,1,.1.409V40.3a1.108,1.108,0,0,0,.02.247q.02.079.132.079a.576.576,0,0,0,.146-.023Zm-.775-1.489a.6.6,0,0,1-.236.1q-.146.031-.306.05t-.323.045a1.193,1.193,0,0,0-.292.081.53.53,0,0,0-.211.159.444.444,0,0,0-.081.282.385.385,0,0,0,.048.2.4.4,0,0,0,.124.131.518.518,0,0,0,.177.073.992.992,0,0,0,.214.022,1.137,1.137,0,0,0,.4-.064.851.851,0,0,0,.275-.162.641.641,0,0,0,.157-.213.535.535,0,0,0,.051-.215Z" transform="translate(-446.416 -36.874)" fill="#161515"/><path d="M477.612,38.077v.461h.011a1.006,1.006,0,0,1,.944-.528,1.262,1.262,0,0,1,.478.079.787.787,0,0,1,.309.219.815.815,0,0,1,.166.334,1.8,1.8,0,0,1,.048.43v1.911h-.478V39.015a.577.577,0,0,0-.157-.427.585.585,0,0,0-.433-.157.972.972,0,0,0-.379.067.709.709,0,0,0-.267.191.824.824,0,0,0-.16.289,1.176,1.176,0,0,0-.053.363v1.641h-.478V38.077Z" transform="translate(-469.925 -36.874)" fill="#161515"/><path d="M504.861,40.97a.677.677,0,0,1-.343.073.411.411,0,0,1-.3-.1.452.452,0,0,1-.11-.34,1.144,1.144,0,0,1-.458.34,1.582,1.582,0,0,1-.938.059.866.866,0,0,1-.306-.14.673.673,0,0,1-.205-.25.842.842,0,0,1-.076-.374.854.854,0,0,1,.084-.4.738.738,0,0,1,.222-.256,1.023,1.023,0,0,1,.315-.149q.177-.051.362-.084t.374-.059a2.077,2.077,0,0,0,.312-.056.519.519,0,0,0,.214-.107.261.261,0,0,0,.079-.205.476.476,0,0,0-.059-.253.405.405,0,0,0-.152-.146.618.618,0,0,0-.208-.067,1.585,1.585,0,0,0-.228-.017,1.011,1.011,0,0,0-.506.115.489.489,0,0,0-.219.435h-.478a1.033,1.033,0,0,1,.112-.455.852.852,0,0,1,.27-.3,1.131,1.131,0,0,1,.385-.166,2.03,2.03,0,0,1,.464-.051,2.728,2.728,0,0,1,.391.028,1.022,1.022,0,0,1,.351.115.673.673,0,0,1,.253.244.779.779,0,0,1,.1.409V40.3a1.1,1.1,0,0,0,.02.247q.02.079.132.079a.575.575,0,0,0,.146-.023Zm-.775-1.489a.6.6,0,0,1-.236.1q-.146.031-.306.05t-.323.045a1.2,1.2,0,0,0-.292.081.53.53,0,0,0-.211.159.445.445,0,0,0-.082.282.385.385,0,0,0,.048.2.4.4,0,0,0,.124.131.52.52,0,0,0,.177.073.991.991,0,0,0,.213.022,1.136,1.136,0,0,0,.4-.064.852.852,0,0,0,.275-.162.643.643,0,0,0,.157-.213.536.536,0,0,0,.051-.215Z" transform="translate(-491.903 -36.874)" fill="#161515"/><path d="M529.8,33.339v-.393h-.011a.7.7,0,0,1-.371.348,1.415,1.415,0,0,1-.556.107,1.312,1.312,0,0,1-.587-.124,1.207,1.207,0,0,1-.416-.332,1.442,1.442,0,0,1-.25-.483,1.983,1.983,0,0,1-.084-.584,2.049,2.049,0,0,1,.082-.584,1.373,1.373,0,0,1,.247-.48,1.193,1.193,0,0,1,.416-.326,1.322,1.322,0,0,1,.581-.121,1.43,1.43,0,0,1,.242.023,1.237,1.237,0,0,1,.258.076,1.1,1.1,0,0,1,.244.14.774.774,0,0,1,.194.216h.011V29.327h.478v4.012Zm-1.717-1.031a1.07,1.07,0,0,0,.163.346.8.8,0,0,0,.281.242.853.853,0,0,0,.4.09.788.788,0,0,0,.685-.346,1.045,1.045,0,0,0,.155-.351,1.7,1.7,0,0,0,0-.812,1.024,1.024,0,0,0-.16-.351.818.818,0,0,0-.284-.244.887.887,0,0,0-.421-.093.82.82,0,0,0-.41.1.762.762,0,0,0-.27.253,1.1,1.1,0,0,0-.146.36,1.911,1.911,0,0,0-.045.416A1.482,1.482,0,0,0,528.08,32.308Z" transform="translate(-514.255 -29.231)" fill="#161515"/><path d="M557.089,29.911v-.584h.478v.584Zm.478.523v2.905h-.478V30.434Z" transform="translate(-540.283 -29.231)" fill="#161515"/><path d="M568.878,40.97a.677.677,0,0,1-.343.073.412.412,0,0,1-.3-.1.452.452,0,0,1-.109-.34,1.145,1.145,0,0,1-.458.34,1.582,1.582,0,0,1-.939.059.865.865,0,0,1-.306-.14.673.673,0,0,1-.205-.25.842.842,0,0,1-.076-.374.853.853,0,0,1,.084-.4.735.735,0,0,1,.222-.256,1.021,1.021,0,0,1,.315-.149q.177-.051.362-.084t.374-.059a2.077,2.077,0,0,0,.312-.056.518.518,0,0,0,.214-.107.261.261,0,0,0,.079-.205.476.476,0,0,0-.059-.253.4.4,0,0,0-.152-.146.62.62,0,0,0-.208-.067,1.585,1.585,0,0,0-.228-.017,1.01,1.01,0,0,0-.506.115.489.489,0,0,0-.219.435h-.478a1.032,1.032,0,0,1,.112-.455.852.852,0,0,1,.27-.3,1.131,1.131,0,0,1,.385-.166,2.03,2.03,0,0,1,.464-.051,2.729,2.729,0,0,1,.391.028,1.023,1.023,0,0,1,.351.115.674.674,0,0,1,.253.244.779.779,0,0,1,.1.409V40.3a1.1,1.1,0,0,0,.02.247c.013.052.057.079.132.079a.574.574,0,0,0,.146-.023Zm-.775-1.489a.6.6,0,0,1-.236.1q-.146.031-.306.05t-.323.045a1.191,1.191,0,0,0-.292.081.53.53,0,0,0-.211.159.445.445,0,0,0-.081.282.384.384,0,0,0,.048.2.4.4,0,0,0,.124.131A.521.521,0,0,0,567,40.6a.99.99,0,0,0,.213.022,1.136,1.136,0,0,0,.4-.064.852.852,0,0,0,.275-.162.642.642,0,0,0,.157-.213.535.535,0,0,0,.051-.215Z" transform="translate(-548.256 -36.874)" fill="#161515"/><path d="M593.3,38.077v.461h.011a1.006,1.006,0,0,1,.944-.528,1.262,1.262,0,0,1,.478.079.787.787,0,0,1,.309.219.816.816,0,0,1,.166.334,1.8,1.8,0,0,1,.048.43v1.911h-.478V39.015a.577.577,0,0,0-.157-.427.585.585,0,0,0-.433-.157.972.972,0,0,0-.379.067.711.711,0,0,0-.267.191.826.826,0,0,0-.16.289,1.176,1.176,0,0,0-.053.363v1.641h-.478V38.077Z" transform="translate(-571.765 -36.874)" fill="#161515"/><path d="M631.238,29.327l1.568,4.012h-.59l-.438-1.208h-1.7l-.45,1.208h-.545l1.562-4.012Zm.371,2.354-.669-1.871h-.011l-.68,1.871Z" transform="translate(-603.66 -29.231)" fill="#161515"/><path d="M663.553,38.582a.725.725,0,0,0-.483-.152.89.89,0,0,0-.433.1.772.772,0,0,0-.278.253,1.067,1.067,0,0,0-.149.363,1.979,1.979,0,0,0-.045.424,1.615,1.615,0,0,0,.048.393,1.049,1.049,0,0,0,.149.34.753.753,0,0,0,.264.239.791.791,0,0,0,.388.09.781.781,0,0,0,.553-.185.837.837,0,0,0,.244-.523h.489a1.338,1.338,0,0,1-.4.832,1.262,1.262,0,0,1-.879.292,1.512,1.512,0,0,1-.587-.107,1.139,1.139,0,0,1-.427-.3,1.311,1.311,0,0,1-.258-.469,1.958,1.958,0,0,1-.087-.6,2.133,2.133,0,0,1,.084-.61,1.406,1.406,0,0,1,.256-.494,1.2,1.2,0,0,1,.43-.332,1.408,1.408,0,0,1,.6-.121,1.759,1.759,0,0,1,.464.059,1.133,1.133,0,0,1,.382.183,1,1,0,0,1,.272.312,1.152,1.152,0,0,1,.135.447h-.494A.728.728,0,0,0,663.553,38.582Z" transform="translate(-632.333 -36.874)" fill="#161515"/><path d="M689.78,40.97a.677.677,0,0,1-.343.073.411.411,0,0,1-.295-.1.452.452,0,0,1-.11-.34,1.143,1.143,0,0,1-.458.34,1.581,1.581,0,0,1-.938.059.865.865,0,0,1-.306-.14.674.674,0,0,1-.205-.25.841.841,0,0,1-.076-.374.856.856,0,0,1,.084-.4.736.736,0,0,1,.222-.256,1.02,1.02,0,0,1,.315-.149q.177-.051.362-.084t.374-.059a2.079,2.079,0,0,0,.312-.056.519.519,0,0,0,.214-.107.261.261,0,0,0,.079-.205.478.478,0,0,0-.059-.253.405.405,0,0,0-.152-.146.617.617,0,0,0-.208-.067,1.584,1.584,0,0,0-.228-.017,1.01,1.01,0,0,0-.506.115.489.489,0,0,0-.219.435h-.478a1.03,1.03,0,0,1,.112-.455.852.852,0,0,1,.27-.3,1.131,1.131,0,0,1,.385-.166,2.029,2.029,0,0,1,.464-.051,2.727,2.727,0,0,1,.391.028,1.023,1.023,0,0,1,.351.115.675.675,0,0,1,.253.244.78.78,0,0,1,.1.409V40.3a1.1,1.1,0,0,0,.02.247q.02.079.132.079a.576.576,0,0,0,.146-.023ZM689,39.481a.6.6,0,0,1-.236.1q-.146.031-.306.05t-.323.045a1.2,1.2,0,0,0-.292.081.529.529,0,0,0-.211.159.443.443,0,0,0-.082.282.386.386,0,0,0,.048.2.4.4,0,0,0,.124.131.518.518,0,0,0,.177.073.992.992,0,0,0,.214.022,1.136,1.136,0,0,0,.4-.064.852.852,0,0,0,.275-.162.641.641,0,0,0,.157-.213.533.533,0,0,0,.051-.215Z" transform="translate(-654.683 -36.874)" fill="#161515"/><path d="M714.717,33.339v-.393h-.011a.7.7,0,0,1-.371.348,1.415,1.415,0,0,1-.556.107,1.312,1.312,0,0,1-.587-.124,1.207,1.207,0,0,1-.416-.332,1.444,1.444,0,0,1-.25-.483,1.987,1.987,0,0,1-.084-.584,2.045,2.045,0,0,1,.082-.584,1.375,1.375,0,0,1,.247-.48,1.2,1.2,0,0,1,.416-.326,1.323,1.323,0,0,1,.582-.121,1.43,1.43,0,0,1,.242.023,1.237,1.237,0,0,1,.258.076,1.1,1.1,0,0,1,.244.14.776.776,0,0,1,.194.216h.011V29.327h.478v4.012ZM713,32.308a1.07,1.07,0,0,0,.163.346.8.8,0,0,0,.281.242.852.852,0,0,0,.4.09.789.789,0,0,0,.686-.346,1.049,1.049,0,0,0,.155-.351,1.69,1.69,0,0,0,.048-.4,1.673,1.673,0,0,0-.051-.413,1.022,1.022,0,0,0-.16-.351.819.819,0,0,0-.284-.244.887.887,0,0,0-.421-.093.82.82,0,0,0-.41.1.762.762,0,0,0-.27.253,1.1,1.1,0,0,0-.146.36,1.9,1.9,0,0,0-.045.416A1.482,1.482,0,0,0,713,32.308Z" transform="translate(-677.035 -29.231)" fill="#161515"/><path d="M742.674,40.8a1.319,1.319,0,0,1-.82.247,1.491,1.491,0,0,1-.6-.112,1.189,1.189,0,0,1-.43-.315,1.338,1.338,0,0,1-.261-.483,2.326,2.326,0,0,1-.1-.613,1.753,1.753,0,0,1,.1-.607,1.454,1.454,0,0,1,.284-.478,1.288,1.288,0,0,1,.433-.315,1.322,1.322,0,0,1,.548-.112,1.191,1.191,0,0,1,.643.16,1.272,1.272,0,0,1,.41.407,1.614,1.614,0,0,1,.214.539,2.314,2.314,0,0,1,.048.556h-2.174a1.151,1.151,0,0,0,.045.362.819.819,0,0,0,.163.3.8.8,0,0,0,.287.211.988.988,0,0,0,.41.079.826.826,0,0,0,.5-.141.679.679,0,0,0,.256-.427h.472A1.161,1.161,0,0,1,742.674,40.8Zm-.115-1.866a.813.813,0,0,0-.761-.5.833.833,0,0,0-.334.065.772.772,0,0,0-.256.177.847.847,0,0,0-.169.261,1,1,0,0,0-.073.318h1.669A.985.985,0,0,0,742.559,38.931Z" transform="translate(-701.7 -36.874)" fill="#161515"/><path d="M767.615,38.077V38.5h.011a1.132,1.132,0,0,1,1.427-.382.629.629,0,0,1,.309.382,1.015,1.015,0,0,1,.385-.365,1.087,1.087,0,0,1,.525-.129,1.525,1.525,0,0,1,.4.048.824.824,0,0,1,.3.149.676.676,0,0,1,.2.261.953.953,0,0,1,.07.385v2.13h-.478v-1.9a1.369,1.369,0,0,0-.022-.253.52.52,0,0,0-.084-.205.421.421,0,0,0-.172-.138.68.68,0,0,0-.284-.051.752.752,0,0,0-.556.2.729.729,0,0,0-.2.539v1.809h-.478v-1.9a1.231,1.231,0,0,0-.025-.258.549.549,0,0,0-.087-.205.407.407,0,0,0-.166-.135.642.642,0,0,0-.267-.048.713.713,0,0,0-.357.084.808.808,0,0,0-.377.447.692.692,0,0,0-.042.211v1.809h-.478V38.077Z" transform="translate(-725.209 -36.874)" fill="#161515"/><path d="M806.216,41.866a3.057,3.057,0,0,1-.166.36.986.986,0,0,1-.18.239.61.61,0,0,1-.219.135.843.843,0,0,1-.278.042,1.268,1.268,0,0,1-.169-.011.8.8,0,0,1-.163-.039v-.438a.809.809,0,0,0,.143.048.607.607,0,0,0,.138.02.411.411,0,0,0,.244-.07.432.432,0,0,0,.149-.2l.2-.489-1.152-2.888h.54l.849,2.377h.011l.815-2.377h.506Z" transform="translate(-758.302 -37.371)" fill="#161515"/><path d="M843.055,38.933a1.354,1.354,0,0,1,.27-.483,1.272,1.272,0,0,1,.444-.323,1.626,1.626,0,0,1,1.216,0,1.277,1.277,0,0,1,.441.323,1.355,1.355,0,0,1,.27.483,1.937,1.937,0,0,1,.09.6,1.911,1.911,0,0,1-.09.6,1.359,1.359,0,0,1-.27.48,1.246,1.246,0,0,1-.441.32,1.664,1.664,0,0,1-1.216,0,1.241,1.241,0,0,1-.444-.32,1.358,1.358,0,0,1-.27-.48,1.907,1.907,0,0,1-.09-.6A1.933,1.933,0,0,1,843.055,38.933ZM843.541,40a.98.98,0,0,0,.194.343.836.836,0,0,0,.289.211.881.881,0,0,0,.7,0,.839.839,0,0,0,.289-.211A.979.979,0,0,0,845.21,40a1.6,1.6,0,0,0,0-.939,1.011,1.011,0,0,0-.194-.346.827.827,0,0,0-.289-.213.881.881,0,0,0-.7,0,.825.825,0,0,0-.289.213,1.013,1.013,0,0,0-.194.346,1.605,1.605,0,0,0,0,.939Z" transform="translate(-791.933 -36.874)" fill="#161515"/><path d="M868.967,30.524V30.1h.489V29.67a.681.681,0,0,1,.205-.537.874.874,0,0,1,.6-.183,1.214,1.214,0,0,1,.154.011.827.827,0,0,1,.155.034v.416a.592.592,0,0,0-.135-.031,1.209,1.209,0,0,0-.135-.008.464.464,0,0,0-.27.067.3.3,0,0,0-.1.258v.4h.562v.421h-.562v2.484h-.478V30.524Z" transform="translate(-814.822 -28.9)" fill="#161515"/><path d="M897.591,29.327l1.568,4.012h-.59l-.438-1.208h-1.7l-.449,1.208h-.545L897,29.327Zm.371,2.354-.669-1.871h-.011l-.68,1.871Z" transform="translate(-838.125 -29.231)" fill="#161515"/><path d="M931.28,41.478v-.461h-.011a.976.976,0,0,1-.388.4,1.163,1.163,0,0,1-.556.126,1.3,1.3,0,0,1-.478-.076.761.761,0,0,1-.309-.216.813.813,0,0,1-.166-.334,1.8,1.8,0,0,1-.048-.43v-1.91h.478V40.54a.577.577,0,0,0,.157.427.585.585,0,0,0,.433.157.975.975,0,0,0,.379-.067.712.712,0,0,0,.267-.191.824.824,0,0,0,.16-.289,1.177,1.177,0,0,0,.053-.362V38.573h.478v2.905Z" transform="translate(-867.953 -37.371)" fill="#161515"/><path d="M956.569,33.339v-.393h-.011a.7.7,0,0,1-.371.348,1.415,1.415,0,0,1-.556.107,1.313,1.313,0,0,1-.587-.124,1.208,1.208,0,0,1-.416-.332,1.443,1.443,0,0,1-.25-.483,1.987,1.987,0,0,1-.084-.584,2.049,2.049,0,0,1,.081-.584,1.374,1.374,0,0,1,.247-.48,1.194,1.194,0,0,1,.416-.326,1.324,1.324,0,0,1,.582-.121,1.429,1.429,0,0,1,.241.023,1.234,1.234,0,0,1,.258.076,1.1,1.1,0,0,1,.245.14.774.774,0,0,1,.194.216h.011V29.327h.478v4.012Zm-1.717-1.031a1.067,1.067,0,0,0,.163.346.8.8,0,0,0,.281.242.852.852,0,0,0,.4.09.788.788,0,0,0,.686-.346,1.05,1.05,0,0,0,.155-.351,1.7,1.7,0,0,0,0-.812,1.021,1.021,0,0,0-.16-.351.818.818,0,0,0-.284-.244.888.888,0,0,0-.422-.093.819.819,0,0,0-.41.1.76.76,0,0,0-.27.253,1.1,1.1,0,0,0-.146.36,1.9,1.9,0,0,0-.045.416A1.489,1.489,0,0,0,954.852,32.308Z" transform="translate(-889.932 -29.231)" fill="#161515"/><path d="M983.863,29.911v-.584h.478v.584Zm.478.523v2.905h-.478V30.434Z" transform="translate(-915.962 -29.231)" fill="#161515"/><path d="M993.01,38.933a1.353,1.353,0,0,1,.27-.483,1.27,1.27,0,0,1,.444-.323,1.626,1.626,0,0,1,1.217,0,1.278,1.278,0,0,1,.441.323,1.357,1.357,0,0,1,.27.483,1.939,1.939,0,0,1,.09.6,1.912,1.912,0,0,1-.09.6,1.362,1.362,0,0,1-.27.48,1.247,1.247,0,0,1-.441.32,1.664,1.664,0,0,1-1.217,0,1.24,1.24,0,0,1-.444-.32,1.357,1.357,0,0,1-.27-.48,1.909,1.909,0,0,1-.09-.6A1.935,1.935,0,0,1,993.01,38.933ZM993.5,40a.981.981,0,0,0,.194.343.838.838,0,0,0,.289.211.881.881,0,0,0,.7,0,.84.84,0,0,0,.289-.211.978.978,0,0,0,.194-.343,1.6,1.6,0,0,0,0-.939,1.01,1.01,0,0,0-.194-.346.828.828,0,0,0-.289-.213.881.881,0,0,0-.7,0,.826.826,0,0,0-.289.213,1.014,1.014,0,0,0-.194.346,1.605,1.605,0,0,0,0,.939Z" transform="translate(-923.935 -36.874)" fill="#161515"/><path d="M1022.075,29.327v4.012h-.478V29.327Z" transform="translate(-949.178 -29.231)" fill="#161515"/><path d="M1030.745,38.933a1.354,1.354,0,0,1,.27-.483,1.272,1.272,0,0,1,.444-.323,1.626,1.626,0,0,1,1.217,0,1.278,1.278,0,0,1,.441.323,1.356,1.356,0,0,1,.27.483,1.935,1.935,0,0,1,.09.6,1.909,1.909,0,0,1-.09.6,1.36,1.36,0,0,1-.27.48,1.246,1.246,0,0,1-.441.32,1.664,1.664,0,0,1-1.217,0,1.242,1.242,0,0,1-.444-.32,1.358,1.358,0,0,1-.27-.48,1.909,1.909,0,0,1-.09-.6A1.935,1.935,0,0,1,1030.745,38.933Zm.486,1.068a.98.98,0,0,0,.194.343.84.84,0,0,0,.289.211.881.881,0,0,0,.7,0,.84.84,0,0,0,.289-.211A.986.986,0,0,0,1032.9,40a1.606,1.606,0,0,0,0-.939,1.019,1.019,0,0,0-.194-.346.828.828,0,0,0-.289-.213.881.881,0,0,0-.7,0,.828.828,0,0,0-.289.213,1.012,1.012,0,0,0-.194.346,1.6,1.6,0,0,0,0,.939Z" transform="translate(-957.152 -36.874)" fill="#161515"/><path d="M1060.122,41.8a1.327,1.327,0,0,1-1.023.354,1.98,1.98,0,0,1-.413-.045,1.268,1.268,0,0,1-.382-.146.89.89,0,0,1-.284-.264.751.751,0,0,1-.124-.4h.478a.354.354,0,0,0,.081.219.6.6,0,0,0,.186.146.9.9,0,0,0,.239.082,1.3,1.3,0,0,0,.247.025.886.886,0,0,0,.4-.081.748.748,0,0,0,.27-.225.926.926,0,0,0,.155-.346,1.93,1.93,0,0,0,.048-.444v-.191h-.011a.8.8,0,0,1-.374.4,1.162,1.162,0,0,1-.531.126,1.28,1.28,0,0,1-.568-.118,1.187,1.187,0,0,1-.4-.318,1.347,1.347,0,0,1-.245-.466,1.922,1.922,0,0,1-.081-.565,2.2,2.2,0,0,1,.067-.531,1.45,1.45,0,0,1,.225-.494,1.231,1.231,0,0,1,.416-.365,1.293,1.293,0,0,1,.635-.143,1.073,1.073,0,0,1,.506.121.853.853,0,0,1,.36.363H1060v-.416h.45v2.658A1.53,1.53,0,0,1,1060.122,41.8Zm-.61-1.306a.785.785,0,0,0,.267-.258,1.184,1.184,0,0,0,.149-.362,1.762,1.762,0,0,0,.048-.4,1.589,1.589,0,0,0-.045-.376,1.049,1.049,0,0,0-.143-.334.748.748,0,0,0-.256-.239.759.759,0,0,0-.382-.09.824.824,0,0,0-.393.087.765.765,0,0,0-.267.233.987.987,0,0,0-.152.337,1.644,1.644,0,0,0-.048.4,2.018,2.018,0,0,0,.039.393,1.119,1.119,0,0,0,.135.357.758.758,0,0,0,.253.258.729.729,0,0,0,.393.1A.774.774,0,0,0,1059.512,40.5Z" transform="translate(-981.033 -36.874)" fill="#161515"/><path d="M1085.052,41.866a3.017,3.017,0,0,1-.166.36.984.984,0,0,1-.18.239.611.611,0,0,1-.219.135.842.842,0,0,1-.278.042,1.266,1.266,0,0,1-.168-.011.8.8,0,0,1-.163-.039v-.438a.809.809,0,0,0,.143.048.6.6,0,0,0,.138.02.411.411,0,0,0,.244-.07.433.433,0,0,0,.149-.2l.2-.489-1.152-2.888h.539l.849,2.377H1085l.815-2.377h.506Z" transform="translate(-1003.756 -37.371)" fill="#161515"/><path d="M418.813,80.451v1.54h1.624v-1.54h.882v4.012h-.882V82.732h-1.624v1.731h-.882V80.451Z" transform="translate(-417.785 -74.235)" fill="#161515"/><path d="M452.015,91.327a.817.817,0,0,0,.933.053.5.5,0,0,0,.214-.256h.7a1.333,1.333,0,0,1-.517.747,1.522,1.522,0,0,1-.843.225,1.658,1.658,0,0,1-.618-.11,1.284,1.284,0,0,1-.466-.312,1.4,1.4,0,0,1-.295-.483,1.768,1.768,0,0,1-.1-.618,1.694,1.694,0,0,1,.107-.607,1.4,1.4,0,0,1,.773-.809,1.5,1.5,0,0,1,.6-.118,1.381,1.381,0,0,1,.646.143,1.29,1.29,0,0,1,.452.385,1.584,1.584,0,0,1,.256.551,2.051,2.051,0,0,1,.056.646h-2.1A.806.806,0,0,0,452.015,91.327Zm.9-1.528a.56.56,0,0,0-.435-.157.7.7,0,0,0-.318.065.607.607,0,0,0-.2.16.587.587,0,0,0-.107.2.9.9,0,0,0-.036.191h1.3A.922.922,0,0,0,452.916,89.8Z" transform="translate(-446.912 -81.795)" fill="#161515"/><path d="M478.379,90.012a.926.926,0,0,1,.14-.466.955.955,0,0,1,.315-.3,1.371,1.371,0,0,1,.43-.16,2.443,2.443,0,0,1,.48-.048,3.257,3.257,0,0,1,.444.031,1.365,1.365,0,0,1,.41.121.809.809,0,0,1,.3.25.7.7,0,0,1,.118.424v1.512a3.009,3.009,0,0,0,.023.376.678.678,0,0,0,.079.27h-.809a1.133,1.133,0,0,1-.036-.138,1.17,1.17,0,0,1-.02-.143,1.041,1.041,0,0,1-.45.275,1.805,1.805,0,0,1-.528.079,1.424,1.424,0,0,1-.388-.051.885.885,0,0,1-.315-.157.732.732,0,0,1-.211-.27.912.912,0,0,1-.076-.388.847.847,0,0,1,.087-.407.728.728,0,0,1,.225-.256,1,1,0,0,1,.315-.143,3.4,3.4,0,0,1,.357-.076q.18-.028.354-.045a2.145,2.145,0,0,0,.309-.051.538.538,0,0,0,.213-.1.216.216,0,0,0,.073-.188.423.423,0,0,0-.042-.205.312.312,0,0,0-.112-.118.446.446,0,0,0-.163-.056,1.337,1.337,0,0,0-.2-.014.6.6,0,0,0-.371.1.452.452,0,0,0-.157.337Zm1.843.59a.358.358,0,0,1-.126.07,1.313,1.313,0,0,1-.163.042q-.087.017-.183.028t-.191.028a1.432,1.432,0,0,0-.177.045.523.523,0,0,0-.152.076.36.36,0,0,0-.1.121.389.389,0,0,0-.039.185.375.375,0,0,0,.039.18.3.3,0,0,0,.107.115.451.451,0,0,0,.157.059,1,1,0,0,0,.185.017.7.7,0,0,0,.365-.079.526.526,0,0,0,.191-.188.6.6,0,0,0,.076-.222,1.534,1.534,0,0,0,.014-.18Z" transform="translate(-470.917 -81.795)" fill="#161515"/><path d="M507.208,89.119v.539h.011a.979.979,0,0,1,.152-.25,1,1,0,0,1,.219-.2,1.073,1.073,0,0,1,.264-.127.954.954,0,0,1,.292-.045.626.626,0,0,1,.174.028v.742q-.056-.011-.135-.02a1.423,1.423,0,0,0-.152-.009.85.85,0,0,0-.371.073.642.642,0,0,0-.244.2.8.8,0,0,0-.132.295,1.6,1.6,0,0,0-.039.365v1.309h-.8V89.119Z" transform="translate(-495.705 -81.795)" fill="#161515"/><path d="M525.2,84.092a.822.822,0,0,1-.368.34,1.223,1.223,0,0,1-.514.1,1.242,1.242,0,0,1-.573-.126,1.15,1.15,0,0,1-.407-.343,1.551,1.551,0,0,1-.242-.5,2.088,2.088,0,0,1-.081-.584,1.961,1.961,0,0,1,.081-.565,1.466,1.466,0,0,1,.242-.48,1.173,1.173,0,0,1,.964-.461,1.143,1.143,0,0,1,.492.11.856.856,0,0,1,.368.323h.011V80.451h.8v4.012h-.759v-.371Zm-.034-1.436a.847.847,0,0,0-.115-.292.651.651,0,0,0-.211-.205.618.618,0,0,0-.326-.079.649.649,0,0,0-.332.079.622.622,0,0,0-.216.208.918.918,0,0,0-.118.3,1.6,1.6,0,0,0-.037.346,1.481,1.481,0,0,0,.039.337.921.921,0,0,0,.126.3.7.7,0,0,0,.219.214.592.592,0,0,0,.318.082.631.631,0,0,0,.329-.079.6.6,0,0,0,.211-.211.945.945,0,0,0,.112-.3A1.773,1.773,0,0,0,525.2,83,1.731,1.731,0,0,0,525.169,82.657Z" transform="translate(-510.29 -74.235)" fill="#161515"/><path d="M554.077,106.734v.865H553.2v-.865Z" transform="translate(-536.855 -97.371)" fill="#161515"/><path d="M582.915,84.157a2.209,2.209,0,0,1-2.52,0,1.534,1.534,0,0,1-.447-1.214V80.451h.882v2.495a1.81,1.81,0,0,0,.028.32.623.623,0,0,0,.368.475,1.017,1.017,0,0,0,.43.076.827.827,0,0,0,.652-.211,1,1,0,0,0,.18-.66V80.451h.882v2.495A1.52,1.52,0,0,1,582.915,84.157Z" transform="translate(-560.405 -74.235)" fill="#161515"/><path d="M615.111,89.119v.4h.017a.916.916,0,0,1,.393-.368,1.138,1.138,0,0,1,.495-.115,1.358,1.358,0,0,1,.525.087.781.781,0,0,1,.323.242.936.936,0,0,1,.166.376,2.354,2.354,0,0,1,.048.492v1.787h-.8V90.383a1.018,1.018,0,0,0-.112-.537.435.435,0,0,0-.4-.177.553.553,0,0,0-.472.194,1.078,1.078,0,0,0-.146.638v1.523h-.8V89.119Z" transform="translate(-590.69 -81.795)" fill="#161515"/><path d="M643.524,84.092a.823.823,0,0,1-.368.34,1.223,1.223,0,0,1-.514.1,1.242,1.242,0,0,1-.573-.126,1.15,1.15,0,0,1-.407-.343,1.551,1.551,0,0,1-.242-.5,2.084,2.084,0,0,1-.081-.584,1.957,1.957,0,0,1,.081-.565,1.466,1.466,0,0,1,.242-.48,1.173,1.173,0,0,1,.964-.461,1.143,1.143,0,0,1,.492.11.857.857,0,0,1,.368.323h.011V80.451h.8v4.012h-.759v-.371Zm-.034-1.436a.847.847,0,0,0-.115-.292.651.651,0,0,0-.211-.205.618.618,0,0,0-.326-.079.649.649,0,0,0-.332.079.624.624,0,0,0-.216.208.917.917,0,0,0-.118.3,1.6,1.6,0,0,0-.037.346,1.481,1.481,0,0,0,.039.337.921.921,0,0,0,.126.3.7.7,0,0,0,.219.214.592.592,0,0,0,.318.082.632.632,0,0,0,.329-.079.6.6,0,0,0,.211-.211.945.945,0,0,0,.112-.3,1.783,1.783,0,0,0,.034-.348A1.74,1.74,0,0,0,643.49,82.657Z" transform="translate(-614.445 -74.235)" fill="#161515"/><path d="M671.057,91.327a.817.817,0,0,0,.933.053.5.5,0,0,0,.214-.256h.7a1.334,1.334,0,0,1-.517.747,1.522,1.522,0,0,1-.843.225,1.659,1.659,0,0,1-.618-.11,1.284,1.284,0,0,1-.466-.312,1.4,1.4,0,0,1-.295-.483,1.77,1.77,0,0,1-.1-.618,1.694,1.694,0,0,1,.107-.607,1.4,1.4,0,0,1,.773-.809,1.5,1.5,0,0,1,.6-.118,1.381,1.381,0,0,1,.646.143,1.291,1.291,0,0,1,.452.385,1.583,1.583,0,0,1,.256.551,2.054,2.054,0,0,1,.056.646h-2.1A.806.806,0,0,0,671.057,91.327Zm.9-1.528a.56.56,0,0,0-.435-.157.7.7,0,0,0-.318.065.607.607,0,0,0-.2.16.587.587,0,0,0-.107.2.9.9,0,0,0-.036.191h1.3A.922.922,0,0,0,671.958,89.8Z" transform="translate(-639.73 -81.795)" fill="#161515"/><path d="M699.122,89.119v.539h.011a.98.98,0,0,1,.152-.25,1,1,0,0,1,.219-.2,1.071,1.071,0,0,1,.264-.127.953.953,0,0,1,.292-.045.626.626,0,0,1,.174.028v.742q-.056-.011-.135-.02a1.424,1.424,0,0,0-.152-.009.851.851,0,0,0-.371.073.642.642,0,0,0-.244.2.8.8,0,0,0-.132.295,1.6,1.6,0,0,0-.039.365v1.309h-.8V89.119Z" transform="translate(-664.643 -81.795)" fill="#161515"/><path d="M716.446,91.3a.463.463,0,0,0,.138.152.592.592,0,0,0,.194.087.91.91,0,0,0,.228.028.859.859,0,0,0,.177-.02.6.6,0,0,0,.168-.062.381.381,0,0,0,.127-.112.3.3,0,0,0,.051-.177q0-.18-.239-.27a4.8,4.8,0,0,0-.666-.18q-.174-.039-.34-.093a1.154,1.154,0,0,1-.3-.141.682.682,0,0,1-.208-.219.62.62,0,0,1-.079-.323.873.873,0,0,1,.11-.461.807.807,0,0,1,.289-.284,1.272,1.272,0,0,1,.4-.146,2.491,2.491,0,0,1,.461-.042,2.306,2.306,0,0,1,.458.045,1.215,1.215,0,0,1,.4.152.911.911,0,0,1,.289.284.954.954,0,0,1,.138.447h-.758a.349.349,0,0,0-.174-.312.8.8,0,0,0-.371-.082,1.377,1.377,0,0,0-.146.008.488.488,0,0,0-.143.037.3.3,0,0,0-.11.082.215.215,0,0,0-.045.143.218.218,0,0,0,.079.174.606.606,0,0,0,.205.11,2.562,2.562,0,0,0,.289.076q.163.034.331.073a3.414,3.414,0,0,1,.34.1,1.126,1.126,0,0,1,.295.149.721.721,0,0,1,.208.23.677.677,0,0,1,.079.34.882.882,0,0,1-.416.792,1.234,1.234,0,0,1-.424.166A2.481,2.481,0,0,1,717,92.1a2.4,2.4,0,0,1-.495-.051,1.3,1.3,0,0,1-.43-.169.963.963,0,0,1-.309-.312.976.976,0,0,1-.132-.486h.758A.436.436,0,0,0,716.446,91.3Z" transform="translate(-679.846 -81.795)" fill="#161515"/><path d="M741.811,83.293v.534h-.585v1.438a.27.27,0,0,0,.337.337c.045,0,.088,0,.129-.006a1.073,1.073,0,0,0,.118-.017V86.2a1.892,1.892,0,0,1-.225.023q-.124.006-.242.006a2.339,2.339,0,0,1-.351-.025.826.826,0,0,1-.292-.1.52.52,0,0,1-.2-.208.743.743,0,0,1-.073-.354V83.827h-.483v-.534h.483v-.871h.8v.871Z" transform="translate(-701.247 -75.97)" fill="#161515"/><path d="M758.262,89.942a1.33,1.33,0,0,1,.776-.792,1.659,1.659,0,0,1,.618-.11,1.682,1.682,0,0,1,.621.11,1.324,1.324,0,0,1,.778.792,1.788,1.788,0,0,1,.107.632,1.764,1.764,0,0,1-.107.629,1.366,1.366,0,0,1-.3.48,1.322,1.322,0,0,1-.475.306,1.722,1.722,0,0,1-.621.107,1.7,1.7,0,0,1-.618-.107,1.324,1.324,0,0,1-.472-.306,1.364,1.364,0,0,1-.3-.48,1.761,1.761,0,0,1-.107-.629A1.785,1.785,0,0,1,758.262,89.942Zm.725.972a.909.909,0,0,0,.115.3.612.612,0,0,0,.216.211.659.659,0,0,0,.337.079.675.675,0,0,0,.34-.079.607.607,0,0,0,.219-.211.909.909,0,0,0,.115-.3,1.711,1.711,0,0,0,.034-.34,1.755,1.755,0,0,0-.034-.343.879.879,0,0,0-.115-.3.64.64,0,0,0-.219-.211.657.657,0,0,0-.34-.082.614.614,0,0,0-.553.292.879.879,0,0,0-.115.3,1.755,1.755,0,0,0-.034.343A1.711,1.711,0,0,0,758.987,90.914Z" transform="translate(-717.276 -81.795)" fill="#161515"/><path d="M787.127,89.942a1.329,1.329,0,0,1,.775-.792,1.659,1.659,0,0,1,.618-.11,1.682,1.682,0,0,1,.621.11,1.323,1.323,0,0,1,.778.792,1.785,1.785,0,0,1,.107.632,1.761,1.761,0,0,1-.107.629,1.367,1.367,0,0,1-.3.48,1.322,1.322,0,0,1-.475.306,1.722,1.722,0,0,1-.621.107,1.7,1.7,0,0,1-.618-.107,1.327,1.327,0,0,1-.472-.306,1.362,1.362,0,0,1-.3-.48,1.759,1.759,0,0,1-.107-.629A1.782,1.782,0,0,1,787.127,89.942Zm.725.972a.908.908,0,0,0,.115.3.612.612,0,0,0,.216.211.659.659,0,0,0,.337.079.674.674,0,0,0,.34-.079.606.606,0,0,0,.219-.211.9.9,0,0,0,.115-.3,1.7,1.7,0,0,0,.034-.34,1.746,1.746,0,0,0-.034-.343.875.875,0,0,0-.115-.3.639.639,0,0,0-.219-.211.656.656,0,0,0-.34-.082.614.614,0,0,0-.553.292.877.877,0,0,0-.115.3,1.75,1.75,0,0,0-.034.343A1.707,1.707,0,0,0,787.852,90.914Z" transform="translate(-742.686 -81.795)" fill="#161515"/><path d="M817.789,84.092a.824.824,0,0,1-.368.34,1.225,1.225,0,0,1-.514.1,1.242,1.242,0,0,1-.573-.126,1.153,1.153,0,0,1-.408-.343,1.552,1.552,0,0,1-.241-.5,2.086,2.086,0,0,1-.082-.584,1.959,1.959,0,0,1,.082-.565,1.466,1.466,0,0,1,.241-.48,1.173,1.173,0,0,1,.964-.461,1.143,1.143,0,0,1,.492.11.858.858,0,0,1,.368.323h.011V80.451h.8v4.012H817.8v-.371Zm-.034-1.436a.849.849,0,0,0-.115-.292.651.651,0,0,0-.211-.205.619.619,0,0,0-.326-.079.648.648,0,0,0-.331.079.623.623,0,0,0-.216.208.921.921,0,0,0-.118.3,1.6,1.6,0,0,0-.036.346,1.477,1.477,0,0,0,.039.337.92.92,0,0,0,.126.3.7.7,0,0,0,.219.214.592.592,0,0,0,.317.082.632.632,0,0,0,.329-.079.6.6,0,0,0,.211-.211.945.945,0,0,0,.112-.3,1.769,1.769,0,0,0,.034-.348A1.726,1.726,0,0,0,817.755,82.657Z" transform="translate(-767.847 -74.235)" fill="#161515"/><path d="M846.664,106.734v.865h-.882v-.865Z" transform="translate(-794.412 -97.371)" fill="#161515"/></g><g transform="translate(0 58.85)"><path d="M2.152,491.554l1.568,4.012H3.13l-.438-1.208H.995l-.45,1.208H0l1.562-4.012Zm.371,2.354-.669-1.871H1.843l-.68,1.871Z" transform="translate(0 -491.554)" fill="#161515"/><path d="M34.466,500.81a.725.725,0,0,0-.483-.152.89.89,0,0,0-.433.1.772.772,0,0,0-.278.253,1.062,1.062,0,0,0-.149.363,1.971,1.971,0,0,0-.045.424,1.615,1.615,0,0,0,.048.393,1.055,1.055,0,0,0,.149.34.753.753,0,0,0,.264.239.79.79,0,0,0,.388.09.782.782,0,0,0,.553-.185.837.837,0,0,0,.244-.522h.489a1.339,1.339,0,0,1-.4.832,1.262,1.262,0,0,1-.879.292,1.513,1.513,0,0,1-.587-.107,1.14,1.14,0,0,1-.427-.3,1.311,1.311,0,0,1-.258-.469,1.954,1.954,0,0,1-.087-.6,2.134,2.134,0,0,1,.084-.61,1.41,1.41,0,0,1,.256-.494,1.2,1.2,0,0,1,.43-.332,1.407,1.407,0,0,1,.6-.121,1.752,1.752,0,0,1,.464.059,1.127,1.127,0,0,1,.382.183,1,1,0,0,1,.273.312,1.153,1.153,0,0,1,.135.447H34.7A.729.729,0,0,0,34.466,500.81Z" transform="translate(-28.672 -499.197)" fill="#161515"/><path d="M60.694,503.2a.677.677,0,0,1-.343.073.411.411,0,0,1-.295-.1.451.451,0,0,1-.11-.34,1.143,1.143,0,0,1-.458.34,1.582,1.582,0,0,1-.939.059.867.867,0,0,1-.306-.14.674.674,0,0,1-.205-.25.842.842,0,0,1-.076-.374.854.854,0,0,1,.084-.4.736.736,0,0,1,.222-.256,1.021,1.021,0,0,1,.315-.149q.177-.05.362-.084t.374-.059a2.074,2.074,0,0,0,.312-.056.519.519,0,0,0,.214-.107.261.261,0,0,0,.079-.205.476.476,0,0,0-.059-.253.407.407,0,0,0-.152-.146.618.618,0,0,0-.208-.067,1.567,1.567,0,0,0-.228-.017,1.011,1.011,0,0,0-.506.115.489.489,0,0,0-.219.436h-.478a1.033,1.033,0,0,1,.112-.455.852.852,0,0,1,.27-.3,1.135,1.135,0,0,1,.385-.166,2.03,2.03,0,0,1,.464-.051,2.728,2.728,0,0,1,.391.028,1.025,1.025,0,0,1,.351.115.673.673,0,0,1,.253.244.78.78,0,0,1,.1.409v1.491a1.1,1.1,0,0,0,.02.247q.02.078.132.078a.576.576,0,0,0,.146-.022Zm-.775-1.489a.6.6,0,0,1-.236.1q-.146.031-.306.05t-.323.045a1.191,1.191,0,0,0-.292.081.528.528,0,0,0-.211.159.444.444,0,0,0-.081.282.385.385,0,0,0,.048.2.4.4,0,0,0,.124.131.523.523,0,0,0,.177.073.991.991,0,0,0,.213.022,1.139,1.139,0,0,0,.4-.064.854.854,0,0,0,.275-.162.641.641,0,0,0,.157-.213.536.536,0,0,0,.051-.215Z" transform="translate(-51.024 -499.197)" fill="#161515"/><path d="M85.63,495.566v-.393h-.011a.7.7,0,0,1-.371.348,1.417,1.417,0,0,1-.556.107,1.311,1.311,0,0,1-.587-.124,1.207,1.207,0,0,1-.416-.332,1.444,1.444,0,0,1-.25-.483,1.988,1.988,0,0,1-.084-.584,2.048,2.048,0,0,1,.082-.584,1.377,1.377,0,0,1,.247-.48,1.194,1.194,0,0,1,.416-.326,1.323,1.323,0,0,1,.582-.121,1.431,1.431,0,0,1,.242.022,1.241,1.241,0,0,1,.258.076,1.106,1.106,0,0,1,.244.141.771.771,0,0,1,.194.216h.011v-1.495h.478v4.012Zm-1.717-1.031a1.069,1.069,0,0,0,.163.346.8.8,0,0,0,.281.242.852.852,0,0,0,.4.09.789.789,0,0,0,.686-.345,1.046,1.046,0,0,0,.154-.351,1.7,1.7,0,0,0,0-.812,1.023,1.023,0,0,0-.16-.351.817.817,0,0,0-.284-.244.886.886,0,0,0-.421-.093.82.82,0,0,0-.41.1.761.761,0,0,0-.27.253,1.1,1.1,0,0,0-.146.36,1.907,1.907,0,0,0-.045.416A1.487,1.487,0,0,0,83.913,494.535Z" transform="translate(-73.375 -491.554)" fill="#161515"/><path d="M113.588,503.024a1.318,1.318,0,0,1-.82.247,1.493,1.493,0,0,1-.6-.112,1.19,1.19,0,0,1-.43-.315,1.335,1.335,0,0,1-.261-.483,2.321,2.321,0,0,1-.1-.612,1.746,1.746,0,0,1,.1-.607,1.449,1.449,0,0,1,.284-.478,1.286,1.286,0,0,1,.433-.315,1.322,1.322,0,0,1,.548-.112,1.191,1.191,0,0,1,.643.16,1.274,1.274,0,0,1,.41.407,1.614,1.614,0,0,1,.214.539,2.319,2.319,0,0,1,.048.556H111.88a1.152,1.152,0,0,0,.045.362.82.82,0,0,0,.163.3.807.807,0,0,0,.287.211.99.99,0,0,0,.41.079.827.827,0,0,0,.5-.14.679.679,0,0,0,.256-.427h.472A1.161,1.161,0,0,1,113.588,503.024Zm-.115-1.866a.82.82,0,0,0-.174-.261.83.83,0,0,0-.258-.174.82.82,0,0,0-.329-.065.834.834,0,0,0-.334.065.775.775,0,0,0-.256.177.846.846,0,0,0-.169.261.991.991,0,0,0-.073.318h1.669A.98.98,0,0,0,113.473,501.159Z" transform="translate(-98.04 -499.197)" fill="#161515"/><path d="M138.528,500.3v.427h.011a1.132,1.132,0,0,1,1.427-.382.63.63,0,0,1,.309.382,1.014,1.014,0,0,1,.385-.365,1.087,1.087,0,0,1,.525-.129,1.53,1.53,0,0,1,.4.048.824.824,0,0,1,.3.149.677.677,0,0,1,.2.261.957.957,0,0,1,.07.385v2.13h-.478v-1.9a1.353,1.353,0,0,0-.023-.253.516.516,0,0,0-.084-.2.419.419,0,0,0-.171-.138.682.682,0,0,0-.284-.051.751.751,0,0,0-.556.2.729.729,0,0,0-.2.539v1.809h-.478v-1.9a1.232,1.232,0,0,0-.025-.258.547.547,0,0,0-.087-.205.407.407,0,0,0-.166-.135.642.642,0,0,0-.267-.048.715.715,0,0,0-.357.084.81.81,0,0,0-.376.447.7.7,0,0,0-.042.211v1.809h-.478V500.3Z" transform="translate(-121.548 -499.197)" fill="#161515"/><path d="M178.536,492.138v-.584h.478v.584Zm.478.523v2.905h-.478v-2.905Z" transform="translate(-157.161 -491.554)" fill="#161515"/><path d="M189.808,503.024a1.318,1.318,0,0,1-.82.247,1.493,1.493,0,0,1-.6-.112,1.188,1.188,0,0,1-.43-.315,1.332,1.332,0,0,1-.261-.483,2.322,2.322,0,0,1-.1-.612,1.747,1.747,0,0,1,.1-.607,1.449,1.449,0,0,1,.284-.478,1.286,1.286,0,0,1,.433-.315,1.322,1.322,0,0,1,.548-.112,1.191,1.191,0,0,1,.643.16,1.274,1.274,0,0,1,.41.407,1.611,1.611,0,0,1,.214.539,2.319,2.319,0,0,1,.048.556H188.1a1.156,1.156,0,0,0,.045.362.819.819,0,0,0,.163.3.805.805,0,0,0,.286.211.991.991,0,0,0,.41.079.827.827,0,0,0,.5-.14.68.68,0,0,0,.256-.427h.472A1.161,1.161,0,0,1,189.808,503.024Zm-.115-1.866a.82.82,0,0,0-.174-.261.83.83,0,0,0-.258-.174.819.819,0,0,0-.329-.065.833.833,0,0,0-.334.065.776.776,0,0,0-.256.177.848.848,0,0,0-.169.261.991.991,0,0,0-.073.318h1.669A.98.98,0,0,0,189.693,501.159Z" transform="translate(-165.135 -499.197)" fill="#161515"/><path d="M228.114,500.81a.725.725,0,0,0-.483-.152.89.89,0,0,0-.433.1.772.772,0,0,0-.278.253,1.064,1.064,0,0,0-.149.363,1.97,1.97,0,0,0-.045.424,1.616,1.616,0,0,0,.048.393,1.05,1.05,0,0,0,.149.34.753.753,0,0,0,.264.239.79.79,0,0,0,.388.09.782.782,0,0,0,.553-.185.837.837,0,0,0,.244-.522h.489a1.338,1.338,0,0,1-.4.832,1.263,1.263,0,0,1-.879.292,1.513,1.513,0,0,1-.587-.107,1.14,1.14,0,0,1-.427-.3,1.313,1.313,0,0,1-.258-.469,1.957,1.957,0,0,1-.087-.6,2.134,2.134,0,0,1,.084-.61,1.409,1.409,0,0,1,.256-.494,1.2,1.2,0,0,1,.43-.332,1.407,1.407,0,0,1,.6-.121,1.753,1.753,0,0,1,.464.059,1.127,1.127,0,0,1,.382.183,1,1,0,0,1,.273.312,1.153,1.153,0,0,1,.135.447h-.495A.728.728,0,0,0,228.114,500.81Z" transform="translate(-199.136 -499.197)" fill="#161515"/><path d="M254.341,503.2a.677.677,0,0,1-.343.073.411.411,0,0,1-.3-.1.451.451,0,0,1-.11-.34,1.142,1.142,0,0,1-.458.34,1.582,1.582,0,0,1-.938.059.867.867,0,0,1-.306-.14.675.675,0,0,1-.205-.25.84.84,0,0,1-.076-.374.855.855,0,0,1,.084-.4.735.735,0,0,1,.222-.256,1.02,1.02,0,0,1,.315-.149q.177-.05.362-.084t.374-.059a2.073,2.073,0,0,0,.312-.056.518.518,0,0,0,.214-.107.261.261,0,0,0,.079-.205.478.478,0,0,0-.059-.253.407.407,0,0,0-.152-.146.617.617,0,0,0-.208-.067,1.566,1.566,0,0,0-.228-.017,1.011,1.011,0,0,0-.506.115.489.489,0,0,0-.219.436h-.478a1.031,1.031,0,0,1,.112-.455.852.852,0,0,1,.27-.3,1.136,1.136,0,0,1,.385-.166,2.03,2.03,0,0,1,.464-.051,2.727,2.727,0,0,1,.391.028,1.026,1.026,0,0,1,.351.115.674.674,0,0,1,.253.244.781.781,0,0,1,.1.409v1.491a1.1,1.1,0,0,0,.02.247q.02.078.132.078a.576.576,0,0,0,.146-.022Zm-.776-1.489a.6.6,0,0,1-.236.1c-.1.021-.2.037-.306.05s-.215.028-.323.045a1.191,1.191,0,0,0-.292.081.527.527,0,0,0-.211.159.444.444,0,0,0-.082.282.386.386,0,0,0,.048.2.4.4,0,0,0,.124.131.521.521,0,0,0,.177.073.992.992,0,0,0,.214.022,1.139,1.139,0,0,0,.4-.064.854.854,0,0,0,.275-.162.639.639,0,0,0,.157-.213.534.534,0,0,0,.051-.215Z" transform="translate(-221.487 -499.197)" fill="#161515"/><path d="M278.766,500.3v.461h.011a1,1,0,0,1,.944-.528,1.257,1.257,0,0,1,.478.079.786.786,0,0,1,.309.219.815.815,0,0,1,.166.334,1.8,1.8,0,0,1,.048.43v1.911h-.478v-1.967a.577.577,0,0,0-.157-.427.585.585,0,0,0-.433-.157.975.975,0,0,0-.379.067.715.715,0,0,0-.267.191.824.824,0,0,0-.16.289,1.175,1.175,0,0,0-.053.362v1.641h-.478V500.3Z" transform="translate(-244.995 -499.197)" fill="#161515"/><path d="M306.016,503.2a.677.677,0,0,1-.343.073.411.411,0,0,1-.295-.1.451.451,0,0,1-.11-.34,1.143,1.143,0,0,1-.458.34,1.582,1.582,0,0,1-.938.059.868.868,0,0,1-.306-.14.675.675,0,0,1-.205-.25.841.841,0,0,1-.076-.374.855.855,0,0,1,.084-.4.735.735,0,0,1,.222-.256,1.017,1.017,0,0,1,.315-.149q.177-.05.362-.084t.374-.059a2.076,2.076,0,0,0,.312-.056.518.518,0,0,0,.214-.107.261.261,0,0,0,.079-.205.477.477,0,0,0-.059-.253.407.407,0,0,0-.152-.146.617.617,0,0,0-.208-.067,1.567,1.567,0,0,0-.228-.017,1.01,1.01,0,0,0-.506.115.489.489,0,0,0-.219.436H303.4a1.031,1.031,0,0,1,.112-.455.852.852,0,0,1,.27-.3,1.134,1.134,0,0,1,.385-.166,2.03,2.03,0,0,1,.464-.051,2.726,2.726,0,0,1,.391.028,1.026,1.026,0,0,1,.351.115.675.675,0,0,1,.253.244.781.781,0,0,1,.1.409v1.491a1.109,1.109,0,0,0,.02.247q.02.078.132.078a.576.576,0,0,0,.146-.022Zm-.776-1.489a.594.594,0,0,1-.236.1q-.146.031-.306.05t-.323.045a1.189,1.189,0,0,0-.292.081.528.528,0,0,0-.211.159.444.444,0,0,0-.081.282.386.386,0,0,0,.048.2.4.4,0,0,0,.124.131.522.522,0,0,0,.177.073.991.991,0,0,0,.214.022,1.139,1.139,0,0,0,.4-.064.855.855,0,0,0,.275-.162.639.639,0,0,0,.157-.213.534.534,0,0,0,.051-.215Z" transform="translate(-266.975 -499.197)" fill="#161515"/><path d="M330.952,495.566v-.393h-.011a.7.7,0,0,1-.371.348,1.417,1.417,0,0,1-.556.107,1.312,1.312,0,0,1-.587-.124,1.207,1.207,0,0,1-.416-.332,1.445,1.445,0,0,1-.25-.483,1.988,1.988,0,0,1-.084-.584,2.048,2.048,0,0,1,.081-.584,1.376,1.376,0,0,1,.247-.48,1.194,1.194,0,0,1,.416-.326,1.323,1.323,0,0,1,.582-.121,1.431,1.431,0,0,1,.242.022,1.241,1.241,0,0,1,.259.076,1.109,1.109,0,0,1,.244.141.774.774,0,0,1,.194.216h.011v-1.495h.478v4.012Zm-1.717-1.031a1.069,1.069,0,0,0,.163.346.8.8,0,0,0,.281.242.851.851,0,0,0,.4.09.789.789,0,0,0,.686-.345,1.051,1.051,0,0,0,.155-.351,1.7,1.7,0,0,0,.048-.4,1.673,1.673,0,0,0-.051-.413,1.021,1.021,0,0,0-.16-.351.816.816,0,0,0-.284-.244.886.886,0,0,0-.421-.093.82.82,0,0,0-.41.1.762.762,0,0,0-.27.253,1.1,1.1,0,0,0-.146.36,1.905,1.905,0,0,0-.045.416A1.484,1.484,0,0,0,329.235,494.535Z" transform="translate(-289.326 -491.554)" fill="#161515"/><path d="M358.244,492.138v-.584h.478v.584Zm.478.523v2.905h-.478v-2.905Z" transform="translate(-315.354 -491.554)" fill="#161515"/><path d="M369.517,503.024a1.318,1.318,0,0,1-.82.247,1.493,1.493,0,0,1-.6-.112,1.188,1.188,0,0,1-.43-.315,1.336,1.336,0,0,1-.261-.483,2.324,2.324,0,0,1-.1-.612,1.752,1.752,0,0,1,.1-.607,1.45,1.45,0,0,1,.284-.478,1.286,1.286,0,0,1,.433-.315,1.322,1.322,0,0,1,.548-.112,1.191,1.191,0,0,1,.643.16,1.272,1.272,0,0,1,.41.407,1.614,1.614,0,0,1,.214.539,2.313,2.313,0,0,1,.048.556h-2.175a1.153,1.153,0,0,0,.045.362.822.822,0,0,0,.163.3.807.807,0,0,0,.286.211.991.991,0,0,0,.41.079.826.826,0,0,0,.5-.14.68.68,0,0,0,.256-.427h.472A1.161,1.161,0,0,1,369.517,503.024Zm-.115-1.866a.82.82,0,0,0-.174-.261.83.83,0,0,0-.258-.174.819.819,0,0,0-.329-.065.833.833,0,0,0-.334.065.777.777,0,0,0-.256.177.846.846,0,0,0-.169.261,1,1,0,0,0-.073.318h1.669A.983.983,0,0,0,369.4,501.159Z" transform="translate(-323.329 -499.197)" fill="#161515"/><path d="M394.458,500.3v.461h.011a1.006,1.006,0,0,1,.944-.528,1.257,1.257,0,0,1,.478.079.788.788,0,0,1,.309.219.813.813,0,0,1,.166.334,1.8,1.8,0,0,1,.048.43v1.911h-.478v-1.967a.577.577,0,0,0-.157-.427.585.585,0,0,0-.433-.157.974.974,0,0,0-.379.067.714.714,0,0,0-.267.191.826.826,0,0,0-.16.289,1.179,1.179,0,0,0-.053.362v1.641h-.478V500.3Z" transform="translate(-346.836 -499.197)" fill="#161515"/><path d="M420.741,500.3v.461h.011a1,1,0,0,1,.944-.528,1.258,1.258,0,0,1,.478.079.788.788,0,0,1,.309.219.814.814,0,0,1,.166.334,1.8,1.8,0,0,1,.048.43v1.911h-.478v-1.967a.577.577,0,0,0-.157-.427.585.585,0,0,0-.433-.157.975.975,0,0,0-.379.067.714.714,0,0,0-.267.191.824.824,0,0,0-.16.289,1.174,1.174,0,0,0-.054.362v1.641h-.478V500.3Z" transform="translate(-369.973 -499.197)" fill="#161515"/><path d="M447.474,503.024a1.318,1.318,0,0,1-.82.247,1.493,1.493,0,0,1-.6-.112,1.188,1.188,0,0,1-.43-.315,1.336,1.336,0,0,1-.261-.483,2.327,2.327,0,0,1-.1-.612,1.751,1.751,0,0,1,.1-.607,1.451,1.451,0,0,1,.284-.478,1.286,1.286,0,0,1,.433-.315,1.322,1.322,0,0,1,.548-.112,1.191,1.191,0,0,1,.643.16,1.272,1.272,0,0,1,.41.407,1.613,1.613,0,0,1,.214.539,2.313,2.313,0,0,1,.048.556h-2.174a1.152,1.152,0,0,0,.045.362.822.822,0,0,0,.163.3.807.807,0,0,0,.286.211.991.991,0,0,0,.41.079.827.827,0,0,0,.5-.14.68.68,0,0,0,.256-.427h.472A1.161,1.161,0,0,1,447.474,503.024Zm-.115-1.866a.82.82,0,0,0-.174-.261.83.83,0,0,0-.258-.174.819.819,0,0,0-.329-.065.833.833,0,0,0-.334.065.776.776,0,0,0-.256.177.846.846,0,0,0-.169.261,1,1,0,0,0-.073.318h1.669A.983.983,0,0,0,447.359,501.159Z" transform="translate(-391.952 -499.197)" fill="#161515"/><path d="M486.163,495.566v-.393h-.011a.7.7,0,0,1-.371.348,1.417,1.417,0,0,1-.556.107,1.312,1.312,0,0,1-.587-.124,1.208,1.208,0,0,1-.416-.332,1.444,1.444,0,0,1-.25-.483,1.988,1.988,0,0,1-.084-.584,2.048,2.048,0,0,1,.081-.584,1.377,1.377,0,0,1,.247-.48,1.194,1.194,0,0,1,.416-.326,1.324,1.324,0,0,1,.582-.121,1.428,1.428,0,0,1,.241.022,1.239,1.239,0,0,1,.259.076,1.11,1.11,0,0,1,.244.141.774.774,0,0,1,.194.216h.011v-1.495h.478v4.012Zm-1.717-1.031a1.069,1.069,0,0,0,.163.346.8.8,0,0,0,.281.242.852.852,0,0,0,.4.09.789.789,0,0,0,.686-.345,1.052,1.052,0,0,0,.155-.351,1.7,1.7,0,0,0,.048-.4,1.673,1.673,0,0,0-.051-.413,1.021,1.021,0,0,0-.16-.351.816.816,0,0,0-.284-.244.885.885,0,0,0-.421-.093.819.819,0,0,0-.41.1.762.762,0,0,0-.27.253,1.1,1.1,0,0,0-.146.36,1.907,1.907,0,0,0-.045.416A1.483,1.483,0,0,0,484.446,494.535Z" transform="translate(-425.955 -491.554)" fill="#161515"/><path d="M514.736,491.554v.624a1.328,1.328,0,0,1-.037.318.8.8,0,0,1-.112.261.584.584,0,0,1-.191.18.542.542,0,0,1-.278.067v-.281a.25.25,0,0,0,.157-.048.36.36,0,0,0,.1-.126.579.579,0,0,0,.053-.177,1.393,1.393,0,0,0,.014-.194h-.332v-.624Z" transform="translate(-452.561 -491.554)" fill="#161515"/><path d="M527.873,503.2a.676.676,0,0,1-.343.073.411.411,0,0,1-.295-.1.452.452,0,0,1-.109-.34,1.143,1.143,0,0,1-.458.34,1.582,1.582,0,0,1-.938.059.868.868,0,0,1-.306-.14.676.676,0,0,1-.205-.25.843.843,0,0,1-.076-.374.854.854,0,0,1,.084-.4.735.735,0,0,1,.222-.256,1.02,1.02,0,0,1,.315-.149q.177-.05.362-.084t.374-.059a2.076,2.076,0,0,0,.312-.056.518.518,0,0,0,.214-.107.261.261,0,0,0,.079-.205.478.478,0,0,0-.059-.253.408.408,0,0,0-.152-.146.618.618,0,0,0-.208-.067,1.566,1.566,0,0,0-.228-.017,1.011,1.011,0,0,0-.506.115.489.489,0,0,0-.219.436h-.478a1.031,1.031,0,0,1,.113-.455.85.85,0,0,1,.27-.3,1.135,1.135,0,0,1,.385-.166,2.03,2.03,0,0,1,.464-.051,2.727,2.727,0,0,1,.391.028,1.026,1.026,0,0,1,.351.115.674.674,0,0,1,.253.244.78.78,0,0,1,.1.409v1.491a1.113,1.113,0,0,0,.02.247q.02.078.132.078a.576.576,0,0,0,.146-.022Zm-.775-1.489a.6.6,0,0,1-.236.1q-.146.031-.306.05t-.323.045a1.189,1.189,0,0,0-.292.081.527.527,0,0,0-.211.159.444.444,0,0,0-.082.282.385.385,0,0,0,.048.2.4.4,0,0,0,.124.131.522.522,0,0,0,.177.073.994.994,0,0,0,.214.022,1.139,1.139,0,0,0,.4-.064.854.854,0,0,0,.275-.162.642.642,0,0,0,.157-.213.536.536,0,0,0,.051-.215Z" transform="translate(-462.271 -499.197)" fill="#161515"/><path d="M553.8,503.705v-.461h-.011a.976.976,0,0,1-.388.4,1.164,1.164,0,0,1-.556.126,1.3,1.3,0,0,1-.478-.076.761.761,0,0,1-.309-.216.814.814,0,0,1-.166-.334,1.8,1.8,0,0,1-.048-.43V500.8h.478v1.967a.577.577,0,0,0,.157.427.585.585,0,0,0,.433.157.976.976,0,0,0,.379-.067.713.713,0,0,0,.267-.191.826.826,0,0,0,.16-.289,1.176,1.176,0,0,0,.053-.362V500.8h.478v2.905Z" transform="translate(-485.779 -499.693)" fill="#161515"/><path d="M579.092,495.566v-.393h-.011a.7.7,0,0,1-.371.348,1.418,1.418,0,0,1-.556.107,1.312,1.312,0,0,1-.587-.124,1.207,1.207,0,0,1-.416-.332,1.445,1.445,0,0,1-.25-.483,1.988,1.988,0,0,1-.084-.584,2.047,2.047,0,0,1,.082-.584,1.375,1.375,0,0,1,.247-.48,1.194,1.194,0,0,1,.416-.326,1.324,1.324,0,0,1,.582-.121,1.429,1.429,0,0,1,.241.022,1.236,1.236,0,0,1,.258.076,1.1,1.1,0,0,1,.245.141.772.772,0,0,1,.194.216h.011v-1.495h.478v4.012Zm-1.717-1.031a1.068,1.068,0,0,0,.163.346.8.8,0,0,0,.281.242.852.852,0,0,0,.4.09.789.789,0,0,0,.686-.345,1.047,1.047,0,0,0,.155-.351,1.7,1.7,0,0,0,0-.812,1.024,1.024,0,0,0-.16-.351.816.816,0,0,0-.284-.244.886.886,0,0,0-.422-.093.819.819,0,0,0-.41.1.76.76,0,0,0-.27.253,1.1,1.1,0,0,0-.146.36,1.905,1.905,0,0,0-.045.416A1.484,1.484,0,0,0,577.375,494.535Z" transform="translate(-507.758 -491.554)" fill="#161515"/><path d="M606.385,492.138v-.584h.478v.584Zm.478.523v2.905h-.478v-2.905Z" transform="translate(-533.787 -491.554)" fill="#161515"/><path d="M615.532,501.161a1.356,1.356,0,0,1,.27-.483,1.271,1.271,0,0,1,.444-.323,1.627,1.627,0,0,1,1.216,0,1.278,1.278,0,0,1,.441.323,1.36,1.36,0,0,1,.27.483,1.937,1.937,0,0,1,.09.6,1.91,1.91,0,0,1-.09.6,1.362,1.362,0,0,1-.27.48,1.248,1.248,0,0,1-.441.32,1.665,1.665,0,0,1-1.216,0,1.242,1.242,0,0,1-.444-.32,1.358,1.358,0,0,1-.27-.48,1.906,1.906,0,0,1-.09-.6A1.933,1.933,0,0,1,615.532,501.161Zm.486,1.068a.982.982,0,0,0,.194.343.838.838,0,0,0,.289.211.881.881,0,0,0,.7,0,.84.84,0,0,0,.289-.211.979.979,0,0,0,.194-.343,1.6,1.6,0,0,0,0-.938,1.011,1.011,0,0,0-.194-.346.827.827,0,0,0-.289-.214.881.881,0,0,0-.7,0,.825.825,0,0,0-.289.214,1.014,1.014,0,0,0-.194.346,1.6,1.6,0,0,0,0,.938Z" transform="translate(-541.76 -499.197)" fill="#161515"/><path d="M644.6,491.554v4.012h-.478v-4.012Z" transform="translate(-567.004 -491.554)" fill="#161515"/><path d="M653.268,501.161a1.356,1.356,0,0,1,.27-.483,1.27,1.27,0,0,1,.444-.323,1.627,1.627,0,0,1,1.216,0,1.278,1.278,0,0,1,.441.323,1.36,1.36,0,0,1,.27.483,1.937,1.937,0,0,1,.09.6,1.91,1.91,0,0,1-.09.6,1.362,1.362,0,0,1-.27.48,1.249,1.249,0,0,1-.441.32,1.665,1.665,0,0,1-1.216,0,1.241,1.241,0,0,1-.444-.32,1.358,1.358,0,0,1-.27-.48,1.906,1.906,0,0,1-.09-.6A1.933,1.933,0,0,1,653.268,501.161Zm.486,1.068a.981.981,0,0,0,.194.343.839.839,0,0,0,.289.211.881.881,0,0,0,.7,0,.842.842,0,0,0,.289-.211.983.983,0,0,0,.194-.343,1.6,1.6,0,0,0,0-.938,1.015,1.015,0,0,0-.194-.346.829.829,0,0,0-.289-.214.881.881,0,0,0-.7,0,.826.826,0,0,0-.289.214,1.013,1.013,0,0,0-.194.346,1.6,1.6,0,0,0,0,.938Z" transform="translate(-574.978 -499.197)" fill="#161515"/><path d="M682.644,504.03a1.328,1.328,0,0,1-1.023.354,1.98,1.98,0,0,1-.413-.045,1.269,1.269,0,0,1-.382-.146.89.89,0,0,1-.284-.264.752.752,0,0,1-.124-.4h.478a.354.354,0,0,0,.081.219.6.6,0,0,0,.185.146.9.9,0,0,0,.239.082,1.286,1.286,0,0,0,.247.025.887.887,0,0,0,.4-.082.75.75,0,0,0,.27-.225.931.931,0,0,0,.155-.346,1.932,1.932,0,0,0,.048-.444v-.191h-.011a.8.8,0,0,1-.374.4,1.162,1.162,0,0,1-.531.126,1.28,1.28,0,0,1-.567-.118,1.188,1.188,0,0,1-.4-.317,1.35,1.35,0,0,1-.244-.466,1.922,1.922,0,0,1-.081-.565,2.2,2.2,0,0,1,.067-.531,1.449,1.449,0,0,1,.225-.495,1.234,1.234,0,0,1,.416-.365,1.293,1.293,0,0,1,.635-.143,1.074,1.074,0,0,1,.506.121.849.849,0,0,1,.359.362h.006V500.3h.45v2.658A1.531,1.531,0,0,1,682.644,504.03Zm-.61-1.306a.782.782,0,0,0,.267-.259,1.177,1.177,0,0,0,.149-.362,1.764,1.764,0,0,0,.048-.4,1.6,1.6,0,0,0-.045-.377,1.057,1.057,0,0,0-.143-.334.748.748,0,0,0-.256-.239.76.76,0,0,0-.382-.09.824.824,0,0,0-.393.087.766.766,0,0,0-.267.233.99.99,0,0,0-.152.337,1.642,1.642,0,0,0-.048.4,2.008,2.008,0,0,0,.039.393,1.115,1.115,0,0,0,.135.357.756.756,0,0,0,.253.259.729.729,0,0,0,.393.1A.774.774,0,0,0,682.034,502.723Z" transform="translate(-598.858 -499.197)" fill="#161515"/><path d="M708.982,492.138v-.584h.478v.584Zm.478.523v2.905h-.478v-2.905Z" transform="translate(-624.101 -491.554)" fill="#161515"/><path d="M720.255,503.024a1.318,1.318,0,0,1-.82.247,1.493,1.493,0,0,1-.6-.112,1.189,1.189,0,0,1-.43-.315,1.337,1.337,0,0,1-.261-.483,2.321,2.321,0,0,1-.1-.612,1.753,1.753,0,0,1,.1-.607,1.455,1.455,0,0,1,.284-.478,1.287,1.287,0,0,1,.433-.315,1.322,1.322,0,0,1,.548-.112,1.191,1.191,0,0,1,.643.16,1.272,1.272,0,0,1,.41.407,1.613,1.613,0,0,1,.214.539,2.31,2.31,0,0,1,.048.556h-2.174a1.152,1.152,0,0,0,.045.362.819.819,0,0,0,.163.3.807.807,0,0,0,.287.211.99.99,0,0,0,.41.079.827.827,0,0,0,.5-.14.68.68,0,0,0,.256-.427h.472A1.161,1.161,0,0,1,720.255,503.024Zm-.115-1.866a.821.821,0,0,0-.174-.261.83.83,0,0,0-.258-.174.819.819,0,0,0-.329-.065.833.833,0,0,0-.334.065.775.775,0,0,0-.256.177.847.847,0,0,0-.169.261,1,1,0,0,0-.073.318h1.669A.985.985,0,0,0,720.14,501.159Z" transform="translate(-632.075 -499.197)" fill="#161515"/><path d="M307.739,542.678v.742H305.62v.86h1.944v.686H305.62v.983h2.163v.742h-3.046v-4.012Z" transform="translate(-268.254 -536.557)" fill="#161515"/><path d="M335.394,551.346v.4h.017a.916.916,0,0,1,.393-.368,1.136,1.136,0,0,1,.494-.115,1.355,1.355,0,0,1,.525.087.779.779,0,0,1,.323.242.937.937,0,0,1,.166.377,2.339,2.339,0,0,1,.048.492v1.787h-.8V552.61a1.019,1.019,0,0,0-.112-.537.435.435,0,0,0-.4-.177.552.552,0,0,0-.472.194,1.076,1.076,0,0,0-.146.638v1.523h-.8v-2.905Z" transform="translate(-294.572 -544.118)" fill="#161515"/><path d="M362.267,545.521v.534h-.584v1.439a.27.27,0,0,0,.337.337c.045,0,.088,0,.129-.006a1.076,1.076,0,0,0,.118-.017v.618a1.883,1.883,0,0,1-.225.022q-.124.006-.241.006a2.322,2.322,0,0,1-.351-.025.825.825,0,0,1-.292-.1.519.519,0,0,1-.2-.208.743.743,0,0,1-.073-.354v-1.714H360.4v-.534h.483v-.871h.8v.871Z" transform="translate(-317.253 -538.293)" fill="#161515"/><path d="M379.185,553.554a.818.818,0,0,0,.933.053.5.5,0,0,0,.213-.256h.7a1.333,1.333,0,0,1-.517.747,1.522,1.522,0,0,1-.843.225,1.657,1.657,0,0,1-.618-.11,1.284,1.284,0,0,1-.466-.312,1.4,1.4,0,0,1-.295-.483,1.768,1.768,0,0,1-.1-.618,1.694,1.694,0,0,1,.107-.607,1.4,1.4,0,0,1,.773-.809,1.506,1.506,0,0,1,.6-.118,1.381,1.381,0,0,1,.646.143,1.291,1.291,0,0,1,.452.385,1.586,1.586,0,0,1,.256.551,2.054,2.054,0,0,1,.056.646h-2.1A.807.807,0,0,0,379.185,553.554Zm.9-1.528a.56.56,0,0,0-.435-.157.7.7,0,0,0-.318.065.6.6,0,0,0-.2.16.587.587,0,0,0-.107.2.916.916,0,0,0-.037.191h1.3A.922.922,0,0,0,380.086,552.026Z" transform="translate(-332.912 -544.118)" fill="#161515"/><path d="M407.25,551.346v.4h.017a.914.914,0,0,1,.393-.368,1.136,1.136,0,0,1,.494-.115,1.354,1.354,0,0,1,.525.087.78.78,0,0,1,.323.242.936.936,0,0,1,.166.377,2.341,2.341,0,0,1,.048.492v1.787h-.8V552.61a1.019,1.019,0,0,0-.112-.537.435.435,0,0,0-.4-.177.553.553,0,0,0-.472.194,1.077,1.077,0,0,0-.146.638v1.523h-.8v-2.905Z" transform="translate(-357.825 -544.118)" fill="#161515"/><path d="M435.665,546.319a.823.823,0,0,1-.368.34,1.224,1.224,0,0,1-.514.1,1.242,1.242,0,0,1-.573-.126,1.152,1.152,0,0,1-.407-.343,1.551,1.551,0,0,1-.242-.5,2.086,2.086,0,0,1-.081-.584,1.96,1.96,0,0,1,.081-.565,1.466,1.466,0,0,1,.242-.48,1.174,1.174,0,0,1,.964-.461,1.143,1.143,0,0,1,.492.11.856.856,0,0,1,.368.323h.011v-1.461h.8v4.012h-.759v-.371Zm-.034-1.436a.844.844,0,0,0-.115-.292.648.648,0,0,0-.211-.205.617.617,0,0,0-.326-.079.647.647,0,0,0-.332.079.621.621,0,0,0-.216.208.916.916,0,0,0-.118.295,1.6,1.6,0,0,0-.036.346,1.481,1.481,0,0,0,.039.337.918.918,0,0,0,.126.3.7.7,0,0,0,.219.214.593.593,0,0,0,.318.082.632.632,0,0,0,.329-.079.6.6,0,0,0,.211-.211.946.946,0,0,0,.112-.3,1.761,1.761,0,0,0,.034-.348A1.72,1.72,0,0,0,435.631,544.883Z" transform="translate(-381.582 -536.557)" fill="#161515"/><path d="M465.342,554.829v-.4h-.017a.9.9,0,0,1-.393.365,1.161,1.161,0,0,1-.494.112,1.4,1.4,0,0,1-.525-.084.757.757,0,0,1-.323-.239.934.934,0,0,1-.166-.376,2.339,2.339,0,0,1-.048-.492v-1.787h.8v1.641a1.018,1.018,0,0,0,.112.537.435.435,0,0,0,.4.177.553.553,0,0,0,.472-.194,1.079,1.079,0,0,0,.146-.638v-1.523h.8v2.905Z" transform="translate(-407.899 -544.696)" fill="#161515"/><path d="M491.035,553.529a.467.467,0,0,0,.138.152.591.591,0,0,0,.194.087.911.911,0,0,0,.228.028.852.852,0,0,0,.177-.02.6.6,0,0,0,.169-.062.382.382,0,0,0,.126-.112.3.3,0,0,0,.051-.177q0-.18-.239-.27a4.793,4.793,0,0,0-.666-.18q-.174-.039-.34-.093a1.155,1.155,0,0,1-.3-.141.681.681,0,0,1-.208-.219.621.621,0,0,1-.079-.323.875.875,0,0,1,.109-.461.809.809,0,0,1,.289-.284,1.268,1.268,0,0,1,.4-.146,2.481,2.481,0,0,1,.461-.042,2.306,2.306,0,0,1,.458.045,1.214,1.214,0,0,1,.4.152.909.909,0,0,1,.289.284.953.953,0,0,1,.138.447h-.759a.349.349,0,0,0-.174-.312.8.8,0,0,0-.371-.081,1.377,1.377,0,0,0-.146.008.488.488,0,0,0-.143.037.293.293,0,0,0-.11.081.215.215,0,0,0-.045.143.219.219,0,0,0,.079.174.607.607,0,0,0,.205.109,2.593,2.593,0,0,0,.289.076q.163.034.332.073a3.412,3.412,0,0,1,.34.1,1.127,1.127,0,0,1,.3.149.723.723,0,0,1,.208.23.678.678,0,0,1,.079.34.882.882,0,0,1-.416.792,1.233,1.233,0,0,1-.424.166,2.482,2.482,0,0,1-.486.048,2.409,2.409,0,0,1-.495-.051,1.3,1.3,0,0,1-.43-.169.964.964,0,0,1-.309-.312.976.976,0,0,1-.132-.486h.759A.436.436,0,0,0,491.035,553.529Z" transform="translate(-431.532 -544.118)" fill="#161515"/><path d="M517.95,568.961v.865h-.882v-.865Z" transform="translate(-455.163 -559.694)" fill="#161515"/><path d="M545.254,543.046a.887.887,0,0,0-.2-.222.923.923,0,0,0-.579-.2,1.03,1.03,0,0,0-.506.115.955.955,0,0,0-.337.309,1.35,1.35,0,0,0-.188.441,2.193,2.193,0,0,0-.059.511,2.04,2.04,0,0,0,.059.492,1.326,1.326,0,0,0,.188.43.964.964,0,0,0,.337.306,1.028,1.028,0,0,0,.506.115.816.816,0,0,0,.632-.247,1.144,1.144,0,0,0,.278-.652h.854a2.04,2.04,0,0,1-.174.68,1.632,1.632,0,0,1-.371.517,1.576,1.576,0,0,1-.539.326,1.977,1.977,0,0,1-.68.112,2.055,2.055,0,0,1-.829-.16,1.773,1.773,0,0,1-.621-.441,1.952,1.952,0,0,1-.388-.66,2.424,2.424,0,0,1-.135-.818,2.507,2.507,0,0,1,.135-.834,2,2,0,0,1,.388-.671,1.773,1.773,0,0,1,.621-.45,2.151,2.151,0,0,1,1.455-.068,1.7,1.7,0,0,1,.528.278,1.505,1.505,0,0,1,.385.452,1.618,1.618,0,0,1,.191.618h-.854A.717.717,0,0,0,545.254,543.046Z" transform="translate(-477.556 -535.855)" fill="#161515"/><path d="M577.58,552.169a1.329,1.329,0,0,1,.776-.792,1.658,1.658,0,0,1,.618-.11,1.68,1.68,0,0,1,.621.11,1.322,1.322,0,0,1,.778.792,1.787,1.787,0,0,1,.107.632,1.762,1.762,0,0,1-.107.629,1.364,1.364,0,0,1-.3.48,1.322,1.322,0,0,1-.475.306,1.721,1.721,0,0,1-.621.107,1.7,1.7,0,0,1-.618-.107,1.326,1.326,0,0,1-.472-.306,1.367,1.367,0,0,1-.3-.48,1.762,1.762,0,0,1-.107-.629A1.787,1.787,0,0,1,577.58,552.169Zm.725.972a.906.906,0,0,0,.115.3.613.613,0,0,0,.216.211.659.659,0,0,0,.337.079.675.675,0,0,0,.34-.079.606.606,0,0,0,.219-.211.908.908,0,0,0,.115-.3,1.708,1.708,0,0,0,.034-.34,1.75,1.75,0,0,0-.034-.343.877.877,0,0,0-.115-.3.64.64,0,0,0-.219-.211.659.659,0,0,0-.34-.082.614.614,0,0,0-.553.292.875.875,0,0,0-.115.3,1.741,1.741,0,0,0-.034.343A1.7,1.7,0,0,0,578.3,553.141Z" transform="translate(-508.336 -544.118)" fill="#161515"/><path d="M608.029,551.346v.393h.011a1.136,1.136,0,0,1,.379-.348,1.028,1.028,0,0,1,.509-.124,1.171,1.171,0,0,1,.5.107.706.706,0,0,1,.346.377,1.232,1.232,0,0,1,.351-.337.933.933,0,0,1,.525-.146,1.552,1.552,0,0,1,.427.056.86.86,0,0,1,.337.18.826.826,0,0,1,.219.323,1.313,1.313,0,0,1,.079.481v1.944h-.8V552.6q0-.146-.011-.275a.587.587,0,0,0-.062-.225.373.373,0,0,0-.149-.152.538.538,0,0,0-.267-.056.512.512,0,0,0-.273.065.469.469,0,0,0-.163.169.677.677,0,0,0-.079.236,1.8,1.8,0,0,0-.02.267v1.618h-.8v-1.63q0-.129-.005-.256a.717.717,0,0,0-.048-.233.359.359,0,0,0-.141-.172.532.532,0,0,0-.289-.065.6.6,0,0,0-.149.025.5.5,0,0,0-.18.1.557.557,0,0,0-.149.2.82.82,0,0,0-.062.346v1.686h-.8v-2.905Z" transform="translate(-534.571 -544.118)" fill="#161515"/><path d="M650.557,551.346v.371h.011a.877.877,0,0,1,.371-.343,1.138,1.138,0,0,1,.494-.107,1.258,1.258,0,0,1,.59.129,1.222,1.222,0,0,1,.41.343,1.452,1.452,0,0,1,.242.5,2.212,2.212,0,0,1,.078.593,2,2,0,0,1-.078.562,1.431,1.431,0,0,1-.239.478,1.183,1.183,0,0,1-.4.332,1.2,1.2,0,0,1-.559.124,1.13,1.13,0,0,1-.5-.11.939.939,0,0,1-.374-.323H650.6v1.377h-.8v-3.922Zm1.037,2.3a.64.64,0,0,0,.214-.205.85.85,0,0,0,.115-.295,1.736,1.736,0,0,0,.034-.343,1.62,1.62,0,0,0-.036-.343.912.912,0,0,0-.121-.3.678.678,0,0,0-.216-.213.606.606,0,0,0-.323-.082.616.616,0,0,0-.329.082.655.655,0,0,0-.214.211.872.872,0,0,0-.115.3,1.774,1.774,0,0,0-.034.348,1.61,1.61,0,0,0,.036.343.888.888,0,0,0,.118.295.681.681,0,0,0,.871.205Z" transform="translate(-572.003 -544.118)" fill="#161515"/><path d="M679.421,551.346v.539h.011a.978.978,0,0,1,.152-.25,1,1,0,0,1,.219-.2,1.071,1.071,0,0,1,.264-.126.954.954,0,0,1,.292-.045.629.629,0,0,1,.174.028v.742q-.056-.011-.135-.02a1.431,1.431,0,0,0-.152-.008.85.85,0,0,0-.371.073.643.643,0,0,0-.244.2.8.8,0,0,0-.132.3,1.614,1.614,0,0,0-.039.365v1.309h-.8v-2.905Z" transform="translate(-597.411 -544.118)" fill="#161515"/><path d="M697.295,543.335v-.657h.8v.657Zm.8.45v2.905h-.8v-2.905Z" transform="translate(-613.813 -536.557)" fill="#161515"/><path d="M709.043,553.529a.466.466,0,0,0,.138.152.589.589,0,0,0,.194.087.91.91,0,0,0,.228.028.854.854,0,0,0,.177-.02.6.6,0,0,0,.168-.062.38.38,0,0,0,.126-.112.3.3,0,0,0,.051-.177q0-.18-.239-.27a4.789,4.789,0,0,0-.666-.18q-.174-.039-.34-.093a1.158,1.158,0,0,1-.3-.141.679.679,0,0,1-.208-.219.62.62,0,0,1-.079-.323.875.875,0,0,1,.11-.461.81.81,0,0,1,.289-.284,1.268,1.268,0,0,1,.4-.146,2.482,2.482,0,0,1,.461-.042,2.306,2.306,0,0,1,.458.045,1.215,1.215,0,0,1,.4.152.91.91,0,0,1,.289.284.953.953,0,0,1,.138.447h-.759a.349.349,0,0,0-.174-.312.8.8,0,0,0-.371-.081,1.38,1.38,0,0,0-.146.008.487.487,0,0,0-.143.037.292.292,0,0,0-.11.081.215.215,0,0,0-.045.143.219.219,0,0,0,.079.174.6.6,0,0,0,.205.109,2.587,2.587,0,0,0,.289.076q.163.034.331.073a3.416,3.416,0,0,1,.34.1,1.128,1.128,0,0,1,.295.149.72.72,0,0,1,.208.23.676.676,0,0,1,.079.34.882.882,0,0,1-.416.792,1.234,1.234,0,0,1-.424.166,2.481,2.481,0,0,1-.486.048,2.41,2.41,0,0,1-.495-.051,1.3,1.3,0,0,1-.43-.169.963.963,0,0,1-.309-.312.978.978,0,0,1-.132-.486h.759A.436.436,0,0,0,709.043,553.529Z" transform="translate(-623.44 -544.118)" fill="#161515"/><path d="M735.959,568.961v.865h-.882v-.865Z" transform="translate(-647.072 -559.694)" fill="#161515"/></g><g transform="translate(91.298 54.938)"><path d="M767.368,468.11c-.089,0-.125.036-.161.143l-.964,2.553a3.462,3.462,0,0,0-.268,1.089c0,.321.161.553.714.553h.268c.214,0,.268.036.268.143,0,.143-.107.178-.3.178-.571,0-1.339-.054-1.893-.054-.2,0-1.178.054-2.107.054-.232,0-.339-.036-.339-.178,0-.107.071-.143.214-.143a5.374,5.374,0,0,0,.553-.036c.821-.107,1.16-.714,1.517-1.607l4.481-11.212c.214-.518.322-.714.5-.714.161,0,.268.161.446.571.428.982,3.285,8.266,4.428,10.98.678,1.607,1.2,1.857,1.571,1.946a3.918,3.918,0,0,0,.75.071c.143,0,.232.018.232.143,0,.143-.161.178-.821.178-.643,0-1.946,0-3.374-.036-.321-.018-.536-.018-.536-.143,0-.107.071-.143.25-.161a.291.291,0,0,0,.161-.411l-1.428-3.785a.172.172,0,0,0-.178-.125Zm3.642-.893c.089,0,.107-.054.089-.107l-1.607-4.41c-.018-.071-.036-.161-.089-.161s-.089.089-.107.161l-1.643,4.392c-.018.071,0,.125.071.125Z" transform="translate(-762.583 -458.88)" fill="#004475"/><path d="M881.527,472.125a7.071,7.071,0,0,1-.125-10.159,7.789,7.789,0,0,1,5.642-1.892,17.641,17.641,0,0,1,2.589.179c.678.089,1.25.25,1.785.3.2.018.268.107.268.214,0,.143-.054.357-.089.982-.036.589-.018,1.571-.054,1.928-.018.268-.054.411-.214.411-.143,0-.178-.143-.178-.393a2.548,2.548,0,0,0-.7-1.642,5.325,5.325,0,0,0-3.624-1.107,4.657,4.657,0,0,0-3.356,1.107,6.673,6.673,0,0,0,3.981,10.98c1.589,0,2.553-.178,3.267-1a2.977,2.977,0,0,0,.607-1.178c.054-.286.089-.357.232-.357.125,0,.161.125.161.268a16.968,16.968,0,0,1-.393,2.374.631.631,0,0,1-.464.518,10.342,10.342,0,0,1-3.214.411A8.924,8.924,0,0,1,881.527,472.125Z" transform="translate(-865.338 -459.931)" fill="#004475"/><path d="M996.721,468.11c-.089,0-.125.036-.161.143l-.964,2.553a3.461,3.461,0,0,0-.268,1.089c0,.321.161.553.714.553h.268c.214,0,.268.036.268.143,0,.143-.107.178-.3.178-.571,0-1.339-.054-1.892-.054-.2,0-1.178.054-2.107.054-.232,0-.339-.036-.339-.178,0-.107.072-.143.214-.143a5.371,5.371,0,0,0,.553-.036c.821-.107,1.161-.714,1.518-1.607l4.481-11.212c.214-.518.321-.714.5-.714.161,0,.268.161.446.571.428.982,3.285,8.266,4.428,10.98.678,1.607,1.2,1.857,1.571,1.946a3.919,3.919,0,0,0,.75.071c.143,0,.232.018.232.143,0,.143-.161.178-.821.178-.643,0-1.946,0-3.374-.036-.321-.018-.536-.018-.536-.143,0-.107.071-.143.25-.161a.291.291,0,0,0,.161-.411l-1.428-3.785a.172.172,0,0,0-.178-.125Zm3.642-.893c.089,0,.107-.054.089-.107l-1.607-4.41c-.018-.071-.036-.161-.089-.161s-.089.089-.107.161l-1.642,4.392c-.018.071,0,.125.071.125Z" transform="translate(-964.477 -458.88)" fill="#004475"/></g><g transform="translate(5.102 0)"><path d="M44.827,13.244a6.734,6.734,0,0,1-2.214-5.267A6.716,6.716,0,0,1,44.7,3.085a7.789,7.789,0,0,1,5.642-1.892,17.645,17.645,0,0,1,2.589.179c.678.089,1.25.25,1.785.3.2.018.268.107.268.214,0,.143-.054.357-.089.982-.036.589-.018,1.571-.054,1.928-.018.268-.054.411-.214.411-.143,0-.179-.143-.179-.393a2.548,2.548,0,0,0-.7-1.642,5.325,5.325,0,0,0-3.624-1.107,4.657,4.657,0,0,0-3.357,1.107A5.967,5.967,0,0,0,45.13,7.8a6,6,0,0,0,5.624,6.356c1.589,0,2.553-.179,3.267-1a2.981,2.981,0,0,0,.607-1.178c.054-.286.089-.357.232-.357.125,0,.161.125.161.268a16.97,16.97,0,0,1-.393,2.374.631.631,0,0,1-.464.518,10.343,10.343,0,0,1-3.214.411A8.925,8.925,0,0,1,44.827,13.244Z" transform="translate(-42.613 -1.05)" fill="#004475"/><path d="M154.021,9.23c-.089,0-.125.036-.161.143l-.964,2.553a3.462,3.462,0,0,0-.268,1.089c0,.321.161.553.714.553h.268c.214,0,.268.036.268.143,0,.143-.107.179-.3.179-.571,0-1.339-.054-1.893-.054-.2,0-1.178.054-2.107.054-.232,0-.339-.036-.339-.179,0-.107.071-.143.214-.143a5.374,5.374,0,0,0,.553-.036c.821-.107,1.161-.714,1.518-1.607L156,.714c.214-.518.321-.714.5-.714.161,0,.268.161.446.571.428.982,3.285,8.266,4.428,10.98.678,1.607,1.2,1.857,1.571,1.946a3.909,3.909,0,0,0,.75.071c.143,0,.232.018.232.143,0,.143-.161.179-.821.179-.643,0-1.946,0-3.374-.036-.321-.018-.536-.018-.536-.143,0-.107.071-.143.25-.161a.291.291,0,0,0,.161-.411l-1.428-3.785A.172.172,0,0,0,158,9.23Zm3.642-.893c.089,0,.107-.054.089-.107l-1.607-4.41c-.018-.071-.036-.161-.089-.161s-.089.089-.107.161l-1.642,4.392c-.018.071,0,.125.071.125Z" transform="translate(-136.471 0)" fill="#004475"/><path d="M259.006,9.23c-.089,0-.125.036-.161.143l-.964,2.553a3.464,3.464,0,0,0-.268,1.089c0,.321.161.553.714.553h.268c.214,0,.268.036.268.143,0,.143-.107.179-.3.179-.571,0-1.339-.054-1.893-.054-.2,0-1.178.054-2.107.054-.232,0-.339-.036-.339-.179,0-.107.071-.143.214-.143a5.376,5.376,0,0,0,.553-.036c.821-.107,1.16-.714,1.518-1.607L260.987.714c.214-.518.321-.714.5-.714.161,0,.268.161.446.571.428.982,3.285,8.266,4.428,10.98.678,1.607,1.2,1.857,1.571,1.946a3.91,3.91,0,0,0,.75.071c.143,0,.232.018.232.143,0,.143-.161.179-.821.179-.643,0-1.946,0-3.374-.036-.321-.018-.536-.018-.536-.143,0-.107.071-.143.25-.161a.291.291,0,0,0,.161-.411l-1.428-3.785a.172.172,0,0,0-.179-.125Zm3.642-.893c.089,0,.107-.054.089-.107l-1.607-4.41c-.018-.071-.036-.161-.089-.161s-.089.089-.107.161l-1.642,4.392c-.018.071,0,.125.071.125Z" transform="translate(-228.887 0)" fill="#004475"/></g><path d="M559.451,213.981" transform="translate(-492.472 -188.363)" fill="#1a1818"/><path d="M483.448,237.137l2.867-2.036-2.036-.929.178-.712-2.946-.119,3.737-2.115-1.5-1.166,1.621-1.463-.969-.514.455-1.977-1.858.85-.4-.811-1.3,1.344-.909-1.147-2.887,3.341,1.819-4.448-2.036.494v-1.562l-.554.257v-1.463l-1.147.257-.751-1.641-.751,1.641-1.147-.257v1.463l-.554-.257v1.562l-2.036-.494,1.819,4.448-2.887-3.341-.909,1.147-1.3-1.344-.4.811-1.858-.85.455,1.977-.969.514,1.621,1.463-1.5,1.166,3.737,2.115-2.946.119.178.712-2.036.929,2.867,2.036-.178,1.325,3.658-.751-1.186,2.313,4.607-1.048.771.732.949-2,.949,2,.771-.732,4.607,1.048-1.186-2.313,3.658.751Z" transform="translate(-407.869 -195.05)" fill="#9d141f"/><path d="M52.323,196.479s-8.3-10.913-19.336-12.93a37.494,37.494,0,0,0-19.81,1.779S34.16,177.064,52.323,196.479Z" transform="translate(-11.599 -161.054)" fill="#004475"/><path d="M779.946,196.479s8.3-10.913,19.336-12.93a37.493,37.493,0,0,1,19.81,1.779S798.109,177.064,779.946,196.479Z" transform="translate(-686.569 -161.054)" fill="#004475"/><path d="M409.53,318.128s-10.427,13.457-23.554,13.457l-.012,0v0c-13.128,0-23.554-13.457-23.554-13.457s7.917,14.717,23.528,14.759H386C401.613,332.846,409.53,318.128,409.53,318.128Z" transform="translate(-319.02 -280.041)" fill="#004475"/><path d="M138.721,196.219a40.507,40.507,0,0,1-5.26.6,30.982,30.982,0,0,1-24.165-8.849q-.488-.466-.961-.949c-5.773-5.892-12.106-14.045-17.556-17.24a26.807,26.807,0,0,0-25.311,0c-5.45,3.2-11.783,11.348-17.556,17.24q-.472.482-.96.949a32.615,32.615,0,0,1-10.719,6.9,32.426,32.426,0,0,1-13.446,1.947,40.507,40.507,0,0,1-5.26-.6c-1.583-.288-3.289-1.009-4.832-1.147,7.2,3.5,16.831,3.135,24.194.425,9.245-3.4,15.278-12.04,21.9-18.754,4.021-4.079,7.774-6.821,12.832-8.086a29.105,29.105,0,0,1,6.506-.644,29.106,29.106,0,0,1,6.506.644c5.058,1.264,8.811,4.007,12.832,8.086,6.619,6.714,12.652,15.351,21.9,18.754,7.363,2.71,16.991,3.072,24.194-.425C142.011,195.21,140.3,195.931,138.721,196.219Z" transform="translate(-11.175 -146.656)" fill="#004475"/></g></g></g></svg>