<svg xmlns="http://www.w3.org/2000/svg" width="200" height="100" viewBox="0 0 200 100"><g transform="translate(-164.997 -290.5)"><rect width="200" height="100" transform="translate(164.997 290.5)" fill="none"/><g transform="translate(83.099 59.655)"><g transform="translate(90.418 240.384)"><g transform="translate(63.804 27.979)"><path d="M168.2,46.05h-5.3V77.294h18.764V72.458H168.2Z" transform="translate(-135.202 -46.05)" fill="#fff"/><path d="M131.409,58.658H117.248V46.05h-5.3V77.294h5.3v-13.8h14.161v13.8h5.347V46.05h-5.347Z" transform="translate(-111.944 -46.05)" fill="#fff"/><path d="M247.195,46.05h-4.548L229.714,75.873l-12.8-29.823h-4.548L198.813,77.294h5.879l3.024-7.412H221.3l3.067,7.412h10.611L238,69.882h13.583l3.067,7.412h5.958ZM219.329,65.089h-9.684l4.86-12.131Zm30.284,0H239.93l4.859-12.131Z" transform="translate(-151.596 -46.05)" fill="#fff"/></g><path d="M36.253,23.8C26.821,19.747,23.566,6.461,23.566,6.461a130.329,130.329,0,0,0,4.907,26.891c1.969,5.716,5.064,11.138,8.168,16.46C37.887,44,39.13,38.18,42.334,33.856c2.519-3.383,6.15-5.856,9.784-8.328-2.6-.044-5.3,0-7.99-.152A32.476,32.476,0,0,1,36.253,23.8" transform="translate(-7.799 0)" fill="#fff"/><path d="M26.491,69.075c-2.582-6.222-6.906-11.416-11.318-16.613,2.033,3.767,4.071,7.443,4.566,11.61a17.815,17.815,0,0,1-3.081,11.992,26.377,26.377,0,0,1-6.383,5.841c5.034-.628,10.257-.875,13.565,2.392,2.092,1.963,4.915,8.209,6.265,10.871.6-4.763-.466-9.476-.763-14.177a36.156,36.156,0,0,0-2.85-11.915" transform="translate(-1.732 -20.997)" fill="#fff"/><path d="M62.168,49.243a45.385,45.385,0,0,0-12,38.265c1.557-3.478,3.486-8.328,5.7-11.381a37.111,37.111,0,0,1,17.158-12.8A32.168,32.168,0,0,1,91,63.859C83.45,58.3,77.742,58.8,72.183,58.584c-2.78-.105-5.752.251-7.526-1.263s-2.126-4.683-2.489-8.078" transform="translate(-19.685 -19.528)" fill="#fff"/><path d="M83.328,44.925a4.489,4.489,0,0,0-4.053,4.954,4.375,4.375,0,1,0,8.735-.382,4.523,4.523,0,0,0-4.682-4.572" transform="translate(-33.225 -17.555)" fill="#fff"/><path d="M45.817,16.1a4.489,4.489,0,0,0-4.053,4.954A4.375,4.375,0,1,0,50.5,20.67,4.522,4.522,0,0,0,45.817,16.1" transform="translate(-16.103 -4.397)" fill="#fff"/><path d="M10.539,71.869a4.489,4.489,0,0,0-4.053,4.954,4.425,4.425,0,0,0,4.46,4.353,4.464,4.464,0,0,0,4.275-4.734,4.523,4.523,0,0,0-4.682-4.572" transform="translate(0 -29.854)" fill="#fff"/><path d="M202.128,122v.542h1.253v-2.486a3.4,3.4,0,0,0-.1-.855,1.545,1.545,0,0,0-.32-.63,1.4,1.4,0,0,0-.583-.392,2.518,2.518,0,0,0-.874-.134,2.582,2.582,0,0,0-.918.175,2.112,2.112,0,0,0-.772.492l.67.8a1.382,1.382,0,0,1,.394-.276,1.174,1.174,0,0,1,.51-.109.684.684,0,0,1,.452.142.568.568,0,0,1,.17.459v.066h-.195a4.369,4.369,0,0,0-.787.071,2.169,2.169,0,0,0-.694.246,1.427,1.427,0,0,0-.5.467,1.342,1.342,0,0,0-.189.742,1.408,1.408,0,0,0,.126.63,1.179,1.179,0,0,0,.321.409,1.215,1.215,0,0,0,.427.221,1.652,1.652,0,0,0,.457.067,1.382,1.382,0,0,0,.743-.179.873.873,0,0,0,.383-.472h.02m-.068-1.118a1.26,1.26,0,0,1-.039.3.929.929,0,0,1-.117.275.589.589,0,0,1-.209.2.605.605,0,0,1-.306.075.45.45,0,0,1-.316-.121.5.5,0,0,1-.131-.38.55.55,0,0,1,.068-.288.543.543,0,0,1,.185-.184.736.736,0,0,1,.272-.1,2,2,0,0,1,.321-.025h.272Zm-2.622,1.326-.612-1.009a.592.592,0,0,1-.2.188.559.559,0,0,1-.286.071.572.572,0,0,1-.5-.288,1.869,1.869,0,0,1,0-1.631.553.553,0,0,1,.471-.292.592.592,0,0,1,.282.067.643.643,0,0,1,.214.184l.611-1.018a1.639,1.639,0,0,0-.485-.3,1.861,1.861,0,0,0-.738-.134,2.046,2.046,0,0,0-.86.171,1.73,1.73,0,0,0-.626.479,2.218,2.218,0,0,0-.389.73,3.016,3.016,0,0,0-.136.931,3.176,3.176,0,0,0,.131.934,2.134,2.134,0,0,0,.384.734,1.734,1.734,0,0,0,.622.48,2.225,2.225,0,0,0,1.593.046A1.407,1.407,0,0,0,199.438,122.2Zm-4.113-5.51a.815.815,0,0,0-.17-.242.8.8,0,0,0-.262-.167.956.956,0,0,0-.68,0,.781.781,0,0,0-.432.409.734.734,0,0,0,.17.834.93.93,0,0,0,1.2,0,.734.734,0,0,0,.17-.834Zm-1.539,5.844h1.534v-4.363h-1.534Zm-3.312,0H192v-2.161a1.449,1.449,0,0,1,.053-.392,1.05,1.05,0,0,1,.155-.334.842.842,0,0,1,.247-.229.65.65,0,0,1,.34-.088,1.1,1.1,0,0,1,.179.013l.151.029.1-1.31-.117-.021c-.032,0-.074,0-.126,0a1.041,1.041,0,0,0-1.019.867h-.01v-.734h-1.476Zm-3.438-2.7a1.054,1.054,0,0,1,.039-.271.934.934,0,0,1,.116-.267.71.71,0,0,1,.19-.2.448.448,0,0,1,.267-.079.437.437,0,0,1,.417.234,1.215,1.215,0,0,1,.126.584Zm2.554.851v-.367a3.748,3.748,0,0,0-.107-.922,1.946,1.946,0,0,0-.345-.726,1.668,1.668,0,0,0-.607-.48,2.079,2.079,0,0,0-.894-.175,2.057,2.057,0,0,0-.835.167,1.936,1.936,0,0,0-.656.471,2.115,2.115,0,0,0-.427.742,2.974,2.974,0,0,0-.151.972,2.875,2.875,0,0,0,.16,1,2.059,2.059,0,0,0,.447.73,1.86,1.86,0,0,0,.67.446,2.246,2.246,0,0,0,.83.151,2.071,2.071,0,0,0,1.122-.284,1.962,1.962,0,0,0,.7-.767l-1.117-.542a1.011,1.011,0,0,1-.243.334.582.582,0,0,1-.408.142.563.563,0,0,1-.282-.071.668.668,0,0,1-.214-.192,1.048,1.048,0,0,1-.141-.284,1.113,1.113,0,0,1-.053-.346Zm-11.441-2.511v4.363h1.5v-2.569a1.01,1.01,0,0,1,.151-.58.491.491,0,0,1,.432-.221.359.359,0,0,1,.364.209,1.189,1.189,0,0,1,.092.484v2.678h1.5v-2.569a1.015,1.015,0,0,1,.151-.58.492.492,0,0,1,.433-.221.369.369,0,0,1,.369.209,1.145,1.145,0,0,1,.1.484v2.678h1.506v-2.669a4.344,4.344,0,0,0-.054-.692,1.752,1.752,0,0,0-.2-.592,1.085,1.085,0,0,0-.417-.413,1.431,1.431,0,0,0-.709-.154,1.541,1.541,0,0,0-.471.067,1.431,1.431,0,0,0-.369.175,1.226,1.226,0,0,0-.272.246,1.309,1.309,0,0,0-.18.288h-.02a1.191,1.191,0,0,0-.374-.551,1.233,1.233,0,0,0-.811-.226,1.308,1.308,0,0,0-.8.229,1.067,1.067,0,0,0-.408.547h-.02v-.617Zm-2.69,2.252h-1.175l.583-2.511h.039Zm2.1,2.111-1.661-5.907h-1.952l-1.671,5.907h1.554l.282-1.076h1.544l.282,1.076Zm-7.119-6.449a2.206,2.206,0,0,0-.32-.051c-.123-.011-.23-.016-.321-.016a2.146,2.146,0,0,0-.845.146,1.421,1.421,0,0,0-.544.392,1.493,1.493,0,0,0-.291.567,2.59,2.59,0,0,0-.088.68v.367h-.6v1.018h.6v3.346h1.486v-3.346h.767v-1.018h-.777v-.359a1.055,1.055,0,0,1,.112-.5.442.442,0,0,1,.432-.213,1.131,1.131,0,0,1,.311.042Zm-4.855,4.726a1.5,1.5,0,0,1-.117.375.669.669,0,0,1-.2.254.476.476,0,0,1-.3.092.46.46,0,0,1-.286-.092.67.67,0,0,1-.2-.254,1.476,1.476,0,0,1-.117-.375,2.8,2.8,0,0,1,0-.926,1.487,1.487,0,0,1,.117-.376.678.678,0,0,1,.2-.254.463.463,0,0,1,.286-.092.48.48,0,0,1,.3.092.678.678,0,0,1,.2.254,1.509,1.509,0,0,1,.117.376,2.8,2.8,0,0,1,0,.926Zm1.35-1.4a2.177,2.177,0,0,0-.413-.742,1.864,1.864,0,0,0-.66-.484,2.344,2.344,0,0,0-1.777,0,1.907,1.907,0,0,0-.665.484,2.133,2.133,0,0,0-.417.742,2.938,2.938,0,0,0-.146.943,2.9,2.9,0,0,0,.146.939,2.1,2.1,0,0,0,.422.738,1.96,1.96,0,0,0,.665.484,2.125,2.125,0,0,0,.884.176,2.163,2.163,0,0,0,.889-.176,1.856,1.856,0,0,0,.66-.484,2.182,2.182,0,0,0,.413-.738,2.9,2.9,0,0,0,.146-.939A2.938,2.938,0,0,0,166.933,119.418Zm-10.955-1.243v4.363H157.5v-2.569a.986.986,0,0,1,.155-.58.5.5,0,0,1,.437-.221.359.359,0,0,1,.364.209,1.189,1.189,0,0,1,.092.484v2.678h1.525v-2.669a4.768,4.768,0,0,0-.049-.692,1.68,1.68,0,0,0-.194-.592,1.105,1.105,0,0,0-.408-.413,1.376,1.376,0,0,0-.7-.154,1.334,1.334,0,0,0-.8.229,1.237,1.237,0,0,0-.447.547h-.02v-.617Zm-2.389,2.641a1.5,1.5,0,0,1-.116.375.676.676,0,0,1-.2.254.475.475,0,0,1-.3.092.461.461,0,0,1-.287-.092.67.67,0,0,1-.2-.254,1.476,1.476,0,0,1-.116-.375,2.759,2.759,0,0,1,0-.926,1.487,1.487,0,0,1,.116-.376.678.678,0,0,1,.2-.254.465.465,0,0,1,.287-.092.478.478,0,0,1,.3.092.685.685,0,0,1,.2.254,1.51,1.51,0,0,1,.116.376,2.76,2.76,0,0,1,0,.926Zm1.35-1.4a2.178,2.178,0,0,0-.413-.742,1.854,1.854,0,0,0-.66-.484,2.342,2.342,0,0,0-1.777,0,1.9,1.9,0,0,0-.665.484,2.134,2.134,0,0,0-.418.742,2.954,2.954,0,0,0-.146.943,2.918,2.918,0,0,0,.146.939,2.1,2.1,0,0,0,.423.738,1.955,1.955,0,0,0,.665.484,2.125,2.125,0,0,0,.884.176,2.159,2.159,0,0,0,.888-.176,1.847,1.847,0,0,0,.66-.484,2.183,2.183,0,0,0,.413-.738,2.9,2.9,0,0,0,.146-.939A2.939,2.939,0,0,0,154.939,119.418ZM150,116.693a.776.776,0,0,0-.432-.409.956.956,0,0,0-.68,0,.8.8,0,0,0-.262.167.815.815,0,0,0-.17.242.734.734,0,0,0,.17.834.93.93,0,0,0,1.2,0,.715.715,0,0,0,.233-.538A.7.7,0,0,0,150,116.693Zm-1.539,5.844H150v-4.363h-1.534Zm-.67-.033v-1.026a.77.77,0,0,1-.34.067.443.443,0,0,1-.369-.147.746.746,0,0,1-.116-.465v-1.742h.874v-1.018h-.874v-1.051h-1.476v1.051h-.6v1.018h.612v2.036a1.456,1.456,0,0,0,.35,1.064,1.516,1.516,0,0,0,1.117.355,2.642,2.642,0,0,0,.466-.042A1.552,1.552,0,0,0,147.791,122.5ZM143.139,122v.542h1.253v-2.486a3.4,3.4,0,0,0-.1-.855,1.546,1.546,0,0,0-.321-.63,1.4,1.4,0,0,0-.583-.392,2.513,2.513,0,0,0-.874-.134,2.577,2.577,0,0,0-.918.175,2.114,2.114,0,0,0-.772.492l.67.8a1.382,1.382,0,0,1,.394-.276,1.172,1.172,0,0,1,.51-.109.686.686,0,0,1,.452.142.568.568,0,0,1,.17.459v.066h-.194a4.369,4.369,0,0,0-.787.071,2.167,2.167,0,0,0-.695.246,1.426,1.426,0,0,0-.5.467,1.342,1.342,0,0,0-.189.742,1.408,1.408,0,0,0,.126.63,1.184,1.184,0,0,0,.32.409,1.222,1.222,0,0,0,.428.221,1.648,1.648,0,0,0,.456.067,1.381,1.381,0,0,0,.743-.179.872.872,0,0,0,.384-.472Zm-.068-1.118a1.235,1.235,0,0,1-.039.3.915.915,0,0,1-.116.275.594.594,0,0,1-.209.2.607.607,0,0,1-.306.075.45.45,0,0,1-.316-.121.493.493,0,0,1-.131-.38.551.551,0,0,1,.068-.288.539.539,0,0,1,.185-.184.736.736,0,0,1,.272-.1,1.99,1.99,0,0,1,.321-.025h.272Zm-3.229-4.184a.815.815,0,0,0-.17-.242.8.8,0,0,0-.262-.167.956.956,0,0,0-.68,0,.793.793,0,0,0-.262.167.8.8,0,0,0-.17.242.7.7,0,0,0-.063.3.713.713,0,0,0,.233.538.93.93,0,0,0,1.2,0,.734.734,0,0,0,.17-.834Zm-1.539,5.844h1.534v-4.363H138.3Zm-.534-.334-.611-1.009a.6.6,0,0,1-.2.188.557.557,0,0,1-.286.071.572.572,0,0,1-.5-.288,1.874,1.874,0,0,1,0-1.631.553.553,0,0,1,.471-.292.593.593,0,0,1,.282.067.636.636,0,0,1,.214.184l.612-1.018a1.65,1.65,0,0,0-.486-.3,1.859,1.859,0,0,0-.738-.134,2.043,2.043,0,0,0-.859.171,1.721,1.721,0,0,0-.626.479,2.208,2.208,0,0,0-.389.73,3.016,3.016,0,0,0-.136.931,3.159,3.159,0,0,0,.131.934,2.134,2.134,0,0,0,.384.734,1.727,1.727,0,0,0,.621.48,2.226,2.226,0,0,0,1.593.046A1.4,1.4,0,0,0,137.768,122.2Zm-5.332-1.389a1.5,1.5,0,0,1-.116.375.676.676,0,0,1-.2.254.475.475,0,0,1-.3.092.461.461,0,0,1-.286-.092.67.67,0,0,1-.2-.254,1.455,1.455,0,0,1-.116-.375,2.759,2.759,0,0,1,0-.926,1.466,1.466,0,0,1,.116-.376.678.678,0,0,1,.2-.254.464.464,0,0,1,.286-.092.478.478,0,0,1,.3.092.685.685,0,0,1,.2.254,1.509,1.509,0,0,1,.116.376,2.8,2.8,0,0,1,0,.926Zm1.35-1.4a2.178,2.178,0,0,0-.413-.742,1.855,1.855,0,0,0-.66-.484,2.344,2.344,0,0,0-1.777,0,1.905,1.905,0,0,0-.665.484,2.134,2.134,0,0,0-.418.742,2.953,2.953,0,0,0-.146.943,2.918,2.918,0,0,0,.146.939,2.1,2.1,0,0,0,.422.738,1.966,1.966,0,0,0,.665.484,2.129,2.129,0,0,0,.884.176,2.159,2.159,0,0,0,.889-.176,1.847,1.847,0,0,0,.66-.484,2.183,2.183,0,0,0,.413-.738,2.918,2.918,0,0,0,.146-.939A2.953,2.953,0,0,0,133.787,119.418Zm-4.535-.843a2.619,2.619,0,0,0-.758-.392,2.817,2.817,0,0,0-.894-.142,2.244,2.244,0,0,0-.617.088,1.782,1.782,0,0,0-.553.267,1.434,1.434,0,0,0-.4.451,1.265,1.265,0,0,0-.155.638,1.136,1.136,0,0,0,.364.884,1.238,1.238,0,0,0,.364.238,3.393,3.393,0,0,0,.408.146,3.586,3.586,0,0,1,.583.2.318.318,0,0,1,.194.3.362.362,0,0,1-.121.284.485.485,0,0,1-.335.108,1.156,1.156,0,0,1-.52-.117,1.923,1.923,0,0,1-.442-.3l-.758.834a2.484,2.484,0,0,0,.811.442,3.046,3.046,0,0,0,.976.159,2.387,2.387,0,0,0,.607-.084,1.792,1.792,0,0,0,.568-.259,1.416,1.416,0,0,0,.417-.459,1.34,1.34,0,0,0,.165-.684,1.145,1.145,0,0,0-.112-.522,1.287,1.287,0,0,0-.286-.379,1.507,1.507,0,0,0-.4-.259,2.814,2.814,0,0,0-.447-.158,2.5,2.5,0,0,1-.529-.179.263.263,0,0,1-.141-.246.328.328,0,0,1,.131-.276.5.5,0,0,1,.316-.1,1.074,1.074,0,0,1,.447.092,1.583,1.583,0,0,1,.379.242Zm-3.827,0a2.612,2.612,0,0,0-.758-.392,2.817,2.817,0,0,0-.894-.142,2.237,2.237,0,0,0-.616.088,1.779,1.779,0,0,0-.554.267,1.425,1.425,0,0,0-.4.451,1.26,1.26,0,0,0-.155.638,1.136,1.136,0,0,0,.364.884,1.245,1.245,0,0,0,.364.238,3.393,3.393,0,0,0,.408.146,3.586,3.586,0,0,1,.583.2.319.319,0,0,1,.195.3.362.362,0,0,1-.122.284.485.485,0,0,1-.335.108,1.157,1.157,0,0,1-.52-.117,1.923,1.923,0,0,1-.442-.3l-.758.834a2.484,2.484,0,0,0,.811.442,3.046,3.046,0,0,0,.976.159,2.387,2.387,0,0,0,.607-.084,1.786,1.786,0,0,0,.568-.259,1.4,1.4,0,0,0,.417-.459,1.334,1.334,0,0,0,.165-.684,1.145,1.145,0,0,0-.112-.522,1.287,1.287,0,0,0-.286-.379,1.507,1.507,0,0,0-.4-.259,2.815,2.815,0,0,0-.447-.158,2.513,2.513,0,0,1-.529-.179.263.263,0,0,1-.141-.246.328.328,0,0,1,.131-.276.5.5,0,0,1,.316-.1,1.072,1.072,0,0,1,.447.092,1.583,1.583,0,0,1,.379.242Zm-5.808,1.852h-1.175l.583-2.511h.039Zm2.1,2.111-1.661-5.907H118.1l-1.67,5.907h1.554l.282-1.076h1.544l.282,1.076Zm-7.216-3.963a2.609,2.609,0,0,0-.757-.392,2.819,2.819,0,0,0-.894-.142,2.238,2.238,0,0,0-.617.088,1.782,1.782,0,0,0-.553.267,1.434,1.434,0,0,0-.4.451,1.266,1.266,0,0,0-.155.638,1.141,1.141,0,0,0,.364.884,1.252,1.252,0,0,0,.364.238,3.434,3.434,0,0,0,.408.146,3.586,3.586,0,0,1,.583.2.318.318,0,0,1,.194.3.362.362,0,0,1-.121.284.485.485,0,0,1-.335.108,1.156,1.156,0,0,1-.52-.117,1.923,1.923,0,0,1-.442-.3l-.758.834a2.484,2.484,0,0,0,.811.442,3.046,3.046,0,0,0,.976.159,2.38,2.38,0,0,0,.607-.084,1.789,1.789,0,0,0,.569-.259,1.416,1.416,0,0,0,.417-.459,1.34,1.34,0,0,0,.165-.684,1.145,1.145,0,0,0-.112-.522,1.287,1.287,0,0,0-.286-.379,1.516,1.516,0,0,0-.4-.259,2.854,2.854,0,0,0-.447-.158,2.5,2.5,0,0,1-.529-.179.263.263,0,0,1-.141-.246.328.328,0,0,1,.131-.276.5.5,0,0,1,.316-.1,1.075,1.075,0,0,1,.447.092,1.569,1.569,0,0,1,.378.242Zm-3.827,0a2.609,2.609,0,0,0-.757-.392,2.819,2.819,0,0,0-.894-.142,2.243,2.243,0,0,0-.617.088,1.782,1.782,0,0,0-.553.267,1.434,1.434,0,0,0-.4.451,1.266,1.266,0,0,0-.155.638,1.139,1.139,0,0,0,.365.884,1.237,1.237,0,0,0,.364.238,3.393,3.393,0,0,0,.408.146,3.586,3.586,0,0,1,.583.2.318.318,0,0,1,.194.3.362.362,0,0,1-.121.284.485.485,0,0,1-.335.108,1.156,1.156,0,0,1-.52-.117,1.923,1.923,0,0,1-.442-.3l-.758.834a2.484,2.484,0,0,0,.811.442,3.046,3.046,0,0,0,.976.159,2.38,2.38,0,0,0,.607-.084,1.789,1.789,0,0,0,.569-.259,1.416,1.416,0,0,0,.417-.459,1.34,1.34,0,0,0,.165-.684,1.145,1.145,0,0,0-.112-.522,1.287,1.287,0,0,0-.286-.379,1.507,1.507,0,0,0-.4-.259,2.834,2.834,0,0,0-.447-.158,2.5,2.5,0,0,1-.529-.179.263.263,0,0,1-.141-.246.328.328,0,0,1,.131-.276.5.5,0,0,1,.316-.1,1.074,1.074,0,0,1,.447.092,1.583,1.583,0,0,1,.379.242Zm-5.506,2.24a1.5,1.5,0,0,1-.117.375.669.669,0,0,1-.2.254.476.476,0,0,1-.3.092.46.46,0,0,1-.286-.092.676.676,0,0,1-.2-.254,1.5,1.5,0,0,1-.116-.375,2.8,2.8,0,0,1,0-.926,1.51,1.51,0,0,1,.116-.376.685.685,0,0,1,.2-.254.463.463,0,0,1,.286-.092.48.48,0,0,1,.3.092.678.678,0,0,1,.2.254,1.509,1.509,0,0,1,.117.376,2.8,2.8,0,0,1,0,.926Zm1.35-1.4a2.186,2.186,0,0,0-.413-.742,1.864,1.864,0,0,0-.66-.484,2.344,2.344,0,0,0-1.777,0,1.907,1.907,0,0,0-.665.484,2.124,2.124,0,0,0-.417.742,2.938,2.938,0,0,0-.146.943,2.9,2.9,0,0,0,.146.939,2.087,2.087,0,0,0,.422.738,1.955,1.955,0,0,0,.665.484,2.125,2.125,0,0,0,.884.176,2.163,2.163,0,0,0,.889-.176,1.856,1.856,0,0,0,.66-.484,2.191,2.191,0,0,0,.413-.738,2.9,2.9,0,0,0,.146-.939A2.939,2.939,0,0,0,106.515,119.418Zm-4.4,3.12V121.3H100.28v-4.672H98.707v5.907Zm-8.031-1.727a1.376,1.376,0,0,1-.122.379.712.712,0,0,1-.2.254.461.461,0,0,1-.286.092.476.476,0,0,1-.3-.092.669.669,0,0,1-.2-.254,1.476,1.476,0,0,1-.117-.379,2.772,2.772,0,0,1,0-.922,1.487,1.487,0,0,1,.117-.376.678.678,0,0,1,.2-.254.48.48,0,0,1,.3-.092.464.464,0,0,1,.286.092.722.722,0,0,1,.2.254,1.385,1.385,0,0,1,.122.376,2.772,2.772,0,0,1,0,.922Zm.01-2.636v.517h-.029a1.085,1.085,0,0,0-.364-.467,1.13,1.13,0,0,0-.685-.184,1.443,1.443,0,0,0-.719.175,1.642,1.642,0,0,0-.529.48,2.193,2.193,0,0,0-.33.726,3.591,3.591,0,0,0-.112.922,3.537,3.537,0,0,0,.107.889,2.188,2.188,0,0,0,.32.717,1.532,1.532,0,0,0,.529.476,1.514,1.514,0,0,0,.733.171,1.226,1.226,0,0,0,.651-.171.979.979,0,0,0,.389-.388h.02v.359a1.165,1.165,0,0,1-.209.709.8.8,0,0,1-.685.284,1.521,1.521,0,0,1-.578-.109,2.191,2.191,0,0,1-.49-.275l-.709.968a2.925,2.925,0,0,0,.835.4,3.374,3.374,0,0,0,1.039.163,2.234,2.234,0,0,0,1.728-.6,2.458,2.458,0,0,0,.544-1.714v-4.054Zm-7.7,0v4.363h1.525v-2.569a.986.986,0,0,1,.155-.58.5.5,0,0,1,.437-.221.359.359,0,0,1,.364.209,1.189,1.189,0,0,1,.092.484v2.678h1.525v-2.669a4.769,4.769,0,0,0-.049-.692,1.68,1.68,0,0,0-.194-.592,1.1,1.1,0,0,0-.408-.413,1.376,1.376,0,0,0-.7-.154,1.334,1.334,0,0,0-.8.229,1.237,1.237,0,0,0-.447.547h-.02v-.617Zm-1.17-1.481a.815.815,0,0,0-.17-.242.8.8,0,0,0-.262-.167.956.956,0,0,0-.68,0,.776.776,0,0,0-.432.409.7.7,0,0,0-.064.3.713.713,0,0,0,.233.538.93.93,0,0,0,1.2,0,.734.734,0,0,0,.17-.834Zm-1.539,5.844h1.534v-4.363H83.683Zm-3.312,0H81.9v-2.161a1.469,1.469,0,0,1,.053-.392,1.062,1.062,0,0,1,.155-.334.838.838,0,0,1,.248-.229.648.648,0,0,1,.34-.088,1.113,1.113,0,0,1,.18.013l.151.029.1-1.31L83,118.045c-.033,0-.074,0-.126,0a1.041,1.041,0,0,0-1.02.867h-.01v-.734H80.371ZM77.982,122v.542h1.253v-2.486a3.4,3.4,0,0,0-.1-.855,1.552,1.552,0,0,0-.321-.63,1.4,1.4,0,0,0-.583-.392,2.518,2.518,0,0,0-.874-.134,2.582,2.582,0,0,0-.918.175,2.112,2.112,0,0,0-.772.492l.67.8a1.372,1.372,0,0,1,.393-.276,1.174,1.174,0,0,1,.51-.109.684.684,0,0,1,.452.142.566.566,0,0,1,.17.459v.066h-.194a4.375,4.375,0,0,0-.787.071,2.169,2.169,0,0,0-.694.246,1.432,1.432,0,0,0-.5.467,1.342,1.342,0,0,0-.189.742,1.408,1.408,0,0,0,.126.63,1.185,1.185,0,0,0,.321.409,1.215,1.215,0,0,0,.427.221,1.652,1.652,0,0,0,.457.067,1.382,1.382,0,0,0,.743-.179.876.876,0,0,0,.384-.472Zm-.068-1.118a1.259,1.259,0,0,1-.039.3.915.915,0,0,1-.117.275.589.589,0,0,1-.209.2.605.605,0,0,1-.306.075.449.449,0,0,1-.315-.121.493.493,0,0,1-.132-.38.545.545,0,0,1,.068-.288.537.537,0,0,1,.184-.184.74.74,0,0,1,.272-.1,2,2,0,0,1,.321-.025h.272Zm-5.439-1.043a1.054,1.054,0,0,1,.039-.271.934.934,0,0,1,.116-.267.717.717,0,0,1,.19-.2.448.448,0,0,1,.267-.079.437.437,0,0,1,.417.234,1.215,1.215,0,0,1,.127.584Zm2.555.851v-.367a3.747,3.747,0,0,0-.107-.922,1.937,1.937,0,0,0-.345-.726,1.664,1.664,0,0,0-.607-.48,2.079,2.079,0,0,0-.894-.175,2.052,2.052,0,0,0-.835.167,1.933,1.933,0,0,0-.656.471,2.115,2.115,0,0,0-.427.742,2.974,2.974,0,0,0-.151.972,2.887,2.887,0,0,0,.16,1,2.066,2.066,0,0,0,.447.73,1.86,1.86,0,0,0,.67.446,2.249,2.249,0,0,0,.831.151,2.069,2.069,0,0,0,1.121-.284,1.962,1.962,0,0,0,.7-.767l-1.117-.542a1.012,1.012,0,0,1-.243.334.581.581,0,0,1-.408.142.563.563,0,0,1-.282-.071.661.661,0,0,1-.214-.192,1.018,1.018,0,0,1-.141-.284,1.1,1.1,0,0,1-.054-.346Zm-4.924,1.852v-5.907H68.562v2.236h-1.6v-2.236H65.415v5.907h1.544v-2.469h1.6v2.469Z" transform="translate(-26.901 -50.01)" fill="#fff"/></g></g></g></svg>