<svg xmlns="http://www.w3.org/2000/svg" xmlns:xlink="http://www.w3.org/1999/xlink" width="200" height="100" viewBox="0 0 200 100"><defs><linearGradient id="a" x1="-0.332" y1="7.205" x2="0.201" y2="7.305" gradientUnits="objectBoundingBox"><stop offset="0" stop-color="#fff" stop-opacity="0"/><stop offset="0.14" stop-color="#fff" stop-opacity="0.141"/><stop offset="1" stop-color="#fff"/></linearGradient></defs><g transform="translate(-165.502 -274.498)"><rect width="200" height="100" transform="translate(165.502 274.498)" fill="none"/><g transform="translate(-22.998 16.998)"><g transform="translate(288.5 306.623)"><g transform="translate(-85 -17.123)"><g transform="translate(38.335 9.642)"><path d="M138.1,48.14V42.878h-4.733V48.2a.382.382,0,0,1-.382.382h-2.2a.382.382,0,0,1-.382-.382V35.382a.382.382,0,0,1,.382-.382h2.2a.382.382,0,0,1,.382.382v4.88H138.1v-4.88a.382.382,0,0,1,.382-.382h2.2a.382.382,0,0,1,.382.382V48.14a.382.382,0,0,1-.382.382h-2.2C138.249,48.552,138.1,48.4,138.1,48.14Z" transform="translate(-130.4 -34.353)" fill="#30436a"/><path d="M175.78,56.171c-3.087,0-4.88-1.293-4.88-5.321s1.823-5.35,4.645-5.35,4.292,1,4.409,5.673a.382.382,0,0,1-.382.382l-5.732.588a1.679,1.679,0,0,0,1.94,1.734,5.262,5.262,0,0,0,2.616-.588.382.382,0,0,1,.529.206l.588,1.264a.412.412,0,0,1-.147.47A6.82,6.82,0,0,1,175.78,56.171ZM177.1,49.88c-.059-1.529-.588-2.117-1.646-2.117s-1.793.735-1.793,2.352v.323Z" transform="translate(-158.995 -41.767)" fill="#30436a"/><path d="M210.208,55.934a11.644,11.644,0,0,1-.382-1.205,3.051,3.051,0,0,1-2.94,1.529c-2.557,0-3.586-1.264-3.586-3.145s1.205-3.057,6.144-3.381c-.059-1.47-.794-1.852-1.94-1.852a6.643,6.643,0,0,0-2.469.529.412.412,0,0,1-.529-.206l-.588-1.352c-.059-.206,0-.441.147-.47a8.172,8.172,0,0,1,3.821-.794c2.675,0,4.292,1.587,4.292,4.057v2.528a16.608,16.608,0,0,0,.206,3.2c.059.206-.088.441-.235.441l-1.529.382A.706.706,0,0,1,210.208,55.934Zm-.735-4.351c-2.41.147-3.322.588-3.322,1.411s.382,1.058,1.47,1.058,1.47-.529,1.852-1.352Z" transform="translate(-181.87 -41.824)" fill="#30436a"/><path d="M241.386,47.835A.412.412,0,0,1,241,47.6a11.905,11.905,0,0,1-.323-3.234v-9.73a.382.382,0,0,1,.382-.382l2.028-.265a.382.382,0,0,1,.441.382V44.513a18.933,18.933,0,0,0,.147,2.881.382.382,0,0,1-.382.441Z" transform="translate(-208.256 -33.636)" fill="#30436a"/><path d="M258.58,49.017a.411.411,0,0,1-.441,0c-1.676-1.117-1.94-3.087-1.94-4.968v-3.5h-1.117a.382.382,0,0,1-.382-.382V38.875a.382.382,0,0,1,.382-.382H256.2V35.936a.353.353,0,0,1,.323-.382l2.028-.265a.382.382,0,0,1,.441.382v2.851h1.676a.382.382,0,0,1,.382.441l-.147,1.293a.353.353,0,0,1-.382.323h-1.529v3.528a4.866,4.866,0,0,0,1,3.41.441.441,0,0,1-.059.588Z" transform="translate(-218.161 -34.554)" fill="#30436a"/><path d="M286.923,47.623a.382.382,0,0,1-.382-.382V41.979c0-1.734-.382-2.528-1.47-2.528a1.836,1.836,0,0,0-1.881,1.205v6.555a.382.382,0,0,1-.382.382h-2.028a.382.382,0,0,1-.382-.382V34.336a.353.353,0,0,1,.323-.382l2.028-.265a.382.382,0,0,1,.441.382v4.409a2.784,2.784,0,0,1,2.793-1.411c3,0,3.381,2.352,3.381,4.409v5.673a.382.382,0,0,1-.382.382h-2.028v.088Z" transform="translate(-236.303 -33.424)" fill="#30436a"/><path d="M315.083,57.425a3.088,3.088,0,0,0,1.734-1.587l-3.145-9.23a.441.441,0,0,1,.323-.529l2.263-.323c.206-.059.382.088.441.323l1.94,7.672,2-7.731a.412.412,0,0,1,.441-.323l2,.206a.353.353,0,0,1,.323.529l-2.734,8.2a6.9,6.9,0,0,1-4.409,4.674.412.412,0,0,1-.47-.147l-.735-1.205a.294.294,0,0,1,.029-.529Z" transform="translate(-259.789 -41.904)" fill="#30436a"/><path d="M370.3,48.14V42.878h-4.733V48.2a.382.382,0,0,1-.382.382h-2.2a.382.382,0,0,1-.382-.382V35.382a.382.382,0,0,1,.382-.382h2.2a.382.382,0,0,1,.382.382v4.88H370.3v-4.88a.382.382,0,0,1,.382-.382h2.2a.382.382,0,0,1,.382.382V48.14a.382.382,0,0,1-.382.382h-2.234a.353.353,0,0,1-.353-.382Z" transform="translate(-294.343 -34.353)" fill="#30436a"/><path d="M407.98,56.171c-3.087,0-4.88-1.293-4.88-5.321s1.823-5.35,4.645-5.35,4.292,1,4.409,5.673a.382.382,0,0,1-.382.382l-5.732.588a1.679,1.679,0,0,0,1.94,1.734,5.262,5.262,0,0,0,2.616-.588.382.382,0,0,1,.529.206l.588,1.264a.411.411,0,0,1-.147.47A6.614,6.614,0,0,1,407.98,56.171Zm1.382-6.291c-.059-1.529-.588-2.117-1.646-2.117s-1.793.735-1.793,2.352v.323Z" transform="translate(-322.937 -41.767)" fill="#30436a"/><path d="M442.608,55.934a11.633,11.633,0,0,1-.382-1.205,3.051,3.051,0,0,1-2.94,1.529c-2.557,0-3.586-1.264-3.586-3.145s1.205-3.057,6.144-3.381c-.059-1.47-.794-1.852-1.94-1.852a6.643,6.643,0,0,0-2.469.529.412.412,0,0,1-.529-.206l-.588-1.352c-.059-.206,0-.441.147-.47a8.172,8.172,0,0,1,3.821-.794c2.675,0,4.292,1.587,4.292,4.057v2.528a16.605,16.605,0,0,0,.206,3.2.353.353,0,0,1-.265.441l-1.529.382C442.9,56.17,442.667,56.081,442.608,55.934Zm-.764-4.351c-2.41.147-3.322.588-3.322,1.411s.382,1.058,1.47,1.058,1.47-.529,1.852-1.352Z" transform="translate(-345.954 -41.824)" fill="#30436a"/><path d="M472.356,55.938a.382.382,0,0,1-.382-.382V49.618a16.61,16.61,0,0,0-.206-3.2.353.353,0,0,1,.265-.441l1.529-.382a.412.412,0,0,1,.47.206,14.2,14.2,0,0,1,.47,1.47,3.527,3.527,0,0,1,2.557-1.793.382.382,0,0,1,.47.323l.323,2.557h-.382a2.623,2.623,0,0,0-2.734,1.529V55.5a.382.382,0,0,1-.382.382h-2v.059Z" transform="translate(-371.41 -41.74)" fill="#30436a"/><path d="M495.5,34.211c0-1,.617-1.411,1.676-1.411s1.676.441,1.676,1.411-.617,1.411-1.676,1.411S495.5,35.181,495.5,34.211ZM496.5,47a.412.412,0,0,1-.382-.235,13.2,13.2,0,0,1-.323-3.234V37.474a.382.382,0,0,1,.382-.382l2.028-.265a.382.382,0,0,1,.441.382v6.467a18.929,18.929,0,0,0,.147,2.881.382.382,0,0,1-.382.441Z" transform="translate(-388.175 -32.8)" fill="#30436a"/><path d="M519,55.965a.382.382,0,0,1-.382-.382V50.321c0-1.734-.382-2.528-1.47-2.528A1.836,1.836,0,0,0,515.266,49v6.555a.382.382,0,0,1-.382.382h-2.028a.382.382,0,0,1-.382-.382V49.615a16.608,16.608,0,0,0-.206-3.2.353.353,0,0,1,.265-.441l1.529-.382a.412.412,0,0,1,.47.235c.147.382.265.794.382,1.205a3.087,3.087,0,0,1,3-1.529c3.322,0,3.616,2.352,3.616,4.409v5.615a.382.382,0,0,1-.382.382H519Z" transform="translate(-400.005 -41.767)" fill="#30436a"/><path d="M551.274,56.781c1.293,0,2.2-.47,2.2-2.469v-.588a2.77,2.77,0,0,1-2.793,1.529c-2.2,0-3.586-1.352-3.586-4.88s1.676-4.88,4.792-4.88a14.287,14.287,0,0,1,4.145.529.382.382,0,0,1,.235.382v7.819c0,3.145-1.881,4.939-4.88,4.939a6.908,6.908,0,0,1-2.557-.441.382.382,0,0,1-.265-.47l.382-1.47a.353.353,0,0,1,.47-.265A4.88,4.88,0,0,0,551.274,56.781Zm2.2-8.789a4.527,4.527,0,0,0-1.646-.206c-1.264,0-1.94.676-1.94,2.675s.235,2.616,1.734,2.616a2.124,2.124,0,0,0,1.852-1.146Z" transform="translate(-424.607 -41.76)" fill="#30436a"/></g><path d="M11.337,33.884,7.6,35.471c-.206.088-.441-.059-.323-.235a25.192,25.192,0,0,0,1.352-3.381L8.9,30.738a.47.47,0,0,0-.147-.529A14.874,14.874,0,0,1,3.4,18.745,15.473,15.473,0,0,1,18.48,3.4,15.281,15.281,0,0,1,33.354,18.745,15.207,15.207,0,0,1,18.362,33.619a13.934,13.934,0,0,1-4.468-.676.441.441,0,0,0-.382,0Z" transform="translate(-2.398 -2.4)" fill="#f0f2f7"/><path d="M37.769,17.855a7.467,7.467,0,0,0-7.819,6,8.084,8.084,0,0,0,.059,2.91c.235,1,2.851,9.524,2.851,9.671a4.88,4.88,0,0,0,.235,1.146,3.4,3.4,0,0,0,1.47,1.881,4.413,4.413,0,0,0,5.673-.882c1.382-1.852.794-3.528,1.646-5.2s2.41-3.145,3.145-5.027a7.084,7.084,0,0,0,.088-4.733,8.407,8.407,0,0,0-7.349-5.762Z" transform="translate(-21.07 -12.593)" fill="url(#a)"/><g transform="translate(8.746 5.264)"><path d="M49.611,35.682c.206.088.529-.588.588-.882a4.988,4.988,0,0,0-.323-3.322,4.282,4.282,0,0,0-4.057-2.2,4.27,4.27,0,0,0-3.263,6.673c.882,1.411,1.352.882,2.117.059s1.734-.088,2,.764-.323.823-.617,1.117A2.822,2.822,0,0,0,45,39.622c-.088.529-.147,2.028-1,2.028s-.617-.47-.676-.794c-.382-2.028-.323-2-.382-2.117v-.059c-.147-.206-.47-.059-.47.206s.088,1.205.088,1.293c.088.97.47,3.234,1.94,2.734s1.205-2.117,1.411-3.2,1.293-1.529,1.823-2.734a2.13,2.13,0,0,0-.823-2.91c-1.47-.617-2.2.735-3,1.47a.382.382,0,0,1-.588-.147,3.662,3.662,0,0,1,.882-3.821,3.672,3.672,0,0,1,4.145-.147A3.145,3.145,0,0,1,49.7,34.742C49.611,35.183,49.376,35.565,49.611,35.682Z" transform="translate(-38.278 -25.925)" fill="#2f426a"/><path d="M30.82,26.312a6.261,6.261,0,0,1,5.409-7.2,6.738,6.738,0,0,1,7.349,4.2,6.173,6.173,0,0,1-.088,4.409c-.676,1.587-2,2.675-2.851,4.145-1.264,2.263-.529,7.731-4.586,7.261a2.557,2.557,0,0,1-1.293-.382,3.175,3.175,0,0,1-1.47-2c-.059-.147-.147-.529-.382-.529s-.147.088-.147.206a4.88,4.88,0,0,0,.235,1.146,3.4,3.4,0,0,0,1.47,1.881,4.413,4.413,0,0,0,5.673-.882c1.382-1.852.764-3.528,1.646-5.2s2.41-3.145,3.145-5.027a7.084,7.084,0,0,0,.088-4.733,8.554,8.554,0,0,0-7.349-5.673,7.367,7.367,0,0,0-7.819,5.938,8.084,8.084,0,0,0,.059,2.91c.235,1,.47,1.47.735,1.587a.412.412,0,0,0,.529-.529,10.407,10.407,0,0,1-.353-1.529Z" transform="translate(-29.745 -17.907)" fill="#2f426a"/></g><path d="M16.133,0A16.34,16.34,0,0,0,4.992,28.1a.5.5,0,0,1,.147.529,9.025,9.025,0,0,1-.588,2c-.147.382-.441,1.058-.588,1.47a5.115,5.115,0,0,0-.47,1.205.764.764,0,0,0,.059.617.882.882,0,0,0,.676.323A4.968,4.968,0,0,0,5.962,33.8l2.322-.882c.617-.265,1.823-.735,2.616-1a.323.323,0,0,1,.323,0A16.358,16.358,0,1,0,16.133,0Zm-7.2,31.483L5.2,33.07c-.206.088-.441-.059-.323-.235a25.192,25.192,0,0,0,1.352-3.381l.265-1.117a.47.47,0,0,0-.147-.529A14.874,14.874,0,0,1,.994,16.343,15.473,15.473,0,0,1,16.074,1,15.281,15.281,0,0,1,30.949,16.343,15.207,15.207,0,0,1,15.957,31.218a13.934,13.934,0,0,1-4.468-.676.441.441,0,0,0-.382,0Z" transform="translate(0.008 0.001)" fill="#2f426a"/></g></g></g></g></svg>