<svg height="60" viewBox="0 0 60 60" width="60" xmlns="http://www.w3.org/2000/svg"><circle cx="30" cy="30" fill="none" opacity=".502" r="30"/><path d="m921.495 1092.726h5.563l.992 3.372h9.091l.992-3.372h5.567l-.729-2.481h-20.749zm6.739-20-2.7 3.72a5.031 5.031 0 0 0 .913 6.492l5 3.609c.857.619.924 1.239.517 1.887l.727.54 2.531-3.512a4.744 4.744 0 0 0 -.719-6.671c-.057-.046-.115-.091-.174-.134l-5.045-3.676a1.26 1.26 0 0 1 -.333-1.736l-.726-.519zm4.325-16.419-4.2 5.807a7.207 7.207 0 0 0 1.438 9.349l6.9 5.068a3.9 3.9 0 0 1 .563 4.983l.585.438 4.761-6.7a7.047 7.047 0 0 0 -1.326-9.878l-.017-.013-7.384-5.361a2.243 2.243 0 0 1 -.8-3.07c.035-.06.072-.118.112-.174z" fill="#004963" fill-rule="evenodd" transform="translate(-902.773 -1045.239)"/></svg>