<svg xmlns="http://www.w3.org/2000/svg" width="38.888" height="55" viewBox="0 0 38.888 55">
  <defs>
    <style>
      .cls-1 {
        fill: #315e9b;
      }
    </style>
  </defs>
  <path id="Path_8345" data-name="Path 8345" class="cls-1" d="M856.214,334.642H848.3a3.484,3.484,0,0,0-3.291-2.491h-1.813c.006-.088.011-.18.011-.27a3.628,3.628,0,1,0-7.252,0,2.208,2.208,0,0,0,.011.27h-1.812a3.485,3.485,0,0,0-3.292,2.491H823.8A3.3,3.3,0,0,0,820.561,338v41.761a3.3,3.3,0,0,0,3.235,3.358h32.418a3.3,3.3,0,0,0,3.235-3.358V338A3.3,3.3,0,0,0,856.214,334.642ZM839.579,330.1a1.76,1.76,0,0,1,0,3.517h0a1.76,1.76,0,0,1,0-3.517Zm17.87,49.663a1.26,1.26,0,0,1-1.235,1.283H823.8a1.26,1.26,0,0,1-1.235-1.283V338a1.26,1.26,0,0,1,1.235-1.283h6.875v2.657h17.813v-2.657h7.73A1.26,1.26,0,0,1,857.449,338Zm-5.594-29.382H833.97a.779.779,0,0,1,0-1.557h17.885a.779.779,0,0,1,0,1.557ZM829.5,348a1.961,1.961,0,1,1-1.9,1.96A1.931,1.931,0,0,1,829.5,348Zm22.918,12.074H834.528a.779.779,0,0,1,0-1.557h17.886a.779.779,0,0,1,0,1.557ZM829.5,357.336a1.961,1.961,0,1,1-1.9,1.959A1.93,1.93,0,0,1,829.5,357.336Zm22.918,12.073H834.528a.779.779,0,0,1,0-1.557h17.886a.779.779,0,0,1,0,1.557ZM829.5,366.672a1.96,1.96,0,1,1-1.9,1.959A1.93,1.93,0,0,1,829.5,366.672Z" transform="translate(-820.561 -328.119)"/>
</svg>
