<svg xmlns="http://www.w3.org/2000/svg" width="78.014" height="78.014" viewBox="0 0 78.014 78.014"><g transform="translate(-455.604 3.157)"><circle cx="34" cy="34" r="34" transform="translate(455.604 63.965) rotate(-80.783)" fill="none"/><path d="M498.853,33.075c-1.91-2.62-4.241.135-4.241.135s-2.331-2.755-4.242-.135c-2.04,2.8,2.883,5.9,4.242,6.679,1.358-.782,6.281-3.881,4.241-6.679" fill="#315e9b"/><path d="M494.611,59.958c-6.372,0-11.363-10.59-11.363-24.108s4.991-24.109,11.363-24.109,11.364,10.59,11.364,24.109-4.992,24.108-11.364,24.108m0-46.217c-5.075,0-9.363,10.125-9.363,22.109s4.288,22.108,9.363,22.108,9.364-10.125,9.364-22.108-4.288-22.109-9.364-22.109" fill="#315e9b"/><path d="M507.275,51.769c-5.12,0-11.861-2.128-18.571-6.21-11.549-7.028-18-16.8-14.69-22.239,1.656-2.722,5.41-3.863,10.57-3.215a42.1,42.1,0,0,1,15.933,6.037c11.548,7.028,18,16.8,14.691,22.239-1.388,2.281-4.239,3.388-7.933,3.388m-25.357-29.84c-3.029,0-5.232.846-6.2,2.43-2.638,4.335,3.783,13.261,14.02,19.491s21.118,7.828,23.756,3.492-3.785-13.261-14.021-19.491a40.1,40.1,0,0,0-15.143-5.762,19.5,19.5,0,0,0-2.417-.16" fill="#315e9b"/><path d="M481.946,51.769c-3.694,0-6.544-1.107-7.931-3.388-3.312-5.443,3.141-15.211,14.69-22.239s23.189-8.267,26.5-2.823-3.144,15.212-14.692,22.24c-6.71,4.081-13.451,6.21-18.571,6.21m7.8-23.918h0c-10.237,6.23-16.658,15.155-14.021,19.49s13.517,2.738,23.755-3.491S516.137,28.694,513.5,24.358s-13.518-2.736-23.756,3.493" fill="#315e9b"/></g></svg>