<svg xmlns="http://www.w3.org/2000/svg" width="68" height="68" viewBox="0 0 68 68"><g transform="translate(-1 -1)"><circle cx="34" cy="34" r="34" transform="translate(1 1)" fill="none"/><path d="M36.705,59.9a8.539,8.539,0,0,1-6.231-2.353,20.22,20.22,0,0,1-3.61-5.573,26.772,26.772,0,0,0-3.634-5.841c-1.394-1.576-2.649-2.828-3.756-3.933-2.95-2.945-5.082-5.072-6.272-9.826a15.346,15.346,0,0,1-.42-6.317A12.021,12.021,0,0,1,13.855,22.1a20.033,20.033,0,0,1,3.04-4.885,16.21,16.21,0,0,1,12.628-6.007,17.043,17.043,0,0,1,8.911,2.329,16.756,16.756,0,0,1,5.268,5.1,21.093,21.093,0,0,1,3.105,7.368,1,1,0,0,1-1.97.345h0A19.416,19.416,0,0,0,42,19.7a14.74,14.74,0,0,0-4.635-4.466,15.088,15.088,0,0,0-7.846-2.022,14.26,14.26,0,0,0-11.1,5.3,14.95,14.95,0,0,0-3.645,7.7l0,.1-.022.091a13.251,13.251,0,0,0,.39,5.486c1.056,4.216,2.821,5.978,5.745,8.9,1.128,1.125,2.406,2.4,3.841,4.024a28.74,28.74,0,0,1,3.92,6.262,18.856,18.856,0,0,0,3.215,5.038,6.759,6.759,0,0,0,5.355,1.78,8.076,8.076,0,0,0,6.132-2.739,6.93,6.93,0,0,0,1.485-5.306,1,1,0,0,1,1.975-.318A8.991,8.991,0,0,1,44.9,56.413a9.9,9.9,0,0,1-7.592,3.475Q37,59.9,36.705,59.9Z" fill="#315e9b"/><path d="M20.32,29.508a1,1,0,0,1-1-1A10.538,10.538,0,0,1,29.763,17.529a10.739,10.739,0,0,1,10.4,9.315,1,1,0,0,1-1.987.226,8.742,8.742,0,0,0-8.4-7.541,8.6,8.6,0,0,0-5.69,2.241,8.773,8.773,0,0,0-2.763,6.738A1,1,0,0,1,20.32,29.508Z" fill="#315e9b"/><path d="M32.294,46.474a1,1,0,0,1-.608-.207c-5.136-3.939-7.72-8.087-7.679-12.329.056-5.75,4.936-9.409,5.144-9.562a1,1,0,0,1,1.187,1.61,12.566,12.566,0,0,0-2.19,2.246,9.526,9.526,0,0,0-2.141,5.741c-.028,3.573,2.292,7.175,6.9,10.706a1,1,0,0,1-.609,1.794Z" fill="#315e9b"/><path d="M32.295,46.474a1,1,0,0,1-.685-.272,13.38,13.38,0,0,1-3.275-4.49,8.294,8.294,0,0,1-.658-3.844,7.212,7.212,0,0,1,1.279-3.655l1.578,1.229,0-.006a5.322,5.322,0,0,0-.874,2.684,6.374,6.374,0,0,0,.545,2.89,11.505,11.505,0,0,0,2.77,3.734,1,1,0,0,1-.685,1.728Z" fill="#315e9b"/><path d="M47.573,43.76a1,1,0,0,1-.928-.629l-1.577-3.943H41.175a1,1,0,0,1,0-2h4.57a1,1,0,0,1,.929.629l.772,1.93,2.372-7.794a1,1,0,0,1,1.9-.037L54.5,39.9l.834-2.086a1,1,0,0,1,.929-.629h4.115a1,1,0,0,1,0,2H56.935l-1.577,3.943a1,1,0,0,1-1.873-.043l-2.647-7.617-2.307,7.58a1,1,0,0,1-.914.708Z" fill="#315e9b"/></g></svg>