<svg xmlns="http://www.w3.org/2000/svg" width="53.439" height="42.793" viewBox="0 0 53.439 42.793">
  <defs>
    <style>
      .cls-1 {
        fill: none;
      }

      .cls-2 {
        fill: #315e9b;
      }
    </style>
  </defs>
  <g id="Group_1890" data-name="Group 1890" transform="translate(-896.786 -418.731)">
    <path id="Path_8311" data-name="Path 8311" class="cls-1" d="M945.469,431.49H920.663a3.686,3.686,0,0,0-3.675,3.675v14.7a3.686,3.686,0,0,0,3.675,3.675h14.791l7.744,5.985.32-5.985h1.951a2.764,2.764,0,0,0,2.756-2.756V434.246A2.764,2.764,0,0,0,945.469,431.49Z"/>
    <path id="Path_8348" data-name="Path 8348" class="cls-2" d="M945.475,429.49H932.937v-6.506a4.266,4.266,0,0,0-4.253-4.253H899.976a3.2,3.2,0,0,0-3.19,3.19v19.138a3.2,3.2,0,0,0,3.19,3.19h2.39l.312,6.4a.638.638,0,0,0,1.115.4l7.9-6.8h3.29v5.616a5.7,5.7,0,0,0,5.669,5.674h14.115l7.2,5.567a2,2,0,0,0,3.22-1.475l.218-4.092h.055a4.776,4.776,0,0,0,4.756-4.75V434.246A4.778,4.778,0,0,0,945.475,429.49Zm2.75,21.293a2.764,2.764,0,0,1-2.756,2.756h-1.951l-.32,5.985-7.744-5.985H920.663a3.685,3.685,0,0,1-3.675-3.674v-5.616h11.7A4.266,4.266,0,0,0,932.937,440V431.49h12.532a2.765,2.765,0,0,1,2.756,2.756Z"/>
  </g>
</svg>
