<svg xmlns="http://www.w3.org/2000/svg" width="53.167" height="34.957" viewBox="0 0 53.167 34.957">
  <defs>
    <style>
      .cls-1 {
        fill: #315e9b;
      }
    </style>
  </defs>
  <g id="medium_icon-6" data-name="medium icon-6" transform="translate(-719.875 -420.551)">
    <path id="Path_8350" data-name="Path 8350" class="cls-1" d="M768.364,420.551H724.553a4.683,4.683,0,0,0-4.678,4.679v25.6a4.683,4.683,0,0,0,4.678,4.678h43.811a4.683,4.683,0,0,0,4.678-4.678v-25.6A4.683,4.683,0,0,0,768.364,420.551Zm-43.811,2h43.811a2.678,2.678,0,0,1,2.678,2.679v4.391H721.875V425.23A2.678,2.678,0,0,1,724.553,422.551Zm43.811,30.957H724.553a2.678,2.678,0,0,1-2.678-2.678v-10h49.167v10A2.678,2.678,0,0,1,768.364,453.508Zm-35.207-3.772h-7.134a.75.75,0,0,1,0-1.5h7.134a.75.75,0,0,1,0,1.5Zm20.385,0H738.254a.75.75,0,0,1,0-1.5h15.288a.75.75,0,0,1,0,1.5Z"/>
  </g>
</svg>
