<svg xmlns="http://www.w3.org/2000/svg" width="38.962" height="61.824" viewBox="0 0 38.962 61.824">
  <defs>
    <style>
      .cls-1 {
        fill: #315e9b;
      }
    </style>
  </defs>
  <g id="medium_icon-6" data-name="medium icon-6" transform="translate(0)">
    <path id="Path_8346" data-name="Path 8346" class="cls-1" d="M935.626,352.528H912.131a.75.75,0,0,1,0-1.5h23.495a.75.75,0,0,1,0,1.5Zm.75,4.77a.75.75,0,0,0-.75-.75H912.131a.75.75,0,0,0,0,1.5h23.495A.75.75,0,0,0,936.376,357.3Zm0,5.519a.75.75,0,0,0-.75-.75H912.131a.75.75,0,0,0,0,1.5h23.495A.75.75,0,0,0,936.376,362.817Z" transform="translate(-904.397 -326.07)"/>
    <path id="Path_8347" data-name="Path 8347" class="cls-1" d="M943.056,336.814l-9.122-9.418a1.022,1.022,0,0,0-.733-.313H907.434a3.092,3.092,0,0,0-3.037,3.137v45.471a3.092,3.092,0,0,0,3.037,3.138h12.444v2.649h-2.517a.439.439,0,0,0-.3.75l6.517,6.555a.413.413,0,0,0,.59,0l6.518-6.555a.439.439,0,0,0-.295-.75h-2.518v-2.649h12.445a3.092,3.092,0,0,0,3.036-3.138v-38.12A1.09,1.09,0,0,0,943.056,336.814Zm-10.7-7.59h.413l8.441,8.715a.946.946,0,0,1-.89.512h-7c-.8,0-.964-.988-.964-1.817Zm8.928,46.467a.982.982,0,0,1-.964,1H927.878v-4.575a.441.441,0,0,0-.433-.449h-7.133a.442.442,0,0,0-.434.449v4.575H907.434a.981.981,0,0,1-.964-1V330.22a.981.981,0,0,1,.964-1h22.853v7.41c0,2.922,1.636,3.958,3.036,3.958h7a3.108,3.108,0,0,0,.964-.164Z" transform="translate(-904.397 -327.083)"/>
  </g>
</svg>
