<svg height="60" viewBox="0 0 60 60" width="60" xmlns="http://www.w3.org/2000/svg" xmlns:xlink="http://www.w3.org/1999/xlink"><linearGradient id="a" gradientUnits="objectBoundingBox" x1="1.597" x2="2.131" y1="7.205" y2="7.305"><stop offset="0" stop-color="#fff" stop-opacity="0"/><stop offset=".14" stop-color="#fff" stop-opacity=".141"/><stop offset="1" stop-color="#fff"/></linearGradient><circle cx="30" cy="30" fill="none" opacity=".502" r="30"/><circle cx="30" cy="30" fill="none" opacity=".502" r="30"/><path d="m12.643 38.9c-.856.377-3.321 1.4-4.348 1.849-.24.1-.513-.068-.377-.274a29.341 29.341 0 0 0 1.575-3.937l.308-1.3a.558.558 0 0 0 -.171-.616 17.308 17.308 0 0 1 -6.23-13.353 18.019 18.019 0 0 1 17.561-17.869 17.6 17.6 0 0 1 -.137 35.191 16.233 16.233 0 0 1 -5.2-.787.5.5 0 0 0 -.445 0z" fill="#f0f2f7" transform="translate(9.238 6.666)"/><path d="m39.072 17.858a8.7 8.7 0 0 0 -9.106 6.983 9.4 9.4 0 0 0 .068 3.389c.274 1.164 3.321 11.091 3.321 11.262a5.676 5.676 0 0 0 .274 1.335 3.954 3.954 0 0 0 1.712 2.191c1.917 1.13 5 1.13 6.607-1.027 1.472-2.02.924-4.108 1.917-6.059 1.027-2.088 2.807-3.663 3.663-5.854a8.253 8.253 0 0 0 .1-5.511 9.773 9.773 0 0 0 -8.556-6.709z" fill="url(#a)" transform="translate(-8.154 -2.829)"/><g fill="#2f426a"><path d="m50.891 36.739c.24.1.616-.685.685-1.027a5.809 5.809 0 0 0 -.377-3.868 4.986 4.986 0 0 0 -4.724-2.567 4.973 4.973 0 0 0 -3.8 7.771c.959 1.506 1.575 1.027 2.465.068s2.02-.1 2.328.89c.171.548-.377.959-.719 1.3a3.286 3.286 0 0 0 -1.232 2.02c-.1.616-.171 2.362-1.164 2.362-.513 0-.719-.548-.787-.924-.445-2.362-.377-2.328-.445-2.465v-.069c-.171-.24-.548-.068-.548.24.068.616.1 1.4.1 1.506.1 1.13.548 3.766 2.259 3.184 1.472-.548 1.4-2.465 1.643-3.731.274-1.506 1.506-1.78 2.122-3.184a2.481 2.481 0 0 0 -.959-3.389c-1.712-.719-2.567.856-3.492 1.712a.448.448 0 0 1 -.685-.171 4.264 4.264 0 0 1 1.027-4.45 4.058 4.058 0 0 1 4.827-.171 3.677 3.677 0 0 1 1.575 3.868c-.099.513-.372.956-.099 1.095z" transform="translate(-16.037 -10.344)"/><path d="m31 27.7c-.445-4.211 2.02-7.771 6.3-8.387a7.846 7.846 0 0 1 8.558 4.9 7.189 7.189 0 0 1 -.1 5.135c-.787 1.849-2.328 3.115-3.321 4.827-1.472 2.636-.616 9-5.34 8.455a2.968 2.968 0 0 1 -1.506-.445 3.683 3.683 0 0 1 -1.712-2.328c-.068-.171-.171-.616-.445-.616-.1 0-.171.1-.171.24a5.676 5.676 0 0 0 .274 1.335 3.954 3.954 0 0 0 1.704 2.184c1.917 1.13 5 1.13 6.607-1.027 1.472-2.02.89-4.108 1.917-6.059 1.027-2.088 2.807-3.663 3.663-5.854a8.253 8.253 0 0 0 .1-5.511 9.965 9.965 0 0 0 -8.558-6.607 8.579 8.579 0 0 0 -9.106 6.915 9.4 9.4 0 0 0 .068 3.389c.274 1.164.548 1.712.856 1.849a.476.476 0 0 0 .616-.616 12.118 12.118 0 0 1 -.404-1.779z" transform="translate(-8.088 -2.875)"/><path d="m18.788 0a19.028 19.028 0 0 0 -12.974 32.725.592.592 0 0 1 .171.616 10.516 10.516 0 0 1 -.685 2.328c-.171.445-.513 1.232-.685 1.712a5.953 5.953 0 0 0 -.548 1.4.876.876 0 0 0 .068.719 1.027 1.027 0 0 0 .787.377 5.768 5.768 0 0 0 2.02-.513c.856-.308 1.849-.719 2.7-1.027.719-.308 2.122-.856 3.047-1.164a.37.37 0 0 1 .377 0 19.049 19.049 0 1 0 5.722-37.173zm-8.388 36.662c-.856.377-3.321 1.4-4.348 1.849-.24.1-.513-.068-.377-.274a29.341 29.341 0 0 0 1.577-3.937l.308-1.3a.558.558 0 0 0 -.171-.616 17.308 17.308 0 0 1 -6.23-13.351 18.019 18.019 0 0 1 17.561-17.87 17.6 17.6 0 0 1 -.137 35.191 16.233 16.233 0 0 1 -5.2-.787.5.5 0 0 0 -.445 0z" transform="translate(11.479 8.903)"/></g></svg>