<svg xmlns="http://www.w3.org/2000/svg" width="43.98" height="52.504" viewBox="0 0 43.98 52.504">
  <defs>
    <style>
      .cls-1 {
        fill: #315e9b;
      }
    </style>
  </defs>
  <g id="medium_icon-6" data-name="medium icon-6" transform="translate(-985.763 -413.004)">
    <g id="Group_1889" data-name="Group 1889">
      <g id="Group_1910" data-name="Group 1910">
        <path id="Path_8310-2" data-name="Path 8310" class="cls-1" d="M1007.673,415a2,2,0,0,1,1.258.443l17.8,13.243a2.672,2.672,0,0,1,1.013,2.131c-.574,28.8-19.987,32.687-19.987,32.687S988.2,459.6,987.764,430.492a2.55,2.55,0,0,1,.672-1.768c4-4.34,14.486-10.831,18.086-13.356a2,2,0,0,1,1.151-.364m0-2h0a3.983,3.983,0,0,0-2.3.726c-.771.541-1.892,1.285-3.19,2.147-4.752,3.157-11.935,7.928-15.219,11.491a4.54,4.54,0,0,0-1.2,3.156c.129,8.684,2.106,20.741,10.793,28.852a24.43,24.43,0,0,0,10.808,6.093,1.989,1.989,0,0,0,.784,0,24.39,24.39,0,0,0,10.747-6.037c4.777-4.435,10.537-12.991,10.847-28.572a4.708,4.708,0,0,0-1.77-3.738l-.048-.037-17.776-13.225a4.024,4.024,0,0,0-2.475-.856Z"/>
      </g>
      <path id="Path_8349" data-name="Path 8349" class="cls-1" d="M1018.274,436.779h-6.789v-6.788a1,1,0,0,0-1-1h-5.19a1,1,0,0,0-1,1v6.788h-6.788a1,1,0,0,0-1,1v5.19a1,1,0,0,0,1,1h6.788v6.789a1,1,0,0,0,1,1h5.19a1,1,0,0,0,1-1v-6.789h6.789a1,1,0,0,0,1-1v-5.19A1,1,0,0,0,1018.274,436.779Z"/>
    </g>
  </g>
</svg>
