<svg xmlns="http://www.w3.org/2000/svg" width="68" height="68" viewBox="0 0 68 68"><g transform="translate(-303.01 -2.061)"><circle cx="34" cy="34" r="34" transform="translate(303.01 2.061)" fill="none"/><path d="M359.689,37.692a1.1,1.1,0,0,0-.747-.947L328.95,26.7a1.1,1.1,0,0,0-1.394,1.393L337.6,58.087a1.1,1.1,0,0,0,.947.747c.032,0,.065,0,.1,0a1.1,1.1,0,0,0,.966-.574l4.535-8.312,8.328,8.278a1.1,1.1,0,0,0,1.555,0l5.053-5.053a1.1,1.1,0,0,0,0-1.555l-8.278-8.328,8.313-4.535a1.1,1.1,0,0,0,.57-1.064m-11.225,4.367a1.1,1.1,0,0,0-.253,1.743l8.538,8.59-3.5,3.5-8.59-8.538a1.1,1.1,0,0,0-1.743.253l-4.028,7.384-8.54-25.5,25.5,8.54Z" fill="#315e9b"/><path d="M318.645,16.233a1.1,1.1,0,0,0-1.557,1.557l5.578,5.578a1.1,1.1,0,0,0,1.557-1.557Z" fill="#315e9b"/><path d="M332.675,22.738a1.1,1.1,0,0,0,2.182-.3l-1.023-9.552a1.1,1.1,0,1,0-2.181.3Z" fill="#315e9b"/><path d="M323.592,31.82,314.041,30.8a1.1,1.1,0,0,0-.3,2.182L323.3,34a1.081,1.081,0,0,0,.15.011,1.1,1.1,0,0,0,.147-2.192Z" fill="#315e9b"/></g></svg>