<svg xmlns="http://www.w3.org/2000/svg" width="68" height="68" viewBox="0 0 68 68"><g transform="translate(-538.018 -2.76)"><circle cx="34" cy="34" r="34" transform="translate(538.018 2.76)" fill="none"/><path d="M598.176,43.34c-1.868,3.922-4.338,6.8-7.066,8.295.1-.108.194-.2.264-.282a1.368,1.368,0,0,0,.361-.928l-.032-.2c0-.013-.134-.42-.312-1.1a18.064,18.064,0,0,0,5.024-6.622c2.46-5.164,3.266-11.31,1.959-14.946-.425-1.184-.971-1.828-1.624-1.914-1.432-.191-3.624,1.9-5.08,3.64a1.377,1.377,0,0,0-.944-.915c-.184-.051-.424-.114-.688-.183,1.485-1.824,4.353-4.815,6.966-4.477,1.435.188,2.514,1.261,3.207,3.189,1.492,4.151.674,10.76-2.035,16.445m-44.667,6.935.066-.135c.005-.012.178-.374.412-1.012a19.463,19.463,0,0,1-6.3-7.963c-2.466-5.179-3.308-10.928-2.094-14.306.585-1.627,1.3-1.73,1.542-1.764,1.732-.241,4.553,2.451,6.393,4.708l-.015-.111a1.376,1.376,0,0,1,1.011-1.325c.081-.023.186-.05.284-.076-1.715-2.054-5.088-5.54-7.948-5.128-1.408.2-2.452,1.222-3.1,3.036-1.4,3.9-.549,10.1,2.169,15.805,2.093,4.395,4.917,7.692,7.909,9.3a1.369,1.369,0,0,1-.322-.878Zm19.95-8.314c-6.483,0-13.355.361-16.872.576a23.518,23.518,0,0,1-.748,5.039c3.33.789,11.41,2.561,16.783,2.561,5.523,0,13.9-1.908,17.046-2.674a33.249,33.249,0,0,1-.617-4.7c-3-.3-9.076-.8-15.592-.8M556.1,35.945a41.4,41.4,0,0,1,.5,5.288c3.562-.217,10.4-.574,16.858-.574s12.467.493,15.551.795c0-.048,0-.1,0-.144a45.03,45.03,0,0,1,.391-5.342A138.783,138.783,0,0,0,573,34.291a154.667,154.667,0,0,0-16.9,1.654m34.142,13.936c-.085-.3-.186-.688-.3-1.145-3.212.788-11.61,2.7-17.327,2.7-5.618,0-13.82-1.814-17.15-2.61-.119.367-.233.682-.335.948-.114.3-.214.538-.284.7.153.17.379.408.667.692a23.856,23.856,0,0,0,33.838.371c.5-.465.853-.839,1.056-1.061h0c-.039-.126-.1-.333-.173-.594m.136-20.26c-.295-.081-.708-.19-1.2-.314a71.222,71.222,0,0,0-16.522-2.127,72.058,72.058,0,0,0-16.965,2.225c-.324.083-.611.158-.826.217a.076.076,0,0,0-.042.03c.034.131.092.36.165.657.218.9.58,2.476.907,4.35A153.922,153.922,0,0,1,573,32.99a137.872,137.872,0,0,1,16.568,1.686c.262-1.847.551-3.446.723-4.346.06-.311.106-.546.132-.671a.073.073,0,0,0-.046-.038" fill="#315e9b"/></g></svg>