<svg xmlns="http://www.w3.org/2000/svg" width="49.422" height="57.032" viewBox="0 0 49.422 57.032">
  <defs>
    <style>
      .cls-1 {
        fill: #315e9b;
      }
    </style>
  </defs>
  <path id="Path_8351" data-name="Path 8351" class="cls-1" d="M1004.434,341.729a13,13,0,1,0,13,13A13,13,0,0,0,1004.434,341.729Zm2.764,17.684a3.564,3.564,0,0,1-2.21.945v1.491h-1.218v-1.491a3.957,3.957,0,0,1-1.585-.5,2.749,2.749,0,0,1-1.078-1.136,3.764,3.764,0,0,1-.367-1.812l.016-.039H1002s.164.007.208.122a1.11,1.11,0,0,1,.06.325,2.236,2.236,0,0,0,.253.842,1.657,1.657,0,0,0,.753.714,2.483,2.483,0,0,0,1.062.223,2.729,2.729,0,0,0,1.147-.219,1.637,1.637,0,0,0,.731-.625,1.788,1.788,0,0,0,.254-.968,1.655,1.655,0,0,0-.215-.843,2.046,2.046,0,0,0-.687-.68,5.636,5.636,0,0,0-1.238-.562,7.173,7.173,0,0,1-1.757-.773,2.893,2.893,0,0,1-1.428-2.624,3,3,0,0,1,.741-2.1,3.2,3.2,0,0,1,2.038-.976v-1.725h1.234v1.733a2.991,2.991,0,0,1,2.027,1.121,3.986,3.986,0,0,1,.721,2.5h-1.249s-.19-.024-.237-.088a.4.4,0,0,1-.056-.233,2.636,2.636,0,0,0-.476-1.4,1.6,1.6,0,0,0-1.362-.655,1.643,1.643,0,0,0-1.843,1.8,1.776,1.776,0,0,0,.2.87,1.865,1.865,0,0,0,.679.668,6.462,6.462,0,0,0,1.3.578,7.534,7.534,0,0,1,1.757.792,3.022,3.022,0,0,1,1.038,1.074,3.077,3.077,0,0,1,.344,1.507A2.876,2.876,0,0,1,1007.2,359.413Zm.1-27.9-5.314,4.726a.328.328,0,0,1-.546-.245v-3.27a22.212,22.212,0,0,0-4.509,42.92,1.25,1.25,0,1,1-.844,2.353,24.712,24.712,0,0,1,5.353-47.793V326.54a.328.328,0,0,1,.546-.245l5.314,4.726A.328.328,0,0,1,1007.3,331.512Zm.11,47.74v3.663a.328.328,0,0,1-.546.245l-5.314-4.726a.328.328,0,0,1,0-.491l5.314-4.726a.328.328,0,0,1,.546.245v3.27a22.212,22.212,0,0,0,3.7-43.191,1.25,1.25,0,0,1,.752-2.384,24.711,24.711,0,0,1-4.454,48.1Z" transform="translate(-979.711 -326.211)"/>
</svg>
