<svg xmlns="http://www.w3.org/2000/svg" id="icon-quote" width="100" height="74.476" viewBox="0 0 100 74.476"><g transform="translate(100 74.476) rotate(180)" style="mix-blend-mode:multiply;isolation:isolate"><path d="M11.723,74.451a3.327,3.327,0,0,0,3.017-1.492c8.865-11.995,17.782-23.951,26.645-35.947a22.789,22.789,0,0,0,4.354-18.085A23.043,23.043,0,0,0,.2,25.852,22.721,22.721,0,0,0,10.365,42.284c1.239.846,2.621,1.483,3.994,2.25-.111.247-.222.514-.349.775q-2.827,5.8-5.658,11.6c-2.226,4.56-4.407,9.143-6.7,13.667a2.553,2.553,0,0,0,2.405,3.892C6.6,74.311,9.167,74.39,11.723,74.451Z" transform="translate(53.885)" fill="#4e4e4e"/><path d="M10.807,3.5A23.073,23.073,0,0,0,7.829,40.361,25.217,25.217,0,0,0,14.4,44.443c-.684,1.41-1.315,2.715-1.951,4.016C8.846,55.846,5.272,63.248,1.61,70.606a2.545,2.545,0,0,0,2.376,3.848c2.608-.147,5.232-.071,7.848-.018a3.191,3.191,0,0,0,2.853-1.455q13.33-18.021,26.7-36.012a22.368,22.368,0,0,0,4.345-17.3A23,23,0,0,0,10.807,3.5Z" transform="translate(0 0.013)" fill="#4e4e4e"/></g></svg>