<svg xmlns="http://www.w3.org/2000/svg" width="68" height="68" viewBox="0 0 68 68"><g transform="translate(-145 -2.061)"><circle cx="34" cy="34" r="34" transform="translate(145 2.061)" fill="none"/><path d="M200.006,39.789a21.411,21.411,0,0,0-11.22-12.89,11.254,11.254,0,1,0-18.461.148A21.232,21.232,0,0,0,159.609,39.2a1.25,1.25,0,0,0,.777,1.588,1.229,1.229,0,0,0,.406.069,1.252,1.252,0,0,0,1.183-.844A18.718,18.718,0,0,1,172.088,29a11.182,11.182,0,0,0,14.977-.139,18.891,18.891,0,0,1,10.554,11.67,1.25,1.25,0,0,0,1.193.879,1.232,1.232,0,0,0,.372-.057,1.25,1.25,0,0,0,.822-1.565M170.75,20.56a8.75,8.75,0,1,1,8.75,8.75,8.76,8.76,0,0,1-8.75-8.75" fill="#315e9b"/><path d="M167.161,48.831l-4.169-.606a.393.393,0,0,1-.3-.216l-1.864-3.778a.4.4,0,0,0-.71,0l-1.864,3.778a.393.393,0,0,1-.3.216l-4.168.606a.4.4,0,0,0-.22.675l3.017,2.94a.4.4,0,0,1,.113.351l-.738,4.307a.317.317,0,0,0,.461.335l3.868-2.034a.4.4,0,0,1,.368,0l3.729,1.961a.4.4,0,0,0,.574-.418L164.25,52.8a.4.4,0,0,1,.114-.351l3.016-2.94a.4.4,0,0,0-.219-.675" fill="#315e9b"/><path d="M205.161,48.831l-4.169-.606a.393.393,0,0,1-.3-.216l-1.864-3.778a.4.4,0,0,0-.71,0l-1.864,3.778a.393.393,0,0,1-.3.216l-4.168.606a.4.4,0,0,0-.22.675l3.017,2.94a.4.4,0,0,1,.113.351l-.738,4.307a.317.317,0,0,0,.461.335l3.868-2.034a.4.4,0,0,1,.368,0l3.729,1.961a.4.4,0,0,0,.574-.418L202.25,52.8a.4.4,0,0,1,.114-.351l3.016-2.94a.4.4,0,0,0-.219-.675" fill="#315e9b"/><path d="M186.161,48.831l-4.169-.606a.393.393,0,0,1-.3-.216l-1.864-3.778a.4.4,0,0,0-.71,0l-1.864,3.778a.393.393,0,0,1-.3.216l-4.168.606a.4.4,0,0,0-.22.675l3.017,2.94a.4.4,0,0,1,.113.351l-.738,4.307a.317.317,0,0,0,.461.335l3.868-2.034a.4.4,0,0,1,.368,0l3.729,1.961a.4.4,0,0,0,.574-.418L183.25,52.8a.4.4,0,0,1,.114-.351l3.016-2.94a.4.4,0,0,0-.219-.675" fill="#315e9b"/></g></svg>