<svg xmlns="http://www.w3.org/2000/svg" width="68" height="68" viewBox="0 0 68 68"><g transform="translate(-696.956 -1)"><circle cx="34" cy="34" r="34" transform="translate(696.956 1)" fill="none"/><path d="M724.422,47.6a3.348,3.348,0,1,1-3.347,3.348,3.348,3.348,0,0,1,3.347-3.348m16.2,3.348a3.348,3.348,0,1,0,3.348-3.348,3.348,3.348,0,0,0-3.348,3.348" transform="translate(0 2)" fill="#315e9b"/><path d="M748.388,42.334H719.512a1,1,0,0,1-.974-.773L714.509,24.3a1,1,0,0,1,.974-1.227H754.27a1,1,0,0,1,.947,1.323l-5.882,17.258A1,1,0,0,1,748.388,42.334Zm-28.083-2h27.367l5.2-15.258H716.743Z" transform="translate(0 2)" fill="#315e9b"/><path d="M747.321,49.586h-24.49a3.118,3.118,0,0,1-3.052-2.428L713.636,20.58a1.145,1.145,0,0,0-1.121-.891H705.34a1,1,0,0,1,0-2h7.175a3.135,3.135,0,0,1,3.069,2.441l6.143,26.578a1.127,1.127,0,0,0,1.1.878h24.49a1,1,0,0,1,0,2Z" transform="translate(0 2)" fill="#315e9b"/></g></svg>