<svg xmlns="http://www.w3.org/2000/svg" width="68" height="68" viewBox="0 0 68 68"><g transform="translate(-383.204 -2.061)"><circle cx="34" cy="34" r="34" transform="translate(383.204 2.061)" fill="none"/><path d="M1064.586,23324.9a2.968,2.968,0,0,1-2.312-1.094l-2.015-2.443a10.613,10.613,0,0,0,2.238-.424l1.316,1.6a1.01,1.01,0,0,0,.773.361.971.971,0,0,0,.638-.227l14.658-12.084a1.008,1.008,0,0,0,.141-1.41l-18.363-22.273a2.007,2.007,0,0,0-1.229-.7l-13.786-2.184a.352.352,0,0,1-.045,0,.667.667,0,0,0-.113-.012,1,1,0,0,0-1,.971l-.492,13.949a2.012,2.012,0,0,0,.457,1.342l4.7,5.7a10.4,10.4,0,0,0-.845,2.113l-5.393-6.543a3.954,3.954,0,0,1-.913-2.682l.486-13.949a3,3,0,0,1,3-2.9,3.5,3.5,0,0,1,.474.035l13.786,2.189a3.983,3.983,0,0,1,2.459,1.406l18.357,22.273a3,3,0,0,1-.4,4.221l-14.664,12.088A3.026,3.026,0,0,1,1064.586,23324.9Z" transform="translate(-642.42 -23265.391)" fill="#315e9b"/><path d="M410.052,23.728a2,2,0,1,1-2.815-.271,2,2,0,0,1,2.815.271" fill="#315e9b"/><path d="M1053.5,23303a10.5,10.5,0,1,1,7.427-3.076A10.512,10.512,0,0,1,1053.5,23303Zm3.544-10.713a2.181,2.181,0,0,0-1.877.895,4.266,4.266,0,0,0,.076,4.625,2.331,2.331,0,0,0,1.807.814,2.419,2.419,0,0,0,1.854-.82,4.087,4.087,0,0,0,.006-4.707A2.423,2.423,0,0,0,1057.042,23292.289Zm-.5-6.287a1.077,1.077,0,0,0-.947.572l-6.252,12.049h.854a.583.583,0,0,0,.526-.322l6.363-12.3Zm-7.252,0a2.162,2.162,0,0,0-1.866.895,3.648,3.648,0,0,0-.649,2.182,3.563,3.563,0,0,0,.725,2.443,2.327,2.327,0,0,0,1.807.809,2.391,2.391,0,0,0,1.842-.82,3.379,3.379,0,0,0,.749-2.338,3.415,3.415,0,0,0-.737-2.369A2.423,2.423,0,0,0,1049.287,23286Zm7.79,11.609a1.1,1.1,0,0,1-.906-.475,2.719,2.719,0,0,1-.369-1.619,2.956,2.956,0,0,1,.363-1.738,1.132,1.132,0,0,1,1.836-.006,2.791,2.791,0,0,1,.363,1.633,2.938,2.938,0,0,1-.363,1.73A1.114,1.114,0,0,1,1057.077,23297.611Zm-7.749-6.293a1.123,1.123,0,0,1-.906-.469,2.692,2.692,0,0,1-.368-1.625,2.977,2.977,0,0,1,.369-1.738,1.1,1.1,0,0,1,.906-.473,1.139,1.139,0,0,1,.918.467,2.741,2.741,0,0,1,.368,1.633,3.017,3.017,0,0,1-.363,1.73A1.119,1.119,0,0,1,1049.328,23291.318Z" transform="translate(-636.491 -23247)" fill="#315e9b"/><path d="M1053.5,23303.5a11,11,0,1,1,7.781-3.223A11.012,11.012,0,0,1,1053.5,23303.5Zm0-21a10,10,0,1,0,10,10A10.009,10.009,0,0,0,1053.5,23282.5Zm3.55,16.621a2.811,2.811,0,0,1-2.18-.982,4.076,4.076,0,0,1-.846-2.77,4.123,4.123,0,0,1,.739-2.48,2.688,2.688,0,0,1,2.282-1.1,2.9,2.9,0,0,1,2.235.971,4.569,4.569,0,0,1,0,5.379A2.9,2.9,0,0,1,1057.048,23299.123Zm-.006-6.334a1.685,1.685,0,0,0-1.472.688,3.787,3.787,0,0,0,.046,4,1.825,1.825,0,0,0,1.432.645,1.91,1.91,0,0,0,1.484-.658,3.614,3.614,0,0,0,.009-4.029A1.922,1.922,0,0,0,1057.042,23292.789Zm-6.848,6.334h-1.677l6.631-12.779a1.582,1.582,0,0,1,1.391-.842h1.366l-.378.73-6.362,12.3A1.083,1.083,0,0,1,1050.194,23299.123Zm-.031-1h.031a.085.085,0,0,0,.079-.045l0-.008,5.928-11.459a.561.561,0,0,0-.169.193Zm6.915-.012a1.593,1.593,0,0,1-1.3-.668,3.122,3.122,0,0,1-.474-1.926,3.33,3.33,0,0,1,.468-2.045,1.632,1.632,0,0,1,2.625-.008l0,.008a3.189,3.189,0,0,1,.464,1.934,3.313,3.313,0,0,1-.466,2.033A1.61,1.61,0,0,1,1057.077,23298.111Zm.006-4.3a.621.621,0,0,0-.521.277,2.461,2.461,0,0,0-.26,1.434,2.2,2.2,0,0,0,.264,1.313.6.6,0,0,0,.511.281.617.617,0,0,0,.525-.275l0-.006a2.459,2.459,0,0,0,.258-1.424,2.285,2.285,0,0,0-.259-1.328A.616.616,0,0,0,1057.083,23293.807Zm-7.778-.977a2.806,2.806,0,0,1-2.181-.977,4.028,4.028,0,0,1-.852-2.775,4.14,4.14,0,0,1,.744-2.475,2.67,2.67,0,0,1,2.271-1.1,2.939,2.939,0,0,1,2.238.961,4.581,4.581,0,0,1-.008,5.383A2.875,2.875,0,0,1,1049.3,23292.83Zm-.017-6.328a1.668,1.668,0,0,0-1.459.686,3.163,3.163,0,0,0-.555,1.891,3.1,3.1,0,0,0,.6,2.107,1.823,1.823,0,0,0,1.437.645,1.885,1.885,0,0,0,1.471-.656,2.9,2.9,0,0,0,.62-2,2.944,2.944,0,0,0-.606-2.031A1.917,1.917,0,0,0,1049.287,23286.5Zm.041,5.316a1.624,1.624,0,0,1-1.3-.658,3.094,3.094,0,0,1-.476-1.936,3.358,3.358,0,0,1,.474-2.045,1.6,1.6,0,0,1,1.3-.666,1.638,1.638,0,0,1,1.309.654l0,.006a3.143,3.143,0,0,1,.474,1.939,3.4,3.4,0,0,1-.464,2.031l0,.006A1.609,1.609,0,0,1,1049.328,23291.818Zm0-4.3a.606.606,0,0,0-.509.275,2.454,2.454,0,0,0-.266,1.436,2.213,2.213,0,0,0,.264,1.318.616.616,0,0,0,.511.275.625.625,0,0,0,.527-.277,2.517,2.517,0,0,0,.26-1.428,2.244,2.244,0,0,0-.261-1.324A.646.646,0,0,0,1049.328,23287.514Z" transform="translate(-636.491 -23247)" fill="rgba(0,0,0,0)"/></g></svg>