<svg xmlns="http://www.w3.org/2000/svg" width="68" height="68" viewBox="0 0 68 68"><g transform="translate(-1 -2.061)"><circle cx="34" cy="34" r="34" transform="translate(1 2.061)" fill="none"/><path d="M51,18.06H45.5v-2a1.5,1.5,0,0,0-3,0v2h-14v-2a1.5,1.5,0,0,0-3,0v2H19a6.006,6.006,0,0,0-6,6v27a6.007,6.007,0,0,0,6,6H51a6.007,6.007,0,0,0,6-6v-27a6.007,6.007,0,0,0-6-6m4,33a4,4,0,0,1-4,4H19a4,4,0,0,1-4-4v-21H55Zm0-23H15v-4a4,4,0,0,1,4-4h6.5v3a1.5,1.5,0,1,0,3,0v-3h14v3a1.5,1.5,0,1,0,3,0v-3H51a4,4,0,0,1,4,4ZM44.075,39.408l-5.221-.759a.5.5,0,0,1-.374-.271l-2.335-4.731a.5.5,0,0,0-.889,0l-2.335,4.731a.493.493,0,0,1-.373.271l-5.221.759a.5.5,0,0,0-.275.845l3.778,3.683a.5.5,0,0,1,.143.439l-.926,5.4a.4.4,0,0,0,.578.419l4.845-2.547a.5.5,0,0,1,.462,0L40.6,50.1a.5.5,0,0,0,.719-.523l-.892-5.2a.5.5,0,0,1,.143-.439l3.778-3.683a.5.5,0,0,0-.275-.845" fill="#315e9b"/></g></svg>