<svg xmlns="http://www.w3.org/2000/svg" width="47.603" height="51.747" viewBox="0 0 47.603 51.747">
  <defs>
    <style>
      .cls-1 {
        fill: #315e9b;
      }
    </style>
  </defs>
  <path id="Group_1892" data-name="Group 1892" class="cls-1" d="M834.823,446.248a3.52,3.52,0,0,1-.434,2.051,1.317,1.317,0,0,1-.317.315,1.34,1.34,0,0,1-1.86-.315,3.18,3.18,0,0,1-.437-1.921,3.534,3.534,0,0,1,.433-2.061,1.321,1.321,0,0,1,1.085-.562,1.338,1.338,0,0,1,1.091.562A3.2,3.2,0,0,1,834.823,446.248Zm31.073,2.813a3.406,3.406,0,0,1-1.243,2.323l-17.95,14.7a3.462,3.462,0,0,1-4.849-.466l-2.732-3.293c-.4.038-.8.06-1.208.06A12.338,12.338,0,0,1,826,446.5l-6.619-7.979a4.624,4.624,0,0,1-1.066-3.12l.6-16.972a3.444,3.444,0,0,1,3.566-3.312,3.538,3.538,0,0,1,.42.041l16.878,2.659a4.679,4.679,0,0,1,2.874,1.632l22.475,27.094A3.407,3.407,0,0,1,865.9,449.061Zm-32.632.987a2.864,2.864,0,0,0,2.2-.972,4.829,4.829,0,0,0,.01-5.574,2.9,2.9,0,0,0-2.226-.948,2.586,2.586,0,0,0-2.23,1.066,4.3,4.3,0,0,0-.769,2.584,4.213,4.213,0,0,0,.862,2.886A2.781,2.781,0,0,0,833.264,450.048Zm9.272-7.492h-.65a1.275,1.275,0,0,0-1.128.679L833.3,457.507l1.02,0a.717.717,0,0,0,.63-.381Zm-2.2,13.982a2.778,2.778,0,0,0,2.158.963,2.868,2.868,0,0,0,2.205-.974,4.819,4.819,0,0,0,.009-5.572,2.9,2.9,0,0,0-2.224-.948,2.6,2.6,0,0,0-2.241,1.06,4.288,4.288,0,0,0-.769,2.588A4.21,4.21,0,0,0,840.34,456.538ZM863.9,448.87a1.411,1.411,0,0,0-.322-1.045l-22.476-27.1a2.679,2.679,0,0,0-1.644-.934l-16.879-2.659a1.533,1.533,0,0,0-.178-.017h-.051a1.444,1.444,0,0,0-1.448,1.383l-.6,16.972a2.638,2.638,0,0,0,.607,1.774l5.934,7.153a12.409,12.409,0,1,1,14.511,17.494l2.031,2.447a1.458,1.458,0,0,0,2.043.2l17.95-14.7A1.414,1.414,0,0,0,863.9,448.87Zm-20.273,6.875a3.507,3.507,0,0,0,.434-2.052,3.209,3.209,0,0,0-.438-1.93,1.34,1.34,0,0,0-1.091-.561v.005a1.331,1.331,0,0,0-1.1.561,3.545,3.545,0,0,0-.433,2.061,3.189,3.189,0,0,0,.438,1.916,1.344,1.344,0,0,0,2.186,0Zm-15.84-33.072a2.433,2.433,0,1,0,2.448,2.433A2.441,2.441,0,0,0,827.791,422.673Z" transform="translate(-818.309 -415.118)"/>
</svg>
