<svg xmlns="http://www.w3.org/2000/svg" width="68" height="68" viewBox="0 0 68 68"><g transform="translate(-224.005 -2.061)"><circle cx="34" cy="34" r="34" transform="translate(224.005 2.061)" fill="none"/><path d="M273.481,44.743c-1.049-2.187-4.8-5.222-8.426-8.154-2.022-1.635-3.932-3.18-5.15-4.4a1.116,1.116,0,0,0-1.165-.261c-.75.272-1.214.481-1.579.644a3.687,3.687,0,0,1-1.494.41,1.111,1.111,0,0,0-.815.487c-1.574,2.354-3.2,2.153-4.293,1.788-.347-.115-.41-.265-.443-.407-.234-.978.94-3.253,2.46-4.774,3.619-3.621,5.485-4.527,9.426-2.766,4.471,2,8.952,3.565,9,3.581a1.114,1.114,0,1,0,.733-2.1c-.045-.015-4.436-1.549-8.818-3.511-5.106-2.283-7.907-.78-11.909,3.224-1.523,1.523-3.591,4.6-3.057,6.865a2.751,2.751,0,0,0,1.913,2.006,5.571,5.571,0,0,0,6.54-2.24,5.605,5.605,0,0,0,1.672-.53c.209-.093.454-.2.779-.334,1.274,1.2,2.993,2.588,4.8,4.051,3.274,2.647,6.986,5.649,7.821,7.386a1.305,1.305,0,0,1-.332,1.672,1.228,1.228,0,0,1-1.372.27,1.113,1.113,0,0,0-1.739,1.035,1.346,1.346,0,0,1-.853,1.254,1.71,1.71,0,0,1-1.734.04,1.114,1.114,0,0,0-1.869.71,2.116,2.116,0,0,1-1.313,1.706,1.176,1.176,0,0,1-1.279-.2,1.124,1.124,0,0,0-1.017-.259,1.112,1.112,0,0,0-.782.7c-.042.111-.138.378-1.18.378a6.418,6.418,0,0,1-2.728-.933c-.781-.514-5.682-4.17-9.915-7.715-.6-.5-1.624-1.575-2.532-2.523-.806-.842-1.543-1.606-1.922-1.927a1.114,1.114,0,1,0-1.438,1.7c.345.291,1.013,1,1.75,1.766.993,1.037,2.02,2.11,2.71,2.689,4.146,3.472,9.13,7.22,10.123,7.872a8.538,8.538,0,0,0,3.952,1.3,3.83,3.83,0,0,0,2.527-.744,3.467,3.467,0,0,0,2.532-.027,4.383,4.383,0,0,0,2.318-2.139,4.311,4.311,0,0,0,2.8-.4,3.779,3.779,0,0,0,1.859-1.942,3.64,3.64,0,0,0,2.554-.915,3.541,3.541,0,0,0,.891-4.329" fill="#315e9b"/><path d="M253.351,26.117h-9.537a1.127,1.127,0,0,0-1.14.913,1.07,1.07,0,0,0,1.058,1.225h9.536a1.128,1.128,0,0,0,1.141-.913,1.07,1.07,0,0,0-1.058-1.225" fill="#315e9b"/><path d="M276.743,42.374a1.11,1.11,0,0,0-1.545-.3l-3.256,2.187a1.114,1.114,0,0,0,1.243,1.848l3.255-2.187a1.114,1.114,0,0,0,.3-1.545" fill="#315e9b"/><path d="M269.831,47.687c-.8-.628-4.362-4.278-6.567-6.576a1.113,1.113,0,1,0-1.607,1.541c.572.6,5.62,5.859,6.793,6.785a1.107,1.107,0,0,0,.688.239,1.125,1.125,0,0,0,.878-.426,1.112,1.112,0,0,0-.185-1.563" fill="#315e9b"/><path d="M265.382,49.92c-1.334-1.067-4.685-4.627-5.442-5.451a1.114,1.114,0,1,0-1.641,1.507c.04.043,4.039,4.36,5.691,5.683a1.114,1.114,0,1,0,1.392-1.739" fill="#315e9b"/><path d="M260.951,52.163c-1.588-1.338-4.836-4.8-5.471-5.476a1.114,1.114,0,0,0-1.628,1.521c.913.978,4.022,4.273,5.663,5.658a1.114,1.114,0,1,0,1.436-1.7" fill="#315e9b"/><path d="M244.3,24.552c-1.908-1.809-9.539-2.394-11.833-2.53a1.114,1.114,0,0,0-1.18,1.111V43.174a1.113,1.113,0,0,0,1.114,1.113h6.68a1.111,1.111,0,0,0,1.057-.768c.163-.5,4-12.274,4.505-18.063a1.107,1.107,0,0,0-.343-.9m-6.121,17.063h-4.754V23.881c3.578.283,7.439.9,8.842,1.579-.59,4.877-3.26,13.541-4.088,16.155" fill="#315e9b"/><path d="M284.726,25.271a1.119,1.119,0,0,0-1.122-1.114c-8.737,0-13.584,2.238-13.786,2.332a1.107,1.107,0,0,0-.6.692,1.123,1.123,0,0,0,.123.9c1.376,2.216,5.684,14.521,6.513,17.522a1.112,1.112,0,0,0,1.073.818h6.68a1.114,1.114,0,0,0,1.114-1.114Zm-2.138,19.016h-4.734c-1.056-3.438-4.173-12.4-5.912-16.108a36.236,36.236,0,0,1,10.646-1.692Z" fill="#315e9b"/></g></svg>