<svg xmlns="http://www.w3.org/2000/svg" width="68" height="68" viewBox="0 0 68 68"><g transform="translate(-618.212 -2.76)"><circle cx="34" cy="34" r="34" transform="translate(618.212 2.76)" fill="none"/><path d="M672.313,27.3l-9.131,5.272v-6.61a2,2,0,0,0-2-2H635.916a2,2,0,0,0-2,2v21.6a2,2,0,0,0,2,2h25.266a2,2,0,0,0,2-2V41.47l9.131,5.272a.5.5,0,0,0,.75-.433V27.729a.5.5,0,0,0-.75-.433M656,37.354l-10.035,5.794a.686.686,0,0,1-1.028-.594V30.967a.685.685,0,0,1,1.028-.594L656,36.167a.685.685,0,0,1,0,1.187" fill="#315e9b"/></g></svg>