<svg height="50" viewBox="0 0 50 50" width="50" xmlns="http://www.w3.org/2000/svg"><path d="m0 0h50v50h-50z" fill="none"/><g fill="#f0f2f7"><path d="m40.949 31.913c.195.083.5-.556.556-.834a4.718 4.718 0 0 0 -.306-3.142 4.061 4.061 0 1 0 -6.924 4.227c.779 1.224 1.279.834 2 .056s1.641-.083 1.891.723c.139.445-.306.779-.584 1.057a2.669 2.669 0 0 0 -1 1.641c-.083.5-.139 1.919-.946 1.919-.417 0-.584-.445-.64-.751-.362-1.919-.306-1.891-.362-2v-.056c-.139-.195-.445-.056-.445.195.056.5.083 1.14.083 1.224.083.918.445 3.059 1.835 2.586 1.2-.445 1.14-2 1.334-3.031.222-1.224 1.223-1.446 1.724-2.586a2.015 2.015 0 0 0 -.779-2.753c-1.39-.584-2.086.7-2.836 1.39a.364.364 0 0 1 -.55-.143 3.464 3.464 0 0 1 .834-3.615 3.3 3.3 0 0 1 3.921-.139 2.987 2.987 0 0 1 1.279 3.142c-.085.417-.308.777-.085.89z" transform="translate(-12.22 -8.998)"/><path d="m30.077 29.565a5.923 5.923 0 0 1 5.117-6.813 6.374 6.374 0 0 1 6.952 3.977 5.839 5.839 0 0 1 -.083 4.171c-.64 1.5-1.891 2.53-2.7 3.921-1.2 2.141-.5 7.313-4.338 6.868a2.41 2.41 0 0 1 -1.223-.361 2.992 2.992 0 0 1 -1.39-1.891c-.056-.139-.139-.5-.361-.5-.083 0-.139.083-.139.195a4.613 4.613 0 0 0 .222 1.085 3.212 3.212 0 0 0 1.392 1.783 4.174 4.174 0 0 0 5.367-.834c1.2-1.641.723-3.337 1.557-4.922.834-1.7 2.28-2.975 2.975-4.755a6.7 6.7 0 0 0 .083-4.477 8.1 8.1 0 0 0 -6.952-5.367 6.969 6.969 0 0 0 -7.4 5.617 7.64 7.64 0 0 0 .056 2.753c.222.945.445 1.39.7 1.5a.387.387 0 0 0 .5-.5 9.843 9.843 0 0 1 -.334-1.446z" transform="translate(-11.072 -7.929)"/><path d="m33.231 14.934a15.457 15.457 0 0 0 -10.539 26.584.481.481 0 0 1 .139.5 8.545 8.545 0 0 1 -.556 1.891c-.139.361-.417 1-.556 1.39a4.838 4.838 0 0 0 -.445 1.14.712.712 0 0 0 .056.584.834.834 0 0 0 .64.306 4.684 4.684 0 0 0 1.641-.417c.7-.25 1.5-.584 2.2-.834.584-.25 1.724-.7 2.475-.946a.3.3 0 0 1 .306 0 15.474 15.474 0 1 0 4.644-30.2zm-6.813 29.781c-.7.306-2.7 1.14-3.532 1.5-.195.083-.417-.056-.306-.222a23.839 23.839 0 0 0 1.279-3.2l.25-1.057a.453.453 0 0 0 -.139-.5 14.06 14.06 0 0 1 -5.061-10.845 14.637 14.637 0 0 1 14.267-14.512 14.294 14.294 0 1 1 -.112 28.587 13.189 13.189 0 0 1 -4.227-.641.409.409 0 0 0 -.361 0z" transform="translate(-8.247 -6.228)"/></g></svg>