<svg xmlns="http://www.w3.org/2000/svg" width="200" height="100" viewBox="0 0 200 100"><g transform="translate(-165 -290)"><rect width="200" height="100" transform="translate(165 290)" fill="none"/><g transform="translate(180 309.204)"><path d="M147.508,43.3h0a16.676,16.676,0,0,0-.169,33.351,12.354,12.354,0,0,0,10.316-4.837v2.807A10.08,10.08,0,0,1,147.643,84.7h-.067v6.6a16.675,16.675,0,0,0,16.675-16.642h0V59.975h0A16.709,16.709,0,0,0,147.508,43.3Zm0,26.011a9.268,9.268,0,1,1,.034,0Z" transform="translate(-86.624 -28.654)" fill="#fff"/><path d="M267.039,43.3A14.138,14.138,0,0,0,252.9,57.438V75.974h7.374V57.438a6.8,6.8,0,0,1,13.563,0V75.974h7.374V57.438A14.172,14.172,0,0,0,267.039,43.3Z" transform="translate(-167.359 -28.654)" fill="#fff"/><path d="M420.575,43.3h0A16.675,16.675,0,0,0,403.9,59.941h0a16.661,16.661,0,0,0,16.439,16.675,12.354,12.354,0,0,0,10.316-4.837v4.16h6.6V59.975A16.675,16.675,0,0,0,420.575,43.3Zm0,26.011a9.3,9.3,0,1,1,0-18.6h0a9.3,9.3,0,0,1,0,18.6Z" transform="translate(-267.284 -28.654)" fill="#fff"/><path d="M362,77.362h7.475V45.5H362Z" transform="translate(-239.557 -30.11)" fill="#fff"/><path d="M86.8,45.5V77.362h7.475V45.5Z" transform="translate(-57.441 -30.11)" fill="#fff"/><path d="M7.272,56.931V66a4.059,4.059,0,0,1-4.059,4.059H0v7.374H3.213A11.365,11.365,0,0,0,14.646,66.1V57.032A3.957,3.957,0,0,1,18.6,53.041h3.213V45.6H18.6A11.3,11.3,0,0,0,7.272,56.931Z" transform="translate(0 -30.176)" fill="#fff"/><rect width="170" height="62.676" fill="rgba(0,0,0,0)"/></g></g></svg>