<svg height="100" viewBox="0 0 200 100" width="200" xmlns="http://www.w3.org/2000/svg" xmlns:xlink="http://www.w3.org/1999/xlink"><clipPath id="a"><path d="m0 0h170v57.509h-170z"/></clipPath><path d="m0 0h200v100h-200z" fill="none"/><g clip-path="url(#a)" transform="translate(15 21)"><path d="m28.755 0a28.755 28.755 0 1 1 -28.755 28.755 28.755 28.755 0 0 1 28.755-28.755" fill="#f00"/><path d="m28.308 26.837v9.363a4.111 4.111 0 0 1 -4.113 4.1h-4.622v7.41h4.622a11.655 11.655 0 0 0 11.657-11.643v-9.228a4.108 4.108 0 0 1 4.1-4.072h4.618v-7.532h-4.622a11.64 11.64 0 0 0 -11.64 11.6" fill="#fff" transform="translate(-3.578 -2.785)"/><g fill="#4b4b4b"><path d="m125.906 23.357a9.991 9.991 0 0 0 -.15 19.98 7.411 7.411 0 0 0 6.184-2.909v1.694a6.041 6.041 0 0 1 -6.043 6.037l-.789-.007v3.958h.789a10 10 0 0 0 10-9.989v-8.776a9.99 9.99 0 0 0 -9.992-9.988m0 15.553a5.563 5.563 0 1 1 5.563-5.563 5.563 5.563 0 0 1 -5.563 5.563m23.216-15.55a8.448 8.448 0 0 1 8.448 8.448v11.092h-4.407v-11.1a4.041 4.041 0 0 0 -8.082 0v11.1h-4.407v-11.1a8.449 8.449 0 0 1 8.448-8.448m32.079 0a9.991 9.991 0 0 0 -.15 19.98 7.412 7.412 0 0 0 6.184-2.909v2.477h3.955v-9.554a9.99 9.99 0 0 0 -9.99-9.989m0 15.553a5.563 5.563 0 1 1 5.563-5.563 5.563 5.563 0 0 1 -5.562 5.563m-18.456-15.095h4.464v19.085h-4.464z" transform="translate(-21.191 -4.27)"/><path d="m0 0h4.464v19.089h-4.464z" transform="translate(86.281 19.545)"/><path d="m88.229 30.736v5.426a2.417 2.417 0 0 1 -2.418 2.409h-2.717v4.435h2.717a6.851 6.851 0 0 0 6.852-6.844v-5.425a2.414 2.414 0 0 1 2.407-2.394h2.717v-4.427h-2.716a6.843 6.843 0 0 0 -6.841 6.82" transform="translate(-15.191 -4.372)"/></g></g></svg>