<svg height="100" viewBox="0 0 200 100" width="200" xmlns="http://www.w3.org/2000/svg"><path d="m0 0h200v100h-200z" fill="none"/><g transform="translate(15 18.662)"><g fill="#6d6e71"><path d="m147.508 43.3a16.676 16.676 0 0 0 -.169 33.351 12.354 12.354 0 0 0 10.316-4.837v2.807a10.08 10.08 0 0 1 -10.012 10.079h-.067v6.6a16.675 16.675 0 0 0 16.675-16.642v-14.683a16.709 16.709 0 0 0 -16.743-16.675zm0 26.011a9.268 9.268 0 1 1 .034 0z" transform="translate(-86.624 -28.654)"/><path d="m267.038 43.3a14.138 14.138 0 0 0 -14.138 14.138v18.536h7.374v-18.536a6.8 6.8 0 0 1 13.563 0v18.536h7.374v-18.536a14.172 14.172 0 0 0 -14.173-14.138z" transform="translate(-167.359 -28.654)"/><path d="m420.575 43.3a16.675 16.675 0 0 0 -16.675 16.641 16.661 16.661 0 0 0 16.439 16.675 12.354 12.354 0 0 0 10.316-4.837v4.16h6.6v-15.964a16.675 16.675 0 0 0 -16.68-16.675zm0 26.011a9.3 9.3 0 1 1 0-18.6 9.3 9.3 0 1 1 0 18.6z" transform="translate(-267.284 -28.654)"/><path d="m362 77.362h7.475v-31.862h-7.475z" transform="translate(-239.557 -30.11)"/></g><path d="m86.8 45.5v31.862h7.475v-31.862z" fill="#da1a32" transform="translate(-57.441 -30.11)"/><path d="m7.272 56.931v9.069a4.059 4.059 0 0 1 -4.059 4.059h-3.213v7.374h3.213a11.365 11.365 0 0 0 11.433-11.333v-9.068a3.957 3.957 0 0 1 3.954-3.991h3.213v-7.441h-3.213a11.3 11.3 0 0 0 -11.328 11.331z" fill="#da1a32" transform="translate(0 -30.176)"/><path d="m0 0h170v62.676h-170z" fill="none"/></g></svg>