<svg xmlns="http://www.w3.org/2000/svg" width="200" height="100" viewBox="0 0 200 100"><g transform="translate(-165 -289.996)"><rect width="200" height="100" transform="translate(165 289.996)" fill="none"/><g transform="translate(0 -2.999)"><g transform="translate(180 313.996)"><path d="M-17625.348,16427.51a28.575,28.575,0,0,1-11.2-2.262,28.584,28.584,0,0,1-9.141-6.162,28.619,28.619,0,0,1-6.162-9.139,28.549,28.549,0,0,1-2.262-11.191,28.549,28.549,0,0,1,2.262-11.191,28.61,28.61,0,0,1,6.162-9.142,28.667,28.667,0,0,1,9.141-6.163,28.605,28.605,0,0,1,11.2-2.26,28.579,28.579,0,0,1,11.191,2.26,28.618,28.618,0,0,1,9.137,6.163,28.651,28.651,0,0,1,6.162,9.142,28.562,28.562,0,0,1,2.26,11.191,28.562,28.562,0,0,1-2.26,11.191,28.629,28.629,0,0,1-6.162,9.139,28.61,28.61,0,0,1-9.137,6.162A28.549,28.549,0,0,1-17625.348,16427.51Zm-12.766-20v7.41h4.627a11.66,11.66,0,0,0,11.656-11.639v-9.229a4.117,4.117,0,0,1,4.094-4.072h4.621v-7.532h-4.621a11.561,11.561,0,0,0-8.219,3.4,11.574,11.574,0,0,0-3.42,8.2v9.367a4.11,4.11,0,0,1-4.111,4.1h-4.627Z" transform="translate(17654.105 -16370)" fill="#fff"/><path d="M-17625.348,16428.01a29.067,29.067,0,0,1-11.391-2.3,29.089,29.089,0,0,1-9.3-6.27,29.113,29.113,0,0,1-6.27-9.3,29.041,29.041,0,0,1-2.3-11.387,29.041,29.041,0,0,1,2.3-11.387,29.115,29.115,0,0,1,6.27-9.3,29.188,29.188,0,0,1,9.3-6.271,29.114,29.114,0,0,1,11.391-2.3,29.088,29.088,0,0,1,11.387,2.3,29.122,29.122,0,0,1,9.295,6.271,29.157,29.157,0,0,1,6.27,9.3,29.067,29.067,0,0,1,2.3,11.387,29.067,29.067,0,0,1-2.3,11.387,29.122,29.122,0,0,1-6.27,9.3,29.115,29.115,0,0,1-9.295,6.27A29.041,29.041,0,0,1-17625.348,16428.01Zm0-57.51a28.086,28.086,0,0,0-11,2.221,28.152,28.152,0,0,0-8.982,6.056,28.063,28.063,0,0,0-6.055,8.983,28.044,28.044,0,0,0-2.223,11,28.044,28.044,0,0,0,2.223,11,28.083,28.083,0,0,0,6.055,8.98,28.069,28.069,0,0,0,8.982,6.055,28.07,28.07,0,0,0,11,2.223,28.044,28.044,0,0,0,11-2.223,28.116,28.116,0,0,0,8.979-6.055,28.124,28.124,0,0,0,6.055-8.98,28.035,28.035,0,0,0,2.221-11,28.035,28.035,0,0,0-2.221-11,28.126,28.126,0,0,0-6.055-8.983,28.108,28.108,0,0,0-8.979-6.056A28.074,28.074,0,0,0-17625.348,16370.5Zm-8.139,44.922h-5.127v-7.91h.5v-.5h4.627a3.608,3.608,0,0,0,3.611-3.6v-9.367a12.071,12.071,0,0,1,3.566-8.557,12.06,12.06,0,0,1,8.572-3.542h5.121v8.532h-5.121a3.615,3.615,0,0,0-3.594,3.576v9.225A12.161,12.161,0,0,1-17633.486,16415.422Zm-4.127-1h4.127a11.159,11.159,0,0,0,11.156-11.139v-9.229a4.617,4.617,0,0,1,4.594-4.572h4.121v-6.532h-4.121a11.065,11.065,0,0,0-7.865,3.249,11.079,11.079,0,0,0-3.273,7.852v9.365a4.61,4.61,0,0,1-4.611,4.6h-4.127Z" transform="translate(17654.105 -16370)" fill="rgba(0,0,0,0)"/><path d="M125.906,23.357h0a9.991,9.991,0,0,0-.15,19.98,7.411,7.411,0,0,0,6.184-2.909v1.694a6.041,6.041,0,0,1-6.043,6.037l-.789-.007v3.958h.789a10,10,0,0,0,10-9.989V33.345a9.99,9.99,0,0,0-9.992-9.988m0,15.553a5.563,5.563,0,1,1,5.563-5.563,5.563,5.563,0,0,1-5.563,5.563m23.216-15.55a8.448,8.448,0,0,1,8.448,8.448V42.9h-4.407v-11.1a4.041,4.041,0,0,0-8.082,0V42.9h-4.407v-11.1a8.449,8.449,0,0,1,8.448-8.448m32.079,0h0a9.991,9.991,0,0,0-.15,19.98,7.412,7.412,0,0,0,6.184-2.909V42.9h3.955V33.346a9.99,9.99,0,0,0-9.99-9.989m0,15.553a5.563,5.563,0,1,1,5.563-5.563A5.563,5.563,0,0,1,181.2,38.91M162.744,23.815h4.464V42.9h-4.464Z" transform="translate(-21.191 -4.27)" fill="#fff"/><rect width="4.464" height="19.089" transform="translate(86.281 19.545)" fill="#fff"/><path d="M88.229,30.736v5.426a2.417,2.417,0,0,1-2.418,2.409H83.094v4.435h2.717a6.851,6.851,0,0,0,6.852-6.844V30.737a2.414,2.414,0,0,1,2.407-2.394h2.717V23.916H95.071a6.843,6.843,0,0,0-6.841,6.82" transform="translate(-15.191 -4.372)" fill="#fff"/></g></g></g></svg>