<svg xmlns="http://www.w3.org/2000/svg" width="200" height="100" viewBox="0 0 200 100"><g transform="translate(-165.898 -290.699)"><rect width="200" height="100" transform="translate(165.898 290.699)" fill="none"/><g transform="translate(-72.664 -29.576)"><g transform="translate(-368.965 15.153)"><g transform="translate(623.028 326.622)"><path d="M702.394,350.391h22.123v6.9H702.409v16.821h23.56v6.921H694.63V327.04h30.615v6.737H702.394Z" transform="translate(-555.969 -326.23)" fill="#123e74"/><path d="M713.269,377.327a29.089,29.089,0,0,1-12,4.26,54.934,54.934,0,0,1-10.839.3,23.591,23.591,0,0,1-15.663-7.795,27.847,27.847,0,0,1-6.919-13.566,31.579,31.579,0,0,1-.153-10.816,25.387,25.387,0,0,1,4.667-11.617,26.346,26.346,0,0,1,17.28-11.035c6.939-1.189,13.509.167,19.933,2.674a20.063,20.063,0,0,1,3.2,1.627s-.085,6.16-.085,7.919c-2.062-1-3.9-1.975-5.8-2.808a26.936,26.936,0,0,0-15.432-2.2,18.944,18.944,0,0,0-15.128,12.272,21.4,21.4,0,0,0-1.166,11.67c1.276,7.795,5.556,13.014,12.925,15.688,3.726,1.354,7.583,1.239,11.462.7a35.577,35.577,0,0,0,13.68-5.5C713.232,369.683,713.269,376.425,713.269,377.327Z" transform="translate(-581.562 -326.622)" fill="#123e74"/><path d="M652.259,373.073c-.918,2.159-3.2,7.549-3.2,7.549s-5.535-.035-7.983-.035c.656-1.59,1.241-3.058,1.861-4.51,6.538-15.3,19.21-44.9,19.882-46.479.327-.765.839-1.909.839-1.909s4.226.054,6.95.054c4.156,9.266,7.938,17.772,12.067,27.05q5.583,12.54,11.158,25.086l.322.709c-2.126,0-7.8.035-7.8.035s-2.632-5.415-3.522-7.3q-.639-1.537-1.282-3.071c-4.8-10.676-9.6-21.352-14.476-32.2a7.9,7.9,0,0,0-.414.7q-4.331,10.295-8.651,20.593c-1.51,3.612-2.988,7.239-4.481,10.86Z" transform="translate(-606.126 -325.623)" fill="#123e74"/><path d="M630.737,374.108H655.1v7H623.028V327.04h7.709Z" transform="translate(-623.028 -326.23)" fill="#123e74"/></g><path d="M675.951,357.406c-.352.443-1.055,1.466-1.33,1.48s-1.689-1.813-2.777-3.011-1.747-1.046-2.458.211-1.551,3.317-1.876,2.68c-.273-.531-3.71-15.961-3.9-16.534a1.683,1.683,0,0,0-3.238,0c-.192.573-3.629,16-3.9,16.534-.325.637-1.164-1.423-1.877-2.68s-1.367-1.412-2.457-.211-2.456,3.017-2.777,3.011c-.36-.006-.846-1.073-1.2-1.518-.424,1.024-.862,1.925-1.286,2.949.174.132.275.347,1.148,1.081s2.742.794,4.067-1.129a7.578,7.578,0,0,1,.645-.823c.209-.229.385-.242.564.072.635,1.259,1.1,2.175,1.722,3.416a1.734,1.734,0,0,0,1.8,1.146,1.9,1.9,0,0,0,1.553-1.325c.718-2.268,1.268-4.594,1.818-6.912.56-2.357,1.8-8.1,1.8-8.1s1.245,5.74,1.8,8.1c.55,2.318,1.1,4.644,1.818,6.912a1.9,1.9,0,0,0,1.553,1.325,1.734,1.734,0,0,0,1.8-1.146c.62-1.241,1.086-2.157,1.722-3.416.178-.314.354-.3.564-.072a7.594,7.594,0,0,1,.645.823c1.324,1.923,3.2,1.863,4.067,1.129s1.067-.9,1.24-1.038C676.863,359.565,676.379,358.351,675.951,357.406Z" transform="translate(22.331 13.473)" fill="#91c04e"/></g></g></g></svg>