<svg xmlns="http://www.w3.org/2000/svg" width="200" height="100" viewBox="0 0 200 100"><g transform="translate(-164.897 -292.5)"><rect width="200" height="100" transform="translate(164.897 292.5)" fill="none"/><g transform="translate(-0.001 -7)"><path d="M-650.086,153.893H-810.174a3.556,3.556,0,0,1-3.548-3.558V100.542a3.556,3.556,0,0,1,3.548-3.558h160.088a3.558,3.558,0,0,1,3.554,3.548v49.8a3.558,3.558,0,0,1-3.554,3.558m0,1.405a4.965,4.965,0,0,0,4.959-4.959V100.546a4.965,4.965,0,0,0-4.959-4.967H-810.174a4.965,4.965,0,0,0-4.953,4.953v49.8a4.965,4.965,0,0,0,4.959,4.959Zm-132.292-36.783a11.683,11.683,0,0,0-.644,4.186c0,2.757.492,4.417,1.592,5.369s2.959,1.12,4.764,1.12a29.462,29.462,0,0,0,4.692-.414l.149-.02.018-1.921-.092.016a32.3,32.3,0,0,1-4.869.42c-1.658,0-2.755-.293-3.265-.865a4.125,4.125,0,0,1-.757-2.811c.526.014,3.564.1,5.242.1,1.534,0,4.216-.2,4.246-.2h.068v-.066c0-.012.066-1.171.066-1.606,0-2.128-.289-3.413-.97-4.277-.956-1.173-2.986-1.331-4.843-1.331-2.291-.006-4.532.273-5.4,2.3Zm5.558-.434c1.341,0,2.263.094,2.713.576s.665,1.5.685,3.13a66.314,66.314,0,0,1-7.33-.114c.139-2.9.339-3.592,3.933-3.592Zm10-5.554c-.819.8-1.2,2.042-1.2,3.921,0,2.08.53,3.3,1.719,3.965a10.917,10.917,0,0,0,4.491.773l.653.034c1.749.088,2.853.161,3.457.546.544.347.737.966.737,2.361,0,1.217-.247,1.891-.851,2.329a5.941,5.941,0,0,1-3.353.628c-2.638,0-6.479-.482-6.479-.482l-.012,2.152a57.224,57.224,0,0,0,6.517.434c2.678,0,4.239-.363,5.22-1.2s1.373-2.09,1.373-4.3c0-2.072-.548-3.355-1.725-4.048a9.72,9.72,0,0,0-4.216-.8l-1.648-.1-.325-.02c-2.311-.145-3.176-.2-3.176-2.247,0-1.167.112-1.942.683-2.45s1.723-.769,3.652-.769a55.984,55.984,0,0,1,5.885.4v-2.034h-.068c-.038,0-3.578-.428-5.9-.428-2.937-.008-4.417.355-5.431,1.339Zm16.317,4.969c-.887,1.026-1.066,2.753-1.066,5.2s.179,4.178,1.066,5.206c.92,1.064,2.544,1.283,4.7,1.283s3.775-.219,4.7-1.283c.885-1.028,1.064-2.755,1.064-5.206s-.179-4.178-1.064-5.2c-.922-1.064-2.544-1.285-4.7-1.285s-3.777.221-4.7,1.285Zm1.757,9.129c-.456-.6-.538-1.795-.538-3.925s.082-3.321.538-3.925,1.339-.695,2.939-.695,2.494.108,2.939.695.536,1.795.536,3.925-.082,3.325-.536,3.925-1.339.695-2.939.695S-748.305,127.214-748.749,126.628Zm20.684-10.258v10.5a13.929,13.929,0,0,1-3.212.428c-2.66,0-3.064-.412-3.064-3.14V116.37h-2.208v8.1c0,1.954.289,3.038,1,3.737s1.807.988,3.8.988a15.747,15.747,0,0,0,1.841-.167l.147-.018a3.358,3.358,0,0,0,.837-.279,4.748,4.748,0,0,0,.643-.329.605.605,0,0,1,.3-.141c.08,0,.1,0,.135.175,0,.018.084.578.084.578h1.913V116.372Zm10.445-.022-.251.024a4.552,4.552,0,0,0-1.114.442,3.071,3.071,0,0,1-.7.309c-.08,0-.1,0-.135-.177l-.088-.576h-1.877v12.639h2.209V118.5a17.838,17.838,0,0,1,3.4-.388c1.464,0,2.154.147,2.54.542s.522,1.09.522,2.572v7.812h2.209v-8.124c0-1.93-.3-3.044-1-3.724s-1.833-.974-3.815-.974c-.56,0-1.419.088-1.893.135Zm19.034-5.194s0,5.232.012,5.421a23.316,23.316,0,0,0-3.867-.353c-2.048,0-3.413.628-4.216,1.915a8.775,8.775,0,0,0-.877,4.574,9.364,9.364,0,0,0,.859,4.618c.757,1.259,2.068,1.869,4.016,1.869a12.976,12.976,0,0,0,2.008-.153l.245-.034a4.549,4.549,0,0,0,1-.4c.1-.04.219-.1.337-.159a2.694,2.694,0,0,1,.436-.189c.116,0,.135.018.161.175l.088.576h2.008V111.157Zm-6.023,15.259c-.456-.622-.632-1.664-.632-3.718s.179-3.1.641-3.73,1.2-.863,2.706-.863a24.913,24.913,0,0,1,3.323.271V126.8a14.463,14.463,0,0,1-3.315.468c-1.5,0-2.283-.247-2.725-.851Zm-94.84-15.259v17.855h2.333v-7.941h3.714c.046.066,5.337,7.941,5.337,7.941h2.861l-5.317-7.881s-.026-.058.048-.058a7.161,7.161,0,0,0,2.209-.438,3.566,3.566,0,0,0,1.45-.98,5,5,0,0,0,1.114-3.49c0-1.863-.4-3.094-1.249-3.873s-2.193-1.136-4.216-1.136Zm7.71,2.076c1.664,0,2.61.221,3.09.717a2.938,2.938,0,0,1,.566,2.184,2.872,2.872,0,0,1-.566,2.158c-.476.5-1.43.723-3.094.723h-5.369V113.23Zm-7.469,22.869h1.2a.291.291,0,0,1,.291.291v2.974a.291.291,0,0,1-.291.291h-1.2a.291.291,0,0,1-.291-.291v-2.974A.291.291,0,0,1-799.209,136.1Zm5.794,0h1.391a.305.305,0,0,1,.305.305v2.945a.305.305,0,0,1-.305.305h-1.391a.305.305,0,0,1-.305-.305V136.4A.305.305,0,0,1-793.415,136.1Zm5.794,0h1.584a.319.319,0,0,1,.319.319v2.917a.319.319,0,0,1-.319.319h-1.584a.319.319,0,0,1-.319-.319v-2.917A.319.319,0,0,1-787.62,136.1Zm5.794,0h1.779a.333.333,0,0,1,.333.333v2.889a.333.333,0,0,1-.333.333h-1.779a.333.333,0,0,1-.333-.333v-2.889A.334.334,0,0,1-781.826,136.1Zm5.794,0h1.974a.347.347,0,0,1,.347.347v2.861a.347.347,0,0,1-.347.347h-1.974a.347.347,0,0,1-.347-.347v-2.861A.347.347,0,0,1-776.031,136.1Zm5.8,0h2.168a.361.361,0,0,1,.361.361v2.833a.361.361,0,0,1-.361.361h-2.168a.361.361,0,0,1-.361-.361V136.46A.361.361,0,0,1-770.235,136.1Zm5.794,0h2.361a.376.376,0,0,1,.375.375v2.8a.375.375,0,0,1-.375.375h-2.361a.375.375,0,0,1-.375-.375v-2.8A.376.376,0,0,1-764.44,136.1Zm5.795,0h2.556a.389.389,0,0,1,.389.39v2.777a.389.389,0,0,1-.389.39h-2.556a.389.389,0,0,1-.39-.39v-2.777A.39.39,0,0,1-758.646,136.1Zm5.794,0h2.751a.4.4,0,0,1,.4.4v2.749a.4.4,0,0,1-.4.4h-2.751a.4.4,0,0,1-.4-.4V136.5A.4.4,0,0,1-752.851,136.1Zm5.794,0h2.945a.418.418,0,0,1,.418.418v2.721a.418.418,0,0,1-.418.418h-2.945a.418.418,0,0,1-.418-.418v-2.721A.418.418,0,0,1-747.057,136.1Zm5.809,0h3.124a.432.432,0,0,1,.432.432v2.692a.432.432,0,0,1-.432.432h-3.124a.432.432,0,0,1-.432-.432V136.53A.432.432,0,0,1-741.248,136.1Zm6.385,0h59.085a.787.787,0,0,1,.787.787v1.982a.787.787,0,0,1-.787.787h-59.085a.787.787,0,0,1-.787-.787v-1.982A.787.787,0,0,1-734.863,136.1Zm73.108-12.563a1.023,1.023,0,0,1-.727-.3l-8.194-8.192a.2.2,0,0,0-.282.028.2.2,0,0,0-.045.109v7.3a1.05,1.05,0,0,1-1,1.062,1.028,1.028,0,0,1-1.046-1.01c0-.006,0-.012,0-.018v-10.24a1.058,1.058,0,0,1,.478-.9,1.028,1.028,0,0,1,1.277.143l8.192,8.192a.2.2,0,0,0,.283-.024.2.2,0,0,0,.046-.112v-7.31a1.048,1.048,0,0,1,1-1.06,1.026,1.026,0,0,1,1.046,1.006c0,.007,0,.014,0,.02v10.24a1.056,1.056,0,0,1-.5.914,1.016,1.016,0,0,1-.526.151Zm-14.388-7.192h-3.042a1.05,1.05,0,0,0-1.064,1,1.026,1.026,0,0,0,1.008,1.044h1.825a.257.257,0,0,1,.257.257h0v2.568a.257.257,0,0,1-.257.257h-3.791a4.11,4.11,0,0,1-4.149-4.071,4.111,4.111,0,0,1,4.071-4.149h5.1a1.05,1.05,0,0,0,1.064-1,1.026,1.026,0,0,0-1.008-1.044h-5.056a6.225,6.225,0,0,0-6.25,5.871,6.17,6.17,0,0,0,5.874,6.452q.142.007.284.007h5.134a1.032,1.032,0,0,0,1.032-1.03v-5.132a1.03,1.03,0,0,0-1.03-1.03Z" transform="translate(995.023 223.921)" fill="#fff"/></g></g></svg>