<svg xmlns="http://www.w3.org/2000/svg" width="200" height="100" viewBox="0 0 200 100"><g transform="translate(-165.396 -290.5)"><rect width="200" height="100" transform="translate(165.396 290.5)" fill="none"/><g transform="translate(-0.104 -2.471)"><g transform="translate(265 342.404)"><g transform="translate(-85 -28.933)"><path d="M166.386,57.866H3.614A3.614,3.614,0,0,1,0,54.252V3.614A3.614,3.614,0,0,1,3.614,0H166.386A3.614,3.614,0,0,1,170,3.614V54.252a3.614,3.614,0,0,1-3.614,3.614" transform="translate(0 0)" fill="#aa1835"/><path d="M117.561,101.159c1.363,0,2.3.092,2.756.582s.674,1.516.7,3.185a67.025,67.025,0,0,1-7.457-.122C113.7,101.848,113.9,101.159,117.561,101.159Zm-5.65.429a11.815,11.815,0,0,0-.658,4.257c0,2.8.505,4.487,1.623,5.467s3,1.133,4.839,1.133a30.335,30.335,0,0,0,4.762-.413h.153v-1.975h-.092a32.876,32.876,0,0,1-4.946.429c-1.684,0-2.8-.291-3.323-.873a4.769,4.769,0,0,1-.766-2.863c.536.015,3.629.107,5.329.107s4.288-.2,4.318-.2h.077v-.077c0-.015.061-1.194.061-1.623,0-2.159-.291-3.461-.98-4.349-.965-1.194-3.032-1.348-4.931-1.348-2.328,0-4.609.291-5.5,2.343M127.7,95.509Zm0,0c-.827.812-1.225,2.083-1.225,3.981s.536,3.353,1.746,4.027,2.71.7,4.563.781l.658.031c1.776.092,2.894.168,3.507.551s.75.98.75,2.4-.245,1.929-.873,2.373a5.819,5.819,0,0,1-3.353.658c-2.68,0-6.584-.49-6.584-.49V112a58.2,58.2,0,0,0,6.63.444c2.726,0,4.3-.368,5.3-1.24s1.393-2.128,1.393-4.364-.551-3.415-1.746-4.119-2.557-.72-4.272-.812l-1.684-.107h-.337c-2.343-.153-3.231-.2-3.231-2.282,0-1.179.107-1.975.689-2.5s1.746-.781,3.721-.781a57,57,0,0,1,5.987.413V94.575h-.077c-.031,0-3.644-.429-5.987-.429-3,0-4.5.368-5.528,1.378m18.375,14.333c-.459-.613-.551-1.822-.551-4s.092-3.384.551-4,1.363-.7,2.986-.7,2.542.107,2.986.7.551,1.822.551,4-.077,3.384-.551,4-1.363.7-2.986.7S146.563,110.454,146.119,109.857Zm-1.792-9.279c-.9,1.041-1.087,2.8-1.087,5.3s.184,4.257,1.087,5.3,2.588,1.3,4.778,1.3,3.843-.214,4.778-1.3,1.087-2.8,1.087-5.3-.184-4.242-1.087-5.3-2.588-1.3-4.778-1.3-3.843.23-4.778,1.3m22.816-1.148V110.1a14.149,14.149,0,0,1-3.277.429c-2.71,0-3.108-.413-3.108-3.2V99.413h-2.266v8.238c0,1.991.291,3.093,1.011,3.8s1.838,1.011,3.859,1.011a16.323,16.323,0,0,0,1.868-.168h.153a3.384,3.384,0,0,0,.857-.291,4.593,4.593,0,0,0,.658-.337.6.6,0,0,1,.306-.138c.077,0,.107,0,.138.184h0c0,.015.092.582.092.582h1.945V99.413h-2.251m10.627-.031-.26.031a4.994,4.994,0,0,0-1.133.444,3.154,3.154,0,0,1-.7.322c-.077,0-.107,0-.138-.184l-.092-.582h-1.914v12.847h2.236V101.573a18.314,18.314,0,0,1,3.461-.4c1.485,0,2.19.153,2.588.551s.536,1.1.536,2.618v7.947h2.251v-8.269c0-1.96-.306-3.093-1.011-3.782s-1.868-1-3.874-1c-.582,0-1.455.092-1.929.138M191,109.627c-.459-.628-.643-1.7-.643-3.782s.184-3.154.658-3.8,1.24-.873,2.756-.873a25.435,25.435,0,0,1,3.384.276v8.575a14.67,14.67,0,0,1-3.384.459c-1.516,0-2.312-.245-2.756-.873ZM197.125,94.1s.015,5.313.015,5.5a23.628,23.628,0,0,0-3.935-.352c-2.082,0-3.476.643-4.288,1.945a8.975,8.975,0,0,0-.888,4.655,9.6,9.6,0,0,0,.873,4.7c.766,1.286,2.1,1.9,4.088,1.9a13.291,13.291,0,0,0,2.037-.153l.245-.031a3.941,3.941,0,0,0,1.011-.413l.337-.153a2.634,2.634,0,0,1,.444-.2c.122,0,.138.015.168.184l.092.582h2.037V94.1h-2.251m-94.723,2.113c1.684,0,2.664.23,3.139.735h0a2.972,2.972,0,0,1,.582,2.22,2.877,2.877,0,0,1-.582,2.19c-.536.521-1.455.735-3.139.735H96.919v-5.88ZM94.546,94.1v18.161h2.373v-8.07H100.7l5.421,8.07h2.909l-5.405-8.008s-.031-.061.046-.061a7.258,7.258,0,0,0,2.251-.444,3.629,3.629,0,0,0,1.47-1,5.054,5.054,0,0,0,1.133-3.553c0-1.9-.4-3.139-1.271-3.935s-2.236-1.148-4.3-1.148Zm11.347,2.5h0m-9.877,26.491H94.791a.291.291,0,0,1-.291-.291v-3.032a.291.291,0,0,1,.291-.291H96a.291.291,0,0,1,.291.291v3.017a.291.291,0,0,1-.291.291m6.094,0h-1.409a.306.306,0,0,1-.306-.306v-2.986a.306.306,0,0,1,.306-.306H102.1a.306.306,0,0,1,.306.306v3a.306.306,0,0,1-.306.306m6.094,0h-1.608a.322.322,0,0,1-.322-.322v-2.971a.322.322,0,0,1,.322-.322h1.608a.322.322,0,0,1,.322.322v2.971a.322.322,0,0,1-.322.322m6.094,0h-1.807a.337.337,0,0,1-.337-.337v-2.94a.337.337,0,0,1,.337-.337h1.807a.337.337,0,0,1,.337.337v2.94a.337.337,0,0,1-.337.337m6.094,0h-2.021a.352.352,0,0,1-.352-.352v-2.909a.352.352,0,0,1,.352-.352h2.006a.352.352,0,0,1,.352.352v2.909a.352.352,0,0,1-.352.352m6.094,0h-2.205a.368.368,0,0,1-.368-.368V119.84a.368.368,0,0,1,.368-.368h2.205a.368.368,0,0,1,.367.368v2.879a.368.368,0,0,1-.367.368m6.094,0h-2.4a.383.383,0,0,1-.383-.383v-2.848a.383.383,0,0,1,.383-.383h2.4a.383.383,0,0,1,.383.383V122.7a.383.383,0,0,1-.383.383m6.094,0h-2.6a.4.4,0,0,1-.4-.4v-2.818a.4.4,0,0,1,.4-.4h2.6a.4.4,0,0,1,.4.4v2.818a.4.4,0,0,1-.4.4m6.094,0h-2.818a.413.413,0,0,1-.413-.413v-2.787a.413.413,0,0,1,.413-.413h2.8a.413.413,0,0,1,.413.413v2.8a.413.413,0,0,1-.413.413m6.094,0h-3a.429.429,0,0,1-.429-.429v-2.787a.429.429,0,0,1,.429-.429h3a.429.429,0,0,1,.429.429v2.772a.429.429,0,0,1-.429.429m6.094,0h-3.185a.444.444,0,0,1-.444-.444V119.9a.444.444,0,0,1,.444-.444h3.17a.444.444,0,0,1,.444.444v2.741a.444.444,0,0,1-.444.444m63.394,0H160.221a.8.8,0,0,1-.8-.8v-2.021a.8.8,0,0,1,.8-.8h60.071a.8.8,0,0,1,.8.8v2.021a.8.8,0,0,1-.8.8M234.549,106.7a1.041,1.041,0,0,1-.735-.306l-8.33-8.33a.2.2,0,0,0-.337.138v7.411a1.072,1.072,0,0,1-1.026,1.072,1.041,1.041,0,0,1-1.072-1.041V95.233a1.072,1.072,0,0,1,.49-.919,1.041,1.041,0,0,1,1.3.138l8.33,8.33a.2.2,0,0,0,.337-.138V95.233a1.072,1.072,0,0,1,1.026-1.072,1.041,1.041,0,0,1,1.072,1.041v10.413a1.072,1.072,0,0,1-.505.934,1.041,1.041,0,0,1-.536.153M219.94,99.383h-3.108a1.072,1.072,0,0,0-1.087,1.026,1.041,1.041,0,0,0,1.041,1.057h1.822a.26.26,0,0,1,.26.26v2.618a.26.26,0,0,1-.26.26H214.78a4.173,4.173,0,1,1-.092-8.345h5.191a1.072,1.072,0,0,0,1.087-1.026,1.041,1.041,0,0,0-1.041-1.057H214.8a6.271,6.271,0,1,0-.092,12.541h5.222a1.041,1.041,0,0,0,1.041-1.041v-5.252a1.041,1.041,0,0,0-1.041-1.041" transform="translate(-80.03 -79.691)" fill="#fff"/></g></g></g></g></svg>