<svg xmlns="http://www.w3.org/2000/svg" width="200" height="100" viewBox="0 0 200 100"><g transform="translate(-164.002 -290.502)"><rect width="200" height="100" transform="translate(164.002 290.502)" fill="none"/><g transform="translate(3.502 -3.814)"><g transform="translate(174.688 320.317)"><path d="M2314.23,15.924a6.5,6.5,0,1,0-6.5-6.5A6.51,6.51,0,0,0,2314.23,15.924Zm0-5.254a1.243,1.243,0,1,0-1.243-1.243A1.245,1.245,0,0,0,2314.23,10.669Zm-1.007,3.36c-1.422-.567-.372-1.741-.05-1.566,4.528.912,5.958-5.314,1.144-6.091-1.023-.11-1.221-1.415.4-1.554C2321.225,5.906,2319.584,14.913,2313.223,14.03Z" transform="translate(-2149.916 -2.73)" fill="#cc2229" fill-rule="evenodd"/><path d="M2.631,27.037,6.64.31h5.431L10.53,10.489a11.348,11.348,0,0,1,2.522-1.363,6.957,6.957,0,0,1,2.422-.443,5.947,5.947,0,0,1,4.83,2.269,9.031,9.031,0,0,1,1.855,5.906c0,3.545-1.114,6.25-3.336,8.135S13.392,27.811,9.2,27.811a28.109,28.109,0,0,1-3.229-.192A32.568,32.568,0,0,1,2.631,27.037Zm5.884-3.545q.161,0,.42.019c.174.014.3.02.381.02a8.12,8.12,0,0,0,5.444-1.647,5.738,5.738,0,0,0,1.928-4.616,4.828,4.828,0,0,0-.814-2.97,2.6,2.6,0,0,0-2.195-1.078,4.027,4.027,0,0,0-1.975.523,7.114,7.114,0,0,0-1.9,1.607L8.515,23.492ZM40.26,26.323a13.919,13.919,0,0,1-3.249,1.111,17.388,17.388,0,0,1-3.656.377,8.992,8.992,0,0,1-6.592-2.395A8.733,8.733,0,0,1,24.327,18.9,10.022,10.022,0,0,1,27.142,11.5a10.028,10.028,0,0,1,7.426-2.818,7.58,7.58,0,0,1,5.765,2.13,8.425,8.425,0,0,1,2.035,6.045c0,.324-.007.655-.027,1s-.052.68-.093,1.018l-12.289.02c0,.067-.007.159-.02.291s-.02.212-.02.251A3.807,3.807,0,0,0,31.1,22.454a5.038,5.038,0,0,0,3.429,1.039,10.5,10.5,0,0,0,2.9-.476,26.842,26.842,0,0,0,3.823-1.5l-.993,4.808ZM30.719,15.714h6.291v-.37a3.155,3.155,0,0,0-.674-2.176,2.517,2.517,0,0,0-1.962-.747,3.227,3.227,0,0,0-2.248.833,5.292,5.292,0,0,0-1.408,2.461ZM44.483,27.421,47.258,9.054h5.357l-.353,2.54A14.244,14.244,0,0,1,54.73,9.266a3.377,3.377,0,0,1,1.848-.582,4.616,4.616,0,0,1,1.581.311,8.59,8.59,0,0,1,1.781.933l-2.6,5.6a6.59,6.59,0,0,0-1.368-1.171,2.306,2.306,0,0,0-1.187-.377,2.735,2.735,0,0,0-1.635.628A7.62,7.62,0,0,0,51.5,16.475L49.86,27.421Zm15.852,0L63.091,9.054h5.337L68.094,11.1a12.012,12.012,0,0,1,3.042-1.832,8.512,8.512,0,0,1,3.136-.589,4.975,4.975,0,0,1,3.7,1.35,4.976,4.976,0,0,1,1.341,3.684c0,.364-.013.714-.04,1.058q-.039.491-.113.979L77.4,27.421H71.95l1.682-11.1c.047-.351.087-.668.114-.952s.04-.509.04-.675a2.248,2.248,0,0,0-.44-1.455,1.416,1.416,0,0,0-1.161-.542,4.578,4.578,0,0,0-2.282.695,10.563,10.563,0,0,0-2.429,2.057l-1.8,11.978H60.335ZM94.028,22.15l1.274-8.7c-.12-.013-.253-.026-.4-.033s-.374-.007-.674-.007a7.042,7.042,0,0,0-5.144,1.858,6.706,6.706,0,0,0-1.895,5,3.744,3.744,0,0,0,.734,2.441A2.426,2.426,0,0,0,89.9,23.6a6.092,6.092,0,0,0,2.022-.357A8.914,8.914,0,0,0,94.028,22.15Zm-.8,5.271.2-1.435a10.789,10.789,0,0,1-2.6,1.356,7.722,7.722,0,0,1-2.528.43,5.842,5.842,0,0,1-4.69-2.043A8.25,8.25,0,0,1,81.871,20.2a10.989,10.989,0,0,1,.948-4.564,10.006,10.006,0,0,1,2.729-3.618,11.324,11.324,0,0,1,4.483-2.282,35.376,35.376,0,0,1,8.24-.681h3.049L98.6,27.421H93.227Zm9.381,8.135L105.931,13.3h-3.77l.647-4.246h3.769a12.044,12.044,0,0,1,2.935-6.726A7.716,7.716,0,0,1,115.338,0a11.7,11.7,0,0,1,2,.192,20.86,20.86,0,0,1,2.4.6l-.587,4.438a17.9,17.9,0,0,0-1.741-.456,7.026,7.026,0,0,0-1.388-.146,3.49,3.49,0,0,0-2.7,1.085,6.525,6.525,0,0,0-1.388,3.34h3.93l-.647,4.246h-3.89L107.965,35.6Zm12.9-16.581a9.89,9.89,0,0,1,3.022-7.374,10.33,10.33,0,0,1,7.532-2.956,8.47,8.47,0,0,1,6.245,2.4,8.367,8.367,0,0,1,2.415,6.184,10.34,10.34,0,0,1-10.575,10.582,8.415,8.415,0,0,1-6.305-2.395,8.834,8.834,0,0,1-2.335-6.441Zm10.2-5.913a4.056,4.056,0,0,0-3.282,1.753,6.786,6.786,0,0,0-1.367,4.312,4.822,4.822,0,0,0,.94,3.135,3.088,3.088,0,0,0,2.535,1.151,3.966,3.966,0,0,0,3.249-1.733,6.852,6.852,0,0,0,1.328-4.292,4.892,4.892,0,0,0-.941-3.142,2.984,2.984,0,0,0-2.462-1.184Zm10.682,14.359,2.755-18.367h5.337l-.333,2.051a12.019,12.019,0,0,1,3.042-1.832,8.512,8.512,0,0,1,3.136-.589,4.976,4.976,0,0,1,3.7,1.35,4.978,4.978,0,0,1,1.341,3.684c0,.364-.014.714-.04,1.058q-.039.491-.113.979l-1.761,11.667H148l1.681-11.1c.047-.351.087-.668.113-.952s.04-.509.04-.675a2.244,2.244,0,0,0-.441-1.455,1.415,1.415,0,0,0-1.161-.542,4.581,4.581,0,0,0-2.282.695,10.546,10.546,0,0,0-2.428,2.057l-1.8,11.978ZM.812,47.327l1.633-8.243h1.6L2.419,47.327ZM5.1,41.357H6.548l-.149.776a3.989,3.989,0,0,1,1.013-.707,2.417,2.417,0,0,1,.994-.211,1.45,1.45,0,0,1,1.1.422,1.559,1.559,0,0,1,.4,1.119,7.3,7.3,0,0,1-.176,1.191l-.665,3.38H7.537l.67-3.391a7.678,7.678,0,0,0,.149-.9.664.664,0,0,0-.172-.487.646.646,0,0,0-.481-.177,1.314,1.314,0,0,0-.745.3,2.059,2.059,0,0,0-.645.787,7.164,7.164,0,0,0-.383,1.424l-.483,2.451H3.92Zm6.657,0H13.2l-.149.776a3.989,3.989,0,0,1,1.013-.707,2.417,2.417,0,0,1,.994-.211,1.451,1.451,0,0,1,1.1.422,1.561,1.561,0,0,1,.4,1.119,7.3,7.3,0,0,1-.176,1.191l-.665,3.38H14.194l.67-3.391a7.678,7.678,0,0,0,.149-.9.665.665,0,0,0-.172-.487.646.646,0,0,0-.481-.177,1.312,1.312,0,0,0-.744.3,2.062,2.062,0,0,0-.645.787,7.213,7.213,0,0,0-.383,1.424L12.1,47.327H10.576Zm5.678,3.491a3.81,3.81,0,0,1,.886-2.644,2.98,2.98,0,0,1,2.328-.988,2.586,2.586,0,0,1,1.953.729,2.7,2.7,0,0,1,.7,1.959,3.79,3.79,0,0,1-.879,2.506,3.139,3.139,0,0,1-3.767.72,2.148,2.148,0,0,1-.921-.955,2.971,2.971,0,0,1-.3-1.327Zm4.354-1.153a1.3,1.3,0,0,0-.318-.919,1.055,1.055,0,0,0-.815-.345,1.321,1.321,0,0,0-.879.324,2.094,2.094,0,0,0-.6.939,3.5,3.5,0,0,0-.213,1.133,1.493,1.493,0,0,0,.331,1.019,1.059,1.059,0,0,0,.83.376,1.278,1.278,0,0,0,1.053-.568,3.163,3.163,0,0,0,.607-1.958Zm4.906,3.633H25.379l-1.133-5.971h1.5l.4,2.6q.166,1.056.2,1.407c.028-.065.151-.307.369-.73q.2-.384.4-.762l1.406-2.518h1.649Zm5.391-4.28-1.491-.134a2.365,2.365,0,0,1,.892-1.248,2.865,2.865,0,0,1,1.684-.451,2.375,2.375,0,0,1,1.613.464,1.455,1.455,0,0,1,.522,1.132,3.828,3.828,0,0,1-.045.574q-.044.3-.316,1.6a8.644,8.644,0,0,0-.223,1.5,3.233,3.233,0,0,0,.127.848H33.361a3.264,3.264,0,0,1-.113-.676,2.34,2.34,0,0,1-.77.6,1.987,1.987,0,0,1-.879.212,1.526,1.526,0,0,1-1.161-.486,1.759,1.759,0,0,1-.455-1.252,1.869,1.869,0,0,1,.5-1.367,2.834,2.834,0,0,1,1.8-.618,6.753,6.753,0,0,0,1.458-.23,2.126,2.126,0,0,0,.1-.541.556.556,0,0,0-.2-.432.852.852,0,0,0-.585-.175,1.065,1.065,0,0,0-.646.177.879.879,0,0,0-.322.5Zm1.453,1.5a3.515,3.515,0,0,1-.369.073,3.357,3.357,0,0,0-1.5.428.662.662,0,0,0-.248.545.649.649,0,0,0,.191.474.672.672,0,0,0,.5.194,1.271,1.271,0,0,0,.652-.177,1.159,1.159,0,0,0,.458-.455,3.229,3.229,0,0,0,.269-.87l.043-.213Zm2.835-1.99.234-1.2h.744l.187-.956,1.751-1.113-.411,2.069h.932l-.234,1.2h-.937l-.494,2.5c-.089.455-.133.712-.133.777a.379.379,0,0,0,.111.29.6.6,0,0,0,.4.1c.067,0,.236-.013.5-.04l-.24,1.2a3.752,3.752,0,0,1-.808.085,1.74,1.74,0,0,1-1.177-.329,1.167,1.167,0,0,1-.367-.913,8.831,8.831,0,0,1,.2-1.27l.472-2.4h-.739Zm4.875-3.471h1.528l-.289,1.462H40.96l.287-1.462ZM40.8,41.356h1.526l-1.181,5.971H39.618L40.8,41.356Zm4.672,5.971H44.157l-1.133-5.971h1.5l.4,2.6q.166,1.056.2,1.407c.027-.065.151-.307.369-.73s.353-.676.4-.762L47.3,41.356h1.649l-3.475,5.971Zm8.738-2.486H50.378q0,.073-.006.146a1.4,1.4,0,0,0,.322.962,1.013,1.013,0,0,0,.786.366,1.307,1.307,0,0,0,1.186-.833l1.367.242a2.985,2.985,0,0,1-1.068,1.307,2.67,2.67,0,0,1-1.5.436,2.422,2.422,0,0,1-1.853-.762A2.831,2.831,0,0,1,48.9,44.69a3.817,3.817,0,0,1,.643-2.182,2.849,2.849,0,0,1,2.506-1.294,2.112,2.112,0,0,1,1.649.677,2.732,2.732,0,0,1,.612,1.9,4.714,4.714,0,0,1-.105,1.051Zm-1.288-.984c0-.071,0-.125,0-.163a1.5,1.5,0,0,0-.281-.994.941.941,0,0,0-.756-.332,1.165,1.165,0,0,0-.848.376,2.062,2.062,0,0,0-.509,1.113Zm10.264-.214H60.169l-.729,3.683H57.834l1.632-8.243h1.6l-.628,3.182h3.017l.634-3.182h1.6l-1.629,8.243H62.457l.729-3.683Zm7.983,1.2H67.336q0,.073-.006.146a1.4,1.4,0,0,0,.322.962,1.014,1.014,0,0,0,.786.366,1.307,1.307,0,0,0,1.186-.833l1.367.242a2.986,2.986,0,0,1-1.068,1.307,2.672,2.672,0,0,1-1.5.436,2.421,2.421,0,0,1-1.853-.762,2.832,2.832,0,0,1-.712-2.015,3.82,3.82,0,0,1,.643-2.182,2.849,2.849,0,0,1,2.506-1.294,2.112,2.112,0,0,1,1.649.677,2.73,2.73,0,0,1,.612,1.9,4.713,4.713,0,0,1-.105,1.051Zm-1.288-.984c0-.071,0-.125,0-.163A1.5,1.5,0,0,0,69.6,42.7a.941.941,0,0,0-.756-.332,1.165,1.165,0,0,0-.848.376,2.061,2.061,0,0,0-.509,1.113Zm4-.81-1.491-.134a2.367,2.367,0,0,1,.892-1.248,2.864,2.864,0,0,1,1.684-.451,2.375,2.375,0,0,1,1.613.464,1.455,1.455,0,0,1,.521,1.132,3.824,3.824,0,0,1-.045.574q-.044.3-.316,1.6a8.617,8.617,0,0,0-.223,1.5,3.219,3.219,0,0,0,.127.848H75.159a3.287,3.287,0,0,1-.113-.675,2.339,2.339,0,0,1-.77.6,1.988,1.988,0,0,1-.879.212,1.525,1.525,0,0,1-1.161-.486,1.759,1.759,0,0,1-.456-1.252,1.869,1.869,0,0,1,.5-1.366,2.833,2.833,0,0,1,1.8-.618,6.756,6.756,0,0,0,1.458-.23,2.141,2.141,0,0,0,.1-.541.556.556,0,0,0-.2-.432.852.852,0,0,0-.585-.175,1.067,1.067,0,0,0-.646.177.881.881,0,0,0-.322.5Zm1.453,1.5a3.51,3.51,0,0,1-.368.073,3.355,3.355,0,0,0-1.5.428.662.662,0,0,0-.248.545.649.649,0,0,0,.191.474.672.672,0,0,0,.5.194,1.272,1.272,0,0,0,.652-.177,1.161,1.161,0,0,0,.458-.455,3.222,3.222,0,0,0,.269-.87l.043-.213Zm3.55-3.188H80.31l-.229,1.157q.8-1.3,1.729-1.3a1.725,1.725,0,0,1,.708.174l-.587,1.322a1.2,1.2,0,0,0-.441-.078,1.312,1.312,0,0,0-.8.315,2.09,2.09,0,0,0-.636.841,8.675,8.675,0,0,0-.452,1.666l-.373,1.873H77.7l1.183-5.971Zm4.773-2.273h1.527L84.9,40.546H83.37Zm-.447,2.273h1.526l-1.181,5.97H82.028l1.182-5.97Zm3.048,0h1.448l-.149.776a3.989,3.989,0,0,1,1.013-.707,2.417,2.417,0,0,1,.994-.211,1.45,1.45,0,0,1,1.1.422,1.558,1.558,0,0,1,.4,1.119,7.3,7.3,0,0,1-.176,1.191l-.665,3.38H88.7l.67-3.391a7.64,7.64,0,0,0,.148-.9.665.665,0,0,0-.172-.487.646.646,0,0,0-.481-.177,1.313,1.313,0,0,0-.745.3,2.061,2.061,0,0,0-.645.787,7.169,7.169,0,0,0-.383,1.424l-.483,2.451H85.078l1.181-5.97Zm5.374,6.286,1.613.247a.774.774,0,0,0,.08.391.634.634,0,0,0,.258.225,1.065,1.065,0,0,0,.487.092,1.35,1.35,0,0,0,.777-.2,1.116,1.116,0,0,0,.356-.507,6.648,6.648,0,0,0,.217-.955l.055-.282a2.465,2.465,0,0,1-1.64.7,1.721,1.721,0,0,1-1.363-.62,2.706,2.706,0,0,1-.532-1.81,5.042,5.042,0,0,1,.362-1.929,2.9,2.9,0,0,1,1.017-1.326,2.337,2.337,0,0,1,1.335-.451,1.819,1.819,0,0,1,1.034.315,2.094,2.094,0,0,1,.728.883l.213-1.055H98.06l-.979,4.975q-.239,1.2-.4,1.709a3.14,3.14,0,0,1-.378.816,1.87,1.87,0,0,1-.537.509,2.261,2.261,0,0,1-.767.3,4.816,4.816,0,0,1-.957.09,3.139,3.139,0,0,1-1.811-.433,1.641,1.641,0,0,1-.61-1.44,1.749,1.749,0,0,1,.014-.236Zm1.8-2.885a1.621,1.621,0,0,0,.289,1.038.9.9,0,0,0,.727.357,1.182,1.182,0,0,0,.774-.321,2.011,2.011,0,0,0,.576-.912,3.562,3.562,0,0,0,.2-1.142,1.545,1.545,0,0,0-.325-1.023.958.958,0,0,0-.75-.388,1.05,1.05,0,0,0-.754.343,2.559,2.559,0,0,0-.567,1.056,3.437,3.437,0,0,0-.169.991Zm8.22-.1,1.528-.084a1.865,1.865,0,0,0,.249,1.04,1.589,1.589,0,0,0,1.3.44,1.759,1.759,0,0,0,1.139-.3.916.916,0,0,0,.352-.72.8.8,0,0,0-.289-.62,5.508,5.508,0,0,0-1.11-.6,10.359,10.359,0,0,1-1.324-.695,2,2,0,0,1-.658-.722,2.161,2.161,0,0,1-.24-1.04,2.3,2.3,0,0,1,.714-1.727,2.864,2.864,0,0,1,2.065-.685,3.059,3.059,0,0,1,2.125.679,2.578,2.578,0,0,1,.828,1.812l-1.538.073a1.361,1.361,0,0,0-.4-.906,1.472,1.472,0,0,0-1.021-.315,1.445,1.445,0,0,0-.95.247.789.789,0,0,0-.285.624.745.745,0,0,0,.262.585,5.24,5.24,0,0,0,1.153.647,6.316,6.316,0,0,1,1.714.994,1.988,1.988,0,0,1,.549,1.445,2.471,2.471,0,0,1-.817,1.864,3.176,3.176,0,0,1-2.276.774,3.953,3.953,0,0,1-1.742-.357,2.115,2.115,0,0,1-1.04-.992,3.174,3.174,0,0,1-.282-1.463Zm7.236.192a3.808,3.808,0,0,1,.886-2.644,2.979,2.979,0,0,1,2.328-.988,2.586,2.586,0,0,1,1.952.729,2.7,2.7,0,0,1,.7,1.959,3.788,3.788,0,0,1-.879,2.506,3.139,3.139,0,0,1-3.767.72,2.152,2.152,0,0,1-.921-.955,2.984,2.984,0,0,1-.3-1.327Zm4.354-1.153a1.307,1.307,0,0,0-.318-.919,1.057,1.057,0,0,0-.816-.345,1.321,1.321,0,0,0-.879.324,2.088,2.088,0,0,0-.6.939,3.5,3.5,0,0,0-.213,1.133,1.5,1.5,0,0,0,.33,1.019,1.061,1.061,0,0,0,.83.376,1.276,1.276,0,0,0,1.053-.568,3.159,3.159,0,0,0,.607-1.958Zm2.069,3.633,1.634-8.243h1.522l-1.629,8.243Zm4.21-5.971h1.527l-.7,3.535a5.888,5.888,0,0,0-.129.794.616.616,0,0,0,.181.443.624.624,0,0,0,.463.186,1.065,1.065,0,0,0,.4-.082,1.668,1.668,0,0,0,.4-.248,2.094,2.094,0,0,0,.372-.378,2.409,2.409,0,0,0,.309-.562,5.377,5.377,0,0,0,.218-.845l.564-2.844h1.528l-1.182,5.971h-1.426l.159-.81a2.827,2.827,0,0,1-2.038.95,1.435,1.435,0,0,1-1.095-.42,1.572,1.572,0,0,1-.4-1.131,8.129,8.129,0,0,1,.18-1.232l.661-3.328Zm5.868,1.2.234-1.2h.745l.187-.956,1.75-1.113-.41,2.069h.932l-.234,1.2h-.937l-.494,2.5c-.089.455-.133.712-.133.777a.379.379,0,0,0,.111.29.6.6,0,0,0,.405.1c.067,0,.237-.013.5-.04l-.24,1.2a3.749,3.749,0,0,1-.808.085,1.737,1.737,0,0,1-1.177-.329,1.166,1.166,0,0,1-.367-.913,8.821,8.821,0,0,1,.2-1.27l.473-2.4h-.739Zm4.875-3.471h1.527l-.289,1.462h-1.526Zm-.447,2.273h1.526l-1.18,5.971h-1.528l1.182-5.971Zm2.069,3.491a3.808,3.808,0,0,1,.886-2.644,2.979,2.979,0,0,1,2.328-.988,2.585,2.585,0,0,1,1.952.729,2.7,2.7,0,0,1,.7,1.959,3.79,3.79,0,0,1-.879,2.506,3.139,3.139,0,0,1-3.767.72,2.151,2.151,0,0,1-.921-.955,2.984,2.984,0,0,1-.3-1.327Zm4.353-1.153a1.306,1.306,0,0,0-.318-.919,1.057,1.057,0,0,0-.816-.345,1.321,1.321,0,0,0-.879.324,2.094,2.094,0,0,0-.6.939,3.517,3.517,0,0,0-.213,1.133,1.5,1.5,0,0,0,.331,1.019,1.06,1.06,0,0,0,.83.376,1.277,1.277,0,0,0,1.053-.568,3.159,3.159,0,0,0,.607-1.958Zm3.282-2.338h1.448l-.149.776a3.994,3.994,0,0,1,1.013-.707,2.417,2.417,0,0,1,.994-.211,1.451,1.451,0,0,1,1.1.422,1.561,1.561,0,0,1,.4,1.119,7.305,7.305,0,0,1-.176,1.192l-.665,3.38H141.96l.67-3.391a7.68,7.68,0,0,0,.149-.9.666.666,0,0,0-.172-.487.647.647,0,0,0-.482-.177,1.311,1.311,0,0,0-.744.3,2.06,2.06,0,0,0-.645.787,7.169,7.169,0,0,0-.383,1.424l-.483,2.451h-1.528l1.181-5.971Zm5.258,4.3,1.478-.247a1.514,1.514,0,0,0,.491.7,1.368,1.368,0,0,0,.8.206,1.308,1.308,0,0,0,.835-.247.507.507,0,0,0,.218-.411.429.429,0,0,0-.111-.292,1.89,1.89,0,0,0-.634-.305,6.629,6.629,0,0,1-1.712-.764,1.428,1.428,0,0,1-.516-1.147,1.683,1.683,0,0,1,.5-1.22,2.771,2.771,0,0,1,2.071-.714,2.72,2.72,0,0,1,1.649.422,1.853,1.853,0,0,1,.708,1.142l-1.411.259a.9.9,0,0,0-.361-.489,1.481,1.481,0,0,0-.819-.221,1.12,1.12,0,0,0-.69.169.491.491,0,0,0-.209.39.436.436,0,0,0,.212.37,4.81,4.81,0,0,0,.857.315,4.386,4.386,0,0,1,1.495.676,1.446,1.446,0,0,1,.532,1.123,1.945,1.945,0,0,1-.676,1.474,2.7,2.7,0,0,1-1.906.624,3.232,3.232,0,0,1-1.892-.474,2.36,2.36,0,0,1-.906-1.337Z" fill-rule="evenodd"/></g></g></g></svg>