<?xml version="1.0" encoding="UTF-8"?>
<svg width="29px" height="24px" viewBox="0 0 29 24" version="1.1" xmlns="http://www.w3.org/2000/svg" xmlns:xlink="http://www.w3.org/1999/xlink">
    <!-- Generator: Sketch 51.2 (57519) - http://www.bohemiancoding.com/sketch -->
    <title>check</title>
    <desc>Created with Sketch.</desc>
    <defs></defs>
    <g id="Page-1" stroke="none" stroke-width="1" fill="none" fill-rule="evenodd">
        <g id="AD-Web-Starter" transform="translate(-807.000000, -433.000000)">
            <g id="check" transform="translate(807.000000, 428.000000)">
                <circle id="Oval" fill="#1AA4D3" fill-rule="nonzero" cx="11" cy="18" r="11"></circle>
                <path d="M26.640571,5.53129642 C26.7499458,5.38546315 26.895779,5.31254694 27.07807,5.31254694 C27.2603609,5.31254694 27.4061942,5.38546315 27.5155689,5.53129642 L28.1718174,6.13285748 C28.2811921,6.27869075 28.3358795,6.44275286 28.3358795,6.62504381 C28.3358795,6.80733476 28.2811921,6.95316803 28.1718174,7.06254277 L11.7656065,23.4687537 C11.6197732,23.6145869 11.464826,23.6875031 11.3007638,23.6875031 C11.1367017,23.6875031 10.9817545,23.6145869 10.8359212,23.4687537 L4.32812422,16.9609567 C4.21874948,16.8515819 4.16406211,16.7057487 4.16406211,16.5234577 C4.16406211,16.3411668 4.21874948,16.1771046 4.32812422,16.0312714 L4.98437265,15.4297103 C5.09374739,15.2838771 5.23958066,15.2109608 5.42187161,15.2109608 C5.60416256,15.2109608 5.74999583,15.2838771 5.85937057,15.4297103 L11.2734202,20.8437599 L26.640571,5.53129642 Z" fill="#1B2A39" fill-rule="evenodd"></path>
            </g>
        </g>
    </g>
</svg>