<svg xmlns="http://www.w3.org/2000/svg" width="200" height="100" viewBox="0 0 200 100"><g transform="translate(-165.499 -291.499)"><rect width="200" height="100" transform="translate(165.499 291.499)" fill="none"/><g transform="translate(3.001 -5.818)"><g transform="translate(146.135 273.267)"><g transform="translate(30.863 50.55)"><path d="M42.154,74.225c.4,4.9,5.235,7.219,10.758,7.2a33.495,33.495,0,0,0,10.5-1.59l1.582,8.008A37.524,37.524,0,0,1,51.228,90.3c-12.913.041-20.328-7.483-20.365-19.386-.03-9.646,5.927-20.323,19.151-20.365C62.306,50.511,67,60.065,67.033,69.478a28.062,28.062,0,0,1-.374,4.67Zm13.9-8.135c-.009-2.879-1.269-7.7-6.714-7.681-4.979.016-6.988,4.534-7.289,7.725Z" transform="translate(-30.863 -50.55)" fill="#e22e3a"/><g transform="translate(36.909 0.719)"><path d="M108.159,80.611a23.117,23.117,0,0,0,10.2,2.847c3.578-.011,5.053-1.261,5.047-3.206s-1.177-2.875-5.616-4.339c-7.865-2.62-10.913-6.889-10.849-11.324-.023-7.157,6.028-12.544,15.442-12.574a25.521,25.521,0,0,1,10.744,2.144l-2.076,8.174a18.681,18.681,0,0,0-8.253-2.152c-2.879.009-4.508,1.182-4.5,3.126.006,1.788,1.487,2.718,6.16,4.336,7.243,2.468,10.288,6.114,10.382,11.715.023,7.079-5.562,12.387-16.452,12.422a26.874,26.874,0,0,1-12.3-2.684Z" transform="translate(-106.085 -52.015)" fill="#e22e3a"/></g><g transform="translate(67.426 0.121)"><path d="M191.927,50.8c-5.523.018-9.872,2.131-12.661,6.186h-.157l-.561-5.291-10.267.033c.168,3.5.334,7.778.35,12.757l.138,43.755L180.6,108.2l-.069-21.972h.157c1.719,2.486,5.3,4.343,9.892,4.328,8.481-.026,17.25-6.592,17.206-20.438C207.743,57.981,200.254,50.769,191.927,50.8Zm-4.259,30.665a6.877,6.877,0,0,1-3.893-1.176,3.4,3.4,0,0,1-1.088-2.451c.167-1.9,4.168-3.123,2.6-6.228-1.32-2.627-4.508-2.407-4.433-6.136a7.376,7.376,0,0,1,6.9-5.4c5.292-.017,8.029,4.566,8.048,10.633C195.825,77.158,192.8,81.445,187.668,81.461Z" transform="translate(-168.282 -50.796)" fill="#e22e3a"/></g><path d="M200.564,79.108s8.344,5.572,3.2,12.049a6.491,6.491,0,0,0,4.154-2.788,8.33,8.33,0,0,0-.893-10.142A4.187,4.187,0,0,0,200.564,79.108Z" transform="translate(-117.298 -64.051)" fill="#1a1818"/></g><g transform="translate(142.426 51.164)"><path d="M259.27,60.987l-.026-8.175,6.167-.02.005,1.6-4.38.014.005,1.658,3.854-.012,0,1.6-3.854.012.005,1.717,4.439-.014,0,1.6Z" transform="translate(-258.75 -52.306)" fill="#030504"/><path d="M274.412,60.59l-.027-8.526,1.775-.005.027,8.526Z" transform="translate(-266.462 -51.932)" fill="#030504"/><path d="M286.352,60.268,282,60.281A1.452,1.452,0,0,0,283.53,61.5a2.05,2.05,0,0,0,1.516-.648l1.02.9A3.307,3.307,0,0,1,280.23,59.7V59.68a3.117,3.117,0,0,1,3.085-3.269c2.09-.007,3.053,1.614,3.059,3.389v.023C286.375,60,286.363,60.1,286.352,60.268Zm-3.033-2.432a1.4,1.4,0,0,0-1.351,1.336l2.675-.008A1.343,1.343,0,0,0,283.319,57.836Z" transform="translate(-269.439 -54.149)" fill="#030504"/><path d="M297.5,62.883a3.2,3.2,0,0,1-3.269-3.225v-.024a3.214,3.214,0,0,1,3.272-3.269,3.079,3.079,0,0,1,2.5,1.043l-1.083,1.171a1.829,1.829,0,0,0-1.427-.684,1.6,1.6,0,0,0-1.513,1.71v.024a1.6,1.6,0,0,0,1.594,1.724,1.981,1.981,0,0,0,1.434-.67l1.043,1.048A3.152,3.152,0,0,1,297.5,62.883Z" transform="translate(-276.569 -54.126)" fill="#030504"/><path d="M309.491,61.273c-1.086,0-1.824-.427-1.828-1.875l-.009-2.967-.747,0,0-1.519.747,0,0-1.6,1.775-.005,0,1.6,1.472,0,0,1.519-1.471,0,.008,2.674c0,.409.177.607.574.605a1.806,1.806,0,0,0,.875-.224l0,1.425A2.617,2.617,0,0,1,309.491,61.273Z" transform="translate(-283.023 -52.569)" fill="#030504"/><path d="M320.8,58.145c-1.18,0-1.9.719-1.9,2.213l.007,2.312-1.775.006-.02-6.26,1.775-.005,0,1.261a1.934,1.934,0,0,1,1.993-1.385l.006,1.857Z" transform="translate(-288.226 -54.085)" fill="#030504"/><path d="M328.9,62.783a3.254,3.254,0,0,1-3.386-3.225v-.023a3.39,3.39,0,0,1,6.774-.045v.024A3.286,3.286,0,0,1,328.9,62.783Zm1.636-3.264a1.663,1.663,0,0,0-1.652-1.723,1.6,1.6,0,0,0-1.618,1.71v.023a1.664,1.664,0,0,0,1.653,1.724,1.6,1.6,0,0,0,1.618-1.71Z" transform="translate(-292.505 -54.075)" fill="#030504"/><path d="M345.309,62.591,345.3,59.1c0-.841-.4-1.272-1.078-1.27s-1.108.436-1.105,1.277l.011,3.493-1.775.005-.02-6.26,1.775-.005,0,.888a2.216,2.216,0,0,1,1.831-1.01,2.052,2.052,0,0,1,2.132,2.317l.013,4.053Z" transform="translate(-300.559 -54.049)" fill="#030504"/><path d="M355.63,53.384l0-1.577,1.869-.006,0,1.577Zm.069,6.949-.02-6.26,1.776-.006.02,6.26Z" transform="translate(-307.84 -51.801)" fill="#030504"/><path d="M364.834,62.67a3.2,3.2,0,0,1-3.269-3.225v-.024a3.214,3.214,0,0,1,3.271-3.269,3.078,3.078,0,0,1,2.5,1.043l-1.082,1.172a1.833,1.833,0,0,0-1.427-.685,1.6,1.6,0,0,0-1.513,1.71v.024a1.6,1.6,0,0,0,1.594,1.724,1.984,1.984,0,0,0,1.435-.67l1.043,1.048A3.156,3.156,0,0,1,364.834,62.67Z" transform="translate(-310.866 -54.018)" fill="#030504"/><path d="M261.71,89.557a5.2,5.2,0,0,1-3.473-1.3l1.059-1.276a3.75,3.75,0,0,0,2.444.985c.736,0,1.179-.3,1.177-.774v-.024c0-.455-.283-.688-1.65-1.034-1.648-.415-2.712-.867-2.717-2.491v-.023c0-1.483,1.183-2.469,2.853-2.474a4.733,4.733,0,0,1,3.04,1.03l-.93,1.358a3.836,3.836,0,0,0-2.128-.8c-.689,0-1.05.319-1.049.716v.024c0,.537.352.711,1.767,1.069,1.66.426,2.6,1.02,2.6,2.444v.024C264.708,88.637,263.473,89.552,261.71,89.557Z" transform="translate(-258.237 -66.749)" fill="#030504"/><path d="M277.581,89.153l-.011-3.492c0-.841-.4-1.272-1.078-1.27s-1.108.436-1.106,1.277l.011,3.492-1.776.005L273.6,80.64l1.775-.006.01,3.153a2.215,2.215,0,0,1,1.831-1.01,2.053,2.053,0,0,1,2.133,2.317l.013,4.053Z" transform="translate(-266.059 -66.487)" fill="#030504"/><path d="M290.634,91.477a3.254,3.254,0,0,1-3.385-3.225v-.023a3.39,3.39,0,0,1,6.774-.045v.024A3.286,3.286,0,0,1,290.634,91.477Zm1.637-3.264a1.663,1.663,0,0,0-1.652-1.723A1.6,1.6,0,0,0,289,88.2v.024a1.664,1.664,0,0,0,1.653,1.723,1.6,1.6,0,0,0,1.618-1.71Z" transform="translate(-273.014 -68.69)" fill="#030504"/><path d="M305.849,91.429a3.253,3.253,0,0,1-3.385-3.224v-.024a3.39,3.39,0,0,1,6.774-.045v.024A3.285,3.285,0,0,1,305.849,91.429Zm1.637-3.264a1.663,1.663,0,0,0-1.652-1.723,1.6,1.6,0,0,0-1.618,1.71v.023a1.663,1.663,0,0,0,1.652,1.724,1.6,1.6,0,0,0,1.618-1.71Z" transform="translate(-280.763 -68.666)" fill="#030504"/><path d="M319.938,89.813c-1.086,0-1.823-.426-1.828-1.875l-.009-2.967-.748,0,0-1.518.747,0,0-1.6,1.775-.005,0,1.6,1.472,0,0,1.518-1.471,0,.008,2.675c0,.409.177.607.574.605a1.807,1.807,0,0,0,.875-.225l0,1.425A2.616,2.616,0,0,1,319.938,89.813Z" transform="translate(-288.345 -67.105)" fill="#030504"/><path d="M332.728,88.694l-4.356.014a1.452,1.452,0,0,0,1.534,1.221,2.051,2.051,0,0,0,1.516-.647l1.02.9a3.307,3.307,0,0,1-5.835-2.049v-.023a3.117,3.117,0,0,1,3.085-3.268c2.09-.006,3.053,1.613,3.059,3.389v.023C332.752,88.425,332.74,88.53,332.728,88.694ZM329.7,86.262a1.4,1.4,0,0,0-1.351,1.336l2.675-.008A1.344,1.344,0,0,0,329.7,86.262Z" transform="translate(-293.06 -68.628)" fill="#030504"/><path d="M344.89,86.642c-1.18,0-1.9.718-1.9,2.213L343,91.168l-1.775.006-.02-6.26,1.775-.006,0,1.261a1.933,1.933,0,0,1,1.993-1.384l.005,1.857Z" transform="translate(-300.496 -68.6)" fill="#030504"/><path d="M352.287,91.286a4.387,4.387,0,0,1-2.689-.937l.756-1.17a3.538,3.538,0,0,0,1.976.741c.514,0,.747-.189.746-.47v-.024c0-.385-.609-.512-1.3-.72-.877-.254-1.87-.66-1.874-1.875v-.024a2.046,2.046,0,0,1,2.283-1.992,4.336,4.336,0,0,1,2.339.717l-.674,1.228a3.712,3.712,0,0,0-1.7-.578c-.432,0-.654.189-.653.434v.024c0,.35.6.512,1.275.744.877.289,1.894.707,1.9,1.851v.024C354.68,90.648,353.643,91.281,352.287,91.286Z" transform="translate(-304.771 -68.617)" fill="#030504"/><path d="M262.608,115.679l-1.366,0,.008,2.453-1.8.006-.026-8.176,3.34-.011c1.95-.006,3.133,1.147,3.139,2.816v.024C265.91,114.687,264.441,115.673,262.608,115.679Zm1.474-2.866c0-.806-.564-1.236-1.464-1.234l-1.39,0,.008,2.5,1.425,0a1.266,1.266,0,0,0,1.421-1.243Z" transform="translate(-258.842 -81.421)" fill="#030504"/><path d="M278.05,115.426c-1.18,0-1.9.719-1.9,2.214l.007,2.312-1.775.006-.02-6.26,1.775-.006,0,1.261a1.935,1.935,0,0,1,1.993-1.385l.006,1.857Z" transform="translate(-266.452 -83.26)" fill="#030504"/><path d="M286.154,120.064a3.253,3.253,0,0,1-3.385-3.225v-.023a3.286,3.286,0,0,1,3.388-3.27,3.253,3.253,0,0,1,3.385,3.225v.024A3.285,3.285,0,0,1,286.154,120.064Zm1.636-3.264a1.663,1.663,0,0,0-1.652-1.723,1.6,1.6,0,0,0-1.618,1.71v.024a1.664,1.664,0,0,0,1.653,1.724,1.6,1.6,0,0,0,1.618-1.71Z" transform="translate(-270.732 -83.251)" fill="#030504"/><path d="M300.243,118.448c-1.086,0-1.824-.426-1.828-1.875l-.009-2.967-.747,0,0-1.518.747,0,0-1.6,1.775-.006,0,1.6,1.471,0,0,1.519-1.471,0,.008,2.674c0,.409.177.607.574.605a1.8,1.8,0,0,0,.875-.225l0,1.425A2.617,2.617,0,0,1,300.243,118.448Z" transform="translate(-278.313 -81.69)" fill="#030504"/><path d="M313.033,117.33l-4.357.013a1.453,1.453,0,0,0,1.534,1.222,2.052,2.052,0,0,0,1.517-.648l1.019.9a3.307,3.307,0,0,1-5.834-2.049v-.024A3.116,3.116,0,0,1,310,113.473c2.09-.007,3.053,1.614,3.059,3.389v.024C313.056,117.061,313.044,117.166,313.033,117.33ZM310,114.9a1.4,1.4,0,0,0-1.35,1.336l2.675-.009A1.343,1.343,0,0,0,310,114.9Z" transform="translate(-283.029 -83.213)" fill="#030504"/><path d="M324.18,119.944a3.2,3.2,0,0,1-3.269-3.225V116.7a3.214,3.214,0,0,1,3.272-3.269,3.079,3.079,0,0,1,2.5,1.044l-1.082,1.171a1.829,1.829,0,0,0-1.427-.684,1.6,1.6,0,0,0-1.513,1.71v.024a1.6,1.6,0,0,0,1.594,1.724,1.985,1.985,0,0,0,1.435-.67l1.043,1.048A3.151,3.151,0,0,1,324.18,119.944Z" transform="translate(-290.159 -83.189)" fill="#030504"/><path d="M336.172,118.335c-1.086,0-1.823-.427-1.828-1.875l-.009-2.967-.748,0,0-1.519.747,0,0-1.6,1.775-.006,0,1.6,1.471,0,0,1.519-1.471,0,.008,2.675c0,.409.177.606.574.605a1.812,1.812,0,0,0,.875-.225l0,1.425A2.616,2.616,0,0,1,336.172,118.335Z" transform="translate(-296.614 -81.632)" fill="#030504"/><path d="M343.858,110.566l0-1.577,1.868-.006.005,1.577Zm.069,6.949-.02-6.26,1.775,0,.02,6.26Z" transform="translate(-301.845 -80.926)" fill="#030504"/><path d="M353.179,119.852a3.254,3.254,0,0,1-3.386-3.225V116.6a3.39,3.39,0,0,1,6.774-.045v.024A3.287,3.287,0,0,1,353.179,119.852Zm1.636-3.263a1.663,1.663,0,0,0-1.652-1.724,1.6,1.6,0,0,0-1.618,1.71v.024a1.664,1.664,0,0,0,1.653,1.724,1.6,1.6,0,0,0,1.618-1.71Z" transform="translate(-304.87 -83.143)" fill="#030504"/><path d="M369.585,119.66l-.011-3.492c0-.841-.4-1.272-1.078-1.27s-1.108.436-1.106,1.277l.011,3.492-1.776.005-.02-6.26,1.776-.005,0,.888a2.216,2.216,0,0,1,1.831-1.01,2.053,2.053,0,0,1,2.133,2.318l.013,4.053Z" transform="translate(-312.924 -83.117)" fill="#030504"/></g></g></g></g></svg>