<svg xmlns="http://www.w3.org/2000/svg" width="200" height="100" viewBox="0 0 200 100"><g transform="translate(-165 -290)"><rect width="200" height="100" transform="translate(165 290)" fill="none"/><g transform="translate(0 -14.818)"><g transform="translate(265 354.818)"><g transform="translate(-85 -16.771)"><path d="M54.2,32.823h6.4V10.715h.152l9.605,22.108h9.148V.5H72.8l.152,21.955H72.8L63.5.5H54.2Z" transform="translate(28.437 0.262)" fill="#35342f"/><path d="M83.52.5h9l10.673,32.323H95.108l-1.982-6.861H82.758l-2.135,6.861H73Zm4.422,6.709h0L84.283,19.863H91.3Z" transform="translate(38.3 0.262)" fill="#35342f"/><path d="M94.9,32.823h7.318V18.186h.152l8.538,14.637h9.3L109.232,15.594,119.447.5H110.6l-8.233,13.112h-.152V.5H94.9Z" transform="translate(49.791 0.262)" fill="#35342f"/><path d="M0,.5H8.843c8.386,0,12.35,3.354,12.35,10.673S17.076,21.54,10.215,21.54h-2.9V32.823H0ZM7.318,15.442h1.83c2.592,0,4.574-1.067,4.574-4.422S11.74,6.6,9.148,6.6H7.318Z" transform="translate(0 0.262)" fill="#35342f"/><path d="M45.02,0A13.874,13.874,0,0,0,34.5,5.031l3.354,7.623a7.623,7.623,0,0,1,6.709-5.031c3.964,0,7.318,3.964,7.318,8.233s-3.354,9.3-7.318,9.3H43.038L46.7,33.543C54.168,32.628,59.5,25.767,59.5,16.466S52.491,0,45.02,0" transform="translate(18.101)" fill="#35342f"/><path d="M40.661,21.422A6.861,6.861,0,1,0,33.8,14.561a7.013,7.013,0,0,0,6.861,6.861" transform="translate(17.734 4.04)" fill="#86bc24"/><path d="M16.6,32.823h7.318V18.948h8.691V32.823h7.318V.5H32.609V12.85H23.918V.5H16.6Z" transform="translate(8.709 0.262)" fill="#35342f"/></g></g></g></g></svg>