<svg xmlns="http://www.w3.org/2000/svg" width="200" height="100" viewBox="0 0 200 100"><g transform="translate(-165 -290)"><rect width="200" height="100" transform="translate(165 290)" fill="none"/><g transform="translate(0 -15.273)"><g transform="translate(180.104 338.502)"><g transform="translate(0)"><path d="M54.2,32.825h6.395V10.716h.152l9.592,22.109h9.136V.5h-6.7l.152,21.956h-.152L63.488.5H54.2Z" transform="translate(28.456 0.261)" fill="#fff"/><path d="M83.506.5h8.983l10.658,32.325h-8.07L93.1,25.963H82.745l-2.132,6.861H73Zm4.416,6.709h0L84.267,19.864h7Z" transform="translate(38.333 0.261)" fill="#fff"/><path d="M94.9,32.825h7.308V18.187h.152l8.526,14.638h9.288l-10.963-17.23L119.414.5h-8.831l-8.222,13.113h-.152V.5H94.9Z" transform="translate(49.825 0.261)" fill="#fff"/><path d="M0,.5H8.831c8.374,0,12.333,3.354,12.333,10.673S17.053,21.541,10.2,21.541H7.308V32.825H0ZM7.308,15.442H9.136c2.588,0,4.568-1.067,4.568-4.422S11.724,6.6,9.136,6.6H7.308Z" transform="translate(0 0.261)" fill="#fff"/><path d="M45.006,0A13.848,13.848,0,0,0,34.5,5.031l3.35,7.623a7.614,7.614,0,0,1,6.7-5.031c3.959,0,7.308,3.964,7.308,8.233s-3.35,9.3-7.308,9.3H43.026l3.654,8.386c7.461-.915,12.79-7.776,12.79-17.076S52.467,0,45.006,0" transform="translate(18.113)" fill="#fff"/><path d="M40.652,21.4A6.852,6.852,0,1,0,33.8,14.552,7,7,0,0,0,40.652,21.4" transform="translate(17.74 4.051)" fill="#fff"/><path d="M16.6,32.825h7.308V18.949h8.679V32.825H39.9V.5H32.587V12.85H23.908V.5H16.6Z" transform="translate(8.675 0.261)" fill="#fff"/></g></g></g></g></svg>